999
"DXF R12 Output" (www.mydxf.blogspot.com)
 0 
SECTION
 2 
HEADER
 9 
$ACADVER
 1 
AC1009
 9 
$EXTMIN
 10 
 0 
 20 
 0 
 9 
$EXTMAX
 10 
 8.5 
 20 
 11 
 0 
ENDSEC
 0 
SECTION
 2 
ENTITIES
0
LINE
8
Layer 1
10
99.652377
20
211.527449
11
98.356094
21
211.020552
0
LINE
8
Layer 1
10
98.356094
20
211.020552
11
97.231261
21
210.426077
0
LINE
8
Layer 1
10
97.231261
20
210.426077
11
96.446445
21
209.635146
0
LINE
8
Layer 1
10
96.446445
20
209.635146
11
95.082220
21
207.941704
0
LINE
8
Layer 1
10
95.082220
20
207.941704
11
90.859341
21
202.189592
0
LINE
8
Layer 1
10
90.859341
20
202.189592
11
85.050217
21
193.854352
0
LINE
8
Layer 1
10
85.050217
20
193.854352
11
78.142444
21
183.620593
0
LINE
8
Layer 1
10
78.142444
20
183.620593
11
69.757225
21
170.794109
0
LINE
8
Layer 1
10
69.757225
20
170.794109
11
62.003600
21
158.459452
0
LINE
8
Layer 1
10
62.003600
20
158.459452
11
55.021037
21
146.843205
0
LINE
8
Layer 1
10
55.021037
20
146.843205
11
48.949006
21
136.171952
0
LINE
8
Layer 1
10
48.949006
20
136.171952
11
46.910655
21
132.467783
0
LINE
8
Layer 1
10
46.910655
20
132.467783
11
45.147117
21
129.281492
0
LINE
8
Layer 1
10
45.147117
20
129.281492
11
40.961616
21
121.429040
0
LINE
8
Layer 1
10
40.961616
20
121.429040
11
35.925148
21
111.397676
0
LINE
8
Layer 1
10
35.925148
20
111.397676
11
30.584673
21
100.300967
0
LINE
8
Layer 1
10
30.584673
20
100.300967
11
25.487152
21
89.252478
0
LINE
8
Layer 1
10
25.487152
20
89.252478
11
22.224529
21
81.616422
0
LINE
8
Layer 1
10
22.224529
20
81.616422
11
18.538837
21
72.495523
0
LINE
8
Layer 1
10
18.538837
20
72.495523
11
15.703207
21
65.263574
0
LINE
8
Layer 1
10
15.703207
20
65.263574
11
12.714406
21
57.080271
0
LINE
8
Layer 1
10
12.714406
20
57.080271
11
9.211122
21
46.626048
0
LINE
8
Layer 1
10
9.211122
20
46.626048
11
5.820418
21
35.833290
0
LINE
8
Layer 1
10
5.820418
20
35.833290
11
3.169358
21
26.634383
0
LINE
8
Layer 1
10
3.169358
20
26.634383
11
0.791016
21
17.208111
0
LINE
8
Layer 1
10
0.791016
20
17.208111
11
0.559605
21
15.303843
0
LINE
8
Layer 1
10
0.559605
20
15.303843
11
0.725664
21
14.028920
0
LINE
8
Layer 1
10
0.725664
20
14.028920
11
1.364358
21
12.222255
0
LINE
8
Layer 1
10
1.364358
20
12.222255
11
2.350648
21
10.702664
0
LINE
8
Layer 1
10
2.350648
20
10.702664
11
3.694787
21
9.458107
0
LINE
8
Layer 1
10
3.694787
20
9.458107
11
5.407028
21
8.476547
0
LINE
8
Layer 1
10
5.407028
20
8.476547
11
8.316906
21
7.333107
0
LINE
8
Layer 1
10
8.316906
20
7.333107
11
11.773012
21
6.271634
0
LINE
8
Layer 1
10
11.773012
20
6.271634
11
15.761684
21
5.294556
0
LINE
8
Layer 1
10
15.761684
20
5.294556
11
20.269257
21
4.404298
0
LINE
8
Layer 1
10
20.269257
20
4.404298
11
25.282069
21
3.603287
0
LINE
8
Layer 1
10
25.282069
20
3.603287
11
30.786457
21
2.893950
0
LINE
8
Layer 1
10
30.786457
20
2.893950
11
43.215305
21
1.760006
0
LINE
8
Layer 1
10
43.215305
20
1.760006
11
50.185653
21
1.418771
0
LINE
8
Layer 1
10
50.185653
20
1.418771
11
58.788646
21
1.175894
0
LINE
8
Layer 1
10
58.788646
20
1.175894
11
66.453095
21
1.084227
0
LINE
8
Layer 1
10
66.453095
20
1.084227
11
70.607811
21
1.196620
0
LINE
8
Layer 1
10
70.607811
20
1.196620
11
72.390641
21
1.700795
0
LINE
8
Layer 1
10
72.390641
20
1.700795
11
73.999242
21
2.614876
0
LINE
8
Layer 1
10
73.999242
20
2.614876
11
75.341938
21
3.871460
0
LINE
8
Layer 1
10
75.341938
20
3.871460
11
76.327048
21
5.403145
0
LINE
8
Layer 1
10
76.327048
20
5.403145
11
76.783008
21
6.581561
0
LINE
8
Layer 1
10
76.783008
20
6.581561
11
77.135748
21
8.106086
0
LINE
8
Layer 1
10
77.135748
20
8.106086
11
77.778024
21
13.581597
0
LINE
8
Layer 1
10
77.778024
20
13.581597
11
79.366980
21
27.028524
0
LINE
8
Layer 1
10
79.366980
20
27.028524
11
80.304681
21
33.349358
0
LINE
8
Layer 1
10
80.304681
20
33.349358
11
81.134001
21
37.923279
0
LINE
8
Layer 1
10
81.134001
20
37.923279
11
82.009596
21
42.333004
0
LINE
8
Layer 1
10
82.009596
20
42.333004
11
83.780894
21
50.623287
0
LINE
8
Layer 1
10
83.780894
20
50.623287
11
85.898621
21
59.266348
0
LINE
8
Layer 1
10
85.898621
20
59.266348
11
86.959777
21
63.146906
0
LINE
8
Layer 1
10
86.959777
20
63.146906
11
89.373837
21
71.481022
0
LINE
8
Layer 1
10
89.373837
20
71.481022
11
90.230128
21
73.912048
0
LINE
8
Layer 1
10
90.230128
20
73.912048
11
90.724271
21
74.788580
0
LINE
8
Layer 1
10
90.724271
20
74.788580
11
91.307415
21
74.429071
0
LINE
8
Layer 1
10
91.307415
20
74.429071
11
92.405650
21
73.450598
0
LINE
8
Layer 1
10
92.405650
20
73.450598
11
95.580304
21
70.237082
0
LINE
8
Layer 1
10
95.580304
20
70.237082
11
99.114065
21
66.348681
0
LINE
8
Layer 1
10
99.114065
20
66.348681
11
101.872761
21
62.986039
0
LINE
8
Layer 1
10
101.872761
20
62.986039
11
104.592737
21
59.081409
0
LINE
8
Layer 1
10
104.592737
20
59.081409
11
107.201997
21
54.890859
0
LINE
8
Layer 1
10
107.201997
20
54.890859
11
109.689474
21
50.437669
0
LINE
8
Layer 1
10
109.689474
20
50.437669
11
112.044101
21
45.745117
0
LINE
8
Layer 1
10
112.044101
20
45.745117
11
114.254811
21
40.836483
0
LINE
8
Layer 1
10
114.254811
20
40.836483
11
116.310537
21
35.735047
0
LINE
8
Layer 1
10
116.310537
20
35.735047
11
118.200213
21
30.464087
0
LINE
8
Layer 1
10
118.200213
20
30.464087
11
119.912770
21
25.046882
0
LINE
8
Layer 1
10
119.912770
20
25.046882
11
121.339051
21
20.284379
0
LINE
8
Layer 1
10
121.339051
20
20.284379
11
122.218659
21
16.830947
0
LINE
8
Layer 1
10
122.218659
20
16.830947
11
123.658920
21
10.297234
0
LINE
8
Layer 1
10
123.658920
20
10.297234
11
124.488257
21
7.072358
0
LINE
8
Layer 1
10
124.488257
20
7.072358
11
125.287696
21
4.921955
0
LINE
8
Layer 1
10
125.287696
20
4.921955
11
126.123603
21
3.775030
0
LINE
8
Layer 1
10
126.123603
20
3.775030
11
127.230973
21
2.780505
0
LINE
8
Layer 1
10
127.230973
20
2.780505
11
128.544454
21
1.986666
0
LINE
8
Layer 1
10
128.544454
20
1.986666
11
129.998693
21
1.441800
0
LINE
8
Layer 1
10
129.998693
20
1.441800
11
132.100607
21
1.128374
0
LINE
8
Layer 1
10
132.100607
20
1.128374
11
135.553596
21
0.892106
0
LINE
8
Layer 1
10
135.553596
20
0.892106
11
145.053803
21
0.660309
0
LINE
8
Layer 1
10
145.053803
20
0.660309
11
155.581321
21
0.764930
0
LINE
8
Layer 1
10
155.581321
20
0.764930
11
164.218159
21
1.224489
0
LINE
8
Layer 1
10
164.218159
20
1.224489
11
170.758939
21
2.055160
0
LINE
8
Layer 1
10
170.758939
20
2.055160
11
177.651151
21
3.297325
0
LINE
8
Layer 1
10
177.651151
20
3.297325
11
184.464651
21
4.862942
0
LINE
8
Layer 1
10
184.464651
20
4.862942
11
190.769290
21
6.663973
0
LINE
8
Layer 1
10
190.769290
20
6.663973
11
193.998245
21
7.864058
0
LINE
8
Layer 1
10
193.998245
20
7.864058
11
195.197872
21
8.483572
0
LINE
8
Layer 1
10
195.197872
20
8.483572
11
196.168469
21
9.154762
0
LINE
8
Layer 1
10
196.168469
20
9.154762
11
196.945688
21
9.906651
0
LINE
8
Layer 1
10
196.945688
20
9.906651
11
197.565183
21
10.768259
0
LINE
8
Layer 1
10
197.565183
20
10.768259
11
198.062605
21
11.768607
0
LINE
8
Layer 1
10
198.062605
20
11.768607
11
198.473608
21
12.936719
0
LINE
8
Layer 1
10
198.473608
20
12.936719
11
198.682411
21
13.730604
0
LINE
8
Layer 1
10
198.682411
20
13.730604
11
198.764887
21
14.567634
0
LINE
8
Layer 1
10
198.764887
20
14.567634
11
198.667538
21
15.664517
0
LINE
8
Layer 1
10
198.667538
20
15.664517
11
198.336863
21
17.237965
0
LINE
8
Layer 1
10
198.336863
20
17.237965
11
196.761538
21
22.681395
0
LINE
8
Layer 1
10
196.761538
20
22.681395
11
193.610916
21
32.631609
0
LINE
8
Layer 1
10
193.610916
20
32.631609
11
190.150407
21
43.203506
0
LINE
8
Layer 1
10
190.150407
20
43.203506
11
186.526252
21
53.797231
0
LINE
8
Layer 1
10
186.526252
20
53.797231
11
182.972477
21
63.743255
0
LINE
8
Layer 1
10
182.972477
20
63.743255
11
179.723105
21
72.372051
0
LINE
8
Layer 1
10
179.723105
20
72.372051
11
172.860162
21
89.781645
0
LINE
8
Layer 1
10
172.860162
20
89.781645
11
170.028060
21
96.484427
0
LINE
8
Layer 1
10
170.028060
20
96.484427
11
166.305194
21
105.070691
0
LINE
8
Layer 1
10
166.305194
20
105.070691
11
165.100104
21
107.780026
0
LINE
8
Layer 1
10
165.100104
20
107.780026
11
161.004351
21
116.716951
0
LINE
8
Layer 1
10
161.004351
20
116.716951
11
159.102878
21
120.880437
0
LINE
8
Layer 1
10
159.102878
20
120.880437
11
154.047128
21
131.152009
0
LINE
8
Layer 1
10
154.047128
20
131.152009
11
147.650999
21
143.756679
0
LINE
8
Layer 1
10
147.650999
20
143.756679
11
144.637569
21
149.401127
0
LINE
8
Layer 1
10
144.637569
20
149.401127
11
139.956205
21
157.867799
0
LINE
8
Layer 1
10
139.956205
20
157.867799
11
135.931008
21
165.018256
0
LINE
8
Layer 1
10
135.931008
20
165.018256
11
129.182629
21
176.266980
0
LINE
8
Layer 1
10
129.182629
20
176.266980
11
122.772388
21
186.599450
0
LINE
8
Layer 1
10
122.772388
20
186.599450
11
117.986249
21
193.851155
0
LINE
8
Layer 1
10
117.986249
20
193.851155
11
110.310726
21
205.177842
0
LINE
8
Layer 1
10
110.310726
20
205.177842
11
107.817164
21
208.525568
0
LINE
8
Layer 1
10
107.817164
20
208.525568
11
106.303653
21
210.211940
0
LINE
8
Layer 1
10
106.303653
20
210.211940
11
104.936550
21
211.028313
0
LINE
8
Layer 1
10
104.936550
20
211.028313
11
103.327618
21
211.607883
0
LINE
8
Layer 1
10
103.327618
20
211.607883
11
101.386281
21
211.960440
0
LINE
8
Layer 1
10
101.386281
20
211.960440
11
99.652377
21
211.527449
0
LINE
8
Layer 1
10
105.011780
20
185.649067
11
112.274691
21
174.382451
0
LINE
8
Layer 1
10
112.274691
20
174.382451
11
119.486570
21
162.583823
0
LINE
8
Layer 1
10
119.486570
20
162.583823
11
126.408664
21
150.654095
0
LINE
8
Layer 1
10
126.408664
20
150.654095
11
132.802220
21
138.994176
0
LINE
8
Layer 1
10
132.802220
20
138.994176
11
139.788768
21
125.258720
0
LINE
8
Layer 1
10
139.788768
20
125.258720
11
146.289275
21
112.006659
0
LINE
8
Layer 1
10
146.289275
20
112.006659
11
154.237276
21
94.395540
0
LINE
8
Layer 1
10
154.237276
20
94.395540
11
160.055379
21
80.433028
0
LINE
8
Layer 1
10
160.055379
20
80.433028
11
164.211456
21
69.849688
0
LINE
8
Layer 1
10
164.211456
20
69.849688
11
168.478659
21
58.576976
0
LINE
8
Layer 1
10
168.478659
20
58.576976
11
173.160729
21
45.508006
0
LINE
8
Layer 1
10
173.160729
20
45.508006
11
178.354503
21
29.951466
0
LINE
8
Layer 1
10
178.354503
20
29.951466
11
181.327892
21
20.264976
0
LINE
8
Layer 1
10
181.327892
20
20.264976
11
181.073325
21
20.029273
0
LINE
8
Layer 1
10
181.073325
20
20.029273
11
180.343272
21
19.729983
0
LINE
8
Layer 1
10
180.343272
20
19.729983
11
177.658604
21
18.988846
0
LINE
8
Layer 1
10
177.658604
20
18.988846
11
173.677675
21
18.137973
0
LINE
8
Layer 1
10
173.677675
20
18.137973
11
168.804273
21
17.273772
0
LINE
8
Layer 1
10
168.804273
20
17.273772
11
161.927059
21
16.542512
0
LINE
8
Layer 1
10
161.927059
20
16.542512
11
153.092820
21
16.050999
0
LINE
8
Layer 1
10
153.092820
20
16.050999
11
144.794164
21
15.893588
0
LINE
8
Layer 1
10
144.794164
20
15.893588
11
141.624619
21
15.969658
0
LINE
8
Layer 1
10
141.624619
20
15.969658
11
139.523699
21
16.164638
0
LINE
8
Layer 1
10
139.523699
20
16.164638
11
138.112587
21
16.414052
0
LINE
8
Layer 1
10
138.112587
20
16.414052
11
137.153031
21
20.289318
0
LINE
8
Layer 1
10
137.153031
20
20.289318
11
135.073655
21
27.986746
0
LINE
8
Layer 1
10
135.073655
20
27.986746
11
132.710690
21
35.448690
0
LINE
8
Layer 1
10
132.710690
20
35.448690
11
130.082109
21
42.634963
0
LINE
8
Layer 1
10
130.082109
20
42.634963
11
127.205882
21
49.505378
0
LINE
8
Layer 1
10
127.205882
20
49.505378
11
124.099980
21
56.019745
0
LINE
8
Layer 1
10
124.099980
20
56.019745
11
120.782373
21
62.137878
0
LINE
8
Layer 1
10
120.782373
20
62.137878
11
117.271034
21
67.819589
0
LINE
8
Layer 1
10
117.271034
20
67.819589
11
113.583933
21
73.024690
0
LINE
8
Layer 1
10
113.583933
20
73.024690
11
109.731492
21
77.707928
0
LINE
8
Layer 1
10
109.731492
20
77.707928
11
105.556425
21
82.134917
0
LINE
8
Layer 1
10
105.556425
20
82.134917
11
101.427594
21
85.940003
0
LINE
8
Layer 1
10
101.427594
20
85.940003
11
97.713862
21
88.757530
0
LINE
8
Layer 1
10
97.713862
20
88.757530
11
95.825794
21
90.007070
0
LINE
8
Layer 1
10
95.825794
20
90.007070
11
95.866628
21
90.877418
0
LINE
8
Layer 1
10
95.866628
20
90.877418
11
96.406466
21
92.652905
0
LINE
8
Layer 1
10
96.406466
20
92.652905
11
107.044487
21
120.772840
0
LINE
8
Layer 1
10
107.044487
20
120.772840
11
108.519479
21
124.770426
0
LINE
8
Layer 1
10
108.519479
20
124.770426
11
109.226022
21
127.443475
0
LINE
8
Layer 1
10
109.226022
20
127.443475
11
109.319412
21
128.459896
0
LINE
8
Layer 1
10
109.319412
20
128.459896
11
109.254636
21
129.357102
0
LINE
8
Layer 1
10
109.254636
20
129.357102
11
108.695841
21
131.076427
0
LINE
8
Layer 1
10
108.695841
20
131.076427
11
108.075385
21
132.146902
0
LINE
8
Layer 1
10
108.075385
20
132.146902
11
107.251160
21
133.122875
0
LINE
8
Layer 1
10
107.251160
20
133.122875
11
106.266778
21
133.980158
0
LINE
8
Layer 1
10
106.266778
20
133.980158
11
105.165856
21
134.694562
0
LINE
8
Layer 1
10
105.165856
20
134.694562
11
103.992008
21
135.241898
0
LINE
8
Layer 1
10
103.992008
20
135.241898
11
102.788849
21
135.597977
0
LINE
8
Layer 1
10
102.788849
20
135.597977
11
101.599994
21
135.738610
0
LINE
8
Layer 1
10
101.599994
20
135.738610
11
100.469058
21
135.639610
0
LINE
8
Layer 1
10
100.469058
20
135.639610
11
99.037275
21
135.164655
0
LINE
8
Layer 1
10
99.037275
20
135.164655
11
97.612967
21
134.387645
0
LINE
8
Layer 1
10
97.612967
20
134.387645
11
96.361697
21
133.416761
0
LINE
8
Layer 1
10
96.361697
20
133.416761
11
95.449027
21
132.360186
0
LINE
8
Layer 1
10
95.449027
20
132.360186
11
93.550938
21
128.207845
0
LINE
8
Layer 1
10
93.550938
20
128.207845
11
90.175348
21
119.804111
0
LINE
8
Layer 1
10
90.175348
20
119.804111
11
86.018179
21
108.929961
0
LINE
8
Layer 1
10
86.018179
20
108.929961
11
81.775352
21
97.366372
0
LINE
8
Layer 1
10
81.775352
20
97.366372
11
76.406908
21
81.575191
0
LINE
8
Layer 1
10
76.406908
20
81.575191
11
74.115808
21
74.149120
0
LINE
8
Layer 1
10
74.115808
20
74.149120
11
72.027743
21
66.851075
0
LINE
8
Layer 1
10
72.027743
20
66.851075
11
69.049028
21
55.116190
0
LINE
8
Layer 1
10
69.049028
20
55.116190
11
66.534725
21
43.263368
0
LINE
8
Layer 1
10
66.534725
20
43.263368
11
64.477489
21
31.254044
0
LINE
8
Layer 1
10
64.477489
20
31.254044
11
62.869978
21
19.049656
0
LINE
8
Layer 1
10
62.869978
20
19.049656
11
62.612098
21
16.756599
0
LINE
8
Layer 1
10
62.612098
20
16.756599
11
55.382971
21
16.789407
0
LINE
8
Layer 1
10
55.382971
20
16.789407
11
46.890171
21
17.026342
0
LINE
8
Layer 1
10
46.890171
20
17.026342
11
38.074712
21
17.619670
0
LINE
8
Layer 1
10
38.074712
20
17.619670
11
29.712088
21
18.502718
0
LINE
8
Layer 1
10
29.712088
20
18.502718
11
22.577792
21
19.608809
0
LINE
8
Layer 1
10
22.577792
20
19.608809
11
18.609039
21
20.361285
0
LINE
8
Layer 1
10
18.609039
20
20.361285
11
17.988332
21
20.582035
0
LINE
8
Layer 1
10
17.988332
20
20.582035
11
17.688333
21
21.006516
0
LINE
8
Layer 1
10
17.688333
20
21.006516
11
17.687644
21
21.715423
0
LINE
8
Layer 1
10
17.687644
20
21.715423
11
17.964867
21
22.789456
0
LINE
8
Layer 1
10
17.964867
20
22.789456
11
19.049306
21
26.457994
0
LINE
8
Layer 1
10
19.049306
20
26.457994
11
20.084710
21
29.985774
0
LINE
8
Layer 1
10
20.084710
20
29.985774
11
20.935963
21
32.807998
0
LINE
8
Layer 1
10
20.935963
20
32.807998
11
23.224004
21
40.090345
0
LINE
8
Layer 1
10
23.224004
20
40.090345
11
26.136528
21
48.729178
0
LINE
8
Layer 1
10
26.136528
20
48.729178
11
29.242066
21
57.478012
0
LINE
8
Layer 1
10
29.242066
20
57.478012
11
32.109148
21
65.090360
0
LINE
8
Layer 1
10
32.109148
20
65.090360
11
37.749117
21
78.824938
0
LINE
8
Layer 1
10
37.749117
20
78.824938
11
43.872332
21
92.535403
0
LINE
8
Layer 1
10
43.872332
20
92.535403
11
50.506821
21
106.273937
0
LINE
8
Layer 1
10
50.506821
20
106.273937
11
57.680614
21
120.092728
0
LINE
8
Layer 1
10
57.680614
20
120.092728
11
65.421740
21
134.043959
0
LINE
8
Layer 1
10
65.421740
20
134.043959
11
73.758229
21
148.179815
0
LINE
8
Layer 1
10
73.758229
20
148.179815
11
82.718109
21
162.552482
0
LINE
8
Layer 1
10
82.718109
20
162.552482
11
92.329411
21
177.214145
0
LINE
8
Layer 1
10
92.329411
20
177.214145
11
99.508487
21
187.801233
0
LINE
8
Layer 1
10
99.508487
20
187.801233
11
101.022914
21
189.887413
0
LINE
8
Layer 1
10
101.022914
20
189.887413
11
101.608883
21
190.486006
0
LINE
8
Layer 1
10
101.608883
20
190.486006
11
105.011780
21
185.649067
0
LINE
8
Layer 1
10
95.073671
20
70.731633
11
97.013950
21
68.791354
0
LINE
8
Layer 1
10
97.013950
20
68.791354
11
95.073671
21
70.731633
0
LINE
8
Layer 1
10
95.073671
20
70.731633
11
93.133392
21
72.671912
0
LINE
8
Layer 1
10
93.133392
20
72.671912
11
95.073671
21
70.731633
 0 
ENDSEC
 0 
EOF