M48
; DRILL file {KiCad 7.0.5} date Thu May 30 23:49:04 2024
; FORMAT={-:-/ absolute / inch / decimal}
; #@! TF.CreationDate,2024-05-30T23:49:04+02:00
; #@! TF.GenerationSoftware,Kicad,Pcbnew,7.0.5
; #@! TF.FileFunction,Plated,1,2,PTH
FMAT,2
INCH
; #@! TA.AperFunction,Plated,PTH,ViaDrill
T1C0.0118
; #@! TA.AperFunction,Plated,PTH,ViaDrill
T2C0.0138
; #@! TA.AperFunction,Plated,PTH,ComponentDrill
T3C0.0236
; #@! TA.AperFunction,Plated,PTH,ComponentDrill
T4C0.0295
; #@! TA.AperFunction,Plated,PTH,ComponentDrill
T5C0.0315
; #@! TA.AperFunction,Plated,PTH,ComponentDrill
T6C0.0354
; #@! TA.AperFunction,Plated,PTH,ComponentDrill
T7C0.0394
; #@! TA.AperFunction,Plated,PTH,ComponentDrill
T8C0.0652
%
G90
G05
T1
X0.0315Y0.9035
X0.0335Y0.939
X0.0669Y1.5512
X0.1024Y1.313
X0.1417Y0.6909
X0.1594Y0.502
X0.1654Y1.0059
X0.1811Y1.2579
X0.2264Y1.9331
X0.2303Y0.6909
X0.2795Y0.6654
X0.3287Y0.5354
X0.3445Y0.6043
X0.3681Y0.6772
X0.3681Y0.5748
X0.3917Y1.4665
X0.3976Y1.1821
X0.3976Y0.9321
X0.3976Y0.8307
X0.4528Y0.6614
X0.4567Y0.5807
X0.4567Y0.4862
X0.4862Y1.4488
X0.4862Y0.7717
X0.5138Y1.5945
X0.5394Y0.9232
X0.5846Y0.8898
X0.5846Y0.2894
X0.5906Y0.6791
X0.6043Y1.687
X0.6063Y0.4094
X0.6161Y0.7382
X0.628Y1.2146
X0.628Y1.0118
X0.6378Y0.2835
X0.6437Y0.9488
X0.6634Y1.372
X0.6831Y1.2933
X0.6831Y1.2343
X0.6831Y1.1949
X0.7303Y0.8445
X0.7323Y0.939
X0.7323Y1.0846
X0.7618Y0.1713
X0.7717Y1.0866
X0.7776Y1.2343
X0.7776Y1.1575
X0.7776Y1.0217
X0.8206Y0.8445
X0.8327Y0.1973
X0.8602Y0.9291
X0.8602Y0.3189
X0.8622Y0.7461
X0.8681Y1.687
X0.9075Y1.1594
X0.9094Y1.3327
X0.9094Y1.2322
X0.9153Y0.6853
X0.9154Y0.3878
X0.9291Y0.8406
X0.9409Y1.4469
X0.9469Y1.2323
X0.9488Y1.815
X0.9587Y1.126
X0.9851Y0.493
X0.9862Y0.4606
X0.9961Y0.689
X1.0073Y0.3884
X1.0098Y0.3091
X1.0098Y0.6122
X1.0394Y0.5256
X1.0413Y1.2323
X1.0413Y1.1575
X1.0571Y0.7402
X1.1063Y0.313
X1.1319Y0.5197
X1.185Y0.3307
X1.2008Y0.2823
X1.2159Y0.2022
X1.2264Y0.5236
X1.2657Y0.6024
X1.3091Y0.3681
X1.3169Y0.5256
X1.4213Y1.4114
X1.498Y1.3996
X1.5295Y1.6083
X1.5886Y1.2933
X1.5945Y1.0965
X1.6378Y0.7126
X1.6594Y0.2992
T2
X0.0472Y0.752
X0.0512Y0.6122
X0.0925Y1.876
X0.0925Y1.7067
X0.0925Y0.2795
X0.1024Y1.4114
X0.1646Y0.9188
X0.1752Y1.1083
X0.1811Y1.4114
X0.1811Y1.3228
X0.2008Y1.7067
X0.2008Y0.2894
X0.2106Y0.7795
X0.2185Y2.1181
X0.2205Y1.1555
X0.2264Y0.8917
X0.2402Y1.0374
X0.2598Y1.4114
X0.2598Y0.2106
X0.2697Y1.2343
X0.2795Y0.7776
X0.2894Y0.0728
X0.2992Y1.628
X0.2992Y1.5354
X0.3091Y1.8248
X0.3287Y1.1358
X0.3287Y1.0079
X0.3287Y0.8799
X0.3386Y1.2146
X0.3957Y1.1063
X0.3957Y1.0079
X0.3957Y0.8898
X0.3976Y1.3622
X0.3976Y0.2894
X0.4764Y1.7421
X0.4764Y1.3425
X0.4862Y0.2894
X0.4862Y0.2106
X0.5157Y1.8839
X0.5157Y0.0433
X0.5236Y0.5098
X0.5315Y1.1083
X0.5354Y1.0059
X0.5374Y1.1831
X0.5472Y2.0374
X0.563Y1.3197
X0.5748Y1.5394
X0.5748Y1.4508
X0.624Y2.122
X0.624Y1.9488
X0.624Y1.7756
X0.624Y0.6024
X0.6594Y1.5945
X0.6594Y1.502
X0.6634Y0.1713
X0.685Y0.2323
X0.7421Y1.3228
X0.7441Y0.7343
X0.7441Y0.6024
X0.7717Y2.1004
X0.7717Y1.9488
X0.7717Y1.8593
X0.7717Y1.7756
X0.7717Y1.5945
X0.7717Y1.5039
X0.7717Y1.4154
X0.8209Y0.0728
X0.8583Y1.9232
X0.8583Y1.7756
X0.8917Y0.4862
X0.92Y0.2968
X0.9449Y1.6654
X0.9449Y1.565
X0.9488Y1.8839
X0.9488Y1.0177
X0.9685Y0.2402
X0.9983Y1.3228
X1.0Y1.6476
X1.0Y1.4567
X1.0374Y1.4114
X1.0433Y1.0138
X1.0472Y0.6063
X1.0669Y1.8839
X1.0709Y1.6476
X1.0709Y1.5827
X1.0866Y1.7461
X1.0866Y1.3228
X1.1122Y1.4567
X1.1201Y1.5335
X1.1339Y0.6024
X1.1457Y1.1654
X1.1555Y1.3228
X1.1634Y0.3051
X1.185Y1.8839
X1.185Y1.7618
X1.185Y1.5335
X1.1949Y0.122
X1.2146Y0.8996
X1.2224Y0.6024
X1.25Y1.7618
X1.25Y1.5315
X1.2539Y1.4606
X1.2539Y1.3228
X1.2657Y0.6831
X1.2736Y1.0571
X1.2835Y1.1555
X1.2992Y1.7126
X1.2992Y1.6476
X1.2992Y1.5827
X1.3031Y1.8839
X1.313Y0.122
X1.315Y0.4469
X1.3228Y0.7913
X1.3425Y1.0965
X1.3819Y0.9488
X1.3917Y1.3228
X1.3937Y0.437
X1.4213Y1.8839
X1.4213Y1.7953
X1.4213Y1.4606
X1.4409Y0.998
X1.4469Y0.5571
X1.4508Y1.0669
X1.4508Y0.8898
X1.4626Y0.3307
X1.4685Y0.8406
X1.4685Y0.6594
X1.4705Y1.2146
X1.4747Y0.3816
X1.4902Y0.1024
X1.5Y1.4606
X1.5Y1.3622
X1.5098Y1.9232
X1.5098Y1.7402
X1.5118Y0.9311
X1.5374Y0.8012
X1.5374Y0.6594
X1.5413Y2.1319
X1.5433Y0.5354
X1.5886Y1.4902
X1.5886Y1.3622
X1.6161Y0.4488
X1.6673Y1.2933
X1.6673Y1.0177
X1.6673Y0.8996
X1.6772Y1.5591
X1.7067Y0.624
X1.7106Y1.4154
X1.7264Y0.2992
X1.7362Y0.4862
X1.7461Y1.9134
X1.7461Y1.1358
X1.7461Y0.9193
T4
X0.122Y0.3996
X0.2008Y0.3996
T5
X0.4764Y0.1024
X0.5551Y0.1024
X0.6339Y0.1024
X0.9354Y0.8957
X1.0354Y0.8957
X1.185Y1.126
X1.185Y1.026
T6
X0.3976Y2.0715
X0.3976Y1.9715
T7
X0.1417Y1.7953
X0.1417Y1.5
X0.2402Y1.7953
X0.2402Y1.5
X1.588Y1.8368
X1.588Y1.7368
X1.588Y1.6368
X1.688Y1.8368
X1.688Y1.7368
X1.688Y1.6368
T8
X0.3937Y0.1024
X0.7165Y0.1024
T3
G00X1.0906Y0.239
M15
G01X1.0906Y0.1957
M16
G05
G00X1.0906Y0.0689
M15
G01X1.0906Y0.0374
M16
G05
G00X1.4311Y0.239
M15
G01X1.4311Y0.1957
M16
G05
G00X1.4311Y0.0689
M15
G01X1.4311Y0.0374
M16
G05
T0
M30
