%TF.GenerationSoftware,KiCad,Pcbnew,7.0.5*%
%TF.CreationDate,2024-05-30T23:49:04+02:00*%
%TF.ProjectId,Acoustifly,41636f75-7374-4696-966c-792e6b696361,rev?*%
%TF.SameCoordinates,Original*%
%TF.FileFunction,Legend,Bot*%
%TF.FilePolarity,Positive*%
%FSLAX46Y46*%
G04 Gerber Fmt 4.6, Leading zero omitted, Abs format (unit mm)*
G04 Created by KiCad (PCBNEW 7.0.5) date 2024-05-30 23:49:04*
%MOMM*%
%LPD*%
G01*
G04 APERTURE LIST*
G04 Aperture macros list*
%AMRoundRect*
0 Rectangle with rounded corners*
0 $1 Rounding radius*
0 $2 $3 $4 $5 $6 $7 $8 $9 X,Y pos of 4 corners*
0 Add a 4 corners polygon primitive as box body*
4,1,4,$2,$3,$4,$5,$6,$7,$8,$9,$2,$3,0*
0 Add four circle primitives for the rounded corners*
1,1,$1+$1,$2,$3*
1,1,$1+$1,$4,$5*
1,1,$1+$1,$6,$7*
1,1,$1+$1,$8,$9*
0 Add four rect primitives between the rounded corners*
20,1,$1+$1,$2,$3,$4,$5,0*
20,1,$1+$1,$4,$5,$6,$7,0*
20,1,$1+$1,$6,$7,$8,$9,0*
20,1,$1+$1,$8,$9,$2,$3,0*%
G04 Aperture macros list end*
%ADD10C,0.100000*%
%ADD11C,0.142240*%
%ADD12C,0.304800*%
%ADD13C,0.200000*%
%ADD14C,0.240000*%
%ADD15C,0.233680*%
%ADD16C,1.400000*%
%ADD17C,3.200000*%
%ADD18RoundRect,0.250000X-0.600000X-0.750000X0.600000X-0.750000X0.600000X0.750000X-0.600000X0.750000X0*%
%ADD19O,1.700000X2.000000*%
%ADD20RoundRect,0.250000X-0.350000X-0.625000X0.350000X-0.625000X0.350000X0.625000X-0.350000X0.625000X0*%
%ADD21O,1.200000X1.750000*%
%ADD22R,1.700000X1.700000*%
%ADD23O,1.700000X1.700000*%
%ADD24C,0.600000*%
%ADD25O,1.104000X2.204000*%
%ADD26O,1.104000X1.904000*%
%ADD27C,1.300000*%
%ADD28C,2.483000*%
%ADD29R,1.800000X1.800000*%
%ADD30C,1.800000*%
%ADD31C,0.756400*%
G04 APERTURE END LIST*
D10*
X37850000Y39850000D02*
X39100000Y40100000D01*
X1100000Y14600000D02*
X7100000Y14600000D01*
X7100000Y7350000D01*
X1100000Y7350000D01*
X1100000Y14600000D01*
X850000Y48100000D02*
X10350000Y48100000D01*
X10350000Y34600000D01*
X850000Y34600000D01*
X850000Y48100000D01*
X28600000Y48100000D02*
X37850000Y48100000D01*
X37850000Y39850000D01*
X28600000Y39850000D01*
X28600000Y48100000D01*
X37850000Y48100000D02*
X39100000Y47600000D01*
X7650000Y17225000D02*
X31150000Y17225000D01*
X31150000Y6725000D01*
X7650000Y6725000D01*
X7650000Y17225000D01*
X850000Y40600000D02*
X10350000Y40600000D01*
X850000Y42600000D02*
X10350000Y42600000D01*
X39100000Y47600000D02*
X44100000Y47600000D01*
X44100000Y40100000D01*
X39100000Y40100000D01*
X39100000Y47600000D01*
X31150000Y17225000D02*
X43650000Y17225000D01*
X43650000Y6725000D01*
X31150000Y6725000D01*
X31150000Y17225000D01*
D11*
X30694848Y15286198D02*
X30461168Y15208305D01*
X30461168Y15208305D02*
X30071702Y15208305D01*
X30071702Y15208305D02*
X29915915Y15286198D01*
X29915915Y15286198D02*
X29838022Y15364092D01*
X29838022Y15364092D02*
X29760128Y15519878D01*
X29760128Y15519878D02*
X29760128Y15675665D01*
X29760128Y15675665D02*
X29838022Y15831452D01*
X29838022Y15831452D02*
X29915915Y15909345D01*
X29915915Y15909345D02*
X30071702Y15987238D01*
X30071702Y15987238D02*
X30383275Y16065132D01*
X30383275Y16065132D02*
X30539062Y16143025D01*
X30539062Y16143025D02*
X30616955Y16220918D01*
X30616955Y16220918D02*
X30694848Y16376705D01*
X30694848Y16376705D02*
X30694848Y16532492D01*
X30694848Y16532492D02*
X30616955Y16688278D01*
X30616955Y16688278D02*
X30539062Y16766172D01*
X30539062Y16766172D02*
X30383275Y16844065D01*
X30383275Y16844065D02*
X29993808Y16844065D01*
X29993808Y16844065D02*
X29760128Y16766172D01*
X29214875Y16298812D02*
X28825408Y15208305D01*
X28825408Y15208305D02*
X28435941Y16298812D01*
X27189648Y15286198D02*
X27345435Y15208305D01*
X27345435Y15208305D02*
X27657008Y15208305D01*
X27657008Y15208305D02*
X27812795Y15286198D01*
X27812795Y15286198D02*
X27890688Y15441985D01*
X27890688Y15441985D02*
X27890688Y16065132D01*
X27890688Y16065132D02*
X27812795Y16220918D01*
X27812795Y16220918D02*
X27657008Y16298812D01*
X27657008Y16298812D02*
X27345435Y16298812D01*
X27345435Y16298812D02*
X27189648Y16220918D01*
X27189648Y16220918D02*
X27111755Y16065132D01*
X27111755Y16065132D02*
X27111755Y15909345D01*
X27111755Y15909345D02*
X27890688Y15753558D01*
X26410715Y16298812D02*
X26410715Y15208305D01*
X26410715Y16143025D02*
X26332822Y16220918D01*
X26332822Y16220918D02*
X26177035Y16298812D01*
X26177035Y16298812D02*
X25943355Y16298812D01*
X25943355Y16298812D02*
X25787568Y16220918D01*
X25787568Y16220918D02*
X25709675Y16065132D01*
X25709675Y16065132D02*
X25709675Y15208305D01*
X23762342Y15286198D02*
X23528662Y15208305D01*
X23528662Y15208305D02*
X23139196Y15208305D01*
X23139196Y15208305D02*
X22983409Y15286198D01*
X22983409Y15286198D02*
X22905516Y15364092D01*
X22905516Y15364092D02*
X22827622Y15519878D01*
X22827622Y15519878D02*
X22827622Y15675665D01*
X22827622Y15675665D02*
X22905516Y15831452D01*
X22905516Y15831452D02*
X22983409Y15909345D01*
X22983409Y15909345D02*
X23139196Y15987238D01*
X23139196Y15987238D02*
X23450769Y16065132D01*
X23450769Y16065132D02*
X23606556Y16143025D01*
X23606556Y16143025D02*
X23684449Y16220918D01*
X23684449Y16220918D02*
X23762342Y16376705D01*
X23762342Y16376705D02*
X23762342Y16532492D01*
X23762342Y16532492D02*
X23684449Y16688278D01*
X23684449Y16688278D02*
X23606556Y16766172D01*
X23606556Y16766172D02*
X23450769Y16844065D01*
X23450769Y16844065D02*
X23061302Y16844065D01*
X23061302Y16844065D02*
X22827622Y16766172D01*
X21425542Y16298812D02*
X21425542Y15208305D01*
X22126582Y16298812D02*
X22126582Y15441985D01*
X22126582Y15441985D02*
X22048689Y15286198D01*
X22048689Y15286198D02*
X21892902Y15208305D01*
X21892902Y15208305D02*
X21659222Y15208305D01*
X21659222Y15208305D02*
X21503435Y15286198D01*
X21503435Y15286198D02*
X21425542Y15364092D01*
X20646609Y16298812D02*
X20646609Y14663052D01*
X20646609Y16220918D02*
X20490822Y16298812D01*
X20490822Y16298812D02*
X20179249Y16298812D01*
X20179249Y16298812D02*
X20023462Y16220918D01*
X20023462Y16220918D02*
X19945569Y16143025D01*
X19945569Y16143025D02*
X19867676Y15987238D01*
X19867676Y15987238D02*
X19867676Y15519878D01*
X19867676Y15519878D02*
X19945569Y15364092D01*
X19945569Y15364092D02*
X20023462Y15286198D01*
X20023462Y15286198D02*
X20179249Y15208305D01*
X20179249Y15208305D02*
X20490822Y15208305D01*
X20490822Y15208305D02*
X20646609Y15286198D01*
X19166636Y16298812D02*
X19166636Y14663052D01*
X19166636Y16220918D02*
X19010849Y16298812D01*
X19010849Y16298812D02*
X18699276Y16298812D01*
X18699276Y16298812D02*
X18543489Y16220918D01*
X18543489Y16220918D02*
X18465596Y16143025D01*
X18465596Y16143025D02*
X18387703Y15987238D01*
X18387703Y15987238D02*
X18387703Y15519878D01*
X18387703Y15519878D02*
X18465596Y15364092D01*
X18465596Y15364092D02*
X18543489Y15286198D01*
X18543489Y15286198D02*
X18699276Y15208305D01*
X18699276Y15208305D02*
X19010849Y15208305D01*
X19010849Y15208305D02*
X19166636Y15286198D01*
X17063516Y15286198D02*
X17219303Y15208305D01*
X17219303Y15208305D02*
X17530876Y15208305D01*
X17530876Y15208305D02*
X17686663Y15286198D01*
X17686663Y15286198D02*
X17764556Y15441985D01*
X17764556Y15441985D02*
X17764556Y16065132D01*
X17764556Y16065132D02*
X17686663Y16220918D01*
X17686663Y16220918D02*
X17530876Y16298812D01*
X17530876Y16298812D02*
X17219303Y16298812D01*
X17219303Y16298812D02*
X17063516Y16220918D01*
X17063516Y16220918D02*
X16985623Y16065132D01*
X16985623Y16065132D02*
X16985623Y15909345D01*
X16985623Y15909345D02*
X17764556Y15753558D01*
X16050903Y15208305D02*
X16206690Y15286198D01*
X16206690Y15286198D02*
X16284583Y15441985D01*
X16284583Y15441985D02*
X16284583Y16844065D01*
X15661436Y16298812D02*
X15038289Y16298812D01*
X15427756Y16844065D02*
X15427756Y15441985D01*
X15427756Y15441985D02*
X15349863Y15286198D01*
X15349863Y15286198D02*
X15194076Y15208305D01*
X15194076Y15208305D02*
X15038289Y15208305D01*
X30149595Y14210491D02*
X30149595Y13042091D01*
X30149595Y13042091D02*
X30227488Y12808411D01*
X30227488Y12808411D02*
X30383275Y12652624D01*
X30383275Y12652624D02*
X30616955Y12574731D01*
X30616955Y12574731D02*
X30772742Y12574731D01*
X28669622Y12574731D02*
X28669622Y13431558D01*
X28669622Y13431558D02*
X28747515Y13587344D01*
X28747515Y13587344D02*
X28903302Y13665238D01*
X28903302Y13665238D02*
X29214875Y13665238D01*
X29214875Y13665238D02*
X29370662Y13587344D01*
X28669622Y12652624D02*
X28825409Y12574731D01*
X28825409Y12574731D02*
X29214875Y12574731D01*
X29214875Y12574731D02*
X29370662Y12652624D01*
X29370662Y12652624D02*
X29448555Y12808411D01*
X29448555Y12808411D02*
X29448555Y12964198D01*
X29448555Y12964198D02*
X29370662Y13119984D01*
X29370662Y13119984D02*
X29214875Y13197878D01*
X29214875Y13197878D02*
X28825409Y13197878D01*
X28825409Y13197878D02*
X28669622Y13275771D01*
X27890689Y13665238D02*
X27890689Y12574731D01*
X27890689Y13509451D02*
X27812796Y13587344D01*
X27812796Y13587344D02*
X27657009Y13665238D01*
X27657009Y13665238D02*
X27423329Y13665238D01*
X27423329Y13665238D02*
X27267542Y13587344D01*
X27267542Y13587344D02*
X27189649Y13431558D01*
X27189649Y13431558D02*
X27189649Y12574731D01*
X25164423Y12574731D02*
X25164423Y14210491D01*
X25164423Y13431558D02*
X24229703Y13431558D01*
X24229703Y12574731D02*
X24229703Y14210491D01*
X22827623Y12652624D02*
X22983410Y12574731D01*
X22983410Y12574731D02*
X23294983Y12574731D01*
X23294983Y12574731D02*
X23450770Y12652624D01*
X23450770Y12652624D02*
X23528663Y12808411D01*
X23528663Y12808411D02*
X23528663Y13431558D01*
X23528663Y13431558D02*
X23450770Y13587344D01*
X23450770Y13587344D02*
X23294983Y13665238D01*
X23294983Y13665238D02*
X22983410Y13665238D01*
X22983410Y13665238D02*
X22827623Y13587344D01*
X22827623Y13587344D02*
X22749730Y13431558D01*
X22749730Y13431558D02*
X22749730Y13275771D01*
X22749730Y13275771D02*
X23528663Y13119984D01*
X21815010Y12574731D02*
X21970797Y12652624D01*
X21970797Y12652624D02*
X22048690Y12808411D01*
X22048690Y12808411D02*
X22048690Y14210491D01*
X20490823Y13665238D02*
X20490823Y12341051D01*
X20490823Y12341051D02*
X20568716Y12185264D01*
X20568716Y12185264D02*
X20646610Y12107371D01*
X20646610Y12107371D02*
X20802396Y12029478D01*
X20802396Y12029478D02*
X21036076Y12029478D01*
X21036076Y12029478D02*
X21191863Y12107371D01*
X20490823Y12652624D02*
X20646610Y12574731D01*
X20646610Y12574731D02*
X20958183Y12574731D01*
X20958183Y12574731D02*
X21113970Y12652624D01*
X21113970Y12652624D02*
X21191863Y12730518D01*
X21191863Y12730518D02*
X21269756Y12886304D01*
X21269756Y12886304D02*
X21269756Y13353664D01*
X21269756Y13353664D02*
X21191863Y13509451D01*
X21191863Y13509451D02*
X21113970Y13587344D01*
X21113970Y13587344D02*
X20958183Y13665238D01*
X20958183Y13665238D02*
X20646610Y13665238D01*
X20646610Y13665238D02*
X20490823Y13587344D01*
X19088743Y12652624D02*
X19244530Y12574731D01*
X19244530Y12574731D02*
X19556103Y12574731D01*
X19556103Y12574731D02*
X19711890Y12652624D01*
X19711890Y12652624D02*
X19789783Y12808411D01*
X19789783Y12808411D02*
X19789783Y13431558D01*
X19789783Y13431558D02*
X19711890Y13587344D01*
X19711890Y13587344D02*
X19556103Y13665238D01*
X19556103Y13665238D02*
X19244530Y13665238D01*
X19244530Y13665238D02*
X19088743Y13587344D01*
X19088743Y13587344D02*
X19010850Y13431558D01*
X19010850Y13431558D02*
X19010850Y13275771D01*
X19010850Y13275771D02*
X19789783Y13119984D01*
X17063517Y12574731D02*
X17063517Y14210491D01*
X17063517Y14210491D02*
X16674050Y14210491D01*
X16674050Y14210491D02*
X16440370Y14132598D01*
X16440370Y14132598D02*
X16284584Y13976811D01*
X16284584Y13976811D02*
X16206690Y13821024D01*
X16206690Y13821024D02*
X16128797Y13509451D01*
X16128797Y13509451D02*
X16128797Y13275771D01*
X16128797Y13275771D02*
X16206690Y12964198D01*
X16206690Y12964198D02*
X16284584Y12808411D01*
X16284584Y12808411D02*
X16440370Y12652624D01*
X16440370Y12652624D02*
X16674050Y12574731D01*
X16674050Y12574731D02*
X17063517Y12574731D01*
X15194077Y12574731D02*
X15349864Y12652624D01*
X15349864Y12652624D02*
X15427757Y12730518D01*
X15427757Y12730518D02*
X15505650Y12886304D01*
X15505650Y12886304D02*
X15505650Y13353664D01*
X15505650Y13353664D02*
X15427757Y13509451D01*
X15427757Y13509451D02*
X15349864Y13587344D01*
X15349864Y13587344D02*
X15194077Y13665238D01*
X15194077Y13665238D02*
X14960397Y13665238D01*
X14960397Y13665238D02*
X14804610Y13587344D01*
X14804610Y13587344D02*
X14726717Y13509451D01*
X14726717Y13509451D02*
X14648824Y13353664D01*
X14648824Y13353664D02*
X14648824Y12886304D01*
X14648824Y12886304D02*
X14726717Y12730518D01*
X14726717Y12730518D02*
X14804610Y12652624D01*
X14804610Y12652624D02*
X14960397Y12574731D01*
X14960397Y12574731D02*
X15194077Y12574731D01*
X15349864Y14210491D02*
X15271970Y14132598D01*
X15271970Y14132598D02*
X15349864Y14054704D01*
X15349864Y14054704D02*
X15427757Y14132598D01*
X15427757Y14132598D02*
X15349864Y14210491D01*
X15349864Y14210491D02*
X15349864Y14054704D01*
X14726717Y14210491D02*
X14648824Y14132598D01*
X14648824Y14132598D02*
X14726717Y14054704D01*
X14726717Y14054704D02*
X14804610Y14132598D01*
X14804610Y14132598D02*
X14726717Y14210491D01*
X14726717Y14210491D02*
X14726717Y14054704D01*
X13947784Y12574731D02*
X13947784Y13665238D01*
X13947784Y13353664D02*
X13869891Y13509451D01*
X13869891Y13509451D02*
X13791997Y13587344D01*
X13791997Y13587344D02*
X13636211Y13665238D01*
X13636211Y13665238D02*
X13480424Y13665238D01*
X13013064Y12652624D02*
X12857278Y12574731D01*
X12857278Y12574731D02*
X12545704Y12574731D01*
X12545704Y12574731D02*
X12389918Y12652624D01*
X12389918Y12652624D02*
X12312024Y12808411D01*
X12312024Y12808411D02*
X12312024Y12886304D01*
X12312024Y12886304D02*
X12389918Y13042091D01*
X12389918Y13042091D02*
X12545704Y13119984D01*
X12545704Y13119984D02*
X12779384Y13119984D01*
X12779384Y13119984D02*
X12935171Y13197878D01*
X12935171Y13197878D02*
X13013064Y13353664D01*
X13013064Y13353664D02*
X13013064Y13431558D01*
X13013064Y13431558D02*
X12935171Y13587344D01*
X12935171Y13587344D02*
X12779384Y13665238D01*
X12779384Y13665238D02*
X12545704Y13665238D01*
X12545704Y13665238D02*
X12389918Y13587344D01*
X10909944Y12574731D02*
X10909944Y13431558D01*
X10909944Y13431558D02*
X10987837Y13587344D01*
X10987837Y13587344D02*
X11143624Y13665238D01*
X11143624Y13665238D02*
X11455197Y13665238D01*
X11455197Y13665238D02*
X11610984Y13587344D01*
X10909944Y12652624D02*
X11065731Y12574731D01*
X11065731Y12574731D02*
X11455197Y12574731D01*
X11455197Y12574731D02*
X11610984Y12652624D01*
X11610984Y12652624D02*
X11688877Y12808411D01*
X11688877Y12808411D02*
X11688877Y12964198D01*
X11688877Y12964198D02*
X11610984Y13119984D01*
X11610984Y13119984D02*
X11455197Y13197878D01*
X11455197Y13197878D02*
X11065731Y13197878D01*
X11065731Y13197878D02*
X10909944Y13275771D01*
X10131011Y12574731D02*
X10131011Y13665238D01*
X10131011Y13509451D02*
X10053118Y13587344D01*
X10053118Y13587344D02*
X9897331Y13665238D01*
X9897331Y13665238D02*
X9663651Y13665238D01*
X9663651Y13665238D02*
X9507864Y13587344D01*
X9507864Y13587344D02*
X9429971Y13431558D01*
X9429971Y13431558D02*
X9429971Y12574731D01*
X9429971Y13431558D02*
X9352078Y13587344D01*
X9352078Y13587344D02*
X9196291Y13665238D01*
X9196291Y13665238D02*
X8962611Y13665238D01*
X8962611Y13665238D02*
X8806824Y13587344D01*
X8806824Y13587344D02*
X8728931Y13431558D01*
X8728931Y13431558D02*
X8728931Y12574731D01*
X30616955Y9941157D02*
X30616955Y11576917D01*
X30616955Y11576917D02*
X30071702Y10408517D01*
X30071702Y10408517D02*
X29526448Y11576917D01*
X29526448Y11576917D02*
X29526448Y9941157D01*
X28046475Y9941157D02*
X28046475Y10797984D01*
X28046475Y10797984D02*
X28124368Y10953770D01*
X28124368Y10953770D02*
X28280155Y11031664D01*
X28280155Y11031664D02*
X28591728Y11031664D01*
X28591728Y11031664D02*
X28747515Y10953770D01*
X28046475Y10019050D02*
X28202262Y9941157D01*
X28202262Y9941157D02*
X28591728Y9941157D01*
X28591728Y9941157D02*
X28747515Y10019050D01*
X28747515Y10019050D02*
X28825408Y10174837D01*
X28825408Y10174837D02*
X28825408Y10330624D01*
X28825408Y10330624D02*
X28747515Y10486410D01*
X28747515Y10486410D02*
X28591728Y10564304D01*
X28591728Y10564304D02*
X28202262Y10564304D01*
X28202262Y10564304D02*
X28046475Y10642197D01*
X27267542Y9941157D02*
X27267542Y11031664D01*
X27267542Y10720090D02*
X27189649Y10875877D01*
X27189649Y10875877D02*
X27111755Y10953770D01*
X27111755Y10953770D02*
X26955969Y11031664D01*
X26955969Y11031664D02*
X26800182Y11031664D01*
X26254929Y9941157D02*
X26254929Y11576917D01*
X26099142Y10564304D02*
X25631782Y9941157D01*
X25631782Y11031664D02*
X26254929Y10408517D01*
X23762342Y10019050D02*
X23528662Y9941157D01*
X23528662Y9941157D02*
X23139196Y9941157D01*
X23139196Y9941157D02*
X22983409Y10019050D01*
X22983409Y10019050D02*
X22905516Y10096944D01*
X22905516Y10096944D02*
X22827622Y10252730D01*
X22827622Y10252730D02*
X22827622Y10408517D01*
X22827622Y10408517D02*
X22905516Y10564304D01*
X22905516Y10564304D02*
X22983409Y10642197D01*
X22983409Y10642197D02*
X23139196Y10720090D01*
X23139196Y10720090D02*
X23450769Y10797984D01*
X23450769Y10797984D02*
X23606556Y10875877D01*
X23606556Y10875877D02*
X23684449Y10953770D01*
X23684449Y10953770D02*
X23762342Y11109557D01*
X23762342Y11109557D02*
X23762342Y11265344D01*
X23762342Y11265344D02*
X23684449Y11421130D01*
X23684449Y11421130D02*
X23606556Y11499024D01*
X23606556Y11499024D02*
X23450769Y11576917D01*
X23450769Y11576917D02*
X23061302Y11576917D01*
X23061302Y11576917D02*
X22827622Y11499024D01*
X21425542Y11031664D02*
X21425542Y9941157D01*
X22126582Y11031664D02*
X22126582Y10174837D01*
X22126582Y10174837D02*
X22048689Y10019050D01*
X22048689Y10019050D02*
X21892902Y9941157D01*
X21892902Y9941157D02*
X21659222Y9941157D01*
X21659222Y9941157D02*
X21503435Y10019050D01*
X21503435Y10019050D02*
X21425542Y10096944D01*
X20646609Y11031664D02*
X20646609Y9395904D01*
X20646609Y10953770D02*
X20490822Y11031664D01*
X20490822Y11031664D02*
X20179249Y11031664D01*
X20179249Y11031664D02*
X20023462Y10953770D01*
X20023462Y10953770D02*
X19945569Y10875877D01*
X19945569Y10875877D02*
X19867676Y10720090D01*
X19867676Y10720090D02*
X19867676Y10252730D01*
X19867676Y10252730D02*
X19945569Y10096944D01*
X19945569Y10096944D02*
X20023462Y10019050D01*
X20023462Y10019050D02*
X20179249Y9941157D01*
X20179249Y9941157D02*
X20490822Y9941157D01*
X20490822Y9941157D02*
X20646609Y10019050D01*
X19166636Y11031664D02*
X19166636Y9395904D01*
X19166636Y10953770D02*
X19010849Y11031664D01*
X19010849Y11031664D02*
X18699276Y11031664D01*
X18699276Y11031664D02*
X18543489Y10953770D01*
X18543489Y10953770D02*
X18465596Y10875877D01*
X18465596Y10875877D02*
X18387703Y10720090D01*
X18387703Y10720090D02*
X18387703Y10252730D01*
X18387703Y10252730D02*
X18465596Y10096944D01*
X18465596Y10096944D02*
X18543489Y10019050D01*
X18543489Y10019050D02*
X18699276Y9941157D01*
X18699276Y9941157D02*
X19010849Y9941157D01*
X19010849Y9941157D02*
X19166636Y10019050D01*
X17063516Y10019050D02*
X17219303Y9941157D01*
X17219303Y9941157D02*
X17530876Y9941157D01*
X17530876Y9941157D02*
X17686663Y10019050D01*
X17686663Y10019050D02*
X17764556Y10174837D01*
X17764556Y10174837D02*
X17764556Y10797984D01*
X17764556Y10797984D02*
X17686663Y10953770D01*
X17686663Y10953770D02*
X17530876Y11031664D01*
X17530876Y11031664D02*
X17219303Y11031664D01*
X17219303Y11031664D02*
X17063516Y10953770D01*
X17063516Y10953770D02*
X16985623Y10797984D01*
X16985623Y10797984D02*
X16985623Y10642197D01*
X16985623Y10642197D02*
X17764556Y10486410D01*
X16050903Y9941157D02*
X16206690Y10019050D01*
X16206690Y10019050D02*
X16284583Y10174837D01*
X16284583Y10174837D02*
X16284583Y11576917D01*
X15661436Y11031664D02*
X15038289Y11031664D01*
X15427756Y11576917D02*
X15427756Y10174837D01*
X15427756Y10174837D02*
X15349863Y10019050D01*
X15349863Y10019050D02*
X15194076Y9941157D01*
X15194076Y9941157D02*
X15038289Y9941157D01*
X30616955Y7307583D02*
X30616955Y8943343D01*
X30616955Y8943343D02*
X29993808Y8943343D01*
X29993808Y8943343D02*
X29838022Y8865450D01*
X29838022Y8865450D02*
X29760128Y8787556D01*
X29760128Y8787556D02*
X29682235Y8631770D01*
X29682235Y8631770D02*
X29682235Y8398090D01*
X29682235Y8398090D02*
X29760128Y8242303D01*
X29760128Y8242303D02*
X29838022Y8164410D01*
X29838022Y8164410D02*
X29993808Y8086516D01*
X29993808Y8086516D02*
X30616955Y8086516D01*
X28981195Y7307583D02*
X28981195Y8398090D01*
X28981195Y8086516D02*
X28903302Y8242303D01*
X28903302Y8242303D02*
X28825408Y8320196D01*
X28825408Y8320196D02*
X28669622Y8398090D01*
X28669622Y8398090D02*
X28513835Y8398090D01*
X27734902Y7307583D02*
X27890689Y7385476D01*
X27890689Y7385476D02*
X27968582Y7463370D01*
X27968582Y7463370D02*
X28046475Y7619156D01*
X28046475Y7619156D02*
X28046475Y8086516D01*
X28046475Y8086516D02*
X27968582Y8242303D01*
X27968582Y8242303D02*
X27890689Y8320196D01*
X27890689Y8320196D02*
X27734902Y8398090D01*
X27734902Y8398090D02*
X27501222Y8398090D01*
X27501222Y8398090D02*
X27345435Y8320196D01*
X27345435Y8320196D02*
X27267542Y8242303D01*
X27267542Y8242303D02*
X27189649Y8086516D01*
X27189649Y8086516D02*
X27189649Y7619156D01*
X27189649Y7619156D02*
X27267542Y7463370D01*
X27267542Y7463370D02*
X27345435Y7385476D01*
X27345435Y7385476D02*
X27501222Y7307583D01*
X27501222Y7307583D02*
X27734902Y7307583D01*
X26722289Y8398090D02*
X26099142Y8398090D01*
X26488609Y7307583D02*
X26488609Y8709663D01*
X26488609Y8709663D02*
X26410716Y8865450D01*
X26410716Y8865450D02*
X26254929Y8943343D01*
X26254929Y8943343D02*
X26099142Y8943343D01*
X25553889Y7463370D02*
X25475996Y7385476D01*
X25475996Y7385476D02*
X25553889Y7307583D01*
X25553889Y7307583D02*
X25631782Y7385476D01*
X25631782Y7385476D02*
X25553889Y7463370D01*
X25553889Y7463370D02*
X25553889Y7307583D01*
X23528663Y7307583D02*
X23528663Y8943343D01*
X23528663Y8943343D02*
X22983410Y7774943D01*
X22983410Y7774943D02*
X22438156Y8943343D01*
X22438156Y8943343D02*
X22438156Y7307583D01*
X20958183Y7307583D02*
X20958183Y8164410D01*
X20958183Y8164410D02*
X21036076Y8320196D01*
X21036076Y8320196D02*
X21191863Y8398090D01*
X21191863Y8398090D02*
X21503436Y8398090D01*
X21503436Y8398090D02*
X21659223Y8320196D01*
X20958183Y7385476D02*
X21113970Y7307583D01*
X21113970Y7307583D02*
X21503436Y7307583D01*
X21503436Y7307583D02*
X21659223Y7385476D01*
X21659223Y7385476D02*
X21737116Y7541263D01*
X21737116Y7541263D02*
X21737116Y7697050D01*
X21737116Y7697050D02*
X21659223Y7852836D01*
X21659223Y7852836D02*
X21503436Y7930730D01*
X21503436Y7930730D02*
X21113970Y7930730D01*
X21113970Y7930730D02*
X20958183Y8008623D01*
X20179250Y7307583D02*
X20179250Y8398090D01*
X20179250Y8086516D02*
X20101357Y8242303D01*
X20101357Y8242303D02*
X20023463Y8320196D01*
X20023463Y8320196D02*
X19867677Y8398090D01*
X19867677Y8398090D02*
X19711890Y8398090D01*
X19166637Y7307583D02*
X19166637Y8398090D01*
X19166637Y8943343D02*
X19244530Y8865450D01*
X19244530Y8865450D02*
X19166637Y8787556D01*
X19166637Y8787556D02*
X19088744Y8865450D01*
X19088744Y8865450D02*
X19166637Y8943343D01*
X19166637Y8943343D02*
X19166637Y8787556D01*
X18154024Y7307583D02*
X18309811Y7385476D01*
X18309811Y7385476D02*
X18387704Y7463370D01*
X18387704Y7463370D02*
X18465597Y7619156D01*
X18465597Y7619156D02*
X18465597Y8086516D01*
X18465597Y8086516D02*
X18387704Y8242303D01*
X18387704Y8242303D02*
X18309811Y8320196D01*
X18309811Y8320196D02*
X18154024Y8398090D01*
X18154024Y8398090D02*
X17920344Y8398090D01*
X17920344Y8398090D02*
X17764557Y8320196D01*
X17764557Y8320196D02*
X17686664Y8242303D01*
X17686664Y8242303D02*
X17608771Y8086516D01*
X17608771Y8086516D02*
X17608771Y7619156D01*
X17608771Y7619156D02*
X17686664Y7463370D01*
X17686664Y7463370D02*
X17764557Y7385476D01*
X17764557Y7385476D02*
X17920344Y7307583D01*
X17920344Y7307583D02*
X18154024Y7307583D01*
X15661438Y7307583D02*
X15661438Y8943343D01*
X14726718Y7307583D02*
X15427758Y8242303D01*
X14726718Y8943343D02*
X15661438Y8008623D01*
X13324638Y8398090D02*
X13324638Y7307583D01*
X14025678Y8398090D02*
X14025678Y7541263D01*
X14025678Y7541263D02*
X13947785Y7385476D01*
X13947785Y7385476D02*
X13791998Y7307583D01*
X13791998Y7307583D02*
X13558318Y7307583D01*
X13558318Y7307583D02*
X13402531Y7385476D01*
X13402531Y7385476D02*
X13324638Y7463370D01*
X12545705Y8398090D02*
X12545705Y6762330D01*
X12545705Y8320196D02*
X12389918Y8398090D01*
X12389918Y8398090D02*
X12078345Y8398090D01*
X12078345Y8398090D02*
X11922558Y8320196D01*
X11922558Y8320196D02*
X11844665Y8242303D01*
X11844665Y8242303D02*
X11766772Y8086516D01*
X11766772Y8086516D02*
X11766772Y7619156D01*
X11766772Y7619156D02*
X11844665Y7463370D01*
X11844665Y7463370D02*
X11922558Y7385476D01*
X11922558Y7385476D02*
X12078345Y7307583D01*
X12078345Y7307583D02*
X12389918Y7307583D01*
X12389918Y7307583D02*
X12545705Y7385476D01*
X11065732Y8398090D02*
X11065732Y7307583D01*
X11065732Y8242303D02*
X10987839Y8320196D01*
X10987839Y8320196D02*
X10832052Y8398090D01*
X10832052Y8398090D02*
X10598372Y8398090D01*
X10598372Y8398090D02*
X10442585Y8320196D01*
X10442585Y8320196D02*
X10364692Y8164410D01*
X10364692Y8164410D02*
X10364692Y7307583D01*
X9585759Y7307583D02*
X9585759Y8398090D01*
X9585759Y8943343D02*
X9663652Y8865450D01*
X9663652Y8865450D02*
X9585759Y8787556D01*
X9585759Y8787556D02*
X9507866Y8865450D01*
X9507866Y8865450D02*
X9585759Y8943343D01*
X9585759Y8943343D02*
X9585759Y8787556D01*
X8806826Y7307583D02*
X8806826Y8943343D01*
X8651039Y7930730D02*
X8183679Y7307583D01*
X8183679Y8398090D02*
X8806826Y7774943D01*
D12*
X6504235Y12974184D02*
X4599474Y12974184D01*
X3408997Y12974184D02*
X1504236Y12974184D01*
X2456616Y12021803D02*
X2456616Y13926565D01*
D13*
X9980952Y42147781D02*
X9409524Y42147781D01*
X9695238Y41147781D02*
X9695238Y42147781D01*
X9076190Y41147781D02*
X9076190Y41814448D01*
X9076190Y41623972D02*
X9028571Y41719210D01*
X9028571Y41719210D02*
X8980952Y41766829D01*
X8980952Y41766829D02*
X8885714Y41814448D01*
X8885714Y41814448D02*
X8790476Y41814448D01*
X8028571Y41147781D02*
X8028571Y41671591D01*
X8028571Y41671591D02*
X8076190Y41766829D01*
X8076190Y41766829D02*
X8171428Y41814448D01*
X8171428Y41814448D02*
X8361904Y41814448D01*
X8361904Y41814448D02*
X8457142Y41766829D01*
X8028571Y41195400D02*
X8123809Y41147781D01*
X8123809Y41147781D02*
X8361904Y41147781D01*
X8361904Y41147781D02*
X8457142Y41195400D01*
X8457142Y41195400D02*
X8504761Y41290639D01*
X8504761Y41290639D02*
X8504761Y41385877D01*
X8504761Y41385877D02*
X8457142Y41481115D01*
X8457142Y41481115D02*
X8361904Y41528734D01*
X8361904Y41528734D02*
X8123809Y41528734D01*
X8123809Y41528734D02*
X8028571Y41576353D01*
X7552380Y41814448D02*
X7552380Y41147781D01*
X7552380Y41719210D02*
X7504761Y41766829D01*
X7504761Y41766829D02*
X7409523Y41814448D01*
X7409523Y41814448D02*
X7266666Y41814448D01*
X7266666Y41814448D02*
X7171428Y41766829D01*
X7171428Y41766829D02*
X7123809Y41671591D01*
X7123809Y41671591D02*
X7123809Y41147781D01*
X6695237Y41195400D02*
X6599999Y41147781D01*
X6599999Y41147781D02*
X6409523Y41147781D01*
X6409523Y41147781D02*
X6314285Y41195400D01*
X6314285Y41195400D02*
X6266666Y41290639D01*
X6266666Y41290639D02*
X6266666Y41338258D01*
X6266666Y41338258D02*
X6314285Y41433496D01*
X6314285Y41433496D02*
X6409523Y41481115D01*
X6409523Y41481115D02*
X6552380Y41481115D01*
X6552380Y41481115D02*
X6647618Y41528734D01*
X6647618Y41528734D02*
X6695237Y41623972D01*
X6695237Y41623972D02*
X6695237Y41671591D01*
X6695237Y41671591D02*
X6647618Y41766829D01*
X6647618Y41766829D02*
X6552380Y41814448D01*
X6552380Y41814448D02*
X6409523Y41814448D01*
X6409523Y41814448D02*
X6314285Y41766829D01*
X5409523Y41147781D02*
X5409523Y42147781D01*
X5409523Y41195400D02*
X5504761Y41147781D01*
X5504761Y41147781D02*
X5695237Y41147781D01*
X5695237Y41147781D02*
X5790475Y41195400D01*
X5790475Y41195400D02*
X5838094Y41243020D01*
X5838094Y41243020D02*
X5885713Y41338258D01*
X5885713Y41338258D02*
X5885713Y41623972D01*
X5885713Y41623972D02*
X5838094Y41719210D01*
X5838094Y41719210D02*
X5790475Y41766829D01*
X5790475Y41766829D02*
X5695237Y41814448D01*
X5695237Y41814448D02*
X5504761Y41814448D01*
X5504761Y41814448D02*
X5409523Y41766829D01*
X4504761Y41814448D02*
X4504761Y41147781D01*
X4933332Y41814448D02*
X4933332Y41290639D01*
X4933332Y41290639D02*
X4885713Y41195400D01*
X4885713Y41195400D02*
X4790475Y41147781D01*
X4790475Y41147781D02*
X4647618Y41147781D01*
X4647618Y41147781D02*
X4552380Y41195400D01*
X4552380Y41195400D02*
X4504761Y41243020D01*
X3599999Y41195400D02*
X3695237Y41147781D01*
X3695237Y41147781D02*
X3885713Y41147781D01*
X3885713Y41147781D02*
X3980951Y41195400D01*
X3980951Y41195400D02*
X4028570Y41243020D01*
X4028570Y41243020D02*
X4076189Y41338258D01*
X4076189Y41338258D02*
X4076189Y41623972D01*
X4076189Y41623972D02*
X4028570Y41719210D01*
X4028570Y41719210D02*
X3980951Y41766829D01*
X3980951Y41766829D02*
X3885713Y41814448D01*
X3885713Y41814448D02*
X3695237Y41814448D01*
X3695237Y41814448D02*
X3599999Y41766829D01*
X2790475Y41195400D02*
X2885713Y41147781D01*
X2885713Y41147781D02*
X3076189Y41147781D01*
X3076189Y41147781D02*
X3171427Y41195400D01*
X3171427Y41195400D02*
X3219046Y41290639D01*
X3219046Y41290639D02*
X3219046Y41671591D01*
X3219046Y41671591D02*
X3171427Y41766829D01*
X3171427Y41766829D02*
X3076189Y41814448D01*
X3076189Y41814448D02*
X2885713Y41814448D01*
X2885713Y41814448D02*
X2790475Y41766829D01*
X2790475Y41766829D02*
X2742856Y41671591D01*
X2742856Y41671591D02*
X2742856Y41576353D01*
X2742856Y41576353D02*
X3219046Y41481115D01*
X2314284Y41147781D02*
X2314284Y41814448D01*
X2314284Y41623972D02*
X2266665Y41719210D01*
X2266665Y41719210D02*
X2219046Y41766829D01*
X2219046Y41766829D02*
X2123808Y41814448D01*
X2123808Y41814448D02*
X2028570Y41814448D01*
X1742855Y41195400D02*
X1647617Y41147781D01*
X1647617Y41147781D02*
X1457141Y41147781D01*
X1457141Y41147781D02*
X1361903Y41195400D01*
X1361903Y41195400D02*
X1314284Y41290639D01*
X1314284Y41290639D02*
X1314284Y41338258D01*
X1314284Y41338258D02*
X1361903Y41433496D01*
X1361903Y41433496D02*
X1457141Y41481115D01*
X1457141Y41481115D02*
X1599998Y41481115D01*
X1599998Y41481115D02*
X1695236Y41528734D01*
X1695236Y41528734D02*
X1742855Y41623972D01*
X1742855Y41623972D02*
X1742855Y41671591D01*
X1742855Y41671591D02*
X1695236Y41766829D01*
X1695236Y41766829D02*
X1599998Y41814448D01*
X1599998Y41814448D02*
X1457141Y41814448D01*
X1457141Y41814448D02*
X1361903Y41766829D01*
D14*
X9076190Y45258671D02*
X8123809Y45258671D01*
X9266666Y44687242D02*
X8600000Y46687242D01*
X8600000Y46687242D02*
X7933333Y44687242D01*
D15*
X42910549Y15554295D02*
X42196264Y15554295D01*
X43053406Y15125724D02*
X42553406Y16625724D01*
X42553406Y16625724D02*
X42053406Y15125724D01*
X40910550Y15197152D02*
X41053407Y15125724D01*
X41053407Y15125724D02*
X41339121Y15125724D01*
X41339121Y15125724D02*
X41481978Y15197152D01*
X41481978Y15197152D02*
X41553407Y15268581D01*
X41553407Y15268581D02*
X41624835Y15411438D01*
X41624835Y15411438D02*
X41624835Y15840010D01*
X41624835Y15840010D02*
X41553407Y15982867D01*
X41553407Y15982867D02*
X41481978Y16054295D01*
X41481978Y16054295D02*
X41339121Y16125724D01*
X41339121Y16125724D02*
X41053407Y16125724D01*
X41053407Y16125724D02*
X40910550Y16054295D01*
X40053407Y15125724D02*
X40196264Y15197152D01*
X40196264Y15197152D02*
X40267693Y15268581D01*
X40267693Y15268581D02*
X40339121Y15411438D01*
X40339121Y15411438D02*
X40339121Y15840010D01*
X40339121Y15840010D02*
X40267693Y15982867D01*
X40267693Y15982867D02*
X40196264Y16054295D01*
X40196264Y16054295D02*
X40053407Y16125724D01*
X40053407Y16125724D02*
X39839121Y16125724D01*
X39839121Y16125724D02*
X39696264Y16054295D01*
X39696264Y16054295D02*
X39624836Y15982867D01*
X39624836Y15982867D02*
X39553407Y15840010D01*
X39553407Y15840010D02*
X39553407Y15411438D01*
X39553407Y15411438D02*
X39624836Y15268581D01*
X39624836Y15268581D02*
X39696264Y15197152D01*
X39696264Y15197152D02*
X39839121Y15125724D01*
X39839121Y15125724D02*
X40053407Y15125724D01*
X38267693Y16125724D02*
X38267693Y15125724D01*
X38910550Y16125724D02*
X38910550Y15340010D01*
X38910550Y15340010D02*
X38839121Y15197152D01*
X38839121Y15197152D02*
X38696264Y15125724D01*
X38696264Y15125724D02*
X38481978Y15125724D01*
X38481978Y15125724D02*
X38339121Y15197152D01*
X38339121Y15197152D02*
X38267693Y15268581D01*
X37624835Y15197152D02*
X37481978Y15125724D01*
X37481978Y15125724D02*
X37196264Y15125724D01*
X37196264Y15125724D02*
X37053407Y15197152D01*
X37053407Y15197152D02*
X36981978Y15340010D01*
X36981978Y15340010D02*
X36981978Y15411438D01*
X36981978Y15411438D02*
X37053407Y15554295D01*
X37053407Y15554295D02*
X37196264Y15625724D01*
X37196264Y15625724D02*
X37410550Y15625724D01*
X37410550Y15625724D02*
X37553407Y15697152D01*
X37553407Y15697152D02*
X37624835Y15840010D01*
X37624835Y15840010D02*
X37624835Y15911438D01*
X37624835Y15911438D02*
X37553407Y16054295D01*
X37553407Y16054295D02*
X37410550Y16125724D01*
X37410550Y16125724D02*
X37196264Y16125724D01*
X37196264Y16125724D02*
X37053407Y16054295D01*
X36553406Y16125724D02*
X35981978Y16125724D01*
X36339121Y16625724D02*
X36339121Y15340010D01*
X36339121Y15340010D02*
X36267692Y15197152D01*
X36267692Y15197152D02*
X36124835Y15125724D01*
X36124835Y15125724D02*
X35981978Y15125724D01*
X35481978Y15125724D02*
X35481978Y16125724D01*
X35481978Y16625724D02*
X35553406Y16554295D01*
X35553406Y16554295D02*
X35481978Y16482867D01*
X35481978Y16482867D02*
X35410549Y16554295D01*
X35410549Y16554295D02*
X35481978Y16625724D01*
X35481978Y16625724D02*
X35481978Y16482867D01*
X34267692Y15911438D02*
X34767692Y15911438D01*
X34767692Y15125724D02*
X34767692Y16625724D01*
X34767692Y16625724D02*
X34053406Y16625724D01*
X33267692Y15125724D02*
X33410549Y15197152D01*
X33410549Y15197152D02*
X33481978Y15340010D01*
X33481978Y15340010D02*
X33481978Y16625724D01*
X32839121Y16125724D02*
X32481978Y15125724D01*
X32124835Y16125724D02*
X32481978Y15125724D01*
X32481978Y15125724D02*
X32624835Y14768581D01*
X32624835Y14768581D02*
X32696264Y14697152D01*
X32696264Y14697152D02*
X32839121Y14625724D01*
X43053406Y14210724D02*
X42553406Y12710724D01*
X42553406Y12710724D02*
X42053406Y14210724D01*
X39624835Y12710724D02*
X40481978Y12710724D01*
X40053407Y12710724D02*
X40053407Y14210724D01*
X40053407Y14210724D02*
X40196264Y13996438D01*
X40196264Y13996438D02*
X40339121Y13853581D01*
X40339121Y13853581D02*
X40481978Y13782152D01*
X38981979Y12853581D02*
X38910550Y12782152D01*
X38910550Y12782152D02*
X38981979Y12710724D01*
X38981979Y12710724D02*
X39053407Y12782152D01*
X39053407Y12782152D02*
X38981979Y12853581D01*
X38981979Y12853581D02*
X38981979Y12710724D01*
X37981978Y14210724D02*
X37839121Y14210724D01*
X37839121Y14210724D02*
X37696264Y14139295D01*
X37696264Y14139295D02*
X37624836Y14067867D01*
X37624836Y14067867D02*
X37553407Y13925010D01*
X37553407Y13925010D02*
X37481978Y13639295D01*
X37481978Y13639295D02*
X37481978Y13282152D01*
X37481978Y13282152D02*
X37553407Y12996438D01*
X37553407Y12996438D02*
X37624836Y12853581D01*
X37624836Y12853581D02*
X37696264Y12782152D01*
X37696264Y12782152D02*
X37839121Y12710724D01*
X37839121Y12710724D02*
X37981978Y12710724D01*
X37981978Y12710724D02*
X38124836Y12782152D01*
X38124836Y12782152D02*
X38196264Y12853581D01*
X38196264Y12853581D02*
X38267693Y12996438D01*
X38267693Y12996438D02*
X38339121Y13282152D01*
X38339121Y13282152D02*
X38339121Y13639295D01*
X38339121Y13639295D02*
X38267693Y13925010D01*
X38267693Y13925010D02*
X38196264Y14067867D01*
X38196264Y14067867D02*
X38124836Y14139295D01*
X38124836Y14139295D02*
X37981978Y14210724D01*
D10*
X36724687Y46667581D02*
X37058020Y47143772D01*
X37296115Y46667581D02*
X37296115Y47667581D01*
X37296115Y47667581D02*
X36915163Y47667581D01*
X36915163Y47667581D02*
X36819925Y47619962D01*
X36819925Y47619962D02*
X36772306Y47572343D01*
X36772306Y47572343D02*
X36724687Y47477105D01*
X36724687Y47477105D02*
X36724687Y47334248D01*
X36724687Y47334248D02*
X36772306Y47239010D01*
X36772306Y47239010D02*
X36819925Y47191391D01*
X36819925Y47191391D02*
X36915163Y47143772D01*
X36915163Y47143772D02*
X37296115Y47143772D01*
X36296115Y47191391D02*
X35962782Y47191391D01*
X35819925Y46667581D02*
X36296115Y46667581D01*
X36296115Y46667581D02*
X36296115Y47667581D01*
X36296115Y47667581D02*
X35819925Y47667581D01*
X35438972Y46715200D02*
X35296115Y46667581D01*
X35296115Y46667581D02*
X35058020Y46667581D01*
X35058020Y46667581D02*
X34962782Y46715200D01*
X34962782Y46715200D02*
X34915163Y46762820D01*
X34915163Y46762820D02*
X34867544Y46858058D01*
X34867544Y46858058D02*
X34867544Y46953296D01*
X34867544Y46953296D02*
X34915163Y47048534D01*
X34915163Y47048534D02*
X34962782Y47096153D01*
X34962782Y47096153D02*
X35058020Y47143772D01*
X35058020Y47143772D02*
X35248496Y47191391D01*
X35248496Y47191391D02*
X35343734Y47239010D01*
X35343734Y47239010D02*
X35391353Y47286629D01*
X35391353Y47286629D02*
X35438972Y47381867D01*
X35438972Y47381867D02*
X35438972Y47477105D01*
X35438972Y47477105D02*
X35391353Y47572343D01*
X35391353Y47572343D02*
X35343734Y47619962D01*
X35343734Y47619962D02*
X35248496Y47667581D01*
X35248496Y47667581D02*
X35010401Y47667581D01*
X35010401Y47667581D02*
X34867544Y47619962D01*
X34438972Y47191391D02*
X34105639Y47191391D01*
X33962782Y46667581D02*
X34438972Y46667581D01*
X34438972Y46667581D02*
X34438972Y47667581D01*
X34438972Y47667581D02*
X33962782Y47667581D01*
X33677067Y47667581D02*
X33105639Y47667581D01*
X33391353Y46667581D02*
X33391353Y47667581D01*
X31486591Y47619962D02*
X31581829Y47667581D01*
X31581829Y47667581D02*
X31724686Y47667581D01*
X31724686Y47667581D02*
X31867543Y47619962D01*
X31867543Y47619962D02*
X31962781Y47524724D01*
X31962781Y47524724D02*
X32010400Y47429486D01*
X32010400Y47429486D02*
X32058019Y47239010D01*
X32058019Y47239010D02*
X32058019Y47096153D01*
X32058019Y47096153D02*
X32010400Y46905677D01*
X32010400Y46905677D02*
X31962781Y46810439D01*
X31962781Y46810439D02*
X31867543Y46715200D01*
X31867543Y46715200D02*
X31724686Y46667581D01*
X31724686Y46667581D02*
X31629448Y46667581D01*
X31629448Y46667581D02*
X31486591Y46715200D01*
X31486591Y46715200D02*
X31438972Y46762820D01*
X31438972Y46762820D02*
X31438972Y47096153D01*
X31438972Y47096153D02*
X31629448Y47096153D01*
X31010400Y46667581D02*
X31010400Y47667581D01*
X31010400Y47667581D02*
X30438972Y46667581D01*
X30438972Y46667581D02*
X30438972Y47667581D01*
X29962781Y46667581D02*
X29962781Y47667581D01*
X29962781Y47667581D02*
X29724686Y47667581D01*
X29724686Y47667581D02*
X29581829Y47619962D01*
X29581829Y47619962D02*
X29486591Y47524724D01*
X29486591Y47524724D02*
X29438972Y47429486D01*
X29438972Y47429486D02*
X29391353Y47239010D01*
X29391353Y47239010D02*
X29391353Y47096153D01*
X29391353Y47096153D02*
X29438972Y46905677D01*
X29438972Y46905677D02*
X29486591Y46810439D01*
X29486591Y46810439D02*
X29581829Y46715200D01*
X29581829Y46715200D02*
X29724686Y46667581D01*
X29724686Y46667581D02*
X29962781Y46667581D01*
X37343734Y43495200D02*
X37200877Y43447581D01*
X37200877Y43447581D02*
X36962782Y43447581D01*
X36962782Y43447581D02*
X36867544Y43495200D01*
X36867544Y43495200D02*
X36819925Y43542820D01*
X36819925Y43542820D02*
X36772306Y43638058D01*
X36772306Y43638058D02*
X36772306Y43733296D01*
X36772306Y43733296D02*
X36819925Y43828534D01*
X36819925Y43828534D02*
X36867544Y43876153D01*
X36867544Y43876153D02*
X36962782Y43923772D01*
X36962782Y43923772D02*
X37153258Y43971391D01*
X37153258Y43971391D02*
X37248496Y44019010D01*
X37248496Y44019010D02*
X37296115Y44066629D01*
X37296115Y44066629D02*
X37343734Y44161867D01*
X37343734Y44161867D02*
X37343734Y44257105D01*
X37343734Y44257105D02*
X37296115Y44352343D01*
X37296115Y44352343D02*
X37248496Y44399962D01*
X37248496Y44399962D02*
X37153258Y44447581D01*
X37153258Y44447581D02*
X36915163Y44447581D01*
X36915163Y44447581D02*
X36772306Y44399962D01*
X35772306Y43542820D02*
X35819925Y43495200D01*
X35819925Y43495200D02*
X35962782Y43447581D01*
X35962782Y43447581D02*
X36058020Y43447581D01*
X36058020Y43447581D02*
X36200877Y43495200D01*
X36200877Y43495200D02*
X36296115Y43590439D01*
X36296115Y43590439D02*
X36343734Y43685677D01*
X36343734Y43685677D02*
X36391353Y43876153D01*
X36391353Y43876153D02*
X36391353Y44019010D01*
X36391353Y44019010D02*
X36343734Y44209486D01*
X36343734Y44209486D02*
X36296115Y44304724D01*
X36296115Y44304724D02*
X36200877Y44399962D01*
X36200877Y44399962D02*
X36058020Y44447581D01*
X36058020Y44447581D02*
X35962782Y44447581D01*
X35962782Y44447581D02*
X35819925Y44399962D01*
X35819925Y44399962D02*
X35772306Y44352343D01*
X35343734Y43447581D02*
X35343734Y44447581D01*
X34772306Y43447581D02*
X35200877Y44019010D01*
X34772306Y44447581D02*
X35343734Y43876153D01*
X32058019Y43447581D02*
X32058019Y44447581D01*
X32058019Y44447581D02*
X31724686Y43733296D01*
X31724686Y43733296D02*
X31391353Y44447581D01*
X31391353Y44447581D02*
X31391353Y43447581D01*
X30724686Y44447581D02*
X30534210Y44447581D01*
X30534210Y44447581D02*
X30438972Y44399962D01*
X30438972Y44399962D02*
X30343734Y44304724D01*
X30343734Y44304724D02*
X30296115Y44114248D01*
X30296115Y44114248D02*
X30296115Y43780915D01*
X30296115Y43780915D02*
X30343734Y43590439D01*
X30343734Y43590439D02*
X30438972Y43495200D01*
X30438972Y43495200D02*
X30534210Y43447581D01*
X30534210Y43447581D02*
X30724686Y43447581D01*
X30724686Y43447581D02*
X30819924Y43495200D01*
X30819924Y43495200D02*
X30915162Y43590439D01*
X30915162Y43590439D02*
X30962781Y43780915D01*
X30962781Y43780915D02*
X30962781Y44114248D01*
X30962781Y44114248D02*
X30915162Y44304724D01*
X30915162Y44304724D02*
X30819924Y44399962D01*
X30819924Y44399962D02*
X30724686Y44447581D01*
X29915162Y43495200D02*
X29772305Y43447581D01*
X29772305Y43447581D02*
X29534210Y43447581D01*
X29534210Y43447581D02*
X29438972Y43495200D01*
X29438972Y43495200D02*
X29391353Y43542820D01*
X29391353Y43542820D02*
X29343734Y43638058D01*
X29343734Y43638058D02*
X29343734Y43733296D01*
X29343734Y43733296D02*
X29391353Y43828534D01*
X29391353Y43828534D02*
X29438972Y43876153D01*
X29438972Y43876153D02*
X29534210Y43923772D01*
X29534210Y43923772D02*
X29724686Y43971391D01*
X29724686Y43971391D02*
X29819924Y44019010D01*
X29819924Y44019010D02*
X29867543Y44066629D01*
X29867543Y44066629D02*
X29915162Y44161867D01*
X29915162Y44161867D02*
X29915162Y44257105D01*
X29915162Y44257105D02*
X29867543Y44352343D01*
X29867543Y44352343D02*
X29819924Y44399962D01*
X29819924Y44399962D02*
X29724686Y44447581D01*
X29724686Y44447581D02*
X29486591Y44447581D01*
X29486591Y44447581D02*
X29343734Y44399962D01*
X28915162Y43447581D02*
X28915162Y44447581D01*
X37296115Y40227581D02*
X37296115Y41227581D01*
X37296115Y41227581D02*
X36962782Y40513296D01*
X36962782Y40513296D02*
X36629449Y41227581D01*
X36629449Y41227581D02*
X36629449Y40227581D01*
X36153258Y40227581D02*
X36153258Y41227581D01*
X35724687Y40275200D02*
X35581830Y40227581D01*
X35581830Y40227581D02*
X35343735Y40227581D01*
X35343735Y40227581D02*
X35248497Y40275200D01*
X35248497Y40275200D02*
X35200878Y40322820D01*
X35200878Y40322820D02*
X35153259Y40418058D01*
X35153259Y40418058D02*
X35153259Y40513296D01*
X35153259Y40513296D02*
X35200878Y40608534D01*
X35200878Y40608534D02*
X35248497Y40656153D01*
X35248497Y40656153D02*
X35343735Y40703772D01*
X35343735Y40703772D02*
X35534211Y40751391D01*
X35534211Y40751391D02*
X35629449Y40799010D01*
X35629449Y40799010D02*
X35677068Y40846629D01*
X35677068Y40846629D02*
X35724687Y40941867D01*
X35724687Y40941867D02*
X35724687Y41037105D01*
X35724687Y41037105D02*
X35677068Y41132343D01*
X35677068Y41132343D02*
X35629449Y41179962D01*
X35629449Y41179962D02*
X35534211Y41227581D01*
X35534211Y41227581D02*
X35296116Y41227581D01*
X35296116Y41227581D02*
X35153259Y41179962D01*
X34534211Y41227581D02*
X34343735Y41227581D01*
X34343735Y41227581D02*
X34248497Y41179962D01*
X34248497Y41179962D02*
X34153259Y41084724D01*
X34153259Y41084724D02*
X34105640Y40894248D01*
X34105640Y40894248D02*
X34105640Y40560915D01*
X34105640Y40560915D02*
X34153259Y40370439D01*
X34153259Y40370439D02*
X34248497Y40275200D01*
X34248497Y40275200D02*
X34343735Y40227581D01*
X34343735Y40227581D02*
X34534211Y40227581D01*
X34534211Y40227581D02*
X34629449Y40275200D01*
X34629449Y40275200D02*
X34724687Y40370439D01*
X34724687Y40370439D02*
X34772306Y40560915D01*
X34772306Y40560915D02*
X34772306Y40894248D01*
X34772306Y40894248D02*
X34724687Y41084724D01*
X34724687Y41084724D02*
X34629449Y41179962D01*
X34629449Y41179962D02*
X34534211Y41227581D01*
X32296115Y41227581D02*
X31962782Y40227581D01*
X31962782Y40227581D02*
X31629449Y41227581D01*
X30724687Y40322820D02*
X30772306Y40275200D01*
X30772306Y40275200D02*
X30915163Y40227581D01*
X30915163Y40227581D02*
X31010401Y40227581D01*
X31010401Y40227581D02*
X31153258Y40275200D01*
X31153258Y40275200D02*
X31248496Y40370439D01*
X31248496Y40370439D02*
X31296115Y40465677D01*
X31296115Y40465677D02*
X31343734Y40656153D01*
X31343734Y40656153D02*
X31343734Y40799010D01*
X31343734Y40799010D02*
X31296115Y40989486D01*
X31296115Y40989486D02*
X31248496Y41084724D01*
X31248496Y41084724D02*
X31153258Y41179962D01*
X31153258Y41179962D02*
X31010401Y41227581D01*
X31010401Y41227581D02*
X30915163Y41227581D01*
X30915163Y41227581D02*
X30772306Y41179962D01*
X30772306Y41179962D02*
X30724687Y41132343D01*
X29724687Y40322820D02*
X29772306Y40275200D01*
X29772306Y40275200D02*
X29915163Y40227581D01*
X29915163Y40227581D02*
X30010401Y40227581D01*
X30010401Y40227581D02*
X30153258Y40275200D01*
X30153258Y40275200D02*
X30248496Y40370439D01*
X30248496Y40370439D02*
X30296115Y40465677D01*
X30296115Y40465677D02*
X30343734Y40656153D01*
X30343734Y40656153D02*
X30343734Y40799010D01*
X30343734Y40799010D02*
X30296115Y40989486D01*
X30296115Y40989486D02*
X30248496Y41084724D01*
X30248496Y41084724D02*
X30153258Y41179962D01*
X30153258Y41179962D02*
X30010401Y41227581D01*
X30010401Y41227581D02*
X29915163Y41227581D01*
X29915163Y41227581D02*
X29772306Y41179962D01*
X29772306Y41179962D02*
X29724687Y41132343D01*
D14*
X8457142Y38234861D02*
X8171428Y38139623D01*
X8171428Y38139623D02*
X8076190Y38044385D01*
X8076190Y38044385D02*
X7980952Y37853909D01*
X7980952Y37853909D02*
X7980952Y37568195D01*
X7980952Y37568195D02*
X8076190Y37377719D01*
X8076190Y37377719D02*
X8171428Y37282480D01*
X8171428Y37282480D02*
X8361904Y37187242D01*
X8361904Y37187242D02*
X9123809Y37187242D01*
X9123809Y37187242D02*
X9123809Y39187242D01*
X9123809Y39187242D02*
X8457142Y39187242D01*
X8457142Y39187242D02*
X8266666Y39092004D01*
X8266666Y39092004D02*
X8171428Y38996766D01*
X8171428Y38996766D02*
X8076190Y38806290D01*
X8076190Y38806290D02*
X8076190Y38615814D01*
X8076190Y38615814D02*
X8171428Y38425338D01*
X8171428Y38425338D02*
X8266666Y38330100D01*
X8266666Y38330100D02*
X8457142Y38234861D01*
X8457142Y38234861D02*
X9123809Y38234861D01*
D13*
X4946993Y15506591D02*
X4804136Y15458972D01*
X4804136Y15458972D02*
X4756517Y15411353D01*
X4756517Y15411353D02*
X4708898Y15316115D01*
X4708898Y15316115D02*
X4708898Y15173258D01*
X4708898Y15173258D02*
X4756517Y15078020D01*
X4756517Y15078020D02*
X4804136Y15030400D01*
X4804136Y15030400D02*
X4899374Y14982781D01*
X4899374Y14982781D02*
X5280326Y14982781D01*
X5280326Y14982781D02*
X5280326Y15982781D01*
X5280326Y15982781D02*
X4946993Y15982781D01*
X4946993Y15982781D02*
X4851755Y15935162D01*
X4851755Y15935162D02*
X4804136Y15887543D01*
X4804136Y15887543D02*
X4756517Y15792305D01*
X4756517Y15792305D02*
X4756517Y15697067D01*
X4756517Y15697067D02*
X4804136Y15601829D01*
X4804136Y15601829D02*
X4851755Y15554210D01*
X4851755Y15554210D02*
X4946993Y15506591D01*
X4946993Y15506591D02*
X5280326Y15506591D01*
X3851755Y14982781D02*
X3851755Y15506591D01*
X3851755Y15506591D02*
X3899374Y15601829D01*
X3899374Y15601829D02*
X3994612Y15649448D01*
X3994612Y15649448D02*
X4185088Y15649448D01*
X4185088Y15649448D02*
X4280326Y15601829D01*
X3851755Y15030400D02*
X3946993Y14982781D01*
X3946993Y14982781D02*
X4185088Y14982781D01*
X4185088Y14982781D02*
X4280326Y15030400D01*
X4280326Y15030400D02*
X4327945Y15125639D01*
X4327945Y15125639D02*
X4327945Y15220877D01*
X4327945Y15220877D02*
X4280326Y15316115D01*
X4280326Y15316115D02*
X4185088Y15363734D01*
X4185088Y15363734D02*
X3946993Y15363734D01*
X3946993Y15363734D02*
X3851755Y15411353D01*
X3518421Y15649448D02*
X3137469Y15649448D01*
X3375564Y15982781D02*
X3375564Y15125639D01*
X3375564Y15125639D02*
X3327945Y15030400D01*
X3327945Y15030400D02*
X3232707Y14982781D01*
X3232707Y14982781D02*
X3137469Y14982781D01*
X2946992Y15649448D02*
X2566040Y15649448D01*
X2804135Y15982781D02*
X2804135Y15125639D01*
X2804135Y15125639D02*
X2756516Y15030400D01*
X2756516Y15030400D02*
X2661278Y14982781D01*
X2661278Y14982781D02*
X2566040Y14982781D01*
%TO.C,G\u002A\u002A\u002A*%
G36*
X37077964Y10130986D02*
G01*
X37081462Y10006862D01*
X37084520Y9894265D01*
X37087106Y9794330D01*
X37089188Y9708188D01*
X37090736Y9636973D01*
X37091717Y9581819D01*
X37092099Y9543858D01*
X37091853Y9524224D01*
X37090961Y9509440D01*
X37086709Y9461658D01*
X37079572Y9421817D01*
X37067737Y9386298D01*
X37049396Y9351478D01*
X37022736Y9313737D01*
X36985946Y9269454D01*
X36937216Y9215006D01*
X36937116Y9214896D01*
X36912102Y9187333D01*
X36887060Y9159517D01*
X36860941Y9130235D01*
X36832693Y9098273D01*
X36801265Y9062419D01*
X36765607Y9021458D01*
X36724668Y8974178D01*
X36677397Y8919364D01*
X36622744Y8855803D01*
X36559658Y8782282D01*
X36487088Y8697588D01*
X36403983Y8600506D01*
X36309294Y8489824D01*
X36190999Y8352574D01*
X36069185Y8213926D01*
X35956534Y8088937D01*
X35851891Y7976470D01*
X35754101Y7875388D01*
X35662010Y7784556D01*
X35574461Y7702837D01*
X35490301Y7629094D01*
X35408374Y7562192D01*
X35327525Y7500995D01*
X35246599Y7444365D01*
X35159778Y7389218D01*
X35022802Y7315949D01*
X34889124Y7261685D01*
X34758892Y7226493D01*
X34746496Y7224053D01*
X34718521Y7219073D01*
X34692490Y7215742D01*
X34664840Y7214004D01*
X34632011Y7213802D01*
X34590440Y7215079D01*
X34536566Y7217779D01*
X34466826Y7221845D01*
X34430067Y7224089D01*
X34372449Y7228141D01*
X34322595Y7233093D01*
X34278088Y7239901D01*
X34236508Y7249523D01*
X34195437Y7262914D01*
X34152458Y7281031D01*
X34105151Y7304831D01*
X34051098Y7335271D01*
X33987881Y7373306D01*
X33913082Y7419893D01*
X33824281Y7475990D01*
X33766847Y7512265D01*
X33682171Y7565517D01*
X33590513Y7622950D01*
X33497286Y7681182D01*
X33407901Y7736826D01*
X33327769Y7786501D01*
X33253452Y7832596D01*
X33171170Y7884196D01*
X33101650Y7928665D01*
X33042639Y7967556D01*
X32991885Y8002427D01*
X32947135Y8034833D01*
X32906138Y8066330D01*
X32866640Y8098474D01*
X32826389Y8132820D01*
X32767766Y8185003D01*
X32647718Y8299627D01*
X32526927Y8425579D01*
X32404580Y8563864D01*
X32279863Y8715491D01*
X32151962Y8881466D01*
X32020063Y9062796D01*
X31883352Y9260487D01*
X31741015Y9475546D01*
X31725283Y9499970D01*
X31691227Y9554129D01*
X31661256Y9603534D01*
X31637049Y9645322D01*
X31620282Y9676630D01*
X31612632Y9694596D01*
X31611881Y9698092D01*
X31608284Y9724078D01*
X31604540Y9763713D01*
X31601052Y9812256D01*
X31598218Y9864968D01*
X31596538Y9952191D01*
X31605629Y10114433D01*
X31631096Y10275927D01*
X31634194Y10287843D01*
X32292613Y10287843D01*
X32299126Y10202544D01*
X32312818Y10127750D01*
X32337943Y10045606D01*
X32382890Y9944451D01*
X32441392Y9854418D01*
X32515170Y9772480D01*
X32535366Y9753174D01*
X32554693Y9735756D01*
X32564268Y9729913D01*
X32566541Y9734419D01*
X32563966Y9748045D01*
X32561274Y9756620D01*
X32550731Y9783458D01*
X32534220Y9821908D01*
X32513380Y9868200D01*
X32489851Y9918564D01*
X32459031Y9985626D01*
X32427259Y10063265D01*
X32405038Y10131228D01*
X32391431Y10193081D01*
X32385500Y10252392D01*
X32386310Y10312728D01*
X32389234Y10345946D01*
X32399227Y10409346D01*
X32413846Y10467973D01*
X32431748Y10516931D01*
X32451596Y10551323D01*
X32471059Y10575661D01*
X32464939Y10444232D01*
X32464329Y10430296D01*
X32462829Y10360683D01*
X32464854Y10297148D01*
X32471173Y10236817D01*
X32482552Y10176819D01*
X32499761Y10114282D01*
X32523567Y10046334D01*
X32554740Y9970102D01*
X32594046Y9882715D01*
X32642255Y9781299D01*
X32669986Y9723707D01*
X32697042Y9666950D01*
X32720052Y9618074D01*
X32737895Y9579483D01*
X32749448Y9553583D01*
X32753589Y9542779D01*
X32755790Y9536210D01*
X32764855Y9520985D01*
X32776890Y9504548D01*
X32787452Y9492798D01*
X32792098Y9491637D01*
X32792054Y9492198D01*
X32789384Y9505959D01*
X32783064Y9535232D01*
X32773758Y9577040D01*
X32762126Y9628404D01*
X32748830Y9686347D01*
X32735438Y9745231D01*
X32720958Y9810744D01*
X32707815Y9872036D01*
X32697059Y9924198D01*
X32689742Y9962323D01*
X32689167Y9965594D01*
X32680552Y10025943D01*
X32673757Y10094639D01*
X32669063Y10166171D01*
X32666750Y10235030D01*
X32667099Y10295707D01*
X32670389Y10342690D01*
X32677706Y10400422D01*
X32699786Y10350668D01*
X32701353Y10347200D01*
X32726383Y10305134D01*
X32754900Y10278373D01*
X32784746Y10268992D01*
X32790487Y10268307D01*
X32797766Y10261489D01*
X32801193Y10243831D01*
X32802050Y10211037D01*
X32803005Y10185719D01*
X32807119Y10151675D01*
X32813377Y10128223D01*
X32816201Y10123204D01*
X32838459Y10101688D01*
X32875059Y10079931D01*
X32922047Y10059989D01*
X32975469Y10043919D01*
X32992122Y10039672D01*
X33013932Y10032047D01*
X33022449Y10023565D01*
X33021639Y10011437D01*
X33017723Y9994342D01*
X33012221Y9957271D01*
X33008764Y9916964D01*
X33007903Y9880872D01*
X33010190Y9856446D01*
X33014473Y9844294D01*
X33028805Y9826610D01*
X33053846Y9814381D01*
X33092485Y9806457D01*
X33147605Y9801687D01*
X33235167Y9796819D01*
X33278592Y9724169D01*
X33284067Y9715296D01*
X33308674Y9679573D01*
X33338578Y9640730D01*
X33370980Y9601906D01*
X33403086Y9566242D01*
X33432096Y9536880D01*
X33455216Y9516959D01*
X33469648Y9509621D01*
X33471201Y9509741D01*
X33475907Y9515690D01*
X33473466Y9532947D01*
X33463517Y9564764D01*
X33455387Y9589965D01*
X33449205Y9613228D01*
X33448284Y9623646D01*
X33448286Y9623647D01*
X33456008Y9618753D01*
X33472599Y9601635D01*
X33495240Y9575636D01*
X33521110Y9544103D01*
X33547390Y9510378D01*
X33571259Y9477808D01*
X33586504Y9457921D01*
X33601988Y9442050D01*
X33610564Y9438866D01*
X33611567Y9440307D01*
X33619152Y9456135D01*
X33630712Y9484140D01*
X33644174Y9519356D01*
X33647445Y9528134D01*
X33660757Y9562219D01*
X33671773Y9587993D01*
X33678377Y9600441D01*
X33678928Y9600841D01*
X33685534Y9594171D01*
X33695140Y9573236D01*
X33705869Y9542027D01*
X33711631Y9524150D01*
X33741437Y9454464D01*
X33777969Y9399303D01*
X33819987Y9360239D01*
X33866251Y9338841D01*
X33880098Y9336002D01*
X33888690Y9339039D01*
X33891930Y9352939D01*
X33892430Y9382004D01*
X33892956Y9400499D01*
X33895604Y9422960D01*
X33899731Y9431719D01*
X33904683Y9428322D01*
X33917956Y9412422D01*
X33934700Y9387909D01*
X33945763Y9370871D01*
X33959301Y9351612D01*
X33966142Y9344117D01*
X33967685Y9345286D01*
X33976270Y9358142D01*
X33988551Y9380625D01*
X33991744Y9386614D01*
X34009677Y9414616D01*
X34027299Y9435324D01*
X34028249Y9436167D01*
X34055576Y9448441D01*
X34087534Y9441906D01*
X34124016Y9416635D01*
X34164915Y9372703D01*
X34210124Y9310181D01*
X34226629Y9285224D01*
X34250314Y9250195D01*
X34268070Y9225855D01*
X34282878Y9208527D01*
X34297722Y9194536D01*
X34315583Y9180205D01*
X34319281Y9177362D01*
X34336665Y9165393D01*
X34345369Y9165034D01*
X34350872Y9175566D01*
X34356032Y9184348D01*
X34363314Y9180194D01*
X34375553Y9160283D01*
X34384167Y9146153D01*
X34405765Y9115317D01*
X34429897Y9084727D01*
X34434381Y9079369D01*
X34450871Y9057301D01*
X34462237Y9035210D01*
X34469975Y9008238D01*
X34475580Y8971528D01*
X34480547Y8920224D01*
X34482854Y8900454D01*
X34487928Y8871583D01*
X34495976Y8835599D01*
X34507511Y8790603D01*
X34523047Y8734697D01*
X34543095Y8665980D01*
X34568169Y8582555D01*
X34598782Y8482522D01*
X34605667Y8459713D01*
X34621333Y8404354D01*
X34634625Y8352663D01*
X34644313Y8309584D01*
X34649167Y8280063D01*
X34651046Y8256772D01*
X34650397Y8231950D01*
X34643951Y8214527D01*
X34630045Y8197311D01*
X34608352Y8170830D01*
X34590411Y8141053D01*
X34583653Y8118080D01*
X34587441Y8113995D01*
X34606693Y8109407D01*
X34638559Y8107704D01*
X34664358Y8106864D01*
X34690924Y8101820D01*
X34705458Y8091302D01*
X34711584Y8085636D01*
X34738640Y8075050D01*
X34784416Y8067463D01*
X34798777Y8066074D01*
X34841772Y8063428D01*
X34893043Y8061838D01*
X34949508Y8061229D01*
X35008083Y8061528D01*
X35065687Y8062659D01*
X35119237Y8064549D01*
X35165649Y8067124D01*
X35201843Y8070309D01*
X35224734Y8074030D01*
X35231241Y8078214D01*
X35234816Y8082694D01*
X35253045Y8088335D01*
X35282045Y8092896D01*
X35322679Y8097440D01*
X35355000Y8102128D01*
X35371007Y8107308D01*
X35372360Y8114377D01*
X35360721Y8124734D01*
X35337750Y8139775D01*
X35329613Y8144902D01*
X35308548Y8156938D01*
X35288938Y8164467D01*
X35265552Y8168560D01*
X35233159Y8170288D01*
X35186527Y8170721D01*
X35173750Y8170766D01*
X35131101Y8171412D01*
X35102018Y8173496D01*
X35081739Y8177948D01*
X35065504Y8185699D01*
X35048551Y8197677D01*
X35030678Y8213762D01*
X35004557Y8248415D01*
X34980485Y8296013D01*
X34957438Y8358724D01*
X34934389Y8438712D01*
X34929416Y8458693D01*
X34918385Y8509761D01*
X34908200Y8565366D01*
X34899397Y8621579D01*
X34892510Y8674469D01*
X34888077Y8720106D01*
X34886632Y8754560D01*
X34888711Y8773901D01*
X34890850Y8776879D01*
X34907499Y8785659D01*
X34933655Y8791787D01*
X34951421Y8795293D01*
X34983798Y8808504D01*
X35017303Y8832199D01*
X35054734Y8868545D01*
X35098889Y8919707D01*
X35106373Y8928788D01*
X35188707Y9018130D01*
X35275702Y9092619D01*
X35372231Y9156472D01*
X35412916Y9181384D01*
X35449438Y9207142D01*
X35485143Y9236801D01*
X35524457Y9274046D01*
X35571809Y9322562D01*
X35577384Y9328399D01*
X35614475Y9367091D01*
X35661740Y9416213D01*
X35716310Y9472794D01*
X35775320Y9533864D01*
X35835901Y9596453D01*
X35895186Y9657588D01*
X35919988Y9683165D01*
X35976936Y9742256D01*
X36022433Y9790254D01*
X36058148Y9829115D01*
X36085746Y9860799D01*
X36106894Y9887263D01*
X36123260Y9910466D01*
X36136509Y9932364D01*
X36148310Y9954917D01*
X36157528Y9973775D01*
X36170582Y10002996D01*
X36178962Y10028665D01*
X36183899Y10056538D01*
X36186627Y10092369D01*
X36188380Y10141915D01*
X36188791Y10158656D01*
X36188837Y10210476D01*
X36186306Y10258693D01*
X36180461Y10305342D01*
X36170565Y10352455D01*
X36155881Y10402068D01*
X36135672Y10456214D01*
X36109200Y10516927D01*
X36075730Y10586242D01*
X36034523Y10666193D01*
X35984842Y10758814D01*
X35925951Y10866139D01*
X35752926Y11179264D01*
X35810169Y11192134D01*
X35841366Y11200785D01*
X35883992Y11221823D01*
X35909157Y11250189D01*
X35917420Y11286374D01*
X35916331Y11304898D01*
X35906024Y11341086D01*
X35882871Y11376919D01*
X35844470Y11416685D01*
X35799231Y11458384D01*
X35898907Y11451317D01*
X35998582Y11444251D01*
X35977702Y11472394D01*
X35973540Y11477931D01*
X35951611Y11505913D01*
X35928323Y11534319D01*
X35899823Y11568101D01*
X35923225Y11595913D01*
X35926386Y11599918D01*
X35943249Y11638753D01*
X35946312Y11690671D01*
X35935526Y11755048D01*
X35931508Y11769173D01*
X35918409Y11795615D01*
X35899018Y11810008D01*
X35880802Y11817921D01*
X35870846Y11822489D01*
X35870532Y11825883D01*
X35872985Y11843398D01*
X35878478Y11870487D01*
X35881705Y11886393D01*
X35884960Y11910178D01*
X35884178Y11921578D01*
X35880371Y11921367D01*
X35864982Y11912735D01*
X35843013Y11896217D01*
X35830315Y11886188D01*
X35811637Y11873409D01*
X35802574Y11870130D01*
X35802374Y11870453D01*
X35802371Y11882964D01*
X35805426Y11908925D01*
X35810951Y11943206D01*
X35817201Y11987096D01*
X35816717Y12014103D01*
X35808817Y12023988D01*
X35792975Y12017394D01*
X35768666Y11994963D01*
X35757197Y11982759D01*
X35732536Y11955568D01*
X35713846Y11933768D01*
X35694151Y11909429D01*
X35693678Y11992181D01*
X35693151Y12025195D01*
X35690604Y12064145D01*
X35685339Y12085042D01*
X35676635Y12088727D01*
X35663772Y12076043D01*
X35646028Y12047829D01*
X35630830Y12022609D01*
X35613765Y11997314D01*
X35601881Y11983164D01*
X35595581Y11979827D01*
X35589892Y11983393D01*
X35585154Y11996956D01*
X35580847Y12022878D01*
X35576451Y12063517D01*
X35571445Y12121235D01*
X35570575Y12131021D01*
X35566491Y12163629D01*
X35561845Y12185359D01*
X35557481Y12191930D01*
X35557312Y12191813D01*
X35550979Y12179983D01*
X35542041Y12154713D01*
X35532377Y12121289D01*
X35519015Y12075354D01*
X35504786Y12036352D01*
X35491893Y12010996D01*
X35481505Y12002022D01*
X35480035Y12002985D01*
X35471941Y12016538D01*
X35460014Y12042747D01*
X35446265Y12077310D01*
X35418077Y12152493D01*
X35398718Y12101544D01*
X35387426Y12073617D01*
X35377140Y12057834D01*
X35363578Y12051656D01*
X35341720Y12050594D01*
X35332067Y12050147D01*
X35297573Y12039895D01*
X35273920Y12018524D01*
X35265140Y11989262D01*
X35265276Y11985773D01*
X35275155Y11954170D01*
X35298096Y11918599D01*
X35330494Y11883758D01*
X35368741Y11854342D01*
X35370480Y11853247D01*
X35401783Y11832149D01*
X35420768Y11814510D01*
X35426509Y11798464D01*
X35418082Y11782148D01*
X35394560Y11763698D01*
X35355017Y11741248D01*
X35298528Y11712935D01*
X35257632Y11692018D01*
X35195712Y11654515D01*
X35146154Y11614475D01*
X35104564Y11568080D01*
X35066545Y11511513D01*
X35060199Y11500650D01*
X35037913Y11457007D01*
X35018162Y11407932D01*
X35000140Y11350628D01*
X34983042Y11282299D01*
X34966061Y11200148D01*
X34948393Y11101380D01*
X34947428Y11095687D01*
X34924577Y10965911D01*
X34903018Y10853357D01*
X34882851Y10758460D01*
X34864172Y10681653D01*
X34847080Y10623369D01*
X34831672Y10584041D01*
X34818301Y10559997D01*
X34786807Y10521306D01*
X34743666Y10488155D01*
X34684984Y10457175D01*
X34667436Y10450063D01*
X34623083Y10435819D01*
X34568326Y10421302D01*
X34508946Y10407783D01*
X34450722Y10396533D01*
X34399435Y10388822D01*
X34360865Y10385921D01*
X34358576Y10385923D01*
X34304259Y10391567D01*
X34255488Y10409138D01*
X34209688Y10440373D01*
X34164286Y10487013D01*
X34116704Y10550796D01*
X34097237Y10578884D01*
X34037809Y10659007D01*
X33972654Y10739870D01*
X33904428Y10818585D01*
X33835784Y10892265D01*
X33769377Y10958022D01*
X33707861Y11012969D01*
X33653892Y11054219D01*
X33612237Y11081147D01*
X33520867Y11130137D01*
X33429250Y11164215D01*
X33334453Y11183860D01*
X33233540Y11189553D01*
X33123577Y11181774D01*
X33001629Y11161004D01*
X32929464Y11144870D01*
X32851044Y11124063D01*
X32786504Y11102310D01*
X32732705Y11078520D01*
X32686509Y11051603D01*
X32639958Y11017900D01*
X32553206Y10939321D01*
X32474647Y10847276D01*
X32406883Y10745429D01*
X32352513Y10637444D01*
X32314139Y10526984D01*
X32301025Y10460596D01*
X32293254Y10376306D01*
X32292613Y10287843D01*
X31634194Y10287843D01*
X31673390Y10438604D01*
X31732961Y10604398D01*
X31810258Y10775240D01*
X31825917Y10806489D01*
X31865233Y10881988D01*
X31906022Y10955699D01*
X31949338Y11029099D01*
X31996234Y11103664D01*
X32047762Y11180869D01*
X32104976Y11262189D01*
X32168929Y11349100D01*
X32240673Y11443077D01*
X32321262Y11545597D01*
X32411749Y11658135D01*
X32513186Y11782165D01*
X32626628Y11919165D01*
X32662758Y11962616D01*
X32746043Y12063070D01*
X32820220Y12153080D01*
X32887804Y12235788D01*
X32951309Y12314331D01*
X33013248Y12391849D01*
X33076137Y12471481D01*
X33142489Y12556366D01*
X33214820Y12649644D01*
X33295643Y12754454D01*
X33316200Y12781908D01*
X33352137Y12833438D01*
X33390121Y12892462D01*
X33430981Y12960456D01*
X33475545Y13038894D01*
X33524644Y13129252D01*
X33579107Y13233003D01*
X33639763Y13351623D01*
X33707441Y13486585D01*
X33734381Y13540642D01*
X33774741Y13621310D01*
X33812758Y13696927D01*
X33847382Y13765426D01*
X33877565Y13824740D01*
X33902257Y13872803D01*
X33920410Y13907549D01*
X33930974Y13926911D01*
X33960736Y13977815D01*
X34026075Y13933995D01*
X34074351Y13903825D01*
X34172441Y13852141D01*
X34286985Y13801990D01*
X34416071Y13754115D01*
X34557785Y13709259D01*
X34710214Y13668167D01*
X34719159Y13665954D01*
X34780307Y13651046D01*
X34848618Y13634702D01*
X34920831Y13617670D01*
X34993685Y13600704D01*
X35063918Y13584552D01*
X35128269Y13569967D01*
X35183476Y13557698D01*
X35226279Y13548497D01*
X35253416Y13543115D01*
X35276781Y13534998D01*
X35299007Y13511325D01*
X35303107Y13502477D01*
X35315053Y13468627D01*
X35329278Y13418034D01*
X35345940Y13350070D01*
X35365196Y13264109D01*
X35387204Y13159522D01*
X35388323Y13154083D01*
X35415003Y13029145D01*
X35440043Y12921904D01*
X35463924Y12830764D01*
X35487127Y12754133D01*
X35510134Y12690417D01*
X35533424Y12638024D01*
X35557479Y12595359D01*
X35567334Y12580476D01*
X35593336Y12548401D01*
X35620757Y12529368D01*
X35655499Y12520245D01*
X35703465Y12517900D01*
X35726234Y12518126D01*
X35751528Y12519104D01*
X35778777Y12521155D01*
X35810129Y12524597D01*
X35847731Y12529750D01*
X35893728Y12536932D01*
X35950269Y12546463D01*
X36019499Y12558661D01*
X36103567Y12573845D01*
X36204618Y12592334D01*
X36306447Y12610862D01*
X36403538Y12628032D01*
X36485939Y12641904D01*
X36555962Y12652792D01*
X36615915Y12661012D01*
X36668108Y12666876D01*
X36714853Y12670699D01*
X36758457Y12672795D01*
X36801232Y12673478D01*
X36828327Y12673247D01*
X36884564Y12669849D01*
X36926488Y12661720D01*
X36957565Y12647979D01*
X36981259Y12627746D01*
X36982924Y12625387D01*
X36985177Y12620067D01*
X36987334Y12611618D01*
X36989434Y12599134D01*
X36991516Y12581706D01*
X36993621Y12558428D01*
X36995788Y12528392D01*
X36998056Y12490691D01*
X37000466Y12444417D01*
X37003058Y12388662D01*
X37005870Y12322521D01*
X37008943Y12245084D01*
X37012316Y12155446D01*
X37016030Y12052697D01*
X37020123Y11935932D01*
X37024635Y11804243D01*
X37029607Y11656721D01*
X37035077Y11492461D01*
X37041087Y11310554D01*
X37047674Y11110093D01*
X37049497Y11054354D01*
X37054974Y10884860D01*
X37060200Y10720096D01*
X37065144Y10561192D01*
X37069773Y10409284D01*
X37074057Y10265505D01*
X37075655Y10210476D01*
X37077964Y10130986D01*
G37*
G36*
X34775722Y27239733D02*
G01*
X34810846Y27125831D01*
X34787768Y27024386D01*
X34689398Y27000245D01*
X34625642Y27027841D01*
X34567950Y27125831D01*
X34586153Y27182987D01*
X34689398Y27251418D01*
X34775722Y27239733D01*
G37*
G36*
X34455680Y27636402D02*
G01*
X34520192Y27524078D01*
X34510145Y27440821D01*
X34399541Y27403427D01*
X34301378Y27428666D01*
X34255655Y27547313D01*
X34273770Y27621511D01*
X34355651Y27670451D01*
X34455680Y27636402D01*
G37*
G36*
X23221229Y24696870D02*
G01*
X23221229Y23517088D01*
X23047731Y23517088D01*
X22874234Y23517088D01*
X22874234Y24696870D01*
X22874234Y25876651D01*
X23047731Y25876651D01*
X23221229Y25876651D01*
X23221229Y24696870D01*
G37*
G36*
X16836529Y28548509D02*
G01*
X16836529Y27334028D01*
X16663032Y27334028D01*
X16489535Y27334028D01*
X16489535Y28548509D01*
X16489535Y29762990D01*
X16663032Y29762990D01*
X16836529Y29762990D01*
X16836529Y28548509D01*
G37*
G36*
X13921775Y24696870D02*
G01*
X13921775Y23517088D01*
X13748278Y23517088D01*
X13574781Y23517088D01*
X13574781Y24696870D01*
X13574781Y25876651D01*
X13748278Y25876651D01*
X13921775Y25876651D01*
X13921775Y24696870D01*
G37*
G36*
X34140122Y28029106D02*
G01*
X34221489Y27928136D01*
X34225071Y27826480D01*
X34196568Y27792202D01*
X34078575Y27747540D01*
X33961628Y27782402D01*
X33908660Y27885124D01*
X33920709Y27965100D01*
X33984719Y28066832D01*
X34032382Y28077980D01*
X34140122Y28029106D01*
G37*
G36*
X10865497Y26014716D02*
G01*
X10978357Y25974019D01*
X11007021Y25841952D01*
X11006288Y25809979D01*
X10965591Y25697118D01*
X10833524Y25668454D01*
X10801551Y25669187D01*
X10688690Y25709885D01*
X10660026Y25841952D01*
X10660759Y25873924D01*
X10701457Y25986785D01*
X10833524Y26015449D01*
X10865497Y26014716D01*
G37*
G36*
X9755114Y26014716D02*
G01*
X9867975Y25974019D01*
X9896638Y25841952D01*
X9895906Y25809979D01*
X9855208Y25697118D01*
X9723141Y25668454D01*
X9691168Y25669187D01*
X9578307Y25709885D01*
X9549644Y25841952D01*
X9550377Y25873924D01*
X9591074Y25986785D01*
X9723141Y26015449D01*
X9755114Y26014716D01*
G37*
G36*
X36938470Y21492112D02*
G01*
X36807973Y21334958D01*
X36687941Y21263701D01*
X36580518Y21226924D01*
X36540467Y21231729D01*
X36387288Y21309634D01*
X36255096Y21443584D01*
X36198824Y21582416D01*
X36203670Y21613451D01*
X36441720Y21613451D01*
X36453026Y21534035D01*
X36535019Y21457134D01*
X36677379Y21498644D01*
X36711510Y21528749D01*
X36737999Y21639441D01*
X36680099Y21739715D01*
X36563378Y21768944D01*
X36496189Y21733888D01*
X36441720Y21613451D01*
X36203670Y21613451D01*
X36227612Y21766787D01*
X36346333Y21931509D01*
X36543303Y21990312D01*
X36721566Y21956174D01*
X36880697Y21838797D01*
X36957855Y21672084D01*
X36954339Y21639441D01*
X36938470Y21492112D01*
G37*
G36*
X28199828Y29762284D02*
G01*
X28466347Y29757433D01*
X28634391Y29744806D01*
X28726506Y29720796D01*
X28765240Y29681793D01*
X28773141Y29624192D01*
X28771656Y29592088D01*
X28738077Y29523719D01*
X28634275Y29492702D01*
X28426147Y29485394D01*
X28079152Y29485394D01*
X28079152Y28409711D01*
X28079152Y27334028D01*
X27905655Y27334028D01*
X27732158Y27334028D01*
X27732158Y28409711D01*
X27732158Y29485394D01*
X27385163Y29485394D01*
X27304904Y29485988D01*
X27133981Y29499420D01*
X27056437Y29540940D01*
X27038169Y29624192D01*
X27042581Y29671260D01*
X27072897Y29713903D01*
X27151815Y29740790D01*
X27301882Y29755528D01*
X27545647Y29761726D01*
X27905655Y29762990D01*
X28199828Y29762284D01*
G37*
G36*
X15222233Y22059005D02*
G01*
X15488752Y22054155D01*
X15656795Y22041528D01*
X15748910Y22017517D01*
X15787645Y21978515D01*
X15795546Y21920913D01*
X15794061Y21888810D01*
X15760481Y21820440D01*
X15656680Y21789423D01*
X15448551Y21782115D01*
X15101556Y21782115D01*
X15101556Y20706432D01*
X15101556Y19630749D01*
X14928059Y19630749D01*
X14754562Y19630749D01*
X14754562Y20706432D01*
X14754562Y21782115D01*
X14407567Y21782115D01*
X14327308Y21782709D01*
X14156385Y21796141D01*
X14078842Y21837662D01*
X14060573Y21920913D01*
X14064985Y21967981D01*
X14095301Y22010624D01*
X14174219Y22037511D01*
X14324287Y22052249D01*
X14568051Y22058447D01*
X14928059Y22059711D01*
X15222233Y22059005D01*
G37*
G36*
X12585074Y25875945D02*
G01*
X12851593Y25871094D01*
X13019637Y25858468D01*
X13111752Y25834457D01*
X13150486Y25795455D01*
X13158387Y25737853D01*
X13156902Y25705749D01*
X13123323Y25637380D01*
X13019521Y25606363D01*
X12811393Y25599055D01*
X12464398Y25599055D01*
X12464398Y24558072D01*
X12464398Y23517088D01*
X12290901Y23517088D01*
X12117403Y23517088D01*
X12117403Y24558072D01*
X12117403Y25599055D01*
X11770409Y25599055D01*
X11690150Y25599649D01*
X11519227Y25613081D01*
X11441683Y25654602D01*
X11423414Y25737853D01*
X11427826Y25784921D01*
X11458143Y25827564D01*
X11537061Y25854451D01*
X11687128Y25869189D01*
X11930892Y25875387D01*
X12290901Y25876651D01*
X12585074Y25875945D01*
G37*
G36*
X8406839Y22059218D02*
G01*
X8679715Y22054820D01*
X8851914Y22042623D01*
X8946436Y22018796D01*
X8986282Y21979504D01*
X8994453Y21920913D01*
X8994333Y21910942D01*
X8969603Y21828907D01*
X8877317Y21791197D01*
X8682158Y21782115D01*
X8369862Y21782115D01*
X8369862Y20706432D01*
X8369862Y19630749D01*
X8196365Y19630749D01*
X8022868Y19630749D01*
X8022868Y20706432D01*
X8022868Y21782115D01*
X7675873Y21782115D01*
X7595614Y21782709D01*
X7424691Y21796141D01*
X7347148Y21837662D01*
X7328879Y21920913D01*
X7331838Y21961775D01*
X7358228Y22007255D01*
X7431405Y22035955D01*
X7574370Y22051708D01*
X7810123Y22058349D01*
X8161666Y22059711D01*
X8406839Y22059218D01*
G37*
G36*
X28495546Y20853719D02*
G01*
X28495546Y19630749D01*
X28000455Y19630749D01*
X27731799Y19640416D01*
X27449371Y19668999D01*
X27241248Y19709881D01*
X26925416Y19865728D01*
X26673616Y20120072D01*
X26509521Y20442079D01*
X26441917Y20805258D01*
X26446488Y20851110D01*
X26766649Y20851110D01*
X26820869Y20530372D01*
X26993036Y20255141D01*
X27274728Y20050210D01*
X27339886Y20021567D01*
X27606804Y19940799D01*
X27858167Y19908345D01*
X28148551Y19908345D01*
X28148551Y20854939D01*
X28148551Y21801534D01*
X27769094Y21762370D01*
X27362825Y21675648D01*
X27059481Y21506264D01*
X26865793Y21254185D01*
X26838796Y21192564D01*
X26766649Y20851110D01*
X26446488Y20851110D01*
X26479586Y21183122D01*
X26631314Y21549181D01*
X26806336Y21754413D01*
X27063874Y21903670D01*
X27418581Y21998664D01*
X27888305Y22046456D01*
X28495546Y22076689D01*
X28495546Y21801534D01*
X28495546Y20853719D01*
G37*
G36*
X20665033Y29762105D02*
G01*
X20736900Y29743207D01*
X20774861Y29676252D01*
X20789716Y29530997D01*
X20792267Y29277197D01*
X20792267Y28791405D01*
X21382158Y28791405D01*
X21972048Y28791405D01*
X21972048Y29277197D01*
X21972364Y29406735D01*
X21979114Y29607963D01*
X22003026Y29714252D01*
X22054903Y29755846D01*
X22145546Y29762990D01*
X22319043Y29762990D01*
X22319043Y28548509D01*
X22319043Y27334028D01*
X22145546Y27334028D01*
X22072427Y27337397D01*
X22015237Y27366275D01*
X21985343Y27448992D01*
X21973897Y27613867D01*
X21972048Y27889219D01*
X21972048Y28444411D01*
X21382158Y28444411D01*
X20792267Y28444411D01*
X20792267Y27889219D01*
X20791214Y27655240D01*
X20782190Y27472232D01*
X20756341Y27376573D01*
X20704817Y27339944D01*
X20618770Y27334028D01*
X20445272Y27334028D01*
X20445272Y28548509D01*
X20445272Y29762990D01*
X20618770Y29762990D01*
X20665033Y29762105D01*
G37*
G36*
X11354016Y20846409D02*
G01*
X11354016Y19614194D01*
X10709077Y19642401D01*
X10370439Y19667003D01*
X10026528Y19730626D01*
X9771965Y19841613D01*
X9579953Y20012776D01*
X9423695Y20256927D01*
X9413189Y20277700D01*
X9294196Y20648901D01*
X9291776Y20762294D01*
X9625076Y20762294D01*
X9701863Y20467991D01*
X9868860Y20211467D01*
X10124480Y20024239D01*
X10178125Y20001682D01*
X10427967Y19935123D01*
X10687864Y19908345D01*
X11007021Y19908345D01*
X11007021Y20854939D01*
X11007021Y21801534D01*
X10633136Y21762945D01*
X10500083Y21744376D01*
X10241545Y21685686D01*
X10044420Y21613264D01*
X9951852Y21556712D01*
X9748482Y21338171D01*
X9640086Y21062859D01*
X9625076Y20762294D01*
X9291776Y20762294D01*
X9286136Y21026508D01*
X9381222Y21380528D01*
X9571666Y21680963D01*
X9849682Y21897819D01*
X10022642Y21957304D01*
X10325740Y22011331D01*
X10711697Y22045026D01*
X11354016Y22078623D01*
X11354016Y21801534D01*
X11354016Y20846409D01*
G37*
G36*
X8406839Y25876158D02*
G01*
X8679715Y25871759D01*
X8851914Y25859563D01*
X8946436Y25835736D01*
X8986282Y25796444D01*
X8994453Y25737853D01*
X8992968Y25705749D01*
X8959389Y25637380D01*
X8855587Y25606363D01*
X8647458Y25599055D01*
X8300464Y25599055D01*
X8300464Y24558072D01*
X8300360Y24381224D01*
X8298309Y24031272D01*
X8291497Y23791183D01*
X8277177Y23640339D01*
X8252597Y23558120D01*
X8215010Y23523910D01*
X8161666Y23517088D01*
X8138086Y23517864D01*
X8091426Y23533248D01*
X8059414Y23584334D01*
X8039301Y23691741D01*
X8028339Y23876087D01*
X8023778Y24157991D01*
X8022868Y24558072D01*
X8022868Y25599055D01*
X7675873Y25599055D01*
X7595614Y25599649D01*
X7424691Y25613081D01*
X7347148Y25654602D01*
X7328879Y25737853D01*
X7331838Y25778715D01*
X7358228Y25824195D01*
X7431405Y25852895D01*
X7574370Y25868648D01*
X7810123Y25875289D01*
X8161666Y25876651D01*
X8406839Y25876158D01*
G37*
G36*
X12819211Y29796305D02*
G01*
X13192970Y29694241D01*
X13511663Y29504159D01*
X13632500Y29386010D01*
X13828991Y29072391D01*
X13920590Y28718918D01*
X13910371Y28354776D01*
X13801408Y28009148D01*
X13596775Y27711220D01*
X13299544Y27490176D01*
X12954368Y27369780D01*
X12541260Y27342356D01*
X12150580Y27434290D01*
X12084730Y27463881D01*
X11963048Y27551636D01*
X11954183Y27648078D01*
X12007476Y27716503D01*
X12144324Y27716170D01*
X12186535Y27704796D01*
X12376184Y27668148D01*
X12603196Y27637316D01*
X12930265Y27659591D01*
X13212203Y27795476D01*
X13421382Y28027682D01*
X13541292Y28337665D01*
X13555425Y28706884D01*
X13520591Y28874111D01*
X13371727Y29163184D01*
X13140617Y29381956D01*
X12855784Y29514228D01*
X12545750Y29543802D01*
X12239039Y29454480D01*
X12125295Y29401226D01*
X12040525Y29401414D01*
X11977911Y29486693D01*
X11948570Y29605086D01*
X12038431Y29688467D01*
X12089154Y29713528D01*
X12436051Y29804639D01*
X12819211Y29796305D01*
G37*
G36*
X19890081Y24696870D02*
G01*
X19890081Y23517088D01*
X19230791Y23517088D01*
X18936762Y23518939D01*
X18738341Y23528323D01*
X18628488Y23550662D01*
X18581457Y23591376D01*
X18571502Y23655886D01*
X18571637Y23666934D01*
X18588845Y23735544D01*
X18655738Y23774052D01*
X18801995Y23790939D01*
X19057294Y23794684D01*
X19543087Y23794684D01*
X19543087Y24211077D01*
X19543087Y24627471D01*
X19091994Y24627471D01*
X18859442Y24631196D01*
X18717584Y24649275D01*
X18654960Y24691153D01*
X18640901Y24766268D01*
X18653009Y24837823D01*
X18711764Y24881471D01*
X18847869Y24900740D01*
X19091994Y24905066D01*
X19543087Y24905066D01*
X19543087Y25252061D01*
X19543087Y25599055D01*
X19057294Y25599055D01*
X19018625Y25599094D01*
X18778492Y25604011D01*
X18643712Y25623123D01*
X18584608Y25664911D01*
X18571502Y25737853D01*
X18580296Y25799754D01*
X18624867Y25841527D01*
X18730975Y25864654D01*
X18924368Y25874555D01*
X19230791Y25876651D01*
X19890081Y25876651D01*
X19890081Y24696870D01*
G37*
G36*
X26968770Y24944803D02*
G01*
X26968797Y24823026D01*
X26970498Y24482868D01*
X26977976Y24248902D01*
X26995528Y24095836D01*
X27027454Y23998378D01*
X27078053Y23931236D01*
X27151626Y23869120D01*
X27218465Y23822772D01*
X27481487Y23731375D01*
X27748777Y23756110D01*
X27978208Y23895628D01*
X28046246Y23970015D01*
X28094315Y24052381D01*
X28124366Y24167078D01*
X28140612Y24340721D01*
X28147269Y24599927D01*
X28148551Y24971311D01*
X28148551Y25876651D01*
X28322048Y25876651D01*
X28495546Y25876651D01*
X28495546Y24971019D01*
X28490145Y24567431D01*
X28466521Y24209212D01*
X28417990Y23949581D01*
X28337987Y23767244D01*
X28219949Y23640904D01*
X28057311Y23549265D01*
X27914409Y23499073D01*
X27575358Y23454479D01*
X27238729Y23495418D01*
X26945074Y23614115D01*
X26734943Y23802795D01*
X26691212Y23886572D01*
X26657197Y24020815D01*
X26635902Y24221924D01*
X26624903Y24513842D01*
X26621775Y24920508D01*
X26621775Y25876651D01*
X26795272Y25876651D01*
X26968770Y25876651D01*
X26968770Y24944803D01*
G37*
G36*
X26621775Y28548509D02*
G01*
X26621775Y27334028D01*
X25927786Y27334028D01*
X25890619Y27334039D01*
X25587170Y27336431D01*
X25394886Y27346481D01*
X25288644Y27369213D01*
X25243322Y27409654D01*
X25233797Y27472826D01*
X25234613Y27497810D01*
X25257093Y27559109D01*
X25332024Y27593397D01*
X25488168Y27608345D01*
X25754289Y27611624D01*
X26274781Y27611624D01*
X26274781Y28028017D01*
X26274781Y28444411D01*
X25823688Y28444411D01*
X25591136Y28448136D01*
X25449278Y28466215D01*
X25386654Y28508093D01*
X25372595Y28583208D01*
X25384703Y28654763D01*
X25443458Y28698411D01*
X25579563Y28717680D01*
X25823688Y28722006D01*
X26274781Y28722006D01*
X26274781Y29103700D01*
X26274781Y29485394D01*
X25754289Y29485394D01*
X25660597Y29485612D01*
X25430727Y29491607D01*
X25302146Y29511588D01*
X25246090Y29553226D01*
X25233797Y29624192D01*
X25233854Y29631625D01*
X25245810Y29692315D01*
X25296060Y29730772D01*
X25409724Y29752020D01*
X25611925Y29761085D01*
X25927786Y29762990D01*
X26621775Y29762990D01*
X26621775Y28548509D01*
G37*
G36*
X8716857Y28548509D02*
G01*
X8716857Y27334028D01*
X8022868Y27334028D01*
X7985701Y27334039D01*
X7682252Y27336431D01*
X7489968Y27346481D01*
X7383726Y27369213D01*
X7338404Y27409654D01*
X7328879Y27472826D01*
X7329695Y27497810D01*
X7352175Y27559109D01*
X7427106Y27593397D01*
X7583250Y27608345D01*
X7849371Y27611624D01*
X8369862Y27611624D01*
X8369862Y28028017D01*
X8369862Y28444411D01*
X7918770Y28444411D01*
X7686218Y28448136D01*
X7544360Y28466215D01*
X7481736Y28508093D01*
X7467677Y28583208D01*
X7479785Y28654763D01*
X7538540Y28698411D01*
X7674645Y28717680D01*
X7918770Y28722006D01*
X8369862Y28722006D01*
X8369862Y29103700D01*
X8369862Y29485394D01*
X7849371Y29485394D01*
X7755679Y29485612D01*
X7525809Y29491607D01*
X7397228Y29511588D01*
X7341172Y29553226D01*
X7328879Y29624192D01*
X7328936Y29631625D01*
X7340892Y29692315D01*
X7391142Y29730772D01*
X7504806Y29752020D01*
X7707007Y29761085D01*
X8022868Y29762990D01*
X8716857Y29762990D01*
X8716857Y28548509D01*
G37*
G36*
X23773398Y29804108D02*
G01*
X23974451Y29763240D01*
X24334111Y29600093D01*
X24598548Y29338957D01*
X24761675Y28987133D01*
X24817403Y28551924D01*
X24795620Y28280181D01*
X24672241Y27903243D01*
X24445883Y27610107D01*
X24123379Y27411994D01*
X24066924Y27392048D01*
X23825311Y27345356D01*
X23558305Y27338084D01*
X23298599Y27365187D01*
X23078886Y27421621D01*
X22931857Y27502339D01*
X22890206Y27602298D01*
X22936733Y27674899D01*
X23084597Y27690193D01*
X23157280Y27681652D01*
X23370607Y27665833D01*
X23615750Y27655494D01*
X23667368Y27654491D01*
X23883343Y27667001D01*
X24036419Y27725433D01*
X24189397Y27851214D01*
X24303673Y27978954D01*
X24456270Y28270136D01*
X24500783Y28574290D01*
X24450113Y28869898D01*
X24317167Y29135441D01*
X24114848Y29349401D01*
X23856060Y29490259D01*
X23553708Y29536496D01*
X23220694Y29466595D01*
X23131360Y29433166D01*
X22970636Y29395827D01*
X22893866Y29436829D01*
X22874234Y29563685D01*
X22897577Y29626321D01*
X23026927Y29717796D01*
X23239197Y29784118D01*
X23499612Y29815988D01*
X23773398Y29804108D01*
G37*
G36*
X20646195Y25907425D02*
G01*
X20658161Y25886822D01*
X20713813Y25757870D01*
X20802456Y25533253D01*
X20914743Y25236963D01*
X21041328Y24892995D01*
X21394488Y23920172D01*
X21764167Y24934138D01*
X21795962Y25021214D01*
X21929944Y25382126D01*
X22029782Y25633530D01*
X22105016Y25793412D01*
X22165187Y25879754D01*
X22219833Y25910540D01*
X22278493Y25903756D01*
X22369291Y25873177D01*
X22447259Y25838128D01*
X22431004Y25771048D01*
X22372729Y25599380D01*
X22281646Y25347587D01*
X22166977Y25040123D01*
X22037947Y24701442D01*
X21903777Y24355998D01*
X21773691Y24028244D01*
X21656911Y23742635D01*
X21643165Y23711122D01*
X21538154Y23560876D01*
X21395859Y23517088D01*
X21355629Y23520555D01*
X21295149Y23548526D01*
X21232518Y23619345D01*
X21158415Y23750431D01*
X21063523Y23959208D01*
X20938522Y24263096D01*
X20774095Y24679520D01*
X20763906Y24705561D01*
X20605515Y25112637D01*
X20493390Y25410091D01*
X20422816Y25616279D01*
X20389077Y25749557D01*
X20387458Y25828281D01*
X20413242Y25870807D01*
X20461715Y25895492D01*
X20555820Y25919258D01*
X20646195Y25907425D01*
G37*
G36*
X34445469Y24613916D02*
G01*
X34435427Y24524651D01*
X34311761Y24467549D01*
X34283435Y24463169D01*
X34109659Y24450826D01*
X33854249Y24444267D01*
X33561666Y24444841D01*
X32971775Y24453973D01*
X32951298Y24633462D01*
X33395859Y24633462D01*
X33429059Y24558884D01*
X33443114Y24566283D01*
X33724310Y24566283D01*
X33724342Y24566306D01*
X33792224Y24585016D01*
X33939581Y24618359D01*
X34143998Y24662224D01*
X33963815Y24744321D01*
X33876617Y24780272D01*
X33790536Y24780927D01*
X33766980Y24731179D01*
X33748545Y24692245D01*
X33730082Y24615309D01*
X33724310Y24566283D01*
X33443114Y24566283D01*
X33515400Y24604338D01*
X33528370Y24620674D01*
X33559501Y24731179D01*
X33548976Y24849722D01*
X33500357Y24905066D01*
X33451734Y24861878D01*
X33405883Y24731569D01*
X33395859Y24633462D01*
X32951298Y24633462D01*
X32948794Y24655409D01*
X32907243Y24815705D01*
X32822885Y24959773D01*
X32756398Y25064656D01*
X32807996Y25137421D01*
X32983827Y25165973D01*
X33279494Y25148494D01*
X33421376Y25127050D01*
X33709428Y25055099D01*
X33973865Y24955936D01*
X34196686Y24841434D01*
X34359888Y24723469D01*
X34407732Y24662224D01*
X34445469Y24613916D01*
G37*
G36*
X15449284Y25897572D02*
G01*
X15705330Y25770840D01*
X15873732Y25562626D01*
X15934343Y25286760D01*
X15887714Y25042671D01*
X15721441Y24813633D01*
X15426615Y24618456D01*
X15330130Y24568034D01*
X15054303Y24386540D01*
X14911354Y24211580D01*
X14897313Y24035888D01*
X15008214Y23852197D01*
X15141657Y23770872D01*
X15349677Y23727863D01*
X15560016Y23738044D01*
X15709326Y23805622D01*
X15785410Y23849240D01*
X15896703Y23797125D01*
X15989506Y23692811D01*
X15967056Y23605997D01*
X15812895Y23524617D01*
X15725082Y23500901D01*
X15498990Y23474205D01*
X15245945Y23473469D01*
X15028395Y23504248D01*
X14760655Y23625689D01*
X14599951Y23835449D01*
X14546365Y24133451D01*
X14576335Y24330979D01*
X14687615Y24520816D01*
X14898099Y24704527D01*
X15225479Y24902138D01*
X15371473Y24992166D01*
X15543644Y25168695D01*
X15577498Y25351845D01*
X15472853Y25541145D01*
X15448740Y25564304D01*
X15262223Y25643977D01*
X15012777Y25647048D01*
X14746168Y25571599D01*
X14670057Y25558402D01*
X14587670Y25641568D01*
X14573806Y25695473D01*
X14609483Y25792336D01*
X14751393Y25862809D01*
X15015764Y25917349D01*
X15125743Y25928992D01*
X15449284Y25897572D01*
G37*
G36*
X16970309Y22051855D02*
G01*
X17156826Y21994481D01*
X17327660Y21856853D01*
X17473740Y21665130D01*
X17537163Y21417719D01*
X17466674Y21172218D01*
X17264758Y20935836D01*
X16933904Y20715782D01*
X16756570Y20617339D01*
X16605844Y20510654D01*
X16531089Y20407203D01*
X16502806Y20276961D01*
X16499082Y20222008D01*
X16531918Y20059109D01*
X16665846Y19934819D01*
X16785882Y19869781D01*
X16931194Y19849718D01*
X17136540Y19890349D01*
X17208164Y19908016D01*
X17381670Y19937577D01*
X17476643Y19933451D01*
X17494475Y19920802D01*
X17533687Y19824104D01*
X17464160Y19719260D01*
X17304972Y19638993D01*
X17063587Y19583739D01*
X16795049Y19580643D01*
X16527591Y19659574D01*
X16312449Y19790596D01*
X16182283Y19994307D01*
X16142540Y20288631D01*
X16151003Y20393868D01*
X16246531Y20625074D01*
X16457618Y20830503D01*
X16795882Y21023219D01*
X16864685Y21057811D01*
X17086348Y21225699D01*
X17172360Y21416587D01*
X17121856Y21628871D01*
X17104088Y21658208D01*
X16942644Y21785050D01*
X16718538Y21817788D01*
X16471876Y21749009D01*
X16317012Y21695316D01*
X16189627Y21727546D01*
X16143603Y21870582D01*
X16189640Y21931712D01*
X16340586Y21995732D01*
X16560459Y22041943D01*
X16811686Y22059711D01*
X16970309Y22051855D01*
G37*
G36*
X15223119Y29808299D02*
G01*
X15299768Y29792956D01*
X15572056Y29669073D01*
X15738887Y29456644D01*
X15795546Y29161002D01*
X15775179Y28952968D01*
X15686503Y28763511D01*
X15506293Y28606451D01*
X15211842Y28454297D01*
X15044814Y28367256D01*
X14846166Y28192965D01*
X14777957Y28000477D01*
X14844347Y27797227D01*
X14852860Y27784498D01*
X15009199Y27633526D01*
X15212387Y27591450D01*
X15488570Y27652391D01*
X15607675Y27689615D01*
X15741190Y27706035D01*
X15809583Y27660686D01*
X15851664Y27581127D01*
X15836697Y27497585D01*
X15708797Y27418729D01*
X15583103Y27375676D01*
X15300680Y27342199D01*
X15002802Y27362330D01*
X14760891Y27434854D01*
X14743068Y27444534D01*
X14549866Y27626667D01*
X14441353Y27880055D01*
X14439680Y28155035D01*
X14469053Y28256589D01*
X14563851Y28415697D01*
X14734744Y28558544D01*
X15010222Y28712991D01*
X15032206Y28724220D01*
X15300283Y28902686D01*
X15448224Y29093039D01*
X15466911Y29283885D01*
X15417295Y29395212D01*
X15254009Y29511156D01*
X14992664Y29529106D01*
X14633114Y29449089D01*
X14598986Y29439114D01*
X14501142Y29441528D01*
X14476966Y29541317D01*
X14478853Y29562718D01*
X14561043Y29680316D01*
X14737561Y29769419D01*
X14970792Y29816566D01*
X15223119Y29808299D01*
G37*
G36*
X23360026Y20845230D02*
G01*
X23360026Y19630749D01*
X23186529Y19630749D01*
X23138148Y19631747D01*
X23067434Y19651280D01*
X23030110Y19719288D01*
X23015526Y19865877D01*
X23013032Y20121151D01*
X23013032Y20611553D01*
X22822185Y20589594D01*
X22753256Y20572751D01*
X22622884Y20491611D01*
X22463967Y20328546D01*
X22255948Y20064493D01*
X22172193Y19953720D01*
X22013378Y19752481D01*
X21894140Y19613319D01*
X21835469Y19561350D01*
X21788555Y19577130D01*
X21674581Y19648099D01*
X21640909Y19678329D01*
X21620257Y19738658D01*
X21653922Y19832557D01*
X21752889Y19984811D01*
X21928144Y20220205D01*
X22297506Y20705563D01*
X22100078Y20889989D01*
X22070951Y20919266D01*
X21932153Y21161284D01*
X21911607Y21335585D01*
X22249644Y21335585D01*
X22249685Y21328966D01*
X22280387Y21145143D01*
X22351021Y21020986D01*
X22372996Y21005738D01*
X22527803Y20943486D01*
X22732715Y20899253D01*
X23013032Y20861654D01*
X23013032Y21321885D01*
X23013032Y21782115D01*
X22785577Y21782115D01*
X22737896Y21780929D01*
X22475711Y21717369D01*
X22308427Y21565144D01*
X22249644Y21335585D01*
X21911607Y21335585D01*
X21898620Y21445765D01*
X21977634Y21723154D01*
X22035547Y21801244D01*
X22247186Y21939189D01*
X22557226Y22028169D01*
X22941404Y22059711D01*
X23360026Y22059711D01*
X23360026Y21782115D01*
X23360026Y20845230D01*
G37*
G36*
X18016311Y24696870D02*
G01*
X18016311Y23517088D01*
X17842813Y23517088D01*
X17794432Y23518085D01*
X17723718Y23537618D01*
X17686394Y23605627D01*
X17671810Y23752216D01*
X17669316Y24007490D01*
X17669316Y24497892D01*
X17478896Y24475933D01*
X17410005Y24459057D01*
X17280272Y24377964D01*
X17122381Y24214947D01*
X16915773Y23950831D01*
X16770383Y23759812D01*
X16602368Y23565810D01*
X16478336Y23471399D01*
X16381328Y23465259D01*
X16294384Y23536067D01*
X16278464Y23577305D01*
X16306990Y23687012D01*
X16411319Y23864087D01*
X16600494Y24125958D01*
X16688607Y24245028D01*
X16823735Y24441447D01*
X16902815Y24576953D01*
X16910943Y24627471D01*
X16822980Y24670407D01*
X16700435Y24779354D01*
X16595861Y24955980D01*
X16552328Y25219926D01*
X16559125Y25260415D01*
X16850096Y25260415D01*
X16870219Y25108246D01*
X17006872Y24936611D01*
X17157671Y24824989D01*
X17423265Y24766268D01*
X17669316Y24766268D01*
X17669316Y25182662D01*
X17669316Y25599055D01*
X17360956Y25599055D01*
X17223282Y25593612D01*
X17055203Y25549282D01*
X16944563Y25444816D01*
X16940823Y25439452D01*
X16850096Y25260415D01*
X16559125Y25260415D01*
X16597365Y25488226D01*
X16729276Y25706308D01*
X16758915Y25735059D01*
X16859420Y25810406D01*
X16983953Y25853165D01*
X17170729Y25872268D01*
X17457965Y25876651D01*
X18016311Y25876651D01*
X18016311Y25599055D01*
X18016311Y24696870D01*
G37*
G36*
X11194227Y29757474D02*
G01*
X11230945Y29727814D01*
X11256090Y29654897D01*
X11271846Y29519616D01*
X11280397Y29302863D01*
X11283926Y28985530D01*
X11284617Y28548509D01*
X11283986Y28124941D01*
X11280596Y27803656D01*
X11272263Y27583635D01*
X11256802Y27445770D01*
X11232031Y27370953D01*
X11195764Y27340074D01*
X11145819Y27334028D01*
X11109224Y27336071D01*
X11054040Y27363944D01*
X11023265Y27446814D01*
X11009919Y27612599D01*
X11007021Y27889219D01*
X11007021Y28444411D01*
X10382431Y28444411D01*
X9757841Y28444411D01*
X9757841Y27889219D01*
X9757330Y27742839D01*
X9750362Y27522105D01*
X9729644Y27399005D01*
X9688198Y27345619D01*
X9619043Y27334028D01*
X9570635Y27339544D01*
X9533917Y27369204D01*
X9508772Y27442121D01*
X9493016Y27577401D01*
X9484465Y27794154D01*
X9480936Y28111488D01*
X9480245Y28548509D01*
X9480875Y28972077D01*
X9484265Y29293362D01*
X9492598Y29513382D01*
X9508059Y29651248D01*
X9532831Y29726065D01*
X9569098Y29756943D01*
X9619043Y29762990D01*
X9630091Y29762854D01*
X9698701Y29745647D01*
X9737209Y29678753D01*
X9754096Y29532496D01*
X9757841Y29277197D01*
X9757841Y28791405D01*
X10382431Y28791405D01*
X11007021Y28791405D01*
X11007021Y29277197D01*
X11007060Y29315866D01*
X11011976Y29556000D01*
X11031089Y29690779D01*
X11072876Y29749884D01*
X11145819Y29762990D01*
X11194227Y29757474D01*
G37*
G36*
X19499874Y29785885D02*
G01*
X19618161Y29762990D01*
X19634717Y29724745D01*
X19653794Y29566873D01*
X19668707Y29305006D01*
X19678417Y28958949D01*
X19681884Y28548509D01*
X19681254Y28124941D01*
X19677864Y27803656D01*
X19669531Y27583635D01*
X19654070Y27445770D01*
X19629298Y27370953D01*
X19593032Y27340074D01*
X19543087Y27334028D01*
X19529300Y27334247D01*
X19478730Y27345854D01*
X19444012Y27390509D01*
X19422179Y27489360D01*
X19410260Y27663559D01*
X19405287Y27934252D01*
X19404289Y28322591D01*
X19404289Y29311154D01*
X18741374Y28318239D01*
X18527386Y28000665D01*
X18330139Y27718537D01*
X18183767Y27526874D01*
X18075873Y27410911D01*
X17994062Y27355883D01*
X17925937Y27347026D01*
X17922830Y27347472D01*
X17868359Y27360491D01*
X17828632Y27394456D01*
X17800885Y27469006D01*
X17782355Y27603781D01*
X17770277Y27818421D01*
X17761889Y28132567D01*
X17754426Y28565859D01*
X17748456Y28978511D01*
X17746647Y29298423D01*
X17751364Y29517002D01*
X17764528Y29653497D01*
X17788060Y29727160D01*
X17823882Y29757241D01*
X17873916Y29762990D01*
X17875949Y29762985D01*
X17930927Y29754360D01*
X17969517Y29714692D01*
X17995304Y29622432D01*
X18011873Y29456032D01*
X18022811Y29193941D01*
X18031702Y28814610D01*
X18051010Y27866230D01*
X18704776Y28852196D01*
X18797763Y28991526D01*
X19055383Y29364479D01*
X19249083Y29621164D01*
X19381805Y29765292D01*
X19456490Y29800576D01*
X19499874Y29785885D01*
G37*
G36*
X11153370Y24201558D02*
G01*
X11268657Y23894911D01*
X11334832Y23685321D01*
X11356187Y23559494D01*
X11337015Y23504137D01*
X11257977Y23466696D01*
X11134612Y23485161D01*
X11021930Y23620742D01*
X10908038Y23883970D01*
X10764125Y24285551D01*
X10283884Y24265664D01*
X9803643Y24245777D01*
X9670860Y23846733D01*
X9668268Y23838965D01*
X9577876Y23605235D01*
X9494906Y23482987D01*
X9402885Y23447689D01*
X9322870Y23462150D01*
X9234364Y23534542D01*
X9241346Y23596708D01*
X9291766Y23772375D01*
X9381287Y24035309D01*
X9502057Y24362684D01*
X9551281Y24488673D01*
X9902859Y24488673D01*
X10288867Y24488673D01*
X10434462Y24490238D01*
X10583400Y24504108D01*
X10638220Y24540732D01*
X10626775Y24610121D01*
X10597072Y24686431D01*
X10525222Y24873892D01*
X10439075Y25100702D01*
X10376599Y25257964D01*
X10311395Y25401184D01*
X10277434Y25447696D01*
X10276014Y25445860D01*
X10238481Y25363571D01*
X10168194Y25189135D01*
X10079125Y24957115D01*
X9902859Y24488673D01*
X9551281Y24488673D01*
X9646222Y24731673D01*
X9787522Y25082274D01*
X9915016Y25389109D01*
X10010882Y25599948D01*
X10085422Y25732721D01*
X10148939Y25805358D01*
X10211734Y25835792D01*
X10284108Y25841952D01*
X10352027Y25836510D01*
X10415111Y25807825D01*
X10479184Y25738332D01*
X10554501Y25610476D01*
X10651316Y25406703D01*
X10779884Y25109456D01*
X10950460Y24701181D01*
X10984676Y24618557D01*
X11016160Y24540732D01*
X11153370Y24201558D01*
G37*
G36*
X25746608Y25911338D02*
G01*
X25800334Y25905949D01*
X25839416Y25877494D01*
X25866622Y25806689D01*
X25884722Y25674244D01*
X25896485Y25460876D01*
X25904680Y25147296D01*
X25912075Y24714219D01*
X25918224Y24288874D01*
X25919917Y23972798D01*
X25915032Y23757380D01*
X25901615Y23623361D01*
X25877711Y23551480D01*
X25841366Y23522476D01*
X25790627Y23517088D01*
X25782369Y23517152D01*
X25728768Y23526572D01*
X25692024Y23567092D01*
X25668965Y23660251D01*
X25656421Y23827588D01*
X25651219Y24090642D01*
X25650190Y24470952D01*
X25650190Y25424815D01*
X24990181Y24436252D01*
X24814253Y24176084D01*
X24611855Y23885693D01*
X24444015Y23654927D01*
X24324523Y23502641D01*
X24267168Y23447689D01*
X24259716Y23447703D01*
X24161398Y23454948D01*
X24089789Y23488320D01*
X24040668Y23566596D01*
X24009812Y23708555D01*
X23993000Y23932973D01*
X23986009Y24258627D01*
X23984617Y24704294D01*
X23985082Y25069609D01*
X23988158Y25397223D01*
X23996157Y25621669D01*
X24011380Y25762390D01*
X24036129Y25838831D01*
X24072707Y25870437D01*
X24123414Y25876651D01*
X24129370Y25876616D01*
X24183063Y25867495D01*
X24219942Y25827342D01*
X24243152Y25734604D01*
X24255837Y25567729D01*
X24261143Y25305165D01*
X24262212Y24925359D01*
X24262212Y23974068D01*
X24924758Y24942709D01*
X24986592Y25032850D01*
X25233459Y25384952D01*
X25420939Y25635412D01*
X25560345Y25797672D01*
X25662992Y25885171D01*
X25740196Y25911350D01*
X25746608Y25911338D01*
G37*
G36*
X25836361Y20478692D02*
G01*
X25962903Y20148488D01*
X26043572Y19914427D01*
X26083378Y19760147D01*
X26087328Y19669285D01*
X26060430Y19625478D01*
X26050585Y19619333D01*
X25938961Y19572611D01*
X25850648Y19604640D01*
X25765037Y19733618D01*
X25661521Y19977744D01*
X25500061Y20394137D01*
X25029233Y20394137D01*
X24558405Y20394137D01*
X24405439Y19974613D01*
X24326658Y19769889D01*
X24256873Y19637896D01*
X24188708Y19590350D01*
X24101195Y19601540D01*
X24004013Y19633718D01*
X23929940Y19665131D01*
X23947193Y19729650D01*
X24008513Y19902946D01*
X24106365Y20164479D01*
X24233091Y20493786D01*
X24337067Y20758482D01*
X24702736Y20758482D01*
X24707989Y20715928D01*
X24807116Y20682048D01*
X25027242Y20671733D01*
X25197719Y20676985D01*
X25331015Y20704220D01*
X25354247Y20758482D01*
X25331099Y20821063D01*
X25269554Y20991481D01*
X25191735Y21209574D01*
X25134573Y21360354D01*
X25065256Y21514274D01*
X25021985Y21573919D01*
X24994595Y21541591D01*
X24933269Y21409252D01*
X24859991Y21209574D01*
X24810433Y21062605D01*
X24743668Y20869838D01*
X24702736Y20758482D01*
X24337067Y20758482D01*
X24381033Y20870407D01*
X24521683Y21223110D01*
X24655999Y21550318D01*
X24757693Y21779291D01*
X24836132Y21927292D01*
X24900684Y22011580D01*
X24960718Y22049417D01*
X25025600Y22058064D01*
X25077692Y22052625D01*
X25138531Y22021379D01*
X25202462Y21946907D01*
X25278965Y21811999D01*
X25377524Y21599441D01*
X25507620Y21292023D01*
X25678737Y20872533D01*
X25724383Y20758482D01*
X25836361Y20478692D01*
G37*
G36*
X13681616Y20510594D02*
G01*
X13687359Y20496576D01*
X13824768Y20153502D01*
X13910994Y19915651D01*
X13951560Y19762362D01*
X13951986Y19672972D01*
X13917794Y19626821D01*
X13906191Y19619596D01*
X13794090Y19572824D01*
X13705665Y19604802D01*
X13620133Y19733714D01*
X13516712Y19977744D01*
X13355252Y20394137D01*
X12884424Y20394137D01*
X12413597Y20394137D01*
X12260630Y19974613D01*
X12181849Y19769889D01*
X12112064Y19637896D01*
X12043899Y19590350D01*
X11956386Y19601540D01*
X11859017Y19634026D01*
X11783354Y19666908D01*
X11799459Y19728254D01*
X11860776Y19898404D01*
X11959817Y20156670D01*
X12088701Y20482519D01*
X12172260Y20689083D01*
X12533832Y20689083D01*
X12558514Y20682712D01*
X12685931Y20674817D01*
X12885468Y20671733D01*
X13042037Y20673518D01*
X13168387Y20689742D01*
X13207215Y20736022D01*
X13188658Y20827881D01*
X13160688Y20915315D01*
X13067401Y21175110D01*
X12978420Y21382083D01*
X12906061Y21509666D01*
X12862638Y21531291D01*
X12835874Y21474976D01*
X12772798Y21323927D01*
X12693945Y21125985D01*
X12616425Y20924979D01*
X12557351Y20764736D01*
X12533832Y20689083D01*
X12172260Y20689083D01*
X12239546Y20855418D01*
X12316736Y21043660D01*
X12472123Y21415034D01*
X12590733Y21681478D01*
X12681991Y21860335D01*
X12755320Y21968947D01*
X12820145Y22024657D01*
X12885890Y22044808D01*
X12940036Y22047609D01*
X13029680Y22015708D01*
X13107570Y21908725D01*
X13199804Y21697814D01*
X13278344Y21501815D01*
X13397543Y21207175D01*
X13537471Y20863205D01*
X13589463Y20736022D01*
X13681616Y20510594D01*
G37*
G36*
X20433154Y22028951D02*
G01*
X20484193Y21967206D01*
X20539830Y21845184D01*
X20608259Y21644536D01*
X20697673Y21346914D01*
X20816267Y20933970D01*
X20897748Y20645581D01*
X20993930Y20297531D01*
X21070456Y20011594D01*
X21121007Y19811506D01*
X21139261Y19721001D01*
X21120955Y19674698D01*
X21017813Y19613348D01*
X20950592Y19601657D01*
X20859846Y19602757D01*
X20855214Y19608590D01*
X20817528Y19708023D01*
X20754728Y19910401D01*
X20674355Y20190564D01*
X20583950Y20523349D01*
X20558540Y20618366D01*
X20470905Y20932067D01*
X20395477Y21181302D01*
X20339594Y21342721D01*
X20310597Y21392978D01*
X20308670Y21390357D01*
X20273273Y21300080D01*
X20209088Y21106015D01*
X20124588Y20834589D01*
X20028244Y20512225D01*
X20027597Y20510020D01*
X19924225Y20161977D01*
X19847728Y19925639D01*
X19786771Y19779413D01*
X19730019Y19701703D01*
X19666138Y19670913D01*
X19583792Y19665449D01*
X19513864Y19668804D01*
X19445926Y19694374D01*
X19387642Y19764424D01*
X19326941Y19901162D01*
X19251753Y20126796D01*
X19150007Y20463536D01*
X19057014Y20773546D01*
X18971787Y21053383D01*
X18907172Y21260909D01*
X18872519Y21365722D01*
X18864133Y21370952D01*
X18821755Y21299387D01*
X18755132Y21122086D01*
X18671563Y20859714D01*
X18578348Y20532935D01*
X18506241Y20270477D01*
X18420214Y19975195D01*
X18353698Y19782063D01*
X18298319Y19671523D01*
X18245704Y19624020D01*
X18187482Y19619997D01*
X18106633Y19637859D01*
X18024058Y19670082D01*
X18030547Y19727823D01*
X18069481Y19899683D01*
X18136577Y20163730D01*
X18226277Y20498173D01*
X18333021Y20881222D01*
X18340692Y20908281D01*
X18459781Y21325121D01*
X18549948Y21627221D01*
X18619049Y21832552D01*
X18674937Y21959085D01*
X18725463Y22024794D01*
X18778483Y22047647D01*
X18841850Y22045618D01*
X18911146Y22028316D01*
X18971821Y21980268D01*
X19031279Y21881107D01*
X19099197Y21710203D01*
X19185251Y21446922D01*
X19299117Y21070635D01*
X19583470Y20116258D01*
X19864765Y21070635D01*
X19975997Y21442367D01*
X20061447Y21707079D01*
X20128895Y21879115D01*
X20187985Y21979152D01*
X20248361Y22027867D01*
X20319666Y22045939D01*
X20378517Y22048767D01*
X20433154Y22028951D01*
G37*
G36*
X39360230Y30338367D02*
G01*
X39511218Y30225069D01*
X40107600Y29777559D01*
X40225443Y29662226D01*
X40777730Y29121703D01*
X41030103Y28799224D01*
X41355200Y28383818D01*
X41649229Y27878374D01*
X41824589Y27576924D01*
X41861851Y27500426D01*
X42082456Y27017125D01*
X42118656Y26920782D01*
X42244315Y26586355D01*
X42355769Y26170061D01*
X42420053Y25762560D01*
X42425160Y25730186D01*
X42460830Y25228675D01*
X42462814Y25112792D01*
X42471122Y24627471D01*
X42471111Y24509655D01*
X42470525Y24419274D01*
X42468443Y24098240D01*
X42458976Y23785390D01*
X42439261Y23538718D01*
X42405846Y23325839D01*
X42377933Y23209094D01*
X42355284Y23114367D01*
X42284124Y22871915D01*
X42176425Y22550654D01*
X41958187Y22045510D01*
X41831725Y21752796D01*
X41473579Y21133748D01*
X41400806Y21007962D01*
X40905300Y20355633D01*
X40838360Y20279584D01*
X40754938Y20200285D01*
X40677478Y20174917D01*
X40586769Y20213813D01*
X40463604Y20327305D01*
X40288772Y20525724D01*
X40043064Y20819402D01*
X39880025Y21017703D01*
X39735979Y21207119D01*
X39661577Y21335484D01*
X39643698Y21426873D01*
X39646701Y21436108D01*
X39922871Y21436108D01*
X39947332Y21337749D01*
X40060059Y21151814D01*
X40263981Y20885289D01*
X40359076Y20769899D01*
X40518461Y20577566D01*
X40629173Y20445445D01*
X40671545Y20397093D01*
X40712336Y20441289D01*
X40813908Y20571319D01*
X40939864Y20743832D01*
X41063119Y20920575D01*
X41156587Y21063298D01*
X41193180Y21133748D01*
X41182132Y21153485D01*
X41087072Y21246329D01*
X40915820Y21387973D01*
X40694144Y21556585D01*
X40560472Y21652700D01*
X40342464Y21794178D01*
X40207934Y21852435D01*
X40143570Y21834181D01*
X40159565Y21742675D01*
X40280560Y21571381D01*
X40503808Y21329155D01*
X40572890Y21258198D01*
X40749105Y21064817D01*
X40871868Y20911349D01*
X40917950Y20826013D01*
X40892671Y20752165D01*
X40791538Y20762883D01*
X40614572Y20886525D01*
X40363305Y21122273D01*
X40349817Y21135880D01*
X40127042Y21342159D01*
X39983751Y21439907D01*
X39922871Y21436108D01*
X39646701Y21436108D01*
X39669220Y21505362D01*
X39712636Y21635090D01*
X39725097Y21833227D01*
X39719692Y21873801D01*
X39698389Y21936169D01*
X39651949Y21923650D01*
X39561516Y21823804D01*
X39418066Y21636996D01*
X39408235Y21624194D01*
X39332047Y21522506D01*
X39214931Y21356465D01*
X39194079Y21312099D01*
X39169197Y21259159D01*
X39185443Y21202028D01*
X39254266Y21156514D01*
X39308655Y21118679D01*
X39452309Y20979293D01*
X39601548Y20796511D01*
X39737652Y20551776D01*
X39816759Y20186624D01*
X39807827Y20114047D01*
X39770597Y19811543D01*
X39602643Y19447042D01*
X39316372Y19113632D01*
X39237460Y19046479D01*
X38860394Y18792918D01*
X38562925Y18642232D01*
X38390550Y18554914D01*
X37864365Y18347326D01*
X37318274Y18185013D01*
X36788715Y18082833D01*
X36630411Y18066499D01*
X36234613Y18047906D01*
X35774919Y18047170D01*
X35300365Y18063068D01*
X34859985Y18094375D01*
X34502814Y18139870D01*
X34255356Y18189391D01*
X33950287Y18266201D01*
X34904009Y18266201D01*
X34982708Y18242616D01*
X35143407Y18248898D01*
X35294628Y18272100D01*
X36066222Y18272100D01*
X36071599Y18263563D01*
X36166568Y18250872D01*
X36343405Y18248429D01*
X36411016Y18251153D01*
X36734755Y18287481D01*
X37117934Y18356355D01*
X37504042Y18446492D01*
X37836568Y18546605D01*
X38107294Y18642232D01*
X37932739Y18723814D01*
X37931921Y18724195D01*
X37838182Y18753213D01*
X37716724Y18755033D01*
X37541629Y18725267D01*
X37286982Y18659523D01*
X36926867Y18553412D01*
X36896312Y18544137D01*
X36581601Y18446929D01*
X36320756Y18363437D01*
X36140168Y18302286D01*
X36066222Y18272100D01*
X35294628Y18272100D01*
X35356865Y18281649D01*
X35593845Y18337469D01*
X35825106Y18412961D01*
X35923101Y18449392D01*
X36224348Y18553148D01*
X36577539Y18666776D01*
X36925123Y18771517D01*
X37067769Y18813294D01*
X37320193Y18893239D01*
X37459600Y18950905D01*
X37501404Y18993699D01*
X37461018Y19029028D01*
X37388391Y19041044D01*
X37227756Y19024315D01*
X36977297Y18969260D01*
X36623489Y18872807D01*
X36152805Y18731882D01*
X35828283Y18630305D01*
X35481363Y18517465D01*
X35198838Y18420825D01*
X35003568Y18348241D01*
X34918414Y18307573D01*
X34904009Y18266201D01*
X33950287Y18266201D01*
X33891493Y18281004D01*
X33533120Y18389654D01*
X33206229Y18505880D01*
X32983277Y18600501D01*
X33569358Y18600501D01*
X33648414Y18562515D01*
X33788261Y18515507D01*
X33915725Y18486074D01*
X33967981Y18510570D01*
X33978059Y18591944D01*
X33955804Y18685526D01*
X33857390Y18718337D01*
X33665764Y18661736D01*
X33613697Y18639377D01*
X33569358Y18600501D01*
X32983277Y18600501D01*
X32936814Y18620220D01*
X32750869Y18723213D01*
X32687278Y18791547D01*
X33045139Y18791547D01*
X33049820Y18784354D01*
X33098238Y18746390D01*
X33188521Y18743585D01*
X33350427Y18779374D01*
X33613715Y18857195D01*
X33760653Y18910040D01*
X33917262Y18990215D01*
X33978059Y19057309D01*
X33974982Y19097295D01*
X33945545Y19133285D01*
X33863235Y19130861D01*
X33702107Y19087266D01*
X33436212Y18999744D01*
X33226852Y18918816D01*
X33084956Y18843517D01*
X33045139Y18791547D01*
X32687278Y18791547D01*
X32674388Y18805398D01*
X32676368Y18834027D01*
X32766665Y18934832D01*
X32970403Y19048942D01*
X33270135Y19167806D01*
X33648414Y19282872D01*
X33779435Y19320108D01*
X33907823Y19379745D01*
X33962071Y19472746D01*
X33956422Y19633055D01*
X33905121Y19894618D01*
X33836759Y20213383D01*
X34061913Y20213383D01*
X34093407Y20029793D01*
X34105539Y19953343D01*
X34129119Y19705074D01*
X34145451Y19390108D01*
X34151556Y19058208D01*
X34151556Y19057309D01*
X34151559Y19039326D01*
X34153725Y18734861D01*
X34160977Y18591944D01*
X34163472Y18542784D01*
X34186015Y18437975D01*
X34226571Y18395316D01*
X34290354Y18389686D01*
X34297182Y18390369D01*
X34419503Y18418012D01*
X34648406Y18480559D01*
X34961204Y18571437D01*
X35335208Y18684073D01*
X35747731Y18811896D01*
X35808732Y18831052D01*
X36212964Y18957989D01*
X36571783Y19070648D01*
X36863438Y19162203D01*
X37066175Y19225824D01*
X37158244Y19254683D01*
X37183092Y19266040D01*
X37194840Y19331057D01*
X37109026Y19462823D01*
X37046501Y19554509D01*
X36918628Y19802440D01*
X36802156Y20093729D01*
X36717385Y20374431D01*
X36684617Y20590600D01*
X36684612Y20593540D01*
X36664922Y20719972D01*
X36583575Y20795170D01*
X36865353Y20795170D01*
X36872281Y20607000D01*
X36904780Y20449482D01*
X37039784Y20070264D01*
X37238434Y19691804D01*
X37471018Y19375227D01*
X37514685Y19331057D01*
X37557598Y19287650D01*
X37803782Y19083022D01*
X37940140Y18993699D01*
X38056112Y18917730D01*
X38394057Y18733797D01*
X38812850Y19007436D01*
X39024952Y19158340D01*
X39354442Y19471065D01*
X39553360Y19791607D01*
X39619879Y20114047D01*
X39552168Y20432462D01*
X39348399Y20740932D01*
X39246185Y20848722D01*
X39113369Y20971095D01*
X39036104Y21018727D01*
X39010685Y21016169D01*
X38996948Y20993719D01*
X38975833Y20959210D01*
X39041775Y20840282D01*
X39200327Y20676447D01*
X39220413Y20658326D01*
X39352706Y20514078D01*
X39412119Y20362266D01*
X39416937Y20283659D01*
X39425873Y20137888D01*
X39423561Y20060184D01*
X39396583Y19940976D01*
X39354248Y19753909D01*
X39271405Y19629911D01*
X39177156Y19488840D01*
X38997820Y19340111D01*
X38876923Y19239847D01*
X38635826Y19095876D01*
X38420030Y19034162D01*
X38214279Y19072637D01*
X37975039Y19209855D01*
X37669538Y19464494D01*
X37361841Y19860701D01*
X37168256Y20309044D01*
X37101010Y20787449D01*
X37095782Y20900880D01*
X37299113Y20900880D01*
X37362443Y20436780D01*
X37552961Y20011779D01*
X37873483Y19613400D01*
X37972578Y19514992D01*
X38171918Y19334326D01*
X38316788Y19242205D01*
X38432160Y19225925D01*
X38543007Y19272781D01*
X38555603Y19281670D01*
X38565992Y19340111D01*
X38449603Y19412060D01*
X38205902Y19548039D01*
X37883305Y19822677D01*
X37659695Y20144025D01*
X37625880Y20224038D01*
X37545925Y20552127D01*
X37534850Y20694897D01*
X37689578Y20694897D01*
X37798203Y20320351D01*
X38038059Y19986969D01*
X38410927Y19690724D01*
X38601052Y19576705D01*
X38765604Y19506602D01*
X38877314Y19512022D01*
X38967396Y19587152D01*
X38994932Y19629911D01*
X38968971Y19684912D01*
X38825542Y19726526D01*
X38540920Y19834310D01*
X38255565Y20057728D01*
X38035746Y20356284D01*
X37904989Y20696897D01*
X37892950Y20928518D01*
X38076104Y20928518D01*
X38121323Y20690358D01*
X38220437Y20464763D01*
X38304669Y20336163D01*
X38499732Y20120951D01*
X38731884Y19984638D01*
X38847662Y19938076D01*
X39041769Y19876539D01*
X39152682Y19878329D01*
X39207280Y19940976D01*
X39203208Y20021307D01*
X39086964Y20047143D01*
X38940220Y20077847D01*
X38717730Y20191612D01*
X38508710Y20355903D01*
X38365926Y20535018D01*
X38311084Y20733835D01*
X38313227Y20889098D01*
X38488988Y20889098D01*
X38510618Y20737818D01*
X38582532Y20570333D01*
X38607161Y20538090D01*
X38656304Y20502979D01*
X38687756Y20565758D01*
X38690341Y20581811D01*
X38904446Y20581811D01*
X38915656Y20464055D01*
X38959016Y20348173D01*
X39061529Y20268310D01*
X39077736Y20265584D01*
X39170638Y20283659D01*
X39156511Y20368986D01*
X39037104Y20504639D01*
X38940348Y20587453D01*
X38904446Y20581811D01*
X38690341Y20581811D01*
X38716873Y20746574D01*
X38720752Y20777519D01*
X38725283Y20993719D01*
X38678692Y21099556D01*
X38600823Y21127799D01*
X38517765Y21069441D01*
X38488988Y20889098D01*
X38313227Y20889098D01*
X38315256Y21036077D01*
X38330816Y21223013D01*
X38314199Y21334854D01*
X38255907Y21365722D01*
X38249936Y21365593D01*
X38141800Y21301416D01*
X38083393Y21143964D01*
X38076104Y20928518D01*
X37892950Y20928518D01*
X37886819Y21046487D01*
X37893032Y21090584D01*
X37932723Y21318256D01*
X37974594Y21496461D01*
X37980725Y21517659D01*
X37990940Y21622675D01*
X37926971Y21630229D01*
X37879418Y21585029D01*
X37803043Y21434637D01*
X37734304Y21221894D01*
X37710405Y21114635D01*
X37689578Y20694897D01*
X37534850Y20694897D01*
X37516488Y20931594D01*
X37539336Y21302953D01*
X37616236Y21606720D01*
X37665165Y21736933D01*
X37675701Y21847369D01*
X37620418Y21921813D01*
X37603488Y21934239D01*
X37543981Y21935562D01*
X37486978Y21843111D01*
X37417487Y21635749D01*
X37406743Y21594671D01*
X37360159Y21416559D01*
X37299113Y20900880D01*
X37095782Y20900880D01*
X37094341Y20932143D01*
X37057908Y20978835D01*
X36968634Y20937233D01*
X36925442Y20905414D01*
X36865353Y20795170D01*
X36583575Y20795170D01*
X36582040Y20796589D01*
X36398862Y20858128D01*
X36243037Y20891902D01*
X36097020Y20890963D01*
X35928525Y20841965D01*
X35687524Y20736343D01*
X35605412Y20699284D01*
X35234698Y20554467D01*
X34852848Y20435305D01*
X34504670Y20354496D01*
X34234974Y20324738D01*
X34154423Y20323342D01*
X34076220Y20298666D01*
X34061913Y20213383D01*
X33836759Y20213383D01*
X33832183Y20234718D01*
X33271990Y20313939D01*
X32941147Y20375384D01*
X32525708Y20510259D01*
X32222451Y20690845D01*
X32042449Y20911758D01*
X32013641Y20974246D01*
X31982312Y21077733D01*
X31989074Y21189218D01*
X32039575Y21348507D01*
X32139465Y21595408D01*
X32147079Y21702461D01*
X32037462Y21761335D01*
X31975129Y21782746D01*
X31910245Y21858890D01*
X31914914Y22017441D01*
X31916827Y22206763D01*
X31873173Y22394498D01*
X31835837Y22528309D01*
X31886594Y22694881D01*
X31888493Y22697950D01*
X31928733Y22855816D01*
X31837623Y22976636D01*
X31618791Y23055527D01*
X31450284Y23132303D01*
X31362921Y23294887D01*
X31366516Y23430233D01*
X31589848Y23430233D01*
X31601197Y23339162D01*
X31658639Y23288249D01*
X31792946Y23260643D01*
X32034890Y23239493D01*
X32258547Y23216652D01*
X32459686Y23184237D01*
X32567936Y23151612D01*
X32609131Y23132353D01*
X32684829Y23158919D01*
X32704539Y23267077D01*
X32655994Y23419503D01*
X32616678Y23509169D01*
X32611631Y23621590D01*
X32682360Y23633385D01*
X32804252Y23526750D01*
X32882422Y23414987D01*
X32931742Y23229776D01*
X32865235Y23026733D01*
X32857097Y23012824D01*
X32739411Y22916481D01*
X32594709Y22895916D01*
X32485983Y22961897D01*
X32424552Y23004729D01*
X32280187Y23031296D01*
X32255339Y23030878D01*
X32154181Y22998525D01*
X32153676Y22892128D01*
X32158975Y22798250D01*
X32101091Y22645749D01*
X32048235Y22542539D01*
X32110250Y22447079D01*
X32173103Y22407285D01*
X32339065Y22345369D01*
X32547918Y22292511D01*
X32755971Y22257268D01*
X32919532Y22248194D01*
X32994908Y22273846D01*
X33006122Y22297494D01*
X33088341Y22340333D01*
X33186892Y22288139D01*
X33256383Y22160578D01*
X33277607Y22035210D01*
X33268382Y21951491D01*
X33191859Y21951156D01*
X33018926Y21981721D01*
X32787722Y22036715D01*
X32609845Y22078104D01*
X32338705Y22112189D01*
X32165324Y22088939D01*
X32104289Y22008947D01*
X32140785Y21957537D01*
X32260031Y21885321D01*
X32263997Y21883557D01*
X32408229Y21764115D01*
X32423542Y21594626D01*
X32309760Y21376878D01*
X32219557Y21214741D01*
X32210805Y21018302D01*
X32334152Y20846382D01*
X32591447Y20696762D01*
X32984537Y20567226D01*
X32994854Y20564564D01*
X33568463Y20482979D01*
X34193830Y20511267D01*
X34843266Y20645931D01*
X35489078Y20883475D01*
X35679856Y20973661D01*
X35830763Y21062307D01*
X35890267Y21134596D01*
X35880263Y21208735D01*
X35870063Y21234982D01*
X35833047Y21404196D01*
X35812262Y21617797D01*
X35809017Y21680263D01*
X35805817Y21711996D01*
X35994227Y21711996D01*
X36027924Y21462985D01*
X36193486Y21221586D01*
X36366721Y21092269D01*
X36612451Y21033247D01*
X36850687Y21105491D01*
X37058885Y21306782D01*
X37091283Y21357711D01*
X37165030Y21594671D01*
X37129619Y21816929D01*
X37009214Y22005069D01*
X36827981Y22139677D01*
X36674915Y22182993D01*
X37187085Y22182993D01*
X37261288Y22077887D01*
X37316194Y22024876D01*
X37368643Y21999551D01*
X37378606Y22075444D01*
X37352544Y22175185D01*
X37273239Y22252354D01*
X37187272Y22238505D01*
X37187085Y22182993D01*
X36674915Y22182993D01*
X36610085Y22201339D01*
X36379693Y22170640D01*
X36160970Y22028166D01*
X36093162Y21949549D01*
X35994227Y21711996D01*
X35805817Y21711996D01*
X35790667Y21862217D01*
X35766472Y21964792D01*
X35682011Y22208362D01*
X35686850Y22467455D01*
X35877643Y22467455D01*
X35895693Y22260870D01*
X35917488Y22218644D01*
X35986335Y22165532D01*
X36039018Y22233104D01*
X36060026Y22407516D01*
X36063171Y22457989D01*
X36077675Y22493454D01*
X36285573Y22493454D01*
X36306603Y22433264D01*
X36441720Y22406706D01*
X36562579Y22425790D01*
X36887608Y22425790D01*
X36889309Y22410153D01*
X36957007Y22350608D01*
X37000789Y22361926D01*
X37029280Y22449520D01*
X37016777Y22565878D01*
X36962212Y22649602D01*
X36926457Y22656130D01*
X36892813Y22584299D01*
X36892330Y22534217D01*
X36890555Y22493454D01*
X36887608Y22425790D01*
X36562579Y22425790D01*
X36563706Y22425968D01*
X36597868Y22493454D01*
X36563284Y22539262D01*
X36441720Y22580203D01*
X36370146Y22567034D01*
X36285573Y22493454D01*
X36077675Y22493454D01*
X36144019Y22655680D01*
X36305401Y22783330D01*
X36508688Y22806579D01*
X36534690Y22802005D01*
X36652734Y22809436D01*
X36684617Y22898026D01*
X36680743Y22959040D01*
X36631799Y23045692D01*
X36510039Y23046786D01*
X36294563Y22965961D01*
X36086649Y22839413D01*
X35923819Y22621155D01*
X35877643Y22467455D01*
X35686850Y22467455D01*
X35687829Y22519859D01*
X35798576Y22816968D01*
X36004819Y23056483D01*
X36194323Y23204793D01*
X36407021Y23204793D01*
X36441720Y23170094D01*
X36476420Y23204793D01*
X36441720Y23239493D01*
X36424901Y23222674D01*
X36407021Y23204793D01*
X36194323Y23204793D01*
X36217171Y23222674D01*
X35947752Y23311324D01*
X35903575Y23326868D01*
X35654162Y23437752D01*
X35418855Y23571343D01*
X35275021Y23687061D01*
X35084301Y23889656D01*
X34912813Y24117330D01*
X34789035Y24331338D01*
X34741447Y24492935D01*
X34739650Y24506364D01*
X34676938Y24624756D01*
X34542669Y24799644D01*
X34361422Y24998345D01*
X34324359Y25032762D01*
X34843585Y25032762D01*
X34914678Y24662381D01*
X35080522Y24291987D01*
X35323438Y23957827D01*
X35625749Y23696148D01*
X35682515Y23660702D01*
X35899877Y23546775D01*
X36086424Y23476819D01*
X36192793Y23459930D01*
X36264376Y23484669D01*
X36234850Y23555753D01*
X36114110Y23656524D01*
X35912052Y23770325D01*
X35575813Y23984006D01*
X35275525Y24314127D01*
X35085929Y24712974D01*
X35052470Y24938509D01*
X35238790Y24938509D01*
X35238977Y24913062D01*
X35276974Y24791827D01*
X35351490Y24609494D01*
X35390242Y24532099D01*
X35545355Y24306907D01*
X35718695Y24137646D01*
X35720514Y24136351D01*
X35827032Y24063088D01*
X35873854Y24044844D01*
X35855967Y24096262D01*
X35768352Y24231987D01*
X35605995Y24466661D01*
X35536958Y24564629D01*
X35391544Y24762930D01*
X35285755Y24895780D01*
X35238790Y24938509D01*
X35052470Y24938509D01*
X35019430Y25161216D01*
X35006604Y25308081D01*
X34963283Y25409753D01*
X34907615Y25400888D01*
X34858866Y25268602D01*
X34848811Y25113412D01*
X34843585Y25032762D01*
X34324359Y25032762D01*
X34111860Y25230090D01*
X33874409Y25390185D01*
X33620137Y25491773D01*
X33564856Y25506929D01*
X33299521Y25557279D01*
X33001596Y25587957D01*
X32713286Y25597230D01*
X32476793Y25583362D01*
X32334320Y25544620D01*
X32300429Y25500698D01*
X32221973Y25342802D01*
X32119830Y25100262D01*
X32004389Y24801916D01*
X31886040Y24476600D01*
X31775172Y24153152D01*
X31682174Y23860409D01*
X31617437Y23627209D01*
X31591348Y23482389D01*
X31589848Y23430233D01*
X31366516Y23430233D01*
X31369636Y23547677D01*
X31469176Y23897722D01*
X31538428Y24089849D01*
X31699881Y24546233D01*
X31868111Y25031758D01*
X32037282Y25528624D01*
X32166090Y25913145D01*
X32410072Y25913145D01*
X32431502Y25865088D01*
X32518670Y25833051D01*
X32695904Y25810158D01*
X32987532Y25789535D01*
X33096213Y25782252D01*
X33375049Y25757538D01*
X33595653Y25729530D01*
X33717813Y25702995D01*
X33784125Y25682774D01*
X33843315Y25702689D01*
X33820254Y25779545D01*
X33727074Y25887790D01*
X33575905Y26001873D01*
X33357286Y26170091D01*
X33088013Y26511754D01*
X32918550Y26928290D01*
X32843541Y27223805D01*
X32650411Y26649041D01*
X32617124Y26549878D01*
X32528032Y26283484D01*
X32457333Y26070698D01*
X32417991Y25950482D01*
X32410072Y25913145D01*
X32166090Y25913145D01*
X32201561Y26019033D01*
X32355115Y26485186D01*
X32492109Y26909285D01*
X32606709Y27273530D01*
X32693082Y27560123D01*
X32716672Y27646323D01*
X32989517Y27646323D01*
X33040460Y27334028D01*
X33077504Y27145853D01*
X33236294Y26690731D01*
X33474233Y26345094D01*
X33505539Y26313235D01*
X33633060Y26200013D01*
X33713448Y26154247D01*
X33736828Y26157896D01*
X33770651Y26224716D01*
X33729101Y26343728D01*
X33693222Y26387832D01*
X33978059Y26387832D01*
X33980834Y26283695D01*
X33992295Y26224716D01*
X34071624Y25816488D01*
X34130394Y25702689D01*
X34294601Y25384730D01*
X34409959Y25236720D01*
X34539638Y25112348D01*
X34634964Y25065522D01*
X34672048Y25113412D01*
X34654736Y25163371D01*
X34575641Y25304230D01*
X34454165Y25487717D01*
X34293954Y25772795D01*
X34208396Y26123826D01*
X34403875Y26123826D01*
X34416849Y26042398D01*
X34495010Y25839723D01*
X34512589Y25800040D01*
X34597014Y25656925D01*
X34668507Y25599055D01*
X34683195Y25599636D01*
X34736080Y25639079D01*
X34698966Y25750060D01*
X34567950Y25946050D01*
X34457470Y26086020D01*
X34403875Y26123826D01*
X34208396Y26123826D01*
X34202561Y26147765D01*
X34197272Y26196105D01*
X34154941Y26412001D01*
X34098134Y26553793D01*
X34040572Y26606809D01*
X33995974Y26556379D01*
X33978059Y26387832D01*
X33693222Y26387832D01*
X33623960Y26472972D01*
X33509044Y26596421D01*
X33344924Y26882952D01*
X33299163Y27107099D01*
X33492267Y27107099D01*
X33493598Y27091601D01*
X33549929Y26957685D01*
X33663571Y26800056D01*
X33682448Y26778668D01*
X33784276Y26672669D01*
X33827207Y26665423D01*
X33837068Y26749390D01*
X33836984Y26756255D01*
X33784988Y26903731D01*
X33665764Y27056432D01*
X33583236Y27129543D01*
X33511143Y27165245D01*
X33492267Y27107099D01*
X33299163Y27107099D01*
X33284070Y27181028D01*
X33255429Y27330756D01*
X33136793Y27514119D01*
X32989517Y27646323D01*
X32716672Y27646323D01*
X32745392Y27751266D01*
X32757807Y27829159D01*
X32754176Y27876720D01*
X32785137Y28037467D01*
X32788589Y28049929D01*
X33025016Y28049929D01*
X33088012Y27922399D01*
X33253736Y27727572D01*
X33527439Y27458963D01*
X33732170Y27261038D01*
X34046275Y26928578D01*
X34198707Y26749390D01*
X34369510Y26548606D01*
X34716568Y26102737D01*
X35053782Y25639079D01*
X35102143Y25572585D01*
X35540929Y24939766D01*
X35885142Y24440711D01*
X36168603Y24044844D01*
X36329133Y23820655D01*
X36584551Y23484669D01*
X36730739Y23292369D01*
X36802724Y23204793D01*
X37054876Y22898026D01*
X37104085Y22838158D01*
X37454993Y22449520D01*
X37463296Y22440324D01*
X37822495Y22081171D01*
X37828685Y22075444D01*
X38167048Y21762404D01*
X38479343Y21496818D01*
X38707581Y21334441D01*
X38854342Y21273470D01*
X38922207Y21312099D01*
X38914091Y21355385D01*
X38825088Y21468512D01*
X38667885Y21600168D01*
X38665334Y21601993D01*
X38390859Y21824544D01*
X38060678Y22133142D01*
X37699770Y22501373D01*
X37333113Y22902823D01*
X36985686Y23311076D01*
X36682467Y23699718D01*
X36513178Y23931267D01*
X36253450Y24290598D01*
X35959192Y24701002D01*
X35655142Y25127956D01*
X35366037Y25536938D01*
X35150076Y25835563D01*
X34847255Y26232051D01*
X34533294Y26621959D01*
X34220125Y26992330D01*
X33919679Y27330202D01*
X33643888Y27622618D01*
X33404684Y27856618D01*
X33214000Y28019243D01*
X33145146Y28060635D01*
X33605081Y28060635D01*
X33655379Y27976030D01*
X33780661Y27832329D01*
X33992376Y27609877D01*
X34098945Y27496829D01*
X34494959Y27041560D01*
X34942802Y26478733D01*
X35433130Y25820387D01*
X35956603Y25078564D01*
X36261359Y24641521D01*
X36760132Y23954891D01*
X37215621Y23369313D01*
X37639986Y22870091D01*
X38045385Y22442528D01*
X38443978Y22071926D01*
X38617684Y21922874D01*
X38844866Y21739309D01*
X38997805Y21637037D01*
X39092356Y21606215D01*
X39144371Y21636996D01*
X39123129Y21695399D01*
X39014145Y21811113D01*
X38840534Y21952272D01*
X38672725Y22081449D01*
X38360103Y22355796D01*
X38038714Y22684470D01*
X37699403Y23078970D01*
X37333015Y23550793D01*
X36930394Y24111439D01*
X36482385Y24772406D01*
X35979834Y25545192D01*
X35938064Y25610389D01*
X35437889Y26380189D01*
X35000676Y27031247D01*
X34624068Y27566929D01*
X34305703Y27990596D01*
X34043223Y28305613D01*
X33762523Y28617908D01*
X33805127Y28398611D01*
X33805843Y28394926D01*
X33822959Y28275572D01*
X33796116Y28179179D01*
X33688065Y28132277D01*
X33683639Y28131176D01*
X33618317Y28105798D01*
X33605081Y28060635D01*
X33145146Y28060635D01*
X33083767Y28097533D01*
X33025918Y28078529D01*
X33025016Y28049929D01*
X32788589Y28049929D01*
X32851485Y28276987D01*
X32904610Y28444814D01*
X33145272Y28444814D01*
X33178910Y28370964D01*
X33304264Y28300480D01*
X33469878Y28289196D01*
X33561173Y28318649D01*
X33597179Y28398611D01*
X33581696Y28570025D01*
X33545254Y28740642D01*
X33454296Y28933161D01*
X33331092Y28999602D01*
X33298055Y28987540D01*
X33339589Y28916323D01*
X33342947Y28912910D01*
X33417413Y28765872D01*
X33395110Y28621098D01*
X33284070Y28533918D01*
X33202910Y28502658D01*
X33145272Y28444814D01*
X32904610Y28444814D01*
X32942660Y28565015D01*
X33048102Y28871287D01*
X33157252Y29165541D01*
X33246540Y29385467D01*
X33422328Y29385467D01*
X33450805Y29277929D01*
X33581806Y29099837D01*
X33811074Y28858433D01*
X33864120Y28806046D01*
X34163728Y28488590D01*
X34473954Y28121219D01*
X34805621Y27689360D01*
X35169554Y27178442D01*
X35576577Y26573892D01*
X36037515Y25861140D01*
X36264862Y25505702D01*
X36699042Y24838174D01*
X37079477Y24272159D01*
X37416190Y23794630D01*
X37719206Y23392564D01*
X37998548Y23052936D01*
X38264240Y22762721D01*
X38526304Y22508895D01*
X38794767Y22278433D01*
X38963480Y22144532D01*
X39172443Y21992617D01*
X39283517Y21933556D01*
X39297109Y21964265D01*
X39213625Y22081658D01*
X39033473Y22282651D01*
X38757059Y22564160D01*
X38703301Y22617605D01*
X38639467Y22683884D01*
X39024139Y22683884D01*
X39071590Y22573783D01*
X39228650Y22415747D01*
X39320305Y22342414D01*
X39462123Y22239081D01*
X39537802Y22198509D01*
X39602642Y22248645D01*
X39697087Y22372006D01*
X39765293Y22484350D01*
X39761890Y22536477D01*
X39666923Y22545503D01*
X39663500Y22545533D01*
X39500086Y22578672D01*
X39310355Y22655508D01*
X39234536Y22691244D01*
X39080414Y22728790D01*
X39024139Y22683884D01*
X38639467Y22683884D01*
X38459317Y22870935D01*
X39409928Y22870935D01*
X39474093Y22783755D01*
X39558262Y22784860D01*
X39599371Y22884537D01*
X39578906Y22978019D01*
X39492339Y22985868D01*
X39441977Y22955218D01*
X39409928Y22870935D01*
X38459317Y22870935D01*
X38381783Y22951439D01*
X38368367Y22966579D01*
X38693353Y22966579D01*
X38713729Y22908161D01*
X38803927Y22885801D01*
X38969652Y22932706D01*
X39165344Y23040391D01*
X39359812Y23185051D01*
X39395167Y23219485D01*
X39819537Y23219485D01*
X39821152Y22989361D01*
X39826562Y22884537D01*
X39842267Y22580203D01*
X39998414Y22940063D01*
X40061985Y23092359D01*
X40128685Y23270216D01*
X40154562Y23366381D01*
X40153935Y23375246D01*
X40088044Y23453452D01*
X39965806Y23489659D01*
X39861597Y23460079D01*
X39837127Y23393283D01*
X39819537Y23219485D01*
X39395167Y23219485D01*
X39521865Y23342882D01*
X39620312Y23490080D01*
X39623964Y23602840D01*
X39619097Y23609241D01*
X39546766Y23599777D01*
X39437755Y23483998D01*
X39374800Y23413808D01*
X39185684Y23263957D01*
X38961727Y23135693D01*
X38776477Y23040369D01*
X38693353Y22966579D01*
X38368367Y22966579D01*
X38071195Y23301950D01*
X37758376Y23686520D01*
X37430164Y24122533D01*
X37116727Y24566062D01*
X37380813Y24566062D01*
X37405318Y24508512D01*
X37484911Y24388660D01*
X37543410Y24313924D01*
X37581030Y24297587D01*
X37586802Y24396651D01*
X37626263Y24546420D01*
X37724983Y24715022D01*
X37785799Y24797534D01*
X37817901Y24883859D01*
X37762236Y24929420D01*
X37758806Y24930555D01*
X37659315Y24900678D01*
X37532408Y24800683D01*
X37424202Y24674500D01*
X37380813Y24566062D01*
X37116727Y24566062D01*
X37073399Y24627373D01*
X36833300Y24983502D01*
X37080089Y24983502D01*
X37131258Y24886947D01*
X37160958Y24848456D01*
X37231312Y24803021D01*
X37309960Y24871274D01*
X37362922Y24959778D01*
X37330699Y25029759D01*
X37181052Y25032122D01*
X37141356Y25024603D01*
X37080089Y24983502D01*
X36833300Y24983502D01*
X36674918Y25218423D01*
X36669750Y25226341D01*
X37370682Y25226341D01*
X37733341Y25133530D01*
X37855876Y25098088D01*
X38119610Y25000364D01*
X38201615Y24959778D01*
X38328876Y24896794D01*
X38347182Y24883859D01*
X38430946Y24824671D01*
X38621002Y24620880D01*
X38733686Y24394443D01*
X38762983Y24202633D01*
X38767665Y24171982D01*
X38721607Y23980120D01*
X38594179Y23845480D01*
X38384048Y23794684D01*
X38191151Y23829532D01*
X38030090Y23952339D01*
X37969777Y24117788D01*
X38162942Y24117788D01*
X38240037Y24036408D01*
X38384465Y24001994D01*
X38512121Y24049146D01*
X38528295Y24072025D01*
X38556484Y24202633D01*
X38544760Y24354431D01*
X38496217Y24449506D01*
X38492970Y24451384D01*
X38388308Y24441820D01*
X38268808Y24353564D01*
X38178883Y24230819D01*
X38162942Y24117788D01*
X37969777Y24117788D01*
X37963713Y24134424D01*
X38001426Y24344954D01*
X38152640Y24553095D01*
X38163627Y24563662D01*
X38232598Y24679905D01*
X38185406Y24743133D01*
X38041591Y24723384D01*
X37981508Y24684999D01*
X37860990Y24536966D01*
X37765363Y24342831D01*
X37728096Y24162474D01*
X37728854Y24151377D01*
X37780834Y24008671D01*
X37888655Y23844469D01*
X38029400Y23717929D01*
X38293026Y23611389D01*
X38435293Y23598942D01*
X38587228Y23640184D01*
X38753393Y23769800D01*
X38879060Y23915861D01*
X38981067Y24177641D01*
X38959352Y24454173D01*
X38819699Y24730050D01*
X38567891Y24989866D01*
X38209710Y25218214D01*
X38133209Y25256172D01*
X37947129Y25330999D01*
X37798666Y25344252D01*
X37626960Y25304995D01*
X37370682Y25226341D01*
X36669750Y25226341D01*
X36521489Y25453510D01*
X36801451Y25453510D01*
X36853228Y25329434D01*
X36927884Y25230670D01*
X36989935Y25240772D01*
X37005331Y25258143D01*
X37126281Y25329960D01*
X37309848Y25399250D01*
X37376522Y25421438D01*
X37489187Y25476007D01*
X38263824Y25476007D01*
X38333683Y25408442D01*
X38512322Y25297090D01*
X38607920Y25237151D01*
X38920528Y24962919D01*
X39115648Y24643947D01*
X39182977Y24295619D01*
X39171544Y24177641D01*
X39155839Y24015575D01*
X39030267Y23715339D01*
X38800027Y23505429D01*
X38462401Y23382403D01*
X38383908Y23363804D01*
X38314836Y23322802D01*
X38358303Y23261889D01*
X38382830Y23246413D01*
X38540357Y23230623D01*
X38752628Y23284622D01*
X38977072Y23393685D01*
X39171118Y23543082D01*
X39181262Y23553529D01*
X39321620Y23792212D01*
X39384257Y24100613D01*
X39365743Y24433625D01*
X39262646Y24746138D01*
X39170430Y24902519D01*
X38977481Y25157043D01*
X38763490Y25378793D01*
X38569505Y25521831D01*
X38488373Y25546165D01*
X38405784Y25539961D01*
X38322329Y25533692D01*
X38287643Y25518593D01*
X38263824Y25476007D01*
X37489187Y25476007D01*
X37509943Y25486060D01*
X37545735Y25539961D01*
X37483768Y25572826D01*
X37321725Y25590318D01*
X37115024Y25579409D01*
X36915168Y25540089D01*
X36842614Y25513948D01*
X36801451Y25453510D01*
X36521489Y25453510D01*
X36361828Y25698146D01*
X38775521Y25698146D01*
X38851694Y25588803D01*
X38996837Y25434245D01*
X39149594Y25277037D01*
X39383159Y24967368D01*
X39523307Y24641833D01*
X39593553Y24253918D01*
X39615029Y24100613D01*
X39624843Y24030559D01*
X39683866Y23853019D01*
X39777384Y23750833D01*
X39835310Y23714465D01*
X39880167Y23706456D01*
X39892526Y23765006D01*
X39875382Y23913528D01*
X39834369Y24159616D01*
X40018894Y24159616D01*
X40020314Y24135037D01*
X40054132Y23978010D01*
X40116398Y23823269D01*
X40153759Y23765006D01*
X40185943Y23714817D01*
X40241600Y23696658D01*
X40268652Y23734528D01*
X40295435Y23893230D01*
X40253407Y24069603D01*
X40154562Y24194972D01*
X40107766Y24222842D01*
X40033373Y24240749D01*
X40018894Y24159616D01*
X39834369Y24159616D01*
X39831733Y24175432D01*
X39829046Y24190947D01*
X39770431Y24474507D01*
X39715993Y24676936D01*
X39946365Y24676936D01*
X39946842Y24668873D01*
X40012284Y24558862D01*
X40154562Y24453973D01*
X40177678Y24442164D01*
X40309120Y24381845D01*
X40362759Y24369808D01*
X40356665Y24381283D01*
X40283659Y24463992D01*
X40154562Y24592771D01*
X40047138Y24689036D01*
X39968462Y24729619D01*
X39946365Y24676936D01*
X39715993Y24676936D01*
X39702699Y24726372D01*
X39641576Y24889375D01*
X40258584Y24889375D01*
X40296391Y24799095D01*
X40337137Y24804212D01*
X40362759Y24900971D01*
X40356273Y24996120D01*
X40323389Y25036509D01*
X40269116Y24941988D01*
X40258584Y24889375D01*
X39641576Y24889375D01*
X39639973Y24893651D01*
X39572422Y25000756D01*
X39422954Y25186722D01*
X39329348Y25286760D01*
X39668770Y25286760D01*
X39671097Y25256953D01*
X39729123Y25184722D01*
X39830700Y25228928D01*
X39851220Y25252606D01*
X39868449Y25348585D01*
X39772868Y25390859D01*
X39724321Y25378767D01*
X39668770Y25286760D01*
X39329348Y25286760D01*
X39239121Y25383186D01*
X39051129Y25560376D01*
X38960899Y25631773D01*
X39344484Y25631773D01*
X39407578Y25552909D01*
X39445976Y25517333D01*
X39507875Y25490826D01*
X39561411Y25540534D01*
X39615864Y25673196D01*
X39845198Y25673196D01*
X39853346Y25622318D01*
X39953087Y25562222D01*
X40042849Y25516687D01*
X40075398Y25425190D01*
X40067738Y25348585D01*
X40057373Y25244931D01*
X40048459Y25186509D01*
X40030561Y25035301D01*
X40032294Y24974904D01*
X40049860Y24989500D01*
X40114646Y25087625D01*
X40195378Y25234199D01*
X40264226Y25377074D01*
X40293360Y25464099D01*
X40284996Y25490280D01*
X40197703Y25570091D01*
X40058997Y25644121D01*
X39923341Y25686960D01*
X39845198Y25673196D01*
X39615864Y25673196D01*
X39621046Y25685821D01*
X39701244Y25946050D01*
X39720521Y26016022D01*
X39719041Y26064088D01*
X39659394Y26025516D01*
X39521571Y25894573D01*
X39442580Y25816155D01*
X39351806Y25706498D01*
X39344484Y25631773D01*
X38960899Y25631773D01*
X38889180Y25688522D01*
X38783480Y25737853D01*
X38775521Y25698146D01*
X36361828Y25698146D01*
X36231412Y25897973D01*
X36520096Y25897973D01*
X36523346Y25835113D01*
X36545402Y25806887D01*
X36630383Y25773760D01*
X36794195Y25753068D01*
X37056780Y25742754D01*
X37438080Y25740762D01*
X37772985Y25744234D01*
X38066766Y25756099D01*
X38276003Y25779747D01*
X38430081Y25818743D01*
X38445976Y25825917D01*
X39071780Y25825917D01*
X39126692Y25838578D01*
X39241604Y25929269D01*
X39383357Y26070138D01*
X39521861Y26228750D01*
X39627028Y26372670D01*
X39659430Y26447805D01*
X39897157Y26447805D01*
X39919556Y26293044D01*
X39922564Y26274445D01*
X39956397Y26087805D01*
X39972839Y26016022D01*
X39984892Y25963400D01*
X39999749Y25931906D01*
X40087662Y25876651D01*
X40105961Y25880814D01*
X40128116Y25962670D01*
X40082378Y26131145D01*
X39974299Y26362443D01*
X39957681Y26393159D01*
X39906806Y26477299D01*
X39897157Y26447805D01*
X39659430Y26447805D01*
X39668770Y26469464D01*
X39681468Y26517361D01*
X39774650Y26570640D01*
X39834059Y26583178D01*
X39834005Y26646488D01*
X39764574Y26794876D01*
X39648616Y27019113D01*
X39559423Y26717032D01*
X39530621Y26634076D01*
X39513518Y26598755D01*
X39405228Y26375113D01*
X39250237Y26141202D01*
X39172921Y26038544D01*
X39155285Y26009631D01*
X39087449Y25898417D01*
X39071780Y25825917D01*
X38445976Y25825917D01*
X38558387Y25876651D01*
X38801283Y26009631D01*
X37794999Y26011592D01*
X37693153Y26011696D01*
X37248677Y26008576D01*
X36924520Y25997780D01*
X36705296Y25977170D01*
X36575617Y25944613D01*
X36520096Y25897973D01*
X36231412Y25897973D01*
X36221560Y25913068D01*
X36107729Y26088950D01*
X36012320Y26234795D01*
X36283655Y26234795D01*
X36323651Y26177210D01*
X36487986Y26166990D01*
X36563757Y26170616D01*
X36781509Y26179589D01*
X37090486Y26191392D01*
X37461260Y26204914D01*
X37864398Y26219039D01*
X38133002Y26229713D01*
X38493584Y26248994D01*
X38791067Y26270812D01*
X39000230Y26293217D01*
X39095855Y26314259D01*
X39155695Y26367590D01*
X39252982Y26502373D01*
X39277347Y26550173D01*
X39283105Y26598755D01*
X39211639Y26591841D01*
X39036433Y26533208D01*
X39027131Y26530005D01*
X38765267Y26474768D01*
X38369570Y26440383D01*
X37838323Y26426698D01*
X37833607Y26426671D01*
X37276595Y26416923D01*
X36850540Y26394351D01*
X36548176Y26358085D01*
X36362232Y26307256D01*
X36285438Y26240995D01*
X36283655Y26234795D01*
X36012320Y26234795D01*
X35825603Y26520218D01*
X35774494Y26597249D01*
X36060026Y26597249D01*
X36079370Y26547255D01*
X36181475Y26512729D01*
X36258215Y26517580D01*
X36458667Y26527575D01*
X36752176Y26540917D01*
X37113502Y26556467D01*
X37517403Y26573084D01*
X37776388Y26584283D01*
X38227131Y26610366D01*
X38570805Y26643564D01*
X38828891Y26688219D01*
X39022869Y26748674D01*
X39174221Y26829272D01*
X39304425Y26934355D01*
X39306999Y26936771D01*
X39438288Y27088150D01*
X39459617Y27174952D01*
X39380562Y27181190D01*
X39210697Y27090876D01*
X39190300Y27077135D01*
X39070484Y27003600D01*
X39040202Y26990030D01*
X38946748Y26948152D01*
X38796619Y26907241D01*
X38597624Y26877320D01*
X38327289Y26854839D01*
X37963140Y26836248D01*
X37482704Y26818000D01*
X37342120Y26812876D01*
X36884283Y26792498D01*
X36545255Y26769178D01*
X36309177Y26740454D01*
X36160186Y26703865D01*
X36082423Y26656951D01*
X36060026Y26597249D01*
X35774494Y26597249D01*
X35549391Y26936526D01*
X35296239Y27312334D01*
X35202756Y27448322D01*
X35628597Y27448322D01*
X35639001Y27276185D01*
X35730437Y27061489D01*
X35848637Y26908606D01*
X35970559Y26859849D01*
X36139130Y26905163D01*
X36176496Y26928665D01*
X36182872Y26990030D01*
X36113614Y27101553D01*
X35957356Y27287118D01*
X35905037Y27346245D01*
X35766599Y27496373D01*
X35689682Y27555926D01*
X35651332Y27536157D01*
X35628597Y27448322D01*
X35202756Y27448322D01*
X35114101Y27577288D01*
X36139170Y27577288D01*
X36177394Y27432524D01*
X36320272Y27226224D01*
X36416625Y27113301D01*
X36536369Y27006607D01*
X36597594Y27003400D01*
X36589326Y27108482D01*
X36579797Y27142094D01*
X36533743Y27312006D01*
X36478125Y27523948D01*
X36458863Y27596539D01*
X36409416Y27735902D01*
X36353629Y27772895D01*
X36265798Y27732801D01*
X36219882Y27699290D01*
X36202773Y27686803D01*
X36139170Y27577288D01*
X35114101Y27577288D01*
X35083292Y27622105D01*
X34927695Y27840301D01*
X34839760Y27956283D01*
X34627758Y28220202D01*
X34447204Y28433007D01*
X34827266Y28433007D01*
X34838688Y28349979D01*
X34921909Y28205979D01*
X35087015Y27979519D01*
X35165409Y27878541D01*
X35322463Y27696854D01*
X35426979Y27617161D01*
X35492855Y27627403D01*
X35532020Y27686152D01*
X35496292Y27795415D01*
X35462759Y27882268D01*
X35492654Y27930439D01*
X35759836Y27930439D01*
X35768461Y27836248D01*
X35856510Y27711487D01*
X35914965Y27660774D01*
X35977003Y27632017D01*
X35990628Y27699290D01*
X35966885Y27872804D01*
X35905338Y27989349D01*
X35828721Y28016174D01*
X35759836Y27930439D01*
X35492654Y27930439D01*
X35535038Y27998735D01*
X35607434Y28106980D01*
X35568132Y28208867D01*
X35500135Y28275837D01*
X35402909Y28289342D01*
X35331338Y28166815D01*
X35328178Y28157181D01*
X35256708Y28042082D01*
X35188348Y28055777D01*
X35157841Y28193017D01*
X35156622Y28223229D01*
X35111424Y28356144D01*
X35790965Y28356144D01*
X35818964Y28260226D01*
X35946275Y28236214D01*
X36081566Y28204164D01*
X36129124Y28106980D01*
X36141948Y28080775D01*
X36178376Y27981677D01*
X36273972Y27904423D01*
X36309290Y27901262D01*
X36359296Y27946830D01*
X36352844Y28094561D01*
X36347391Y28136927D01*
X36356137Y28268218D01*
X36429748Y28305613D01*
X36527457Y28330828D01*
X36596874Y28419242D01*
X36564590Y28522798D01*
X36512237Y28546351D01*
X36409462Y28482051D01*
X36349733Y28422549D01*
X36259726Y28375012D01*
X36237162Y28381309D01*
X36201529Y28462975D01*
X36215526Y28590581D01*
X36276056Y28702080D01*
X36306610Y28746755D01*
X36306660Y28854757D01*
X36211364Y28914845D01*
X36569576Y28914845D01*
X36569903Y28853022D01*
X36684617Y28722006D01*
X36786977Y28581358D01*
X36804713Y28419242D01*
X36809136Y28378812D01*
X36693920Y28161070D01*
X36688036Y28153724D01*
X36603143Y27986582D01*
X36620078Y27789038D01*
X36630484Y27749332D01*
X36689355Y27523833D01*
X36752248Y27281979D01*
X36793265Y27153554D01*
X36887004Y27012894D01*
X37000622Y27009375D01*
X37037572Y27046551D01*
X37350994Y27046551D01*
X37402748Y27010049D01*
X37468811Y27003400D01*
X37537955Y26996441D01*
X37784146Y26998700D01*
X37798248Y26999057D01*
X38181984Y27011198D01*
X38448667Y27028535D01*
X38619384Y27056750D01*
X38715218Y27101527D01*
X38757257Y27168549D01*
X38766584Y27263499D01*
X38766584Y27343893D01*
X38974775Y27343893D01*
X38984804Y27224356D01*
X39038079Y27217614D01*
X39170844Y27305581D01*
X39209421Y27333940D01*
X39283064Y27424121D01*
X39247187Y27513778D01*
X39233743Y27529322D01*
X39106738Y27611402D01*
X39011985Y27566021D01*
X38988226Y27462188D01*
X38974781Y27403427D01*
X38974775Y27343893D01*
X38766584Y27343893D01*
X38766584Y27462188D01*
X38541037Y27346059D01*
X38508159Y27330458D01*
X38227826Y27255916D01*
X37850605Y27229930D01*
X37683004Y27227931D01*
X37494278Y27212401D01*
X37394861Y27175095D01*
X37353960Y27108482D01*
X37350994Y27046551D01*
X37037572Y27046551D01*
X37133613Y27143181D01*
X37196116Y27241767D01*
X37182365Y27300927D01*
X37050800Y27334710D01*
X36921364Y27381964D01*
X36896910Y27428302D01*
X37549834Y27428302D01*
X37630661Y27411510D01*
X37829699Y27408350D01*
X38014672Y27419380D01*
X38295823Y27474695D01*
X38524753Y27564246D01*
X38658250Y27674169D01*
X38704954Y27715222D01*
X38840078Y27750421D01*
X38953213Y27773807D01*
X38953360Y27843381D01*
X38828624Y27947108D01*
X38764397Y27982844D01*
X38657754Y27992134D01*
X38533678Y27903075D01*
X38497100Y27870771D01*
X38201195Y27677880D01*
X37916924Y27611624D01*
X37794624Y27592165D01*
X37617416Y27509732D01*
X37566684Y27468536D01*
X37549834Y27428302D01*
X36896910Y27428302D01*
X36863897Y27490857D01*
X36869112Y27595058D01*
X37042060Y27595058D01*
X37084262Y27541113D01*
X37197237Y27552488D01*
X37349567Y27617140D01*
X37509833Y27723025D01*
X37646616Y27858097D01*
X37670958Y27898117D01*
X37950533Y27898117D01*
X37962040Y27829612D01*
X38063710Y27849280D01*
X38263442Y27957858D01*
X38421717Y28072753D01*
X38485234Y28182481D01*
X38419589Y28270913D01*
X38384900Y28278321D01*
X38374281Y28257330D01*
X38350190Y28209706D01*
X38330630Y28119911D01*
X38236014Y28052468D01*
X38104254Y28099939D01*
X38042742Y28138967D01*
X38003196Y28111590D01*
X37998694Y28067468D01*
X37961071Y27929595D01*
X37950533Y27898117D01*
X37670958Y27898117D01*
X37758588Y28042189D01*
X37783893Y28257330D01*
X37699968Y28490764D01*
X37957649Y28490764D01*
X37964744Y28421114D01*
X38042571Y28365869D01*
X38132294Y28369017D01*
X38179366Y28421647D01*
X38103180Y28471086D01*
X38035132Y28492570D01*
X37962337Y28496083D01*
X37957649Y28490764D01*
X37699968Y28490764D01*
X37693467Y28508846D01*
X37610929Y28630860D01*
X37467682Y28750010D01*
X37324521Y28796498D01*
X37214435Y28762134D01*
X37170409Y28638727D01*
X37170623Y28618106D01*
X37190183Y28533520D01*
X37253688Y28569329D01*
X37344286Y28639674D01*
X37423793Y28618826D01*
X37506264Y28475845D01*
X37571651Y28264452D01*
X37564179Y28145764D01*
X37556319Y28020929D01*
X37433106Y27838847D01*
X37210859Y27740236D01*
X37133980Y27712941D01*
X37048928Y27628973D01*
X37042060Y27595058D01*
X36869112Y27595058D01*
X36869466Y27602133D01*
X36885385Y27830884D01*
X36907263Y27959259D01*
X36942104Y28015542D01*
X36996912Y28028017D01*
X37044838Y28019898D01*
X37101010Y27956176D01*
X37125604Y27920898D01*
X37239808Y27958618D01*
X37316721Y28023150D01*
X37372723Y28145764D01*
X37359534Y28257073D01*
X37272329Y28305613D01*
X37218853Y28293834D01*
X37126107Y28201514D01*
X37096997Y28153324D01*
X36993310Y28097416D01*
X36943696Y28128896D01*
X36915518Y28254701D01*
X36913986Y28496460D01*
X36914287Y28505378D01*
X36917777Y28726615D01*
X36899230Y28845550D01*
X36843807Y28897421D01*
X36736666Y28917463D01*
X36687604Y28922382D01*
X36569576Y28914845D01*
X36211364Y28914845D01*
X36206384Y28917985D01*
X36061280Y28921856D01*
X35987445Y28879068D01*
X35955928Y28860804D01*
X35949399Y28825049D01*
X36021231Y28791405D01*
X36083567Y28779332D01*
X36128454Y28710789D01*
X36088071Y28624579D01*
X35973278Y28570685D01*
X35873982Y28532662D01*
X35794954Y28392361D01*
X35790965Y28356144D01*
X35111424Y28356144D01*
X35101109Y28386478D01*
X34989388Y28478983D01*
X34858082Y28467242D01*
X34827266Y28433007D01*
X34447204Y28433007D01*
X34390430Y28499922D01*
X34261861Y28644920D01*
X34572701Y28644920D01*
X34638295Y28626502D01*
X34772280Y28663473D01*
X34813559Y28680389D01*
X34969789Y28696687D01*
X35162158Y28626156D01*
X35229040Y28593878D01*
X35425506Y28524638D01*
X35552304Y28542210D01*
X35641191Y28648045D01*
X35697281Y28767781D01*
X35704780Y28879068D01*
X35607543Y28920078D01*
X35391766Y28905034D01*
X35255232Y28884028D01*
X34978470Y28827063D01*
X34753405Y28762171D01*
X34608620Y28698431D01*
X34572701Y28644920D01*
X34261861Y28644920D01*
X34146622Y28774885D01*
X33915175Y29024533D01*
X33714934Y29228306D01*
X33564742Y29365647D01*
X33483444Y29415995D01*
X33422328Y29385467D01*
X33246540Y29385467D01*
X33259550Y29417512D01*
X33344436Y29596938D01*
X33401352Y29673553D01*
X33403277Y29674230D01*
X33510457Y29642668D01*
X33690752Y29511302D01*
X33931771Y29289112D01*
X34359753Y28865363D01*
X34741447Y28984531D01*
X35123141Y29103700D01*
X34810846Y29124987D01*
X34498551Y29146273D01*
X34424191Y29271963D01*
X35315960Y29271963D01*
X35328385Y29216679D01*
X35465479Y29174590D01*
X35719884Y29147797D01*
X36084241Y29138400D01*
X36676513Y29109478D01*
X37388865Y28978617D01*
X38034307Y28736065D01*
X38552834Y28421647D01*
X38629672Y28375055D01*
X38852299Y28182481D01*
X39191791Y27888817D01*
X39235248Y27843381D01*
X39451773Y27616996D01*
X39608664Y27424121D01*
X39671428Y27346961D01*
X39780781Y27174952D01*
X39853701Y27060250D01*
X40036774Y26703292D01*
X40091590Y26583178D01*
X40198028Y26349949D01*
X40344559Y25962670D01*
X40361524Y25917832D01*
X40462921Y25513700D01*
X40468830Y25464099D01*
X40513588Y25088398D01*
X40517864Y24900971D01*
X40524895Y24592771D01*
X40523979Y24524016D01*
X40511658Y24369808D01*
X40473579Y23893230D01*
X40466936Y23810086D01*
X40418568Y23602840D01*
X40363382Y23366381D01*
X40320519Y23182720D01*
X40079767Y22619928D01*
X40010604Y22484350D01*
X39988885Y22441774D01*
X39908089Y22259915D01*
X39876966Y22155581D01*
X39880443Y22126302D01*
X39947506Y22024307D01*
X39994881Y22039880D01*
X40085060Y22158657D01*
X40097279Y22181159D01*
X40345246Y22181159D01*
X40349137Y22156751D01*
X40428719Y22052606D01*
X40522409Y21964265D01*
X40587920Y21902494D01*
X40802752Y21730066D01*
X40898047Y21659506D01*
X41109338Y21509151D01*
X41268021Y21404794D01*
X41345370Y21365722D01*
X41390660Y21397919D01*
X41475920Y21522346D01*
X41570206Y21700457D01*
X41653208Y21889196D01*
X41704619Y22045510D01*
X41704132Y22126341D01*
X41687788Y22137677D01*
X41567035Y22203773D01*
X41364614Y22304950D01*
X41113967Y22424324D01*
X40860184Y22533456D01*
X40646269Y22600121D01*
X40549552Y22595066D01*
X40573276Y22524175D01*
X40720683Y22393333D01*
X40995013Y22208421D01*
X41062436Y22165993D01*
X41271736Y22024871D01*
X41418073Y21911454D01*
X41473141Y21847130D01*
X41457023Y21801273D01*
X41351744Y21789360D01*
X41155967Y21864825D01*
X40878569Y22025012D01*
X40810015Y22068582D01*
X40593759Y22197765D01*
X40460285Y22254883D01*
X40385484Y22246995D01*
X40345246Y22181159D01*
X40097279Y22181159D01*
X40197544Y22365798D01*
X40321202Y22636536D01*
X40444903Y22946102D01*
X40447356Y22953151D01*
X40704348Y22953151D01*
X40718901Y22894273D01*
X40855459Y22788313D01*
X41120705Y22647544D01*
X41361124Y22533301D01*
X41598271Y22428033D01*
X41751627Y22378165D01*
X41844678Y22380239D01*
X41900915Y22430797D01*
X41943825Y22526382D01*
X42022558Y22745076D01*
X42095836Y22969981D01*
X42141955Y23136595D01*
X42150093Y23209094D01*
X42126261Y23217349D01*
X41994216Y23250763D01*
X41773981Y23301680D01*
X41496366Y23362854D01*
X41428645Y23377450D01*
X41155350Y23434410D01*
X40985380Y23461764D01*
X40891780Y23459736D01*
X40847593Y23428551D01*
X40825865Y23368431D01*
X40825344Y23366407D01*
X40827597Y23293912D01*
X40892270Y23232439D01*
X41043590Y23167703D01*
X41305781Y23085417D01*
X41333436Y23077171D01*
X41585709Y22989839D01*
X41757000Y22907828D01*
X41820136Y22843896D01*
X41816883Y22811119D01*
X41778411Y22767582D01*
X41678159Y22765825D01*
X41493243Y22807745D01*
X41200782Y22895239D01*
X41166492Y22905893D01*
X40918545Y22973134D01*
X40772207Y22987987D01*
X40704348Y22953151D01*
X40447356Y22953151D01*
X40557514Y23269730D01*
X40647903Y23582653D01*
X40693882Y23812710D01*
X40917950Y23812710D01*
X40941196Y23746797D01*
X41029878Y23689298D01*
X41208024Y23632881D01*
X41499637Y23567424D01*
X41600253Y23546921D01*
X41859039Y23496227D01*
X42054279Y23460932D01*
X42149846Y23447689D01*
X42153868Y23448062D01*
X42208145Y23520239D01*
X42256448Y23692567D01*
X42291285Y23929058D01*
X42305164Y24193727D01*
X42305928Y24419274D01*
X41906884Y24418510D01*
X41551047Y24408724D01*
X41233895Y24372141D01*
X41050459Y24308745D01*
X41002028Y24218821D01*
X41071928Y24134952D01*
X41265513Y24089377D01*
X41305651Y24086406D01*
X41673809Y24051355D01*
X41918931Y24009454D01*
X42055434Y23957274D01*
X42097731Y23891385D01*
X42095152Y23866114D01*
X42034477Y23815248D01*
X41872185Y23822784D01*
X41761668Y23839439D01*
X41406843Y23888146D01*
X41164217Y23910029D01*
X41014630Y23904886D01*
X40938927Y23872513D01*
X40917950Y23812710D01*
X40693882Y23812710D01*
X40734070Y24013793D01*
X40773539Y24657493D01*
X40987349Y24657493D01*
X41005374Y24615171D01*
X41090753Y24581654D01*
X41267795Y24565727D01*
X41559890Y24563551D01*
X41640158Y24564649D01*
X41906608Y24573187D01*
X42112686Y24587118D01*
X42219179Y24604033D01*
X42250409Y24635537D01*
X42291843Y24796879D01*
X42305928Y25084347D01*
X42305968Y25112792D01*
X42304838Y25314368D01*
X42284523Y25441576D01*
X42221581Y25504158D01*
X42092565Y25511855D01*
X41874033Y25474410D01*
X41542540Y25401564D01*
X41532999Y25399456D01*
X41267280Y25335167D01*
X41108983Y25278283D01*
X41029359Y25214368D01*
X40999659Y25128987D01*
X40996858Y25108012D01*
X41001965Y25019150D01*
X41071972Y24992007D01*
X41242555Y25008951D01*
X41544956Y25045152D01*
X41852622Y25061903D01*
X42058552Y25046033D01*
X42146109Y24997746D01*
X42127362Y24958384D01*
X41983515Y24909764D01*
X41702494Y24870719D01*
X41478609Y24847359D01*
X41228682Y24812738D01*
X41079052Y24774192D01*
X41068495Y24767011D01*
X41006386Y24724763D01*
X40987349Y24657493D01*
X40773539Y24657493D01*
X40780254Y24767011D01*
X40700354Y25508329D01*
X40572675Y25969939D01*
X40833547Y25969939D01*
X40843457Y25958466D01*
X40933220Y25939811D01*
X41113970Y25971334D01*
X41403797Y26055758D01*
X41560262Y26105839D01*
X41777869Y26174487D01*
X41900364Y26206843D01*
X41952696Y26205494D01*
X41959815Y26173024D01*
X41946672Y26112020D01*
X41897413Y26048916D01*
X41723100Y25952446D01*
X41438874Y25849084D01*
X41238601Y25780699D01*
X41016271Y25675121D01*
X40930643Y25579016D01*
X40927396Y25516263D01*
X40964910Y25468602D01*
X41061830Y25486933D01*
X41253517Y25528425D01*
X41494747Y25583297D01*
X41748513Y25642849D01*
X41977810Y25698379D01*
X42145631Y25741183D01*
X42214970Y25762560D01*
X42210903Y25823291D01*
X42179752Y25977027D01*
X42131637Y26178624D01*
X42077803Y26383440D01*
X42029492Y26546831D01*
X41997952Y26624154D01*
X41970581Y26620091D01*
X41842490Y26569681D01*
X41635790Y26475323D01*
X41378535Y26349460D01*
X41307823Y26313440D01*
X41027375Y26157466D01*
X40867647Y26041827D01*
X40833547Y25969939D01*
X40572675Y25969939D01*
X40502272Y26224471D01*
X40220943Y26842754D01*
X40505236Y26842754D01*
X40515102Y26807789D01*
X40551123Y26770910D01*
X40555757Y26766640D01*
X40641578Y26750592D01*
X40794482Y26807416D01*
X41034814Y26944407D01*
X41251003Y27070207D01*
X41430380Y27160699D01*
X41532342Y27195230D01*
X41552625Y27194413D01*
X41608538Y27154655D01*
X41549433Y27060885D01*
X41382652Y26921067D01*
X41115537Y26743164D01*
X41072224Y26715964D01*
X40869247Y26573762D01*
X40733858Y26453719D01*
X40692728Y26378819D01*
X40706634Y26347285D01*
X40767586Y26296514D01*
X40860751Y26327061D01*
X41035007Y26408417D01*
X41252976Y26521757D01*
X41481036Y26648372D01*
X41685564Y26769553D01*
X41832938Y26866592D01*
X41889535Y26920782D01*
X41874408Y26979256D01*
X41810308Y27136182D01*
X41713046Y27339931D01*
X41536558Y27688213D01*
X41071106Y27325175D01*
X41054393Y27312140D01*
X40796101Y27110500D01*
X40629381Y26976678D01*
X40537877Y26893240D01*
X40505236Y26842754D01*
X40220943Y26842754D01*
X40193911Y26902162D01*
X39783174Y27528128D01*
X39755333Y27559041D01*
X40088533Y27559041D01*
X40102834Y27486459D01*
X40141462Y27461334D01*
X40225542Y27483658D01*
X40360905Y27586188D01*
X40567200Y27781405D01*
X40611996Y27825191D01*
X40801868Y27998898D01*
X40954902Y28120815D01*
X41041410Y28166815D01*
X41054035Y28166474D01*
X41126378Y28121767D01*
X41087721Y28006300D01*
X40941812Y27826293D01*
X40692403Y27587966D01*
X40466629Y27374603D01*
X40339621Y27218886D01*
X40328059Y27136066D01*
X40328318Y27135816D01*
X40421768Y27141654D01*
X40607780Y27246283D01*
X40883250Y27447959D01*
X40982514Y27526353D01*
X41184126Y27690893D01*
X41327728Y27815665D01*
X41387215Y27878374D01*
X41379312Y27930951D01*
X41313969Y28066780D01*
X41208721Y28238035D01*
X41090139Y28405386D01*
X40984795Y28529503D01*
X40919258Y28571053D01*
X40894373Y28553720D01*
X40788899Y28451014D01*
X40629986Y28278949D01*
X40441321Y28062717D01*
X40278178Y27865288D01*
X40143435Y27679281D01*
X40088533Y27559041D01*
X39755333Y27559041D01*
X39277962Y28089095D01*
X39068571Y28259886D01*
X39493400Y28259886D01*
X39548938Y28179872D01*
X39590419Y28162471D01*
X39671968Y28198602D01*
X39791247Y28323320D01*
X39965211Y28551771D01*
X40157337Y28801363D01*
X40310395Y28959615D01*
X40401812Y28994882D01*
X40432158Y28907597D01*
X40431586Y28901245D01*
X40383409Y28793695D01*
X40272933Y28616454D01*
X40121712Y28404455D01*
X40102508Y28378862D01*
X39954759Y28170086D01*
X39849848Y28001154D01*
X39809417Y27906569D01*
X39814403Y27855569D01*
X39859958Y27827447D01*
X39960737Y27889117D01*
X40126305Y28047502D01*
X40366224Y28309522D01*
X40800378Y28799224D01*
X40500673Y29104600D01*
X40355470Y29242872D01*
X40221011Y29349495D01*
X40149689Y29378284D01*
X40095958Y29311858D01*
X39995861Y29156239D01*
X39873501Y28947550D01*
X39759767Y28748356D01*
X39637129Y28539177D01*
X39553019Y28402157D01*
X39532221Y28369150D01*
X39493400Y28259886D01*
X39068571Y28259886D01*
X38686179Y28571787D01*
X38216084Y28846041D01*
X38869669Y28846041D01*
X38882414Y28699573D01*
X38955253Y28653197D01*
X38970241Y28663834D01*
X39036832Y28767915D01*
X39133752Y28959227D01*
X39245635Y29208388D01*
X39292260Y29313874D01*
X39407543Y29543663D01*
X39507743Y29703228D01*
X39575280Y29762990D01*
X39596807Y29762411D01*
X39645567Y29746177D01*
X39657180Y29691117D01*
X39626690Y29575296D01*
X39549144Y29376778D01*
X39419588Y29073626D01*
X39377086Y28972886D01*
X39280347Y28714372D01*
X39229285Y28526928D01*
X39231778Y28437249D01*
X39281897Y28454720D01*
X39379832Y28566791D01*
X39505218Y28748267D01*
X39640890Y28969592D01*
X39769683Y29201207D01*
X39874433Y29413557D01*
X39937976Y29577082D01*
X39943147Y29662226D01*
X39896733Y29706893D01*
X39757718Y29819947D01*
X39573583Y29957335D01*
X39263931Y30179710D01*
X39043443Y29517883D01*
X39027585Y29469897D01*
X38917799Y29100262D01*
X38869669Y28846041D01*
X38216084Y28846041D01*
X38015726Y28962930D01*
X37317678Y29232573D01*
X38075037Y29232573D01*
X38084316Y29193397D01*
X38171754Y29115198D01*
X38206354Y29113368D01*
X38262776Y29176036D01*
X38320722Y29338728D01*
X38388261Y29620267D01*
X38427448Y29796504D01*
X38497725Y30071617D01*
X38558421Y30234763D01*
X38616971Y30303054D01*
X38680810Y30293602D01*
X38702643Y30214574D01*
X38683651Y30015538D01*
X38621540Y29712170D01*
X38608277Y29655632D01*
X38549678Y29389904D01*
X38507934Y29174518D01*
X38491358Y29051651D01*
X38513898Y28964060D01*
X38590304Y28934793D01*
X38664146Y29016952D01*
X38700856Y29118225D01*
X38794945Y29390511D01*
X38887388Y29672514D01*
X38967117Y29929059D01*
X39023070Y30124969D01*
X39044179Y30225069D01*
X39013623Y30274685D01*
X38893267Y30370319D01*
X38719965Y30477124D01*
X38535258Y30572234D01*
X38380686Y30632785D01*
X38297791Y30635909D01*
X38275833Y30561662D01*
X38240805Y30384907D01*
X38198754Y30142064D01*
X38155416Y29869271D01*
X38116526Y29602666D01*
X38087821Y29378388D01*
X38075037Y29232573D01*
X37317678Y29232573D01*
X37274507Y29249249D01*
X37176013Y29274370D01*
X36890681Y29322717D01*
X36550924Y29357625D01*
X36195043Y29377438D01*
X35861341Y29380498D01*
X35588122Y29365150D01*
X35413688Y29329737D01*
X35315960Y29271963D01*
X34424191Y29271963D01*
X33995409Y29996725D01*
X33928988Y30109616D01*
X33757123Y30408033D01*
X33618514Y30657915D01*
X33525962Y30835818D01*
X33525830Y30836141D01*
X33780008Y30836141D01*
X33809235Y30763414D01*
X33896977Y30597516D01*
X34030328Y30361939D01*
X34196384Y30080174D01*
X34206526Y30063297D01*
X34380874Y29784353D01*
X34535448Y29556538D01*
X34653794Y29402928D01*
X34719458Y29346596D01*
X34782946Y29356402D01*
X34832340Y29419200D01*
X34815573Y29553237D01*
X34729655Y29773670D01*
X34571594Y30095651D01*
X34474633Y30284096D01*
X34353500Y30526614D01*
X34286892Y30679100D01*
X34268286Y30762315D01*
X34291157Y30797019D01*
X34348979Y30803973D01*
X34397360Y30768619D01*
X34500909Y30631565D01*
X34635014Y30415291D01*
X34782722Y30145534D01*
X34897325Y29932855D01*
X35034571Y29702149D01*
X35144320Y29544697D01*
X35209890Y29486245D01*
X35241426Y29488844D01*
X35296638Y29527678D01*
X35295647Y29532538D01*
X35260996Y29625270D01*
X35186522Y29808226D01*
X35085449Y30050347D01*
X34970994Y30320576D01*
X34856381Y30587852D01*
X34754828Y30821119D01*
X34679557Y30989318D01*
X34643787Y31061390D01*
X34576755Y31053466D01*
X34420271Y31018531D01*
X34218380Y30968000D01*
X34015108Y30913309D01*
X33854484Y30865892D01*
X33780535Y30837185D01*
X33780008Y30836141D01*
X33525830Y30836141D01*
X33492267Y30918296D01*
X33492741Y30922431D01*
X33567950Y30982144D01*
X33755766Y31055801D01*
X33958706Y31114933D01*
X34893067Y31114933D01*
X34911693Y31044141D01*
X34975372Y30872081D01*
X35074311Y30624081D01*
X35198716Y30325466D01*
X35327422Y30037028D01*
X35454278Y29784028D01*
X35555670Y29615829D01*
X35619391Y29554793D01*
X35628365Y29554888D01*
X35682830Y29567454D01*
X35704020Y29617648D01*
X35689182Y29728949D01*
X35635566Y29924836D01*
X35540421Y30228789D01*
X35447545Y30527816D01*
X35390498Y30742256D01*
X35375006Y30868274D01*
X35398557Y30927802D01*
X35458638Y30942771D01*
X35477901Y30934832D01*
X35550414Y30826561D01*
X35642094Y30604085D01*
X35745933Y30283482D01*
X35777416Y30178134D01*
X35866846Y29902448D01*
X35938772Y29733045D01*
X36004266Y29647701D01*
X36074403Y29624192D01*
X36162506Y29646481D01*
X36172932Y29745640D01*
X36161022Y29788094D01*
X36114536Y29962725D01*
X36058919Y30179383D01*
X36034989Y30272703D01*
X35957951Y30562184D01*
X35880147Y30843018D01*
X35781269Y31190402D01*
X36014485Y31190402D01*
X36219375Y30372598D01*
X36283403Y30126759D01*
X36379659Y29806343D01*
X36404902Y29745640D01*
X36458389Y29617016D01*
X36521063Y29554793D01*
X36578792Y29582125D01*
X36584956Y29710941D01*
X36562443Y29822704D01*
X36511501Y30112790D01*
X36469208Y30401993D01*
X36439725Y30656415D01*
X36427216Y30842158D01*
X36435842Y30925327D01*
X36475326Y30946764D01*
X36548781Y30883972D01*
X36617704Y30685364D01*
X36681260Y30352881D01*
X36722684Y30090591D01*
X36762318Y29857619D01*
X36790570Y29710941D01*
X36837378Y29613750D01*
X36939056Y29554793D01*
X36939289Y29554793D01*
X36988564Y29568823D01*
X37017606Y29626525D01*
X37028481Y29751553D01*
X37023254Y29967556D01*
X37003992Y30298189D01*
X36986660Y30543289D01*
X36963961Y30807859D01*
X36962492Y30820981D01*
X37179269Y30820981D01*
X37183714Y30601383D01*
X37203211Y30266132D01*
X37219714Y30044928D01*
X37252409Y29751553D01*
X37256828Y29711902D01*
X37297184Y29527678D01*
X37302061Y29505416D01*
X37357583Y29417409D01*
X37425563Y29439820D01*
X37436551Y29463997D01*
X37462175Y29602486D01*
X37486208Y29829881D01*
X37504607Y30111832D01*
X37519892Y30365177D01*
X37545493Y30584010D01*
X37581615Y30700337D01*
X37632450Y30734574D01*
X37650107Y30731896D01*
X37688595Y30687057D01*
X37709892Y30569867D01*
X37716448Y30358294D01*
X37710709Y30030305D01*
X37706374Y29804097D01*
X37711798Y29524416D01*
X37734287Y29360026D01*
X37775090Y29296686D01*
X37838152Y29316209D01*
X37895186Y29428415D01*
X37916641Y29540868D01*
X37950645Y29758252D01*
X37986473Y30018411D01*
X38019702Y30285331D01*
X38045907Y30522994D01*
X38060663Y30695384D01*
X38059548Y30766485D01*
X38050141Y30772489D01*
X37938180Y30818025D01*
X37752459Y30880042D01*
X37543091Y30943259D01*
X37360186Y30992396D01*
X37253855Y31012170D01*
X37221640Y31003160D01*
X37191402Y30947412D01*
X37179269Y30820981D01*
X36962492Y30820981D01*
X36943180Y30993439D01*
X36927278Y31070238D01*
X36859386Y31089549D01*
X36688918Y31116883D01*
X36456555Y31144646D01*
X36014485Y31190402D01*
X35781269Y31190402D01*
X35780143Y31194359D01*
X35347544Y31164343D01*
X35142293Y31148037D01*
X34968343Y31129603D01*
X34893313Y31115233D01*
X34893067Y31114933D01*
X33958706Y31114933D01*
X34033510Y31136729D01*
X34378503Y31218255D01*
X34768068Y31293706D01*
X35153979Y31337056D01*
X35644765Y31352829D01*
X36178546Y31340271D01*
X36710217Y31301604D01*
X37194671Y31239051D01*
X37586802Y31154834D01*
X37695449Y31122766D01*
X38551040Y30791109D01*
X38722130Y30695384D01*
X39360230Y30338367D01*
G37*
%TD*%
%LPC*%
D16*
%TO.C,TP1*%
X30100000Y26060000D03*
X30100000Y28600000D03*
%TD*%
D17*
%TO.C,H4*%
X42100000Y3100000D03*
%TD*%
D16*
%TO.C,TP2*%
X26300000Y22750000D03*
X23760000Y22750000D03*
%TD*%
D18*
%TO.C,X2*%
X3600000Y45600000D03*
D19*
X6100000Y45600000D03*
%TD*%
D20*
%TO.C,X1*%
X3100000Y10150000D03*
D21*
X5100000Y10150000D03*
%TD*%
D17*
%TO.C,H3*%
X3100000Y3100000D03*
%TD*%
D22*
%TO.C,J2*%
X42875000Y41575000D03*
D23*
X40335000Y41575000D03*
X42875000Y44115000D03*
X40335000Y44115000D03*
X42875000Y46655000D03*
X40335000Y46655000D03*
%TD*%
D17*
%TO.C,H2*%
X3100000Y52100000D03*
%TD*%
D24*
%TO.C,J3*%
X29135000Y5030000D03*
X34915000Y5030000D03*
D25*
X27700000Y5520000D03*
X36350000Y5520000D03*
D26*
X27700000Y1350000D03*
X36350000Y1350000D03*
%TD*%
D18*
%TO.C,X4*%
X3600000Y38100000D03*
D19*
X6100000Y38100000D03*
%TD*%
D27*
%TO.C,S1*%
X12100000Y2600000D03*
X14100000Y2600000D03*
X16100000Y2600000D03*
D28*
X10000000Y2600000D03*
X18200000Y2600000D03*
%TD*%
D29*
%TO.C,D1*%
X10100000Y50075000D03*
D30*
X10100000Y52615000D03*
%TD*%
D17*
%TO.C,H1*%
X42100000Y52100000D03*
%TD*%
D24*
X18600032Y27550000D03*
D31*
X14300000Y33519900D03*
X25357600Y33600000D03*
X18900000Y15300000D03*
X37456848Y9693100D03*
X27100000Y47850000D03*
X31850000Y37100000D03*
D24*
X23050000Y29450000D03*
X23250000Y9850000D03*
D31*
X10100000Y7350000D03*
X39200000Y13600000D03*
D24*
X21151521Y5012655D03*
D31*
X30100000Y47850000D03*
D24*
X15350000Y42850000D03*
D31*
X34100000Y27850000D03*
X25400000Y37000000D03*
X43850000Y7600000D03*
X8350000Y25600000D03*
D24*
X4600000Y31950000D03*
D31*
X8350000Y28850000D03*
X13300000Y12950000D03*
D24*
X30500000Y7170600D03*
D31*
X18850000Y33600000D03*
D24*
X7100000Y16900000D03*
D31*
X15850000Y15300000D03*
X12350000Y5350000D03*
X5350000Y19800000D03*
D24*
X41600000Y18100000D03*
D31*
X35100000Y24100000D03*
X39050000Y20350000D03*
X38100000Y37100000D03*
X28450000Y38950000D03*
X28800000Y15300000D03*
X33350000Y3100000D03*
X24000000Y42300000D03*
X39150000Y54150000D03*
X30350000Y3100000D03*
D24*
X4050000Y12750000D03*
X11600000Y14750000D03*
D31*
X12350000Y7350000D03*
X36750000Y14150000D03*
X31750000Y44750000D03*
D24*
X26850000Y18800000D03*
D31*
X25400000Y41850000D03*
X38350000Y44200000D03*
X13650000Y30050000D03*
X27200000Y40200000D03*
X7850000Y46350000D03*
D24*
X14850000Y7350000D03*
D31*
X8350000Y22350000D03*
D24*
X12350000Y19600000D03*
D31*
X43350000Y15850000D03*
X23368794Y7538806D03*
X37150000Y8400000D03*
X14600000Y39100000D03*
X6850000Y31350000D03*
X37300000Y21350000D03*
X26600000Y15400000D03*
D24*
X9350000Y17200000D03*
D31*
X36100000Y45600002D03*
D24*
X21900000Y18950000D03*
D31*
X24100000Y47850000D03*
X15850000Y53900000D03*
X36850000Y22600000D03*
D24*
X13700000Y23450000D03*
D31*
X19600000Y47225000D03*
X10050000Y28100000D03*
D24*
X19750000Y25950000D03*
X12350000Y36800000D03*
D31*
X10050000Y22600000D03*
X37350000Y30850000D03*
D24*
X31150000Y13300000D03*
D31*
X16750000Y40500000D03*
X32350000Y26850000D03*
X19600000Y45100000D03*
X6600000Y5350000D03*
D24*
X23600000Y21350000D03*
D31*
X6100000Y26350000D03*
X6600000Y35850000D03*
X14600000Y36850000D03*
D24*
X1700000Y39400000D03*
D31*
X5100000Y43350000D03*
X24600000Y6100000D03*
X38350000Y48850000D03*
X32600000Y29350000D03*
X27600000Y33600000D03*
D24*
X17350000Y31350000D03*
X19750000Y31350000D03*
X18600000Y23850000D03*
X11500000Y16800000D03*
X16200000Y7200000D03*
D31*
X43450000Y35950000D03*
X12100000Y34100000D03*
D24*
X24050000Y31300000D03*
D31*
X39050000Y16750000D03*
X4600000Y33600000D03*
D24*
X19600000Y27600000D03*
X38850000Y40850000D03*
D31*
X1200000Y19100000D03*
X40350000Y34600000D03*
D24*
X22050000Y42850000D03*
D31*
X32150000Y17350000D03*
D24*
X9950000Y37250000D03*
X16350000Y24100000D03*
D31*
X31750000Y38900000D03*
D24*
X26400000Y13350000D03*
D31*
X4181752Y23338260D03*
D24*
X26450000Y29400000D03*
X14850000Y22600000D03*
D31*
X7600000Y41350000D03*
D24*
X15950000Y30850000D03*
X23248600Y17406708D03*
D31*
X2350000Y43350000D03*
X33000000Y40200000D03*
D24*
X5850000Y17550000D03*
D31*
X15850000Y45100000D03*
D24*
X21850000Y8100000D03*
D31*
X27600000Y44350000D03*
X16850000Y4350000D03*
X31050000Y15300000D03*
D24*
X28100000Y7950000D03*
D31*
X33000000Y43500000D03*
X21800000Y48850000D03*
X22650000Y12350000D03*
D24*
X15950000Y25700000D03*
D31*
X29350000Y33600000D03*
D24*
X11600000Y12350000D03*
D31*
X13600000Y25550000D03*
X1300000Y15550000D03*
X19600000Y49500000D03*
X35400000Y11100000D03*
X19600000Y38200000D03*
D24*
X13050000Y40500000D03*
D31*
X8600000Y30850000D03*
X5550000Y53800000D03*
D24*
X30100000Y8400000D03*
X3600000Y17550000D03*
D31*
X26350000Y35850000D03*
X21800000Y45100000D03*
X12100000Y44250000D03*
X13100000Y1100000D03*
X13500000Y28150000D03*
X24000000Y39750000D03*
X37300000Y16750000D03*
X38100000Y34600000D03*
X2350000Y7100000D03*
D24*
X16850000Y34850000D03*
X4200000Y25550000D03*
D31*
X30100000Y38950000D03*
X28250000Y37000000D03*
D24*
X33250000Y9350000D03*
D31*
X16750000Y38150000D03*
X44350000Y28850000D03*
D24*
X28750000Y13200000D03*
D31*
X2600000Y35850000D03*
D24*
X15400000Y10400000D03*
D31*
X33000000Y41850000D03*
X42350000Y32850000D03*
X2350000Y47650000D03*
X18900000Y18650000D03*
D24*
X25300000Y17500000D03*
X18550000Y21450000D03*
D31*
X36600000Y25350000D03*
D24*
X20842500Y21450000D03*
D31*
X10100000Y34600000D03*
X20850000Y1850000D03*
X42350000Y25850000D03*
D24*
X21850000Y23600000D03*
D31*
X13900000Y51750000D03*
X31850000Y33600000D03*
X4600000Y35850000D03*
X36100000Y37100000D03*
X38400000Y23650000D03*
X35350000Y33600000D03*
X7600000Y39000000D03*
X42350000Y22850000D03*
X5750000Y22650000D03*
X19600000Y35950000D03*
X4450000Y28150000D03*
X29100000Y29600000D03*
X36850000Y27100000D03*
X19600000Y53350000D03*
X42600000Y39600000D03*
D24*
X26450000Y31300000D03*
X17350000Y32850000D03*
D31*
X13100000Y47850000D03*
X26500000Y25750000D03*
X36100000Y47850000D03*
X40350000Y37850000D03*
X17400000Y5900000D03*
X27200000Y41850000D03*
X37850000Y2600000D03*
X19600000Y40500000D03*
D24*
X15000000Y17250000D03*
D31*
X33100000Y47850000D03*
X33400000Y11350000D03*
D24*
X33450000Y13350000D03*
D31*
X15850000Y49500000D03*
X24100000Y25850000D03*
X44350000Y48600000D03*
X44350000Y23350000D03*
X44100000Y12350000D03*
D24*
X5750000Y49100000D03*
D31*
X30850000Y22850000D03*
X5600000Y29350000D03*
D24*
X23100000Y33850000D03*
D31*
X41050000Y11400000D03*
D24*
X15650000Y18750000D03*
X8750000Y15350000D03*
D31*
X10050000Y25600000D03*
X33600000Y20100000D03*
X5100000Y7350000D03*
X7350000Y1850000D03*
D24*
X25050000Y11700000D03*
X19350000Y4350000D03*
X800000Y22950000D03*
X40500000Y27850000D03*
D31*
X7100000Y19750000D03*
D24*
X19750000Y29400000D03*
D31*
X30100000Y44750000D03*
X29550000Y7750000D03*
D24*
X32150000Y15300000D03*
X25020600Y12521563D03*
X25649949Y7849999D03*
X25584778Y9865288D03*
X10100000Y30025000D03*
X10100000Y23675000D03*
X850000Y23850000D03*
X36100000Y35850000D03*
X38050000Y35550000D03*
X8349971Y13600029D03*
X40350000Y32849988D03*
X24100000Y46100000D03*
X24350006Y28600000D03*
X25650000Y15550000D03*
X23900000Y36749994D03*
X23100000Y31298100D03*
X42149970Y7600000D03*
X30884762Y5134762D03*
X2600000Y33350000D03*
X10100000Y21100000D03*
X17350000Y30350000D03*
X9350000Y14600000D03*
%LPD*%
M02*
