%TF.GenerationSoftware,KiCad,Pcbnew,7.0.5*%
%TF.CreationDate,2024-05-30T23:49:04+02:00*%
%TF.ProjectId,Acoustifly,41636f75-7374-4696-966c-792e6b696361,rev?*%
%TF.SameCoordinates,Original*%
%TF.FileFunction,Soldermask,Bot*%
%TF.FilePolarity,Negative*%
%FSLAX46Y46*%
G04 Gerber Fmt 4.6, Leading zero omitted, Abs format (unit mm)*
G04 Created by KiCad (PCBNEW 7.0.5) date 2024-05-30 23:49:04*
%MOMM*%
%LPD*%
G01*
G04 APERTURE LIST*
G04 Aperture macros list*
%AMRoundRect*
0 Rectangle with rounded corners*
0 $1 Rounding radius*
0 $2 $3 $4 $5 $6 $7 $8 $9 X,Y pos of 4 corners*
0 Add a 4 corners polygon primitive as box body*
4,1,4,$2,$3,$4,$5,$6,$7,$8,$9,$2,$3,0*
0 Add four circle primitives for the rounded corners*
1,1,$1+$1,$2,$3*
1,1,$1+$1,$4,$5*
1,1,$1+$1,$6,$7*
1,1,$1+$1,$8,$9*
0 Add four rect primitives between the rounded corners*
20,1,$1+$1,$2,$3,$4,$5,0*
20,1,$1+$1,$4,$5,$6,$7,0*
20,1,$1+$1,$6,$7,$8,$9,0*
20,1,$1+$1,$8,$9,$2,$3,0*%
G04 Aperture macros list end*
%ADD10C,1.400000*%
%ADD11C,3.200000*%
%ADD12RoundRect,0.250000X-0.600000X-0.750000X0.600000X-0.750000X0.600000X0.750000X-0.600000X0.750000X0*%
%ADD13O,1.700000X2.000000*%
%ADD14RoundRect,0.250000X-0.350000X-0.625000X0.350000X-0.625000X0.350000X0.625000X-0.350000X0.625000X0*%
%ADD15O,1.200000X1.750000*%
%ADD16R,1.700000X1.700000*%
%ADD17O,1.700000X1.700000*%
%ADD18C,0.600000*%
%ADD19O,1.104000X2.204000*%
%ADD20O,1.104000X1.904000*%
%ADD21C,1.300000*%
%ADD22C,2.483000*%
%ADD23R,1.800000X1.800000*%
%ADD24C,1.800000*%
%ADD25C,0.756400*%
G04 APERTURE END LIST*
D10*
%TO.C,TP1*%
X30100000Y26060000D03*
X30100000Y28600000D03*
%TD*%
D11*
%TO.C,H4*%
X42100000Y3100000D03*
%TD*%
D10*
%TO.C,TP2*%
X26300000Y22750000D03*
X23760000Y22750000D03*
%TD*%
D12*
%TO.C,X2*%
X3600000Y45600000D03*
D13*
X6100000Y45600000D03*
%TD*%
D14*
%TO.C,X1*%
X3100000Y10150000D03*
D15*
X5100000Y10150000D03*
%TD*%
D11*
%TO.C,H3*%
X3100000Y3100000D03*
%TD*%
D16*
%TO.C,J2*%
X42875000Y41575000D03*
D17*
X40335000Y41575000D03*
X42875000Y44115000D03*
X40335000Y44115000D03*
X42875000Y46655000D03*
X40335000Y46655000D03*
%TD*%
D11*
%TO.C,H2*%
X3100000Y52100000D03*
%TD*%
D18*
%TO.C,J3*%
X29135000Y5030000D03*
X34915000Y5030000D03*
D19*
X27700000Y5520000D03*
X36350000Y5520000D03*
D20*
X27700000Y1350000D03*
X36350000Y1350000D03*
%TD*%
D12*
%TO.C,X4*%
X3600000Y38100000D03*
D13*
X6100000Y38100000D03*
%TD*%
D21*
%TO.C,S1*%
X12100000Y2600000D03*
X14100000Y2600000D03*
X16100000Y2600000D03*
D22*
X10000000Y2600000D03*
X18200000Y2600000D03*
%TD*%
D23*
%TO.C,D1*%
X10100000Y50075000D03*
D24*
X10100000Y52615000D03*
%TD*%
D11*
%TO.C,H1*%
X42100000Y52100000D03*
%TD*%
D18*
X18600032Y27550000D03*
D25*
X14300000Y33519900D03*
X25357600Y33600000D03*
X18900000Y15300000D03*
X37456848Y9693100D03*
X27100000Y47850000D03*
X31850000Y37100000D03*
D18*
X23050000Y29450000D03*
X23250000Y9850000D03*
D25*
X10100000Y7350000D03*
X39200000Y13600000D03*
D18*
X21151521Y5012655D03*
D25*
X30100000Y47850000D03*
D18*
X15350000Y42850000D03*
D25*
X34100000Y27850000D03*
X25400000Y37000000D03*
X43850000Y7600000D03*
X8350000Y25600000D03*
D18*
X4600000Y31950000D03*
D25*
X8350000Y28850000D03*
X13300000Y12950000D03*
D18*
X30500000Y7170600D03*
D25*
X18850000Y33600000D03*
D18*
X7100000Y16900000D03*
D25*
X15850000Y15300000D03*
X12350000Y5350000D03*
X5350000Y19800000D03*
D18*
X41600000Y18100000D03*
D25*
X35100000Y24100000D03*
X39050000Y20350000D03*
X38100000Y37100000D03*
X28450000Y38950000D03*
X28800000Y15300000D03*
X33350000Y3100000D03*
X24000000Y42300000D03*
X39150000Y54150000D03*
X30350000Y3100000D03*
D18*
X4050000Y12750000D03*
X11600000Y14750000D03*
D25*
X12350000Y7350000D03*
X36750000Y14150000D03*
X31750000Y44750000D03*
D18*
X26850000Y18800000D03*
D25*
X25400000Y41850000D03*
X38350000Y44200000D03*
X13650000Y30050000D03*
X27200000Y40200000D03*
X7850000Y46350000D03*
D18*
X14850000Y7350000D03*
D25*
X8350000Y22350000D03*
D18*
X12350000Y19600000D03*
D25*
X43350000Y15850000D03*
X23368794Y7538806D03*
X37150000Y8400000D03*
X14600000Y39100000D03*
X6850000Y31350000D03*
X37300000Y21350000D03*
X26600000Y15400000D03*
D18*
X9350000Y17200000D03*
D25*
X36100000Y45600002D03*
D18*
X21900000Y18950000D03*
D25*
X24100000Y47850000D03*
X15850000Y53900000D03*
X36850000Y22600000D03*
D18*
X13700000Y23450000D03*
D25*
X19600000Y47225000D03*
X10050000Y28100000D03*
D18*
X19750000Y25950000D03*
X12350000Y36800000D03*
D25*
X10050000Y22600000D03*
X37350000Y30850000D03*
D18*
X31150000Y13300000D03*
D25*
X16750000Y40500000D03*
X32350000Y26850000D03*
X19600000Y45100000D03*
X6600000Y5350000D03*
D18*
X23600000Y21350000D03*
D25*
X6100000Y26350000D03*
X6600000Y35850000D03*
X14600000Y36850000D03*
D18*
X1700000Y39400000D03*
D25*
X5100000Y43350000D03*
X24600000Y6100000D03*
X38350000Y48850000D03*
X32600000Y29350000D03*
X27600000Y33600000D03*
D18*
X17350000Y31350000D03*
X19750000Y31350000D03*
X18600000Y23850000D03*
X11500000Y16800000D03*
X16200000Y7200000D03*
D25*
X43450000Y35950000D03*
X12100000Y34100000D03*
D18*
X24050000Y31300000D03*
D25*
X39050000Y16750000D03*
X4600000Y33600000D03*
D18*
X19600000Y27600000D03*
X38850000Y40850000D03*
D25*
X1200000Y19100000D03*
X40350000Y34600000D03*
D18*
X22050000Y42850000D03*
D25*
X32150000Y17350000D03*
D18*
X9950000Y37250000D03*
X16350000Y24100000D03*
D25*
X31750000Y38900000D03*
D18*
X26400000Y13350000D03*
D25*
X4181752Y23338260D03*
D18*
X26450000Y29400000D03*
X14850000Y22600000D03*
D25*
X7600000Y41350000D03*
D18*
X15950000Y30850000D03*
X23248600Y17406708D03*
D25*
X2350000Y43350000D03*
X33000000Y40200000D03*
D18*
X5850000Y17550000D03*
D25*
X15850000Y45100000D03*
D18*
X21850000Y8100000D03*
D25*
X27600000Y44350000D03*
X16850000Y4350000D03*
X31050000Y15300000D03*
D18*
X28100000Y7950000D03*
D25*
X33000000Y43500000D03*
X21800000Y48850000D03*
X22650000Y12350000D03*
D18*
X15950000Y25700000D03*
D25*
X29350000Y33600000D03*
D18*
X11600000Y12350000D03*
D25*
X13600000Y25550000D03*
X1300000Y15550000D03*
X19600000Y49500000D03*
X35400000Y11100000D03*
X19600000Y38200000D03*
D18*
X13050000Y40500000D03*
D25*
X8600000Y30850000D03*
X5550000Y53800000D03*
D18*
X30100000Y8400000D03*
X3600000Y17550000D03*
D25*
X26350000Y35850000D03*
X21800000Y45100000D03*
X12100000Y44250000D03*
X13100000Y1100000D03*
X13500000Y28150000D03*
X24000000Y39750000D03*
X37300000Y16750000D03*
X38100000Y34600000D03*
X2350000Y7100000D03*
D18*
X16850000Y34850000D03*
X4200000Y25550000D03*
D25*
X30100000Y38950000D03*
X28250000Y37000000D03*
D18*
X33250000Y9350000D03*
D25*
X16750000Y38150000D03*
X44350000Y28850000D03*
D18*
X28750000Y13200000D03*
D25*
X2600000Y35850000D03*
D18*
X15400000Y10400000D03*
D25*
X33000000Y41850000D03*
X42350000Y32850000D03*
X2350000Y47650000D03*
X18900000Y18650000D03*
D18*
X25300000Y17500000D03*
X18550000Y21450000D03*
D25*
X36600000Y25350000D03*
D18*
X20842500Y21450000D03*
D25*
X10100000Y34600000D03*
X20850000Y1850000D03*
X42350000Y25850000D03*
D18*
X21850000Y23600000D03*
D25*
X13900000Y51750000D03*
X31850000Y33600000D03*
X4600000Y35850000D03*
X36100000Y37100000D03*
X38400000Y23650000D03*
X35350000Y33600000D03*
X7600000Y39000000D03*
X42350000Y22850000D03*
X5750000Y22650000D03*
X19600000Y35950000D03*
X4450000Y28150000D03*
X29100000Y29600000D03*
X36850000Y27100000D03*
X19600000Y53350000D03*
X42600000Y39600000D03*
D18*
X26450000Y31300000D03*
X17350000Y32850000D03*
D25*
X13100000Y47850000D03*
X26500000Y25750000D03*
X36100000Y47850000D03*
X40350000Y37850000D03*
X17400000Y5900000D03*
X27200000Y41850000D03*
X37850000Y2600000D03*
X19600000Y40500000D03*
D18*
X15000000Y17250000D03*
D25*
X33100000Y47850000D03*
X33400000Y11350000D03*
D18*
X33450000Y13350000D03*
D25*
X15850000Y49500000D03*
X24100000Y25850000D03*
X44350000Y48600000D03*
X44350000Y23350000D03*
X44100000Y12350000D03*
D18*
X5750000Y49100000D03*
D25*
X30850000Y22850000D03*
X5600000Y29350000D03*
D18*
X23100000Y33850000D03*
D25*
X41050000Y11400000D03*
D18*
X15650000Y18750000D03*
X8750000Y15350000D03*
D25*
X10050000Y25600000D03*
X33600000Y20100000D03*
X5100000Y7350000D03*
X7350000Y1850000D03*
D18*
X25050000Y11700000D03*
X19350000Y4350000D03*
X800000Y22950000D03*
X40500000Y27850000D03*
D25*
X7100000Y19750000D03*
D18*
X19750000Y29400000D03*
D25*
X30100000Y44750000D03*
X29550000Y7750000D03*
D18*
X32150000Y15300000D03*
X25020600Y12521563D03*
X25649949Y7849999D03*
X25584778Y9865288D03*
X10100000Y30025000D03*
X10100000Y23675000D03*
X850000Y23850000D03*
X36100000Y35850000D03*
X38050000Y35550000D03*
X8349971Y13600029D03*
X40350000Y32849988D03*
X24100000Y46100000D03*
X24350006Y28600000D03*
X25650000Y15550000D03*
X23900000Y36749994D03*
X23100000Y31298100D03*
X42149970Y7600000D03*
X30884762Y5134762D03*
X2600000Y33350000D03*
X10100000Y21100000D03*
X17350000Y30350000D03*
X9350000Y14600000D03*
M02*
