%TF.GenerationSoftware,KiCad,Pcbnew,7.0.5*%
%TF.CreationDate,2024-05-30T23:49:04+02:00*%
%TF.ProjectId,Acoustifly,41636f75-7374-4696-966c-792e6b696361,rev?*%
%TF.SameCoordinates,Original*%
%TF.FileFunction,Copper,L2,Bot*%
%TF.FilePolarity,Positive*%
%FSLAX46Y46*%
G04 Gerber Fmt 4.6, Leading zero omitted, Abs format (unit mm)*
G04 Created by KiCad (PCBNEW 7.0.5) date 2024-05-30 23:49:04*
%MOMM*%
%LPD*%
G01*
G04 APERTURE LIST*
G04 Aperture macros list*
%AMRoundRect*
0 Rectangle with rounded corners*
0 $1 Rounding radius*
0 $2 $3 $4 $5 $6 $7 $8 $9 X,Y pos of 4 corners*
0 Add a 4 corners polygon primitive as box body*
4,1,4,$2,$3,$4,$5,$6,$7,$8,$9,$2,$3,0*
0 Add four circle primitives for the rounded corners*
1,1,$1+$1,$2,$3*
1,1,$1+$1,$4,$5*
1,1,$1+$1,$6,$7*
1,1,$1+$1,$8,$9*
0 Add four rect primitives between the rounded corners*
20,1,$1+$1,$2,$3,$4,$5,0*
20,1,$1+$1,$4,$5,$6,$7,0*
20,1,$1+$1,$6,$7,$8,$9,0*
20,1,$1+$1,$8,$9,$2,$3,0*%
G04 Aperture macros list end*
%TA.AperFunction,ComponentPad*%
%ADD10C,1.400000*%
%TD*%
%TA.AperFunction,ComponentPad*%
%ADD11RoundRect,0.250000X-0.600000X-0.750000X0.600000X-0.750000X0.600000X0.750000X-0.600000X0.750000X0*%
%TD*%
%TA.AperFunction,ComponentPad*%
%ADD12O,1.700000X2.000000*%
%TD*%
%TA.AperFunction,ComponentPad*%
%ADD13RoundRect,0.250000X-0.350000X-0.625000X0.350000X-0.625000X0.350000X0.625000X-0.350000X0.625000X0*%
%TD*%
%TA.AperFunction,ComponentPad*%
%ADD14O,1.200000X1.750000*%
%TD*%
%TA.AperFunction,ComponentPad*%
%ADD15R,1.700000X1.700000*%
%TD*%
%TA.AperFunction,ComponentPad*%
%ADD16O,1.700000X1.700000*%
%TD*%
%TA.AperFunction,ComponentPad*%
%ADD17O,0.900000X2.000000*%
%TD*%
%TA.AperFunction,ComponentPad*%
%ADD18O,0.900000X1.700000*%
%TD*%
%TA.AperFunction,ComponentPad*%
%ADD19C,1.300000*%
%TD*%
%TA.AperFunction,ComponentPad*%
%ADD20C,2.483000*%
%TD*%
%TA.AperFunction,ComponentPad*%
%ADD21R,1.800000X1.800000*%
%TD*%
%TA.AperFunction,ComponentPad*%
%ADD22C,1.800000*%
%TD*%
%TA.AperFunction,ViaPad*%
%ADD23C,0.600000*%
%TD*%
%TA.AperFunction,ViaPad*%
%ADD24C,0.756400*%
%TD*%
%TA.AperFunction,Conductor*%
%ADD25C,0.254000*%
%TD*%
G04 APERTURE END LIST*
D10*
%TO.P,TP1,1,1*%
%TO.N,GND*%
X30100000Y26060000D03*
%TO.P,TP1,2,2*%
%TO.N,/3.3V*%
X30100000Y28600000D03*
%TD*%
%TO.P,TP2,1,1*%
%TO.N,GND*%
X26300000Y22750000D03*
%TO.P,TP2,2,2*%
%TO.N,VCC*%
X23760000Y22750000D03*
%TD*%
D11*
%TO.P,X2,1,S*%
%TO.N,Net-(IC3-OUT1)*%
X3600000Y45600000D03*
D12*
%TO.P,X2,2,S*%
%TO.N,Net-(IC3-OUT2)*%
X6100000Y45600000D03*
%TD*%
D13*
%TO.P,X1,1,1*%
%TO.N,/BAT+*%
X3100000Y10150000D03*
D14*
%TO.P,X1,2,2*%
%TO.N,GND*%
X5100000Y10150000D03*
%TD*%
D15*
%TO.P,J2,1,Pin_1*%
%TO.N,/MISO*%
X42875000Y41575000D03*
D16*
%TO.P,J2,2,Pin_2*%
%TO.N,VCC*%
X40335000Y41575000D03*
%TO.P,J2,3,Pin_3*%
%TO.N,/SCK*%
X42875000Y44115000D03*
%TO.P,J2,4,Pin_4*%
%TO.N,/MOSI*%
X40335000Y44115000D03*
%TO.P,J2,5,Pin_5*%
%TO.N,/RESET*%
X42875000Y46655000D03*
%TO.P,J2,6,Pin_6*%
%TO.N,GND*%
X40335000Y46655000D03*
%TD*%
D17*
%TO.P,J3,S1,SHIELD*%
%TO.N,GND*%
X27700000Y5520000D03*
%TO.P,J3,S2,SHIELD*%
X36350000Y5520000D03*
D18*
%TO.P,J3,S3,SHIELD*%
X27700000Y1350000D03*
%TO.P,J3,S4,SHIELD*%
X36350000Y1350000D03*
%TD*%
D11*
%TO.P,X4,1,S*%
%TO.N,Net-(IC3-OUT3)*%
X3600000Y38100000D03*
D12*
%TO.P,X4,2,S*%
%TO.N,Net-(IC3-OUT4)*%
X6100000Y38100000D03*
%TD*%
D19*
%TO.P,S1,1,1*%
%TO.N,Net-(D4-K)*%
X12100000Y2600000D03*
%TO.P,S1,2,2*%
%TO.N,VCC*%
X14100000Y2600000D03*
%TO.P,S1,3,3*%
%TO.N,unconnected-(S1-Pad3)*%
X16100000Y2600000D03*
D20*
%TO.P,S1,MH1*%
%TO.N,N/C*%
X10000000Y2600000D03*
%TO.P,S1,MH2*%
X18200000Y2600000D03*
%TD*%
D21*
%TO.P,D1,1,K*%
%TO.N,/LED_RED*%
X10100000Y50075000D03*
D22*
%TO.P,D1,2,A*%
%TO.N,/3.3V*%
X10100000Y52615000D03*
%TD*%
D23*
%TO.N,VCC*%
X18600032Y27550000D03*
D24*
X14300000Y33519900D03*
X25357600Y33600000D03*
%TO.N,GND*%
X18900000Y15300000D03*
X37456848Y9693100D03*
X27100000Y47850000D03*
X31850000Y37100000D03*
D23*
X23050000Y29450000D03*
X23250000Y9850000D03*
D24*
X10100000Y7350000D03*
X39200000Y13600000D03*
D23*
X21151521Y5012655D03*
D24*
X30100000Y47850000D03*
D23*
X15350000Y42850000D03*
D24*
X34100000Y27850000D03*
X25400000Y37000000D03*
X43850000Y7600000D03*
X8350000Y25600000D03*
D23*
X4600000Y31950000D03*
D24*
X8350000Y28850000D03*
X13300000Y12950000D03*
D23*
X30500000Y7170600D03*
D24*
X18850000Y33600000D03*
D23*
X7100000Y16900000D03*
D24*
X15850000Y15300000D03*
X12350000Y5350000D03*
X5350000Y19800000D03*
D23*
X41600000Y18100000D03*
D24*
X35100000Y24100000D03*
X39050000Y20350000D03*
X38100000Y37100000D03*
X28450000Y38950000D03*
X28800000Y15300000D03*
X33350000Y3100000D03*
X24000000Y42300000D03*
X39150000Y54150000D03*
X30350000Y3100000D03*
D23*
X4050000Y12750000D03*
X11600000Y14750000D03*
D24*
X12350000Y7350000D03*
X36750000Y14150000D03*
X31750000Y44750000D03*
D23*
X26850000Y18800000D03*
D24*
X25400000Y41850000D03*
X38350000Y44200000D03*
X13650000Y30050000D03*
X27200000Y40200000D03*
X7850000Y46350000D03*
D23*
X14850000Y7350000D03*
D24*
X8350000Y22350000D03*
D23*
X12350000Y19600000D03*
D24*
X43350000Y15850000D03*
X23368794Y7538806D03*
X37150000Y8400000D03*
X14600000Y39100000D03*
X6850000Y31350000D03*
X37300000Y21350000D03*
X26600000Y15400000D03*
D23*
X9350000Y17200000D03*
D24*
X36100000Y45600002D03*
D23*
X21900000Y18950000D03*
D24*
X24100000Y47850000D03*
X15850000Y53900000D03*
X36850000Y22600000D03*
D23*
X13700000Y23450000D03*
D24*
X19600000Y47225000D03*
X10050000Y28100000D03*
D23*
X19750000Y25950000D03*
X12350000Y36800000D03*
D24*
X10050000Y22600000D03*
X37350000Y30850000D03*
D23*
X31150000Y13300000D03*
D24*
X16750000Y40500000D03*
X32350000Y26850000D03*
X19600000Y45100000D03*
X6600000Y5350000D03*
D23*
X23600000Y21350000D03*
D24*
X6100000Y26350000D03*
X6600000Y35850000D03*
X14600000Y36850000D03*
D23*
X1700000Y39400000D03*
D24*
X5100000Y43350000D03*
X24600000Y6100000D03*
X38350000Y48850000D03*
X32600000Y29350000D03*
X27600000Y33600000D03*
D23*
X17350000Y31350000D03*
X19750000Y31350000D03*
X18600000Y23850000D03*
X11500000Y16800000D03*
X16200000Y7200000D03*
D24*
X43450000Y35950000D03*
X12100000Y34100000D03*
D23*
X24050000Y31300000D03*
D24*
X39050000Y16750000D03*
X4600000Y33600000D03*
D23*
X19600000Y27600000D03*
X38850000Y40850000D03*
D24*
X1200000Y19100000D03*
X40350000Y34600000D03*
D23*
X22050000Y42850000D03*
D24*
X32150000Y17350000D03*
D23*
X9950000Y37250000D03*
X16350000Y24100000D03*
D24*
X31750000Y38900000D03*
D23*
X26400000Y13350000D03*
D24*
X4181752Y23338260D03*
D23*
X26450000Y29400000D03*
X14850000Y22600000D03*
D24*
X7600000Y41350000D03*
D23*
X15950000Y30850000D03*
X23248600Y17406708D03*
D24*
X2350000Y43350000D03*
X33000000Y40200000D03*
D23*
X5850000Y17550000D03*
D24*
X15850000Y45100000D03*
D23*
X21850000Y8100000D03*
D24*
X27600000Y44350000D03*
X16850000Y4350000D03*
X31050000Y15300000D03*
D23*
X28100000Y7950000D03*
D24*
X33000000Y43500000D03*
X21800000Y48850000D03*
X22650000Y12350000D03*
D23*
X15950000Y25700000D03*
D24*
X29350000Y33600000D03*
D23*
X11600000Y12350000D03*
D24*
X13600000Y25550000D03*
X1300000Y15550000D03*
X19600000Y49500000D03*
X35400000Y11100000D03*
X19600000Y38200000D03*
D23*
X13050000Y40500000D03*
D24*
X8600000Y30850000D03*
X5550000Y53800000D03*
D23*
X30100000Y8400000D03*
X3600000Y17550000D03*
D24*
X26350000Y35850000D03*
X21800000Y45100000D03*
X12100000Y44250000D03*
X13100000Y1100000D03*
X13500000Y28150000D03*
X24000000Y39750000D03*
X37300000Y16750000D03*
X38100000Y34600000D03*
X2350000Y7100000D03*
D23*
X16850000Y34850000D03*
X4200000Y25550000D03*
D24*
X30100000Y38950000D03*
X28250000Y37000000D03*
D23*
X33250000Y9350000D03*
D24*
X16750000Y38150000D03*
X44350000Y28850000D03*
D23*
X28750000Y13200000D03*
D24*
X2600000Y35850000D03*
D23*
X15400000Y10400000D03*
D24*
X33000000Y41850000D03*
X42350000Y32850000D03*
X2350000Y47650000D03*
X18900000Y18650000D03*
D23*
X25300000Y17500000D03*
X18550000Y21450000D03*
D24*
X36600000Y25350000D03*
D23*
X20842500Y21450000D03*
D24*
X10100000Y34600000D03*
X20850000Y1850000D03*
X42350000Y25850000D03*
D23*
X21850000Y23600000D03*
D24*
X13900000Y51750000D03*
X31850000Y33600000D03*
X4600000Y35850000D03*
X36100000Y37100000D03*
X38400000Y23650000D03*
X35350000Y33600000D03*
X7600000Y39000000D03*
X42350000Y22850000D03*
X5750000Y22650000D03*
X19600000Y35950000D03*
X4450000Y28150000D03*
X29100000Y29600000D03*
X36850000Y27100000D03*
X19600000Y53350000D03*
X42600000Y39600000D03*
D23*
X26450000Y31300000D03*
X17350000Y32850000D03*
D24*
X13100000Y47850000D03*
X26500000Y25750000D03*
X36100000Y47850000D03*
X40350000Y37850000D03*
X17400000Y5900000D03*
X27200000Y41850000D03*
X37850000Y2600000D03*
X19600000Y40500000D03*
D23*
X15000000Y17250000D03*
D24*
X33100000Y47850000D03*
X33400000Y11350000D03*
D23*
X33450000Y13350000D03*
D24*
X15850000Y49500000D03*
X24100000Y25850000D03*
X44350000Y48600000D03*
X44350000Y23350000D03*
X44100000Y12350000D03*
D23*
X5750000Y49100000D03*
D24*
X30850000Y22850000D03*
X5600000Y29350000D03*
D23*
X23100000Y33850000D03*
D24*
X41050000Y11400000D03*
D23*
X15650000Y18750000D03*
X8750000Y15350000D03*
D24*
X10050000Y25600000D03*
X33600000Y20100000D03*
X5100000Y7350000D03*
X7350000Y1850000D03*
D23*
X25050000Y11700000D03*
X19350000Y4350000D03*
X800000Y22950000D03*
X40500000Y27850000D03*
D24*
X7100000Y19750000D03*
D23*
X19750000Y29400000D03*
D24*
X30100000Y44750000D03*
%TO.N,VBUS*%
X29550000Y7750000D03*
D23*
X32150000Y15300000D03*
%TO.N,/BAT+*%
X25020600Y12521563D03*
%TO.N,Net-(IC2-CHRG)*%
X25649949Y7849999D03*
X25584778Y9865288D03*
%TO.N,Net-(IC3-OUT4)*%
X10100000Y30025000D03*
%TO.N,Net-(IC3-OUT3)*%
X10100000Y23675000D03*
%TO.N,Net-(IC3-OUT2)*%
X850000Y23850000D03*
%TO.N,/BOOT*%
X36100000Y35850000D03*
X38050000Y35550000D03*
%TO.N,/3.3V*%
X8349971Y13600029D03*
X40350000Y32849988D03*
X24100000Y46100000D03*
X24350006Y28600000D03*
%TO.N,Net-(D4-K)*%
X25650000Y15550000D03*
%TO.N,/BAT_STATE*%
X23900000Y36749994D03*
X23100000Y31298100D03*
%TO.N,Net-(J3-CC1)*%
X42149970Y7600000D03*
X30884762Y5134762D03*
%TO.N,/EN_HBRIDGE*%
X2600000Y33350000D03*
X10100000Y21100000D03*
%TO.N,Net-(R7-Pad1)*%
X17350000Y30350000D03*
X9350000Y14600000D03*
%TD*%
D25*
%TO.N,VCC*%
X18600032Y32599968D02*
X17680100Y33519900D01*
X40335000Y41575000D02*
X40335000Y41325000D01*
X18600032Y27550000D02*
X18600032Y32599968D01*
X40335000Y41325000D02*
X37110000Y38100000D01*
X25357600Y35857600D02*
X25357600Y33600000D01*
X17680100Y33519900D02*
X14300000Y33519900D01*
X37110000Y38100000D02*
X27600000Y38100000D01*
X27600000Y38100000D02*
X25357600Y35857600D01*
%TO.N,VBUS*%
X29550000Y7750000D02*
X29520600Y7779400D01*
X29520600Y7779400D02*
X29520600Y12670600D01*
X29520600Y12670600D02*
X32150000Y15300000D01*
%TO.N,/BAT+*%
X3100000Y8100000D02*
X3100000Y10150000D01*
X4600000Y6600000D02*
X19080604Y6600000D01*
X19080604Y6600000D02*
X25002167Y12521563D01*
X25002167Y12521563D02*
X25020600Y12521563D01*
X4600000Y6600000D02*
X3100000Y8100000D01*
%TO.N,Net-(IC2-CHRG)*%
X25649950Y9800116D02*
X25584778Y9865288D01*
X25649950Y7850000D02*
X25649950Y9800116D01*
%TO.N,Net-(IC3-OUT4)*%
X5600000Y31350000D02*
X6925000Y30025000D01*
X5600000Y37600000D02*
X5600000Y31350000D01*
X6100000Y38100000D02*
X5600000Y37600000D01*
X6925000Y30025000D02*
X10100000Y30025000D01*
%TO.N,Net-(IC3-OUT3)*%
X7600000Y23600000D02*
X10025000Y23600000D01*
X3600000Y38100000D02*
X3600000Y27600000D01*
X10025000Y23600000D02*
X10100000Y23675000D01*
X3600000Y27600000D02*
X7600000Y23600000D01*
%TO.N,Net-(IC3-OUT2)*%
X850000Y23850000D02*
X850000Y40350000D01*
X850000Y40350000D02*
X6100000Y45600000D01*
%TO.N,/BOOT*%
X36100000Y35850000D02*
X37750000Y35850000D01*
X37750000Y35850000D02*
X38050000Y35550000D01*
%TO.N,/3.3V*%
X9498825Y13600029D02*
X8349971Y13600029D01*
X24100000Y46100000D02*
X24700000Y45500000D01*
X34349988Y32849988D02*
X40350000Y32849988D01*
X24729400Y28979394D02*
X24350006Y28600000D01*
X24350006Y28600000D02*
X24350006Y28451210D01*
X24350006Y28451210D02*
X9498825Y13600029D01*
X24700000Y45500000D02*
X24700000Y31619396D01*
X30100000Y28600000D02*
X34349988Y32849988D01*
X24700000Y31619396D02*
X24729400Y31589996D01*
X24729400Y31589996D02*
X24729400Y28979394D01*
%TO.N,Net-(D4-K)*%
X12100000Y2600000D02*
X14600000Y5100000D01*
X25650000Y10919396D02*
X25650000Y15550000D01*
X14600000Y5100000D02*
X19830604Y5100000D01*
X19830604Y5100000D02*
X25650000Y10919396D01*
%TO.N,/BAT_STATE*%
X23100000Y31298100D02*
X23900000Y32098100D01*
X23900000Y32098100D02*
X23900000Y36749994D01*
%TO.N,Net-(J3-CC1)*%
X30884762Y5134762D02*
X31919524Y4100000D01*
X38649970Y4100000D02*
X42149970Y7600000D01*
X31919524Y4100000D02*
X38649970Y4100000D01*
%TO.N,/EN_HBRIDGE*%
X2600000Y22100000D02*
X3600000Y21100000D01*
X2600000Y33350000D02*
X2600000Y22100000D01*
X3600000Y21100000D02*
X10100000Y21100000D01*
%TO.N,Net-(R7-Pad1)*%
X9350000Y14600000D02*
X9350000Y15600000D01*
X9350000Y15600000D02*
X17350000Y23600000D01*
X17350000Y23600000D02*
X17350000Y30350000D01*
%TD*%
%TA.AperFunction,Conductor*%
%TO.N,GND*%
G36*
X21839134Y54788634D02*
G01*
X21850000Y54762400D01*
X21850000Y49350000D01*
X21850001Y49350000D01*
X38599999Y49350000D01*
X38600000Y49350000D01*
X38600000Y52032088D01*
X40241779Y52032088D01*
X40271469Y51762255D01*
X40340131Y51499619D01*
X40446302Y51249777D01*
X40587714Y51018063D01*
X40587717Y51018060D01*
X40587719Y51018056D01*
X40761368Y50809396D01*
X40963546Y50628243D01*
X41082999Y50549214D01*
X41189947Y50478458D01*
X41189956Y50478453D01*
X41435729Y50363239D01*
X41435735Y50363237D01*
X41435743Y50363233D01*
X41581512Y50319378D01*
X41695689Y50285027D01*
X41695691Y50285027D01*
X41695697Y50285025D01*
X41964268Y50245500D01*
X41964271Y50245500D01*
X42167767Y50245500D01*
X42167781Y50245500D01*
X42370740Y50260355D01*
X42635709Y50319379D01*
X42889261Y50416354D01*
X43125991Y50549214D01*
X43340853Y50715125D01*
X43529269Y50910553D01*
X43687223Y51131332D01*
X43811348Y51372756D01*
X43898998Y51629680D01*
X43948306Y51896629D01*
X43958220Y52167911D01*
X43953575Y52210123D01*
X43928530Y52437746D01*
X43928530Y52437747D01*
X43859868Y52700384D01*
X43753697Y52950224D01*
X43727866Y52992550D01*
X43612285Y53181938D01*
X43612283Y53181940D01*
X43612281Y53181944D01*
X43438632Y53390604D01*
X43236454Y53571757D01*
X43083432Y53672995D01*
X43010052Y53721543D01*
X43010043Y53721548D01*
X42764270Y53836762D01*
X42764254Y53836768D01*
X42504310Y53914974D01*
X42487128Y53917503D01*
X42235732Y53954500D01*
X42032219Y53954500D01*
X42032217Y53954500D01*
X41829259Y53939645D01*
X41564296Y53880623D01*
X41310741Y53783648D01*
X41074008Y53650786D01*
X40859148Y53484877D01*
X40670733Y53289451D01*
X40512778Y53068671D01*
X40512774Y53068664D01*
X40388652Y52827246D01*
X40301002Y52570324D01*
X40301001Y52570318D01*
X40251693Y52303369D01*
X40251693Y52303362D01*
X40241779Y52032088D01*
X38600000Y52032088D01*
X38600000Y54762400D01*
X38610866Y54788634D01*
X38637100Y54799500D01*
X42052405Y54799500D01*
X42099473Y54799500D01*
X42100514Y54799471D01*
X42401208Y54782584D01*
X42403277Y54782351D01*
X42501405Y54765679D01*
X42699672Y54731992D01*
X42701689Y54731532D01*
X42990596Y54648299D01*
X42992548Y54647616D01*
X43270315Y54532561D01*
X43272181Y54531661D01*
X43535310Y54386235D01*
X43537066Y54385133D01*
X43782275Y54211147D01*
X43783880Y54209867D01*
X44008073Y54009516D01*
X44009515Y54008074D01*
X44209864Y53783883D01*
X44211148Y53782274D01*
X44345830Y53592458D01*
X44385127Y53537074D01*
X44386234Y53535311D01*
X44531660Y53272182D01*
X44532564Y53270306D01*
X44647614Y52992550D01*
X44648302Y52990585D01*
X44731529Y52701697D01*
X44731992Y52699668D01*
X44782350Y52403278D01*
X44782583Y52401210D01*
X44799471Y52100514D01*
X44799500Y52099473D01*
X44799500Y3100528D01*
X44799471Y3099487D01*
X44782583Y2798791D01*
X44782350Y2796723D01*
X44731992Y2500333D01*
X44731529Y2498304D01*
X44648302Y2209416D01*
X44647614Y2207451D01*
X44532564Y1929695D01*
X44531660Y1927819D01*
X44386234Y1664690D01*
X44385127Y1662927D01*
X44211155Y1417736D01*
X44209857Y1416110D01*
X44009524Y1191937D01*
X44008063Y1190476D01*
X43817388Y1020078D01*
X43783891Y990143D01*
X43782264Y988845D01*
X43537073Y814873D01*
X43535310Y813766D01*
X43272181Y668340D01*
X43270305Y667436D01*
X42992549Y552386D01*
X42990584Y551698D01*
X42701696Y468471D01*
X42699667Y468008D01*
X42403277Y417650D01*
X42401209Y417417D01*
X42100514Y400529D01*
X42099473Y400500D01*
X36814680Y400500D01*
X36788446Y411366D01*
X36777580Y437600D01*
X36787635Y462997D01*
X36881996Y563482D01*
X36961407Y707929D01*
X36961408Y707932D01*
X37002398Y867575D01*
X37002400Y867586D01*
X37002400Y1248799D01*
X37002399Y1248800D01*
X36650000Y1248800D01*
X36650000Y1451200D01*
X37002399Y1451200D01*
X37002400Y1451201D01*
X37002400Y1791051D01*
X36986927Y1913531D01*
X36926244Y2066796D01*
X36829357Y2200150D01*
X36702354Y2305216D01*
X36702353Y2305217D01*
X36553207Y2375399D01*
X36451200Y2394859D01*
X36451200Y2033114D01*
X36378160Y2053895D01*
X36266479Y2043546D01*
X36248800Y2034743D01*
X36248800Y2397323D01*
X36226779Y2395937D01*
X36070018Y2345003D01*
X36070016Y2345002D01*
X35930841Y2256679D01*
X35818003Y2136519D01*
X35738592Y1992072D01*
X35738591Y1992069D01*
X35697601Y1832426D01*
X35697600Y1832415D01*
X35697600Y1451201D01*
X35697601Y1451200D01*
X36050000Y1451200D01*
X36050000Y1248800D01*
X35697601Y1248800D01*
X35697600Y1248799D01*
X35697600Y908950D01*
X35713072Y786470D01*
X35773755Y633205D01*
X35870642Y499851D01*
X35911336Y466186D01*
X35924623Y441091D01*
X35916274Y413952D01*
X35891179Y400665D01*
X35887688Y400500D01*
X28164680Y400500D01*
X28138446Y411366D01*
X28127580Y437600D01*
X28137635Y462997D01*
X28231996Y563482D01*
X28311407Y707929D01*
X28311408Y707932D01*
X28352398Y867575D01*
X28352400Y867586D01*
X28352400Y1248799D01*
X28352399Y1248800D01*
X28000000Y1248800D01*
X28000000Y1451200D01*
X28352399Y1451200D01*
X28352400Y1451201D01*
X28352400Y1791051D01*
X28336927Y1913531D01*
X28276244Y2066796D01*
X28179357Y2200150D01*
X28052354Y2305216D01*
X28052353Y2305217D01*
X27903207Y2375399D01*
X27801200Y2394859D01*
X27801200Y2033114D01*
X27728160Y2053895D01*
X27616479Y2043546D01*
X27598800Y2034743D01*
X27598800Y2397323D01*
X27576779Y2395937D01*
X27420018Y2345003D01*
X27420016Y2345002D01*
X27280841Y2256679D01*
X27168003Y2136519D01*
X27088592Y1992072D01*
X27088591Y1992069D01*
X27047601Y1832426D01*
X27047600Y1832415D01*
X27047600Y1451201D01*
X27047601Y1451200D01*
X27400000Y1451200D01*
X27400000Y1248800D01*
X27047600Y1248800D01*
X27047600Y908950D01*
X27063072Y786470D01*
X27123755Y633205D01*
X27220642Y499851D01*
X27261336Y466186D01*
X27274623Y441091D01*
X27266274Y413952D01*
X27241179Y400665D01*
X27237688Y400500D01*
X3100527Y400500D01*
X3099486Y400529D01*
X2798790Y417417D01*
X2796722Y417650D01*
X2500332Y468008D01*
X2498303Y468471D01*
X2209415Y551698D01*
X2207450Y552386D01*
X1929694Y667436D01*
X1927818Y668340D01*
X1664689Y813766D01*
X1662926Y814873D01*
X1417726Y988852D01*
X1416117Y990136D01*
X1191926Y1190485D01*
X1190484Y1191927D01*
X990133Y1416120D01*
X988853Y1417725D01*
X814867Y1662934D01*
X813765Y1664690D01*
X668339Y1927819D01*
X667439Y1929685D01*
X552384Y2207452D01*
X551701Y2209404D01*
X468468Y2498311D01*
X468007Y2500333D01*
X451073Y2599998D01*
X417649Y2796723D01*
X417416Y2798791D01*
X404313Y3032088D01*
X1241779Y3032088D01*
X1271469Y2762255D01*
X1340131Y2499619D01*
X1446302Y2249777D01*
X1587714Y2018063D01*
X1587717Y2018060D01*
X1587719Y2018056D01*
X1761368Y1809396D01*
X1963546Y1628243D01*
X2082999Y1549214D01*
X2189947Y1478458D01*
X2189956Y1478453D01*
X2435729Y1363239D01*
X2435735Y1363237D01*
X2435743Y1363233D01*
X2581512Y1319378D01*
X2695689Y1285027D01*
X2695691Y1285027D01*
X2695697Y1285025D01*
X2964268Y1245500D01*
X2964271Y1245500D01*
X3167767Y1245500D01*
X3167781Y1245500D01*
X3370740Y1260355D01*
X3635709Y1319379D01*
X3889261Y1416354D01*
X4125991Y1549214D01*
X4340853Y1715125D01*
X4529269Y1910553D01*
X4687223Y2131332D01*
X4811348Y2372756D01*
X4898998Y2629680D01*
X4948306Y2896629D01*
X4958220Y3167911D01*
X4947434Y3265935D01*
X4928530Y3437746D01*
X4928530Y3437747D01*
X4859868Y3700384D01*
X4753697Y3950224D01*
X4726737Y3994400D01*
X4612285Y4181938D01*
X4612283Y4181940D01*
X4612281Y4181944D01*
X4438632Y4390604D01*
X4236454Y4571757D01*
X4113345Y4653205D01*
X4010052Y4721543D01*
X4010043Y4721548D01*
X3764270Y4836762D01*
X3764254Y4836768D01*
X3504310Y4914974D01*
X3487128Y4917503D01*
X3235732Y4954500D01*
X3032219Y4954500D01*
X3032217Y4954500D01*
X2829259Y4939645D01*
X2564296Y4880623D01*
X2310741Y4783648D01*
X2074008Y4650786D01*
X1859148Y4484877D01*
X1670733Y4289451D01*
X1512778Y4068671D01*
X1512774Y4068664D01*
X1388652Y3827246D01*
X1301002Y3570324D01*
X1301001Y3570318D01*
X1251693Y3303369D01*
X1251693Y3303362D01*
X1241779Y3032088D01*
X404313Y3032088D01*
X400529Y3099470D01*
X400500Y3100511D01*
X400500Y9493293D01*
X2347100Y9493293D01*
X2362042Y9398947D01*
X2362044Y9398941D01*
X2419981Y9285233D01*
X2419982Y9285232D01*
X2419984Y9285229D01*
X2510229Y9194984D01*
X2510231Y9194983D01*
X2510232Y9194982D01*
X2623940Y9137045D01*
X2623943Y9137044D01*
X2623945Y9137043D01*
X2718292Y9122100D01*
X2783000Y9122100D01*
X2809234Y9111234D01*
X2820100Y9085000D01*
X2820100Y8151710D01*
X2818178Y8139927D01*
X2817982Y8139340D01*
X2817982Y8139339D01*
X2817981Y8139338D01*
X2819631Y8103665D01*
X2819922Y8097370D01*
X2820080Y8093969D01*
X2820100Y8093112D01*
X2820100Y8074064D01*
X2821059Y8068928D01*
X2821354Y8066379D01*
X2822814Y8034810D01*
X2822814Y8034808D01*
X2822815Y8034807D01*
X2829095Y8020582D01*
X2831623Y8012419D01*
X2834480Y7997137D01*
X2834480Y7997136D01*
X2851117Y7970268D01*
X2852316Y7967993D01*
X2865084Y7939078D01*
X2876077Y7928085D01*
X2881385Y7921383D01*
X2889568Y7908168D01*
X2914782Y7889126D01*
X2916722Y7887438D01*
X4365517Y6438644D01*
X4372492Y6428950D01*
X4372764Y6428404D01*
X4372765Y6428403D01*
X4372766Y6428401D01*
X4406316Y6397816D01*
X4406936Y6397225D01*
X4420418Y6383743D01*
X4420422Y6383740D01*
X4424728Y6380790D01*
X4426739Y6379198D01*
X4432556Y6373895D01*
X4450097Y6357903D01*
X4450098Y6357903D01*
X4450099Y6357902D01*
X4464594Y6352287D01*
X4472155Y6348302D01*
X4484984Y6339514D01*
X4503274Y6335213D01*
X4515746Y6332279D01*
X4518203Y6331519D01*
X4547678Y6320100D01*
X4563226Y6320100D01*
X4571719Y6319115D01*
X4579293Y6317335D01*
X4586849Y6315557D01*
X4618146Y6319923D01*
X4620707Y6320100D01*
X19028893Y6320100D01*
X19040681Y6318178D01*
X19041264Y6317982D01*
X19086646Y6320081D01*
X19087493Y6320100D01*
X19106536Y6320100D01*
X19106539Y6320100D01*
X19111684Y6321063D01*
X19114207Y6321355D01*
X19145797Y6322815D01*
X19160021Y6329097D01*
X19168180Y6331623D01*
X19183467Y6334480D01*
X19210351Y6351128D01*
X19212596Y6352312D01*
X19241526Y6365084D01*
X19252522Y6376082D01*
X19259221Y6381387D01*
X19272437Y6389569D01*
X19291483Y6414792D01*
X19293167Y6416726D01*
X24934238Y12057797D01*
X24960472Y12068663D01*
X25085715Y12068663D01*
X25085717Y12068663D01*
X25085719Y12068664D01*
X25085721Y12068664D01*
X25119652Y12078628D01*
X25210676Y12105355D01*
X25312945Y12171079D01*
X25340886Y12176119D01*
X25364211Y12159925D01*
X25370100Y12139867D01*
X25370100Y11050703D01*
X25359234Y11024469D01*
X19725532Y5390766D01*
X19699298Y5379900D01*
X14651711Y5379900D01*
X14639922Y5381823D01*
X14639663Y5381910D01*
X14639338Y5382019D01*
X14602435Y5380312D01*
X14593957Y5379920D01*
X14593111Y5379900D01*
X14574063Y5379900D01*
X14568927Y5378941D01*
X14566377Y5378646D01*
X14534807Y5377186D01*
X14520580Y5370905D01*
X14512417Y5368377D01*
X14497136Y5365520D01*
X14470265Y5348883D01*
X14467991Y5347684D01*
X14439079Y5334917D01*
X14428081Y5323920D01*
X14421381Y5318614D01*
X14408170Y5310434D01*
X14408167Y5310431D01*
X14389121Y5285213D01*
X14387434Y5283274D01*
X12453390Y3349230D01*
X12427156Y3338364D01*
X12414903Y3340446D01*
X12279800Y3387720D01*
X12279794Y3387722D01*
X12279792Y3387722D01*
X12100000Y3407980D01*
X11920208Y3387722D01*
X11920206Y3387722D01*
X11920199Y3387720D01*
X11749429Y3327965D01*
X11596238Y3231709D01*
X11468291Y3103762D01*
X11402177Y2998541D01*
X11379020Y2982109D01*
X11351026Y2986866D01*
X11334799Y3009172D01*
X11328996Y3032088D01*
X11323368Y3054313D01*
X11323366Y3054318D01*
X11230544Y3265930D01*
X11230541Y3265935D01*
X11230541Y3265936D01*
X11104149Y3459394D01*
X10947638Y3629409D01*
X10947632Y3629415D01*
X10765279Y3771346D01*
X10562043Y3881332D01*
X10414089Y3932124D01*
X10343479Y3956364D01*
X10115547Y3994400D01*
X10115543Y3994400D01*
X9884457Y3994400D01*
X9884452Y3994400D01*
X9656520Y3956364D01*
X9656519Y3956363D01*
X9437956Y3881332D01*
X9234720Y3771346D01*
X9052367Y3629415D01*
X9052358Y3629406D01*
X8895853Y3459397D01*
X8769458Y3265935D01*
X8769455Y3265930D01*
X8676633Y3054318D01*
X8619902Y2830290D01*
X8600821Y2600003D01*
X8600821Y2599998D01*
X8619902Y2369711D01*
X8676633Y2145683D01*
X8769455Y1934071D01*
X8769458Y1934066D01*
X8769459Y1934064D01*
X8895851Y1740606D01*
X8895853Y1740604D01*
X9052358Y1570595D01*
X9052367Y1570586D01*
X9234720Y1428655D01*
X9234722Y1428654D01*
X9437956Y1318669D01*
X9656522Y1243636D01*
X9884457Y1205600D01*
X9884458Y1205600D01*
X10115542Y1205600D01*
X10115543Y1205600D01*
X10343478Y1243636D01*
X10562044Y1318669D01*
X10765278Y1428654D01*
X10920173Y1549214D01*
X10947632Y1570586D01*
X10947633Y1570588D01*
X10947638Y1570591D01*
X11104149Y1740606D01*
X11230541Y1934064D01*
X11301678Y2096239D01*
X11323366Y2145682D01*
X11323366Y2145684D01*
X11323368Y2145687D01*
X11334799Y2190832D01*
X11351771Y2213592D01*
X11379870Y2217687D01*
X11402176Y2201460D01*
X11468291Y2096239D01*
X11468294Y2096236D01*
X11468296Y2096233D01*
X11596233Y1968296D01*
X11596235Y1968295D01*
X11596238Y1968292D01*
X11596237Y1968292D01*
X11749429Y1872036D01*
X11749431Y1872035D01*
X11920208Y1812278D01*
X12100000Y1792020D01*
X12279792Y1812278D01*
X12450569Y1872035D01*
X12549298Y1934071D01*
X12603761Y1968292D01*
X12603761Y1968293D01*
X12603767Y1968296D01*
X12731704Y2096233D01*
X12757018Y2136519D01*
X12791143Y2190829D01*
X12827965Y2249431D01*
X12887722Y2420208D01*
X12907980Y2600000D01*
X13292020Y2600000D01*
X13303330Y2499619D01*
X13312278Y2420210D01*
X13312280Y2420200D01*
X13372035Y2249430D01*
X13468291Y2096239D01*
X13468294Y2096236D01*
X13468296Y2096233D01*
X13596233Y1968296D01*
X13596235Y1968295D01*
X13596238Y1968292D01*
X13596237Y1968292D01*
X13749429Y1872036D01*
X13749431Y1872035D01*
X13920208Y1812278D01*
X14100000Y1792020D01*
X14279792Y1812278D01*
X14450569Y1872035D01*
X14549298Y1934071D01*
X14603761Y1968292D01*
X14603761Y1968293D01*
X14603767Y1968296D01*
X14731704Y2096233D01*
X14757018Y2136519D01*
X14791143Y2190829D01*
X14827965Y2249431D01*
X14887722Y2420208D01*
X14907980Y2600000D01*
X15292020Y2600000D01*
X15303330Y2499619D01*
X15312278Y2420210D01*
X15312280Y2420200D01*
X15372035Y2249430D01*
X15468291Y2096239D01*
X15468294Y2096236D01*
X15468296Y2096233D01*
X15596233Y1968296D01*
X15596235Y1968295D01*
X15596238Y1968292D01*
X15596237Y1968292D01*
X15749429Y1872036D01*
X15749431Y1872035D01*
X15920208Y1812278D01*
X16100000Y1792020D01*
X16279792Y1812278D01*
X16450569Y1872035D01*
X16549298Y1934071D01*
X16603761Y1968292D01*
X16603761Y1968293D01*
X16603767Y1968296D01*
X16731704Y2096233D01*
X16797822Y2201461D01*
X16820979Y2217891D01*
X16848973Y2213135D01*
X16865200Y2190829D01*
X16876633Y2145681D01*
X16969455Y1934071D01*
X16969458Y1934066D01*
X16969459Y1934064D01*
X17095851Y1740606D01*
X17095853Y1740604D01*
X17252358Y1570595D01*
X17252367Y1570586D01*
X17434720Y1428655D01*
X17434722Y1428654D01*
X17637956Y1318669D01*
X17856522Y1243636D01*
X18084457Y1205600D01*
X18084458Y1205600D01*
X18315542Y1205600D01*
X18315543Y1205600D01*
X18543478Y1243636D01*
X18762044Y1318669D01*
X18965278Y1428654D01*
X19120173Y1549214D01*
X19147632Y1570586D01*
X19147633Y1570588D01*
X19147638Y1570591D01*
X19304149Y1740606D01*
X19430541Y1934064D01*
X19523368Y2145687D01*
X19580096Y2369703D01*
X19582181Y2394859D01*
X19599179Y2599998D01*
X19599179Y2600003D01*
X19580097Y2830290D01*
X19580096Y2830293D01*
X19580096Y2830297D01*
X19528996Y3032088D01*
X40241779Y3032088D01*
X40271469Y2762255D01*
X40340131Y2499619D01*
X40446302Y2249777D01*
X40587714Y2018063D01*
X40587717Y2018060D01*
X40587719Y2018056D01*
X40761368Y1809396D01*
X40963546Y1628243D01*
X41082999Y1549214D01*
X41189947Y1478458D01*
X41189956Y1478453D01*
X41435729Y1363239D01*
X41435735Y1363237D01*
X41435743Y1363233D01*
X41581512Y1319378D01*
X41695689Y1285027D01*
X41695691Y1285027D01*
X41695697Y1285025D01*
X41964268Y1245500D01*
X41964271Y1245500D01*
X42167767Y1245500D01*
X42167781Y1245500D01*
X42370740Y1260355D01*
X42635709Y1319379D01*
X42889261Y1416354D01*
X43125991Y1549214D01*
X43340853Y1715125D01*
X43529269Y1910553D01*
X43687223Y2131332D01*
X43811348Y2372756D01*
X43898998Y2629680D01*
X43948306Y2896629D01*
X43958220Y3167911D01*
X43947434Y3265935D01*
X43928530Y3437746D01*
X43928530Y3437747D01*
X43859868Y3700384D01*
X43753697Y3950224D01*
X43726737Y3994400D01*
X43612285Y4181938D01*
X43612283Y4181940D01*
X43612281Y4181944D01*
X43438632Y4390604D01*
X43236454Y4571757D01*
X43113345Y4653205D01*
X43010052Y4721543D01*
X43010043Y4721548D01*
X42764270Y4836762D01*
X42764254Y4836768D01*
X42504310Y4914974D01*
X42487128Y4917503D01*
X42235732Y4954500D01*
X42032219Y4954500D01*
X42032217Y4954500D01*
X41829259Y4939645D01*
X41564296Y4880623D01*
X41310741Y4783648D01*
X41074008Y4650786D01*
X40859148Y4484877D01*
X40670733Y4289451D01*
X40512778Y4068671D01*
X40512774Y4068664D01*
X40388652Y3827246D01*
X40301002Y3570324D01*
X40301001Y3570318D01*
X40251693Y3303369D01*
X40251693Y3303362D01*
X40241779Y3032088D01*
X19528996Y3032088D01*
X19523368Y3054313D01*
X19523366Y3054318D01*
X19430544Y3265930D01*
X19430541Y3265935D01*
X19430541Y3265936D01*
X19304149Y3459394D01*
X19147638Y3629409D01*
X19147632Y3629415D01*
X18965279Y3771346D01*
X18762043Y3881332D01*
X18614089Y3932124D01*
X18543479Y3956364D01*
X18315547Y3994400D01*
X18315543Y3994400D01*
X18084457Y3994400D01*
X18084452Y3994400D01*
X17856520Y3956364D01*
X17856519Y3956363D01*
X17637956Y3881332D01*
X17434720Y3771346D01*
X17252367Y3629415D01*
X17252358Y3629406D01*
X17095853Y3459397D01*
X16969458Y3265935D01*
X16969455Y3265930D01*
X16876633Y3054319D01*
X16865200Y3009172D01*
X16848225Y2986409D01*
X16820127Y2982315D01*
X16797821Y2998542D01*
X16734081Y3099983D01*
X16731704Y3103767D01*
X16603767Y3231704D01*
X16603764Y3231706D01*
X16603761Y3231709D01*
X16603762Y3231709D01*
X16450570Y3327965D01*
X16279800Y3387720D01*
X16279794Y3387722D01*
X16279792Y3387722D01*
X16100000Y3407980D01*
X15920208Y3387722D01*
X15920206Y3387722D01*
X15920199Y3387720D01*
X15749429Y3327965D01*
X15596238Y3231709D01*
X15468291Y3103762D01*
X15372035Y2950571D01*
X15312280Y2779801D01*
X15312278Y2779791D01*
X15295365Y2629683D01*
X15292020Y2600000D01*
X14907980Y2600000D01*
X14887722Y2779792D01*
X14827965Y2950569D01*
X14808018Y2982315D01*
X14731708Y3103762D01*
X14731705Y3103765D01*
X14731704Y3103767D01*
X14603767Y3231704D01*
X14603764Y3231706D01*
X14603761Y3231709D01*
X14603762Y3231709D01*
X14450570Y3327965D01*
X14279800Y3387720D01*
X14279794Y3387722D01*
X14279792Y3387722D01*
X14100000Y3407980D01*
X14099999Y3407980D01*
X14010104Y3397852D01*
X13920208Y3387722D01*
X13920206Y3387722D01*
X13920199Y3387720D01*
X13749429Y3327965D01*
X13596238Y3231709D01*
X13468291Y3103762D01*
X13372035Y2950571D01*
X13312280Y2779801D01*
X13312278Y2779791D01*
X13295365Y2629683D01*
X13292020Y2600000D01*
X12907980Y2600000D01*
X12887722Y2779792D01*
X12840444Y2914906D01*
X12842036Y2943255D01*
X12849225Y2953389D01*
X14705071Y4809234D01*
X14731306Y4820100D01*
X19778893Y4820100D01*
X19790681Y4818178D01*
X19791264Y4817982D01*
X19836646Y4820081D01*
X19837493Y4820100D01*
X19856536Y4820100D01*
X19856539Y4820100D01*
X19861684Y4821063D01*
X19864207Y4821355D01*
X19895797Y4822815D01*
X19910021Y4829097D01*
X19918180Y4831623D01*
X19933467Y4834480D01*
X19960351Y4851128D01*
X19962596Y4852312D01*
X19991526Y4865084D01*
X20002522Y4876082D01*
X20009221Y4881387D01*
X20022437Y4889569D01*
X20041483Y4914792D01*
X20043167Y4916726D01*
X20055391Y4928950D01*
X27047600Y4928950D01*
X27063072Y4806470D01*
X27123755Y4653205D01*
X27220642Y4519851D01*
X27347645Y4414785D01*
X27347646Y4414784D01*
X27496795Y4344600D01*
X27598800Y4325143D01*
X27598800Y4686887D01*
X27671840Y4666105D01*
X27783521Y4676454D01*
X27801199Y4685257D01*
X27801199Y4322679D01*
X27823221Y4324064D01*
X27823225Y4324065D01*
X27979980Y4374998D01*
X27979983Y4374999D01*
X28119158Y4463322D01*
X28231996Y4583482D01*
X28311407Y4727929D01*
X28311408Y4727932D01*
X28352398Y4887575D01*
X28352400Y4887586D01*
X28352400Y4991804D01*
X28576592Y4991804D01*
X28605576Y4852320D01*
X28607604Y4842564D01*
X28635377Y4788965D01*
X28671860Y4718554D01*
X28677731Y4707225D01*
X28781772Y4595824D01*
X28906705Y4519851D01*
X28912012Y4516624D01*
X29003316Y4491042D01*
X29058786Y4475500D01*
X29058789Y4475500D01*
X29172930Y4475500D01*
X29286004Y4491042D01*
X29286006Y4491043D01*
X29286009Y4491043D01*
X29425818Y4551770D01*
X29544058Y4647966D01*
X29631961Y4772496D01*
X29683006Y4916123D01*
X29693408Y5068196D01*
X29679576Y5134760D01*
X30427204Y5134760D01*
X30445738Y5005854D01*
X30499839Y4887392D01*
X30499843Y4887385D01*
X30585123Y4788965D01*
X30585125Y4788964D01*
X30585126Y4788963D01*
X30694686Y4718554D01*
X30728621Y4708590D01*
X30819640Y4681863D01*
X30819643Y4681863D01*
X30819645Y4681862D01*
X30926456Y4681862D01*
X30952690Y4670996D01*
X31685041Y3938644D01*
X31692016Y3928950D01*
X31692289Y3928402D01*
X31725853Y3897805D01*
X31726472Y3897214D01*
X31739943Y3883742D01*
X31741493Y3882680D01*
X31744253Y3880789D01*
X31746268Y3879193D01*
X31769623Y3857902D01*
X31784118Y3852287D01*
X31791679Y3848302D01*
X31804508Y3839514D01*
X31822798Y3835213D01*
X31835270Y3832279D01*
X31837727Y3831519D01*
X31867202Y3820100D01*
X31882750Y3820100D01*
X31891243Y3819115D01*
X31898817Y3817335D01*
X31906373Y3815557D01*
X31937666Y3819923D01*
X31940229Y3820100D01*
X38598259Y3820100D01*
X38610047Y3818178D01*
X38610630Y3817982D01*
X38656012Y3820081D01*
X38656859Y3820100D01*
X38675902Y3820100D01*
X38675905Y3820100D01*
X38681050Y3821063D01*
X38683573Y3821355D01*
X38715163Y3822815D01*
X38729387Y3829097D01*
X38737546Y3831623D01*
X38752833Y3834480D01*
X38779717Y3851128D01*
X38781962Y3852312D01*
X38810892Y3865084D01*
X38821888Y3876082D01*
X38828587Y3881387D01*
X38841803Y3889569D01*
X38860849Y3914792D01*
X38862533Y3916726D01*
X42082043Y7136234D01*
X42108277Y7147100D01*
X42215085Y7147100D01*
X42215087Y7147100D01*
X42215089Y7147101D01*
X42215091Y7147101D01*
X42249022Y7157065D01*
X42340046Y7183792D01*
X42449606Y7254201D01*
X42534891Y7352626D01*
X42588993Y7471091D01*
X42607527Y7600000D01*
X42605894Y7611355D01*
X42588993Y7728909D01*
X42534892Y7847372D01*
X42534888Y7847378D01*
X42449608Y7945798D01*
X42369721Y7997137D01*
X42340046Y8016208D01*
X42340045Y8016209D01*
X42340044Y8016209D01*
X42340041Y8016210D01*
X42215091Y8052900D01*
X42215087Y8052900D01*
X42084853Y8052900D01*
X42084848Y8052900D01*
X41959898Y8016210D01*
X41959895Y8016209D01*
X41850331Y7945798D01*
X41765051Y7847378D01*
X41765048Y7847372D01*
X41710946Y7728909D01*
X41692412Y7600003D01*
X41692413Y7599997D01*
X41697527Y7564422D01*
X41690505Y7536909D01*
X41687039Y7532909D01*
X38544898Y4390766D01*
X38518664Y4379900D01*
X36765407Y4379900D01*
X36739173Y4390766D01*
X36728307Y4417000D01*
X36739173Y4443234D01*
X36745528Y4448325D01*
X36769158Y4463322D01*
X36881996Y4583482D01*
X36961407Y4727929D01*
X36961408Y4727932D01*
X37002398Y4887575D01*
X37002400Y4887586D01*
X37002400Y5418800D01*
X36650000Y5418800D01*
X36650000Y5621200D01*
X37002399Y5621200D01*
X37002400Y5621202D01*
X37002400Y6111051D01*
X36986927Y6233531D01*
X36926244Y6386796D01*
X36829357Y6520150D01*
X36702354Y6625216D01*
X36702353Y6625217D01*
X36553207Y6695399D01*
X36451200Y6714859D01*
X36451200Y6353114D01*
X36378160Y6373895D01*
X36266479Y6363546D01*
X36248800Y6354743D01*
X36248800Y6717323D01*
X36226779Y6715937D01*
X36070018Y6665003D01*
X36070016Y6665002D01*
X35930841Y6576679D01*
X35818003Y6456519D01*
X35738592Y6312072D01*
X35738591Y6312069D01*
X35697601Y6152426D01*
X35697600Y6152415D01*
X35697600Y5621201D01*
X35697601Y5621200D01*
X36050000Y5621200D01*
X36050000Y5418800D01*
X35697601Y5418800D01*
X35697600Y5418799D01*
X35697600Y4928950D01*
X35713072Y4806470D01*
X35773755Y4653205D01*
X35870642Y4519851D01*
X35960413Y4445586D01*
X35973700Y4420491D01*
X35965351Y4393352D01*
X35940256Y4380065D01*
X35936765Y4379900D01*
X32050830Y4379900D01*
X32024596Y4390766D01*
X31423558Y4991804D01*
X34356592Y4991804D01*
X34385576Y4852320D01*
X34387604Y4842564D01*
X34415377Y4788965D01*
X34451860Y4718554D01*
X34457731Y4707225D01*
X34561772Y4595824D01*
X34686705Y4519851D01*
X34692012Y4516624D01*
X34783316Y4491042D01*
X34838786Y4475500D01*
X34838789Y4475500D01*
X34952930Y4475500D01*
X35066004Y4491042D01*
X35066006Y4491043D01*
X35066009Y4491043D01*
X35205818Y4551770D01*
X35324058Y4647966D01*
X35411961Y4772496D01*
X35463006Y4916123D01*
X35473408Y5068196D01*
X35442396Y5217436D01*
X35372269Y5352775D01*
X35268228Y5464176D01*
X35268228Y5464177D01*
X35137987Y5543377D01*
X34991220Y5584499D01*
X34991215Y5584500D01*
X34991214Y5584500D01*
X34877073Y5584500D01*
X34877070Y5584500D01*
X34763995Y5568959D01*
X34763991Y5568958D01*
X34624181Y5508230D01*
X34505943Y5412036D01*
X34481343Y5377185D01*
X34418039Y5287504D01*
X34366994Y5143877D01*
X34357553Y5005854D01*
X34356592Y4991804D01*
X31423558Y4991804D01*
X31347691Y5067671D01*
X31336825Y5093905D01*
X31337203Y5099186D01*
X31342319Y5134761D01*
X31342319Y5134765D01*
X31323785Y5263671D01*
X31291248Y5334916D01*
X31269683Y5382136D01*
X31269680Y5382140D01*
X31184400Y5480560D01*
X31074836Y5550971D01*
X31074833Y5550972D01*
X30949883Y5587662D01*
X30949879Y5587662D01*
X30819645Y5587662D01*
X30819640Y5587662D01*
X30694690Y5550972D01*
X30694687Y5550971D01*
X30585123Y5480560D01*
X30499843Y5382140D01*
X30499839Y5382133D01*
X30445738Y5263671D01*
X30427204Y5134765D01*
X30427204Y5134760D01*
X29679576Y5134760D01*
X29662396Y5217436D01*
X29592269Y5352775D01*
X29488228Y5464176D01*
X29488228Y5464177D01*
X29357987Y5543377D01*
X29211220Y5584499D01*
X29211215Y5584500D01*
X29211214Y5584500D01*
X29097073Y5584500D01*
X29097070Y5584500D01*
X28983995Y5568959D01*
X28983991Y5568958D01*
X28844181Y5508230D01*
X28725943Y5412036D01*
X28701343Y5377185D01*
X28638039Y5287504D01*
X28586994Y5143877D01*
X28577553Y5005854D01*
X28576592Y4991804D01*
X28352400Y4991804D01*
X28352400Y5418800D01*
X28000000Y5418800D01*
X28000000Y5621200D01*
X28352399Y5621200D01*
X28352400Y5621202D01*
X28352400Y6111051D01*
X28336927Y6233531D01*
X28276244Y6386796D01*
X28179357Y6520150D01*
X28052354Y6625216D01*
X28052353Y6625217D01*
X27903207Y6695399D01*
X27801200Y6714859D01*
X27801200Y6353114D01*
X27728160Y6373895D01*
X27616479Y6363546D01*
X27598800Y6354743D01*
X27598800Y6717323D01*
X27576779Y6715937D01*
X27420018Y6665003D01*
X27420016Y6665002D01*
X27280841Y6576679D01*
X27168003Y6456519D01*
X27088592Y6312072D01*
X27088591Y6312069D01*
X27047601Y6152426D01*
X27047600Y6152415D01*
X27047600Y5621201D01*
X27047601Y5621200D01*
X27400000Y5621200D01*
X27400000Y5418800D01*
X27047601Y5418800D01*
X27047600Y5418799D01*
X27047600Y4928950D01*
X20055391Y4928950D01*
X22523541Y7397100D01*
X25071153Y9944713D01*
X25097386Y9955578D01*
X25123620Y9944712D01*
X25134486Y9918478D01*
X25134108Y9913199D01*
X25127221Y9865292D01*
X25127221Y9865286D01*
X25145754Y9736380D01*
X25199855Y9617918D01*
X25199859Y9617911D01*
X25285138Y9519493D01*
X25285139Y9519493D01*
X25285142Y9519489D01*
X25353008Y9475875D01*
X25369201Y9452551D01*
X25370049Y9444665D01*
X25370049Y8228740D01*
X25359183Y8202506D01*
X25353012Y8197534D01*
X25350313Y8195798D01*
X25350312Y8195798D01*
X25350312Y8195797D01*
X25350310Y8195796D01*
X25265030Y8097377D01*
X25265026Y8097370D01*
X25210925Y7978908D01*
X25192392Y7850002D01*
X25192392Y7849997D01*
X25210925Y7721091D01*
X25265026Y7602629D01*
X25265030Y7602622D01*
X25350310Y7504202D01*
X25350312Y7504201D01*
X25350313Y7504200D01*
X25459873Y7433791D01*
X25493808Y7423827D01*
X25584827Y7397100D01*
X25584830Y7397100D01*
X25584832Y7397099D01*
X25584834Y7397099D01*
X25715064Y7397099D01*
X25715066Y7397099D01*
X25715068Y7397100D01*
X25715070Y7397100D01*
X25749001Y7407064D01*
X25840025Y7433791D01*
X25949585Y7504200D01*
X26034870Y7602625D01*
X26088972Y7721090D01*
X26093128Y7750000D01*
X29014317Y7750000D01*
X29032570Y7611355D01*
X29065063Y7532909D01*
X29086087Y7482154D01*
X29151353Y7397099D01*
X29171215Y7371215D01*
X29171219Y7371212D01*
X29171220Y7371211D01*
X29282153Y7286088D01*
X29282155Y7286088D01*
X29282158Y7286085D01*
X29411355Y7232570D01*
X29550000Y7214317D01*
X29688645Y7232570D01*
X29817842Y7286085D01*
X29928785Y7371215D01*
X30013915Y7482158D01*
X30067430Y7611355D01*
X30085683Y7750000D01*
X30067430Y7888645D01*
X30013915Y8017841D01*
X30013912Y8017844D01*
X30013912Y8017846D01*
X29928789Y8128780D01*
X29928788Y8128781D01*
X29928785Y8128785D01*
X29928780Y8128789D01*
X29928779Y8128790D01*
X29815913Y8215395D01*
X29816643Y8216347D01*
X29801760Y8235761D01*
X29800500Y8245347D01*
X29800500Y12539295D01*
X29811366Y12565529D01*
X32082072Y14836234D01*
X32108306Y14847100D01*
X32215115Y14847100D01*
X32215117Y14847100D01*
X32215119Y14847101D01*
X32215121Y14847101D01*
X32249052Y14857065D01*
X32340076Y14883792D01*
X32449636Y14954201D01*
X32453347Y14958483D01*
X32534918Y15052623D01*
X32534921Y15052626D01*
X32589023Y15171091D01*
X32607557Y15300000D01*
X32589023Y15428909D01*
X32558873Y15494928D01*
X32534922Y15547373D01*
X32534918Y15547378D01*
X32449638Y15645798D01*
X32389804Y15684250D01*
X32340076Y15716208D01*
X32340075Y15716209D01*
X32340074Y15716209D01*
X32340071Y15716210D01*
X32215121Y15752900D01*
X32215117Y15752900D01*
X32084883Y15752900D01*
X32084878Y15752900D01*
X31959928Y15716210D01*
X31959925Y15716209D01*
X31850361Y15645798D01*
X31765081Y15547378D01*
X31765078Y15547373D01*
X31710976Y15428909D01*
X31692443Y15300003D01*
X31692443Y15299997D01*
X31697557Y15264422D01*
X31690535Y15236909D01*
X31687069Y15232909D01*
X29359243Y12905083D01*
X29349553Y12898110D01*
X29349005Y12897838D01*
X29349003Y12897836D01*
X29318392Y12864261D01*
X29317802Y12863643D01*
X29304344Y12850183D01*
X29304339Y12850177D01*
X29301387Y12845870D01*
X29299794Y12843858D01*
X29278501Y12820501D01*
X29278500Y12820499D01*
X29272884Y12806003D01*
X29268899Y12798443D01*
X29260116Y12785620D01*
X29260113Y12785614D01*
X29252877Y12754850D01*
X29252116Y12752395D01*
X29240701Y12722927D01*
X29240700Y12722921D01*
X29240700Y12707378D01*
X29239715Y12698885D01*
X29236156Y12683754D01*
X29236156Y12683749D01*
X29240522Y12652455D01*
X29240700Y12649889D01*
X29240700Y8200399D01*
X29229834Y8174165D01*
X29226185Y8170966D01*
X29171220Y8128790D01*
X29171210Y8128780D01*
X29086087Y8017846D01*
X29040657Y7908168D01*
X29032570Y7888645D01*
X29014317Y7750000D01*
X26093128Y7750000D01*
X26095149Y7764060D01*
X26107506Y7849997D01*
X26107506Y7850002D01*
X26088972Y7978908D01*
X26071736Y8016649D01*
X26034870Y8097373D01*
X26034867Y8097377D01*
X25949587Y8195797D01*
X25946890Y8197530D01*
X25930697Y8220855D01*
X25929850Y8228731D01*
X25929850Y9558090D01*
X25938911Y9582384D01*
X25969699Y9617914D01*
X26023801Y9736379D01*
X26031570Y9790414D01*
X26042335Y9865286D01*
X26042335Y9865291D01*
X26023801Y9994197D01*
X25969700Y10112659D01*
X25969699Y10112662D01*
X25969696Y10112666D01*
X25884416Y10211086D01*
X25774852Y10281497D01*
X25774849Y10281498D01*
X25649899Y10318188D01*
X25649895Y10318188D01*
X25534197Y10318188D01*
X25507963Y10329054D01*
X25497097Y10355288D01*
X25507963Y10381522D01*
X25651441Y10525000D01*
X25811356Y10684916D01*
X25821057Y10691893D01*
X25821599Y10692162D01*
X25852237Y10725773D01*
X25852765Y10726325D01*
X25866258Y10739816D01*
X25869214Y10744133D01*
X25870795Y10746129D01*
X25892098Y10769495D01*
X25897714Y10783997D01*
X25901699Y10791555D01*
X25910486Y10804380D01*
X25917722Y10835149D01*
X25918480Y10837599D01*
X25929900Y10867074D01*
X25929900Y10882619D01*
X25930885Y10891113D01*
X25933223Y10901055D01*
X25934444Y10906245D01*
X25930077Y10937548D01*
X25929900Y10940108D01*
X25929900Y15171260D01*
X25940766Y15197494D01*
X25946941Y15202470D01*
X25949636Y15204201D01*
X25974512Y15232909D01*
X26032643Y15299997D01*
X26034921Y15302626D01*
X26089023Y15421091D01*
X26099639Y15494928D01*
X26107557Y15549998D01*
X26107557Y15550003D01*
X26089023Y15678909D01*
X26065055Y15731391D01*
X26034921Y15797374D01*
X26034918Y15797378D01*
X25949638Y15895798D01*
X25840074Y15966209D01*
X25840071Y15966210D01*
X25715121Y16002900D01*
X25715117Y16002900D01*
X25584883Y16002900D01*
X25584878Y16002900D01*
X25459928Y15966210D01*
X25459925Y15966209D01*
X25350361Y15895798D01*
X25265081Y15797378D01*
X25265077Y15797371D01*
X25210976Y15678909D01*
X25192443Y15550003D01*
X25192443Y15549998D01*
X25210976Y15421092D01*
X25265077Y15302630D01*
X25265081Y15302623D01*
X25350360Y15204204D01*
X25350363Y15204202D01*
X25350364Y15204201D01*
X25353054Y15202472D01*
X25369251Y15179150D01*
X25370100Y15171260D01*
X25370100Y12903260D01*
X25359234Y12877026D01*
X25333000Y12866160D01*
X25312943Y12872049D01*
X25272814Y12897838D01*
X25210676Y12937771D01*
X25210675Y12937772D01*
X25210674Y12937772D01*
X25210671Y12937773D01*
X25085721Y12974463D01*
X25085717Y12974463D01*
X24955483Y12974463D01*
X24955478Y12974463D01*
X24830528Y12937773D01*
X24830525Y12937772D01*
X24720961Y12867361D01*
X24635681Y12768941D01*
X24635677Y12768934D01*
X24581576Y12650472D01*
X24563043Y12521566D01*
X24565841Y12502102D01*
X24558817Y12474589D01*
X24555352Y12470589D01*
X20513334Y8428570D01*
X20487100Y8417704D01*
X20460866Y8428570D01*
X20450000Y8454804D01*
X20450000Y14099999D01*
X20450000Y14100000D01*
X17550000Y14100000D01*
X17550000Y8350000D01*
X20345198Y8350000D01*
X20371432Y8339134D01*
X20382298Y8312900D01*
X20371432Y8286666D01*
X18975532Y6890766D01*
X18949298Y6879900D01*
X4731306Y6879900D01*
X4705072Y6890766D01*
X3390766Y8205072D01*
X3379900Y8231306D01*
X3379900Y9085000D01*
X3390766Y9111234D01*
X3417000Y9122100D01*
X3481708Y9122100D01*
X3576055Y9137043D01*
X3689771Y9194984D01*
X3780016Y9285229D01*
X3837957Y9398945D01*
X3852900Y9493292D01*
X3852900Y9829946D01*
X4297600Y9829946D01*
X4312768Y9695321D01*
X4312770Y9695311D01*
X4372486Y9524652D01*
X4468687Y9371549D01*
X4596548Y9243688D01*
X4749651Y9147487D01*
X4920310Y9087771D01*
X4920320Y9087769D01*
X4998800Y9078927D01*
X4998800Y9788260D01*
X5037424Y9775000D01*
X5131073Y9775000D01*
X5201200Y9786702D01*
X5201200Y9078927D01*
X5279679Y9087769D01*
X5279689Y9087771D01*
X5450348Y9147487D01*
X5603451Y9243688D01*
X5731312Y9371549D01*
X5827513Y9524652D01*
X5887229Y9695311D01*
X5887231Y9695321D01*
X5902400Y9829946D01*
X5902400Y10048799D01*
X5902399Y10048800D01*
X5465099Y10048800D01*
X5468551Y10056670D01*
X5478886Y10181395D01*
X5461209Y10251200D01*
X5902399Y10251200D01*
X5902400Y10251202D01*
X5902400Y10470055D01*
X5887231Y10604680D01*
X5887229Y10604690D01*
X5827513Y10775349D01*
X5731312Y10928452D01*
X5603451Y11056313D01*
X5450348Y11152514D01*
X5279689Y11212230D01*
X5279679Y11212232D01*
X5201200Y11221076D01*
X5201200Y10511741D01*
X5162576Y10525000D01*
X5068927Y10525000D01*
X4998800Y10513299D01*
X4998800Y11221076D01*
X4920320Y11212232D01*
X4920310Y11212230D01*
X4749651Y11152514D01*
X4596548Y11056313D01*
X4468687Y10928452D01*
X4372486Y10775349D01*
X4312770Y10604690D01*
X4312768Y10604680D01*
X4297600Y10470055D01*
X4297600Y10251201D01*
X4297601Y10251200D01*
X4734901Y10251200D01*
X4731449Y10243330D01*
X4721114Y10118605D01*
X4738791Y10048800D01*
X4297601Y10048800D01*
X4297600Y10048799D01*
X4297600Y9829946D01*
X3852900Y9829946D01*
X3852900Y10806708D01*
X3837957Y10901055D01*
X3837956Y10901057D01*
X3837955Y10901060D01*
X3780018Y11014768D01*
X3780017Y11014769D01*
X3780016Y11014771D01*
X3689771Y11105016D01*
X3689768Y11105018D01*
X3689767Y11105019D01*
X3576059Y11162956D01*
X3576053Y11162958D01*
X3481708Y11177900D01*
X2718292Y11177900D01*
X2623946Y11162958D01*
X2623940Y11162956D01*
X2510232Y11105019D01*
X2419981Y11014768D01*
X2362044Y10901060D01*
X2362042Y10901054D01*
X2347100Y10806708D01*
X2347100Y9493293D01*
X400500Y9493293D01*
X400500Y13600027D01*
X7892414Y13600027D01*
X7910947Y13471121D01*
X7965048Y13352659D01*
X7965052Y13352652D01*
X8050332Y13254232D01*
X8050334Y13254231D01*
X8050335Y13254230D01*
X8159895Y13183821D01*
X8193830Y13173857D01*
X8284849Y13147130D01*
X8284852Y13147130D01*
X8284854Y13147129D01*
X8284856Y13147129D01*
X8415086Y13147129D01*
X8415088Y13147129D01*
X8415090Y13147130D01*
X8415092Y13147130D01*
X8449023Y13157094D01*
X8540047Y13183821D01*
X8649607Y13254230D01*
X8695612Y13307325D01*
X8721004Y13320034D01*
X8723651Y13320129D01*
X9447114Y13320129D01*
X9458902Y13318207D01*
X9459485Y13318011D01*
X9504867Y13320110D01*
X9505714Y13320129D01*
X9524757Y13320129D01*
X9524760Y13320129D01*
X9529905Y13321092D01*
X9532428Y13321384D01*
X9564018Y13322844D01*
X9578242Y13329126D01*
X9586401Y13331652D01*
X9601688Y13334509D01*
X9628572Y13351157D01*
X9630817Y13352341D01*
X9659747Y13365113D01*
X9670743Y13376111D01*
X9677442Y13381416D01*
X9690658Y13389598D01*
X9709704Y13414821D01*
X9711388Y13416755D01*
X17048836Y20754203D01*
X19044634Y22750001D01*
X22902402Y22750001D01*
X22921142Y22571696D01*
X22976545Y22401182D01*
X22976546Y22401180D01*
X23050548Y22273007D01*
X23066189Y22245917D01*
X23186155Y22112680D01*
X23331201Y22007298D01*
X23494988Y21934376D01*
X23494994Y21934375D01*
X23494993Y21934375D01*
X23670354Y21897100D01*
X23670357Y21897100D01*
X23849646Y21897100D01*
X23995415Y21928085D01*
X24025012Y21934376D01*
X24188799Y22007298D01*
X24333845Y22112680D01*
X24453811Y22245917D01*
X24543455Y22401183D01*
X24598857Y22571695D01*
X24617598Y22750000D01*
X25392629Y22750000D01*
X25412456Y22561349D01*
X25471076Y22380936D01*
X25565920Y22216663D01*
X25593221Y22186342D01*
X25954292Y22547414D01*
X25972359Y22511955D01*
X26061955Y22422359D01*
X26097410Y22404294D01*
X25736846Y22043729D01*
X25736846Y22043728D01*
X25846311Y21964196D01*
X25846313Y21964195D01*
X26019608Y21887039D01*
X26019611Y21887038D01*
X26205151Y21847600D01*
X26394849Y21847600D01*
X26580388Y21887038D01*
X26580391Y21887039D01*
X26753686Y21964195D01*
X26753688Y21964196D01*
X26863152Y22043728D01*
X26502587Y22404293D01*
X26538045Y22422359D01*
X26627641Y22511955D01*
X26645707Y22547413D01*
X27006778Y22186342D01*
X27034081Y22216665D01*
X27034082Y22216666D01*
X27128923Y22380936D01*
X27187543Y22561349D01*
X27207370Y22750000D01*
X27187543Y22938652D01*
X27128923Y23119065D01*
X27034079Y23283338D01*
X27006777Y23313660D01*
X26645706Y22952590D01*
X26627641Y22988045D01*
X26538045Y23077641D01*
X26502586Y23095708D01*
X26863152Y23456273D01*
X26863152Y23456274D01*
X26753688Y23535805D01*
X26753686Y23535806D01*
X26580391Y23612962D01*
X26580388Y23612963D01*
X26394849Y23652400D01*
X26205151Y23652400D01*
X26019611Y23612963D01*
X26019608Y23612962D01*
X25846316Y23535807D01*
X25736846Y23456273D01*
X26097411Y23095708D01*
X26061955Y23077641D01*
X25972359Y22988045D01*
X25954292Y22952589D01*
X25593220Y23313661D01*
X25565920Y23283339D01*
X25471076Y23119065D01*
X25412456Y22938652D01*
X25392629Y22750000D01*
X24617598Y22750000D01*
X24598857Y22928305D01*
X24543455Y23098817D01*
X24453811Y23254083D01*
X24333845Y23387320D01*
X24188799Y23492702D01*
X24162970Y23504202D01*
X24025010Y23565625D01*
X24025006Y23565626D01*
X23849646Y23602900D01*
X23849643Y23602900D01*
X23670357Y23602900D01*
X23670354Y23602900D01*
X23494993Y23565626D01*
X23494989Y23565625D01*
X23331202Y23492703D01*
X23186154Y23387320D01*
X23066188Y23254082D01*
X22976546Y23098821D01*
X22976545Y23098819D01*
X22921142Y22928305D01*
X22902402Y22750001D01*
X19044634Y22750001D01*
X22354632Y26060000D01*
X29192629Y26060000D01*
X29212456Y25871349D01*
X29271076Y25690936D01*
X29365920Y25526663D01*
X29393221Y25496342D01*
X29754292Y25857414D01*
X29772359Y25821955D01*
X29861955Y25732359D01*
X29897410Y25714294D01*
X29536846Y25353729D01*
X29536846Y25353728D01*
X29646311Y25274196D01*
X29646313Y25274195D01*
X29819608Y25197039D01*
X29819611Y25197038D01*
X30005151Y25157600D01*
X30194849Y25157600D01*
X30380388Y25197038D01*
X30380391Y25197039D01*
X30553686Y25274195D01*
X30553688Y25274196D01*
X30663152Y25353728D01*
X30302587Y25714293D01*
X30338045Y25732359D01*
X30427641Y25821955D01*
X30445707Y25857413D01*
X30806778Y25496342D01*
X30834081Y25526665D01*
X30834082Y25526666D01*
X30928923Y25690936D01*
X30987543Y25871349D01*
X31007370Y26060000D01*
X30987543Y26248652D01*
X30928923Y26429065D01*
X30834079Y26593338D01*
X30806777Y26623660D01*
X30445706Y26262590D01*
X30427641Y26298045D01*
X30338045Y26387641D01*
X30302586Y26405708D01*
X30663152Y26766273D01*
X30663152Y26766274D01*
X30553688Y26845805D01*
X30553686Y26845806D01*
X30380391Y26922962D01*
X30380388Y26922963D01*
X30194849Y26962400D01*
X30005151Y26962400D01*
X29819611Y26922963D01*
X29819608Y26922962D01*
X29646316Y26845807D01*
X29536846Y26766273D01*
X29897411Y26405708D01*
X29861955Y26387641D01*
X29772359Y26298045D01*
X29754292Y26262589D01*
X29393220Y26623661D01*
X29365920Y26593339D01*
X29271076Y26429065D01*
X29212456Y26248652D01*
X29192629Y26060000D01*
X22354632Y26060000D01*
X24446103Y28151471D01*
X24461880Y28160831D01*
X24540082Y28183792D01*
X24649642Y28254201D01*
X24734927Y28352626D01*
X24789029Y28471091D01*
X24807563Y28600000D01*
X29242402Y28600000D01*
X29261142Y28421696D01*
X29316545Y28251182D01*
X29316546Y28251180D01*
X29390548Y28123007D01*
X29406189Y28095917D01*
X29526155Y27962680D01*
X29671201Y27857298D01*
X29834988Y27784376D01*
X29834994Y27784375D01*
X29834993Y27784375D01*
X30010354Y27747100D01*
X30010357Y27747100D01*
X30189646Y27747100D01*
X30312121Y27773134D01*
X30365012Y27784376D01*
X30528799Y27857298D01*
X30673845Y27962680D01*
X30793811Y28095917D01*
X30883455Y28251183D01*
X30938857Y28421695D01*
X30957598Y28600000D01*
X30938857Y28778305D01*
X30883455Y28948817D01*
X30883453Y28948821D01*
X30882663Y28950597D01*
X30883215Y28950843D01*
X30879778Y28976906D01*
X30889380Y28993544D01*
X34455059Y32559222D01*
X34481294Y32570088D01*
X39976320Y32570088D01*
X40002554Y32559222D01*
X40004350Y32557292D01*
X40050364Y32504189D01*
X40159924Y32433780D01*
X40193859Y32423816D01*
X40284878Y32397089D01*
X40284881Y32397089D01*
X40284883Y32397088D01*
X40284885Y32397088D01*
X40415115Y32397088D01*
X40415117Y32397088D01*
X40415119Y32397089D01*
X40415121Y32397089D01*
X40449052Y32407053D01*
X40540076Y32433780D01*
X40649636Y32504189D01*
X40734921Y32602614D01*
X40789023Y32721079D01*
X40807557Y32849988D01*
X40789023Y32978897D01*
X40734921Y33097362D01*
X40734649Y33097676D01*
X40649638Y33195786D01*
X40594855Y33230992D01*
X40540076Y33266196D01*
X40540075Y33266197D01*
X40540074Y33266197D01*
X40540071Y33266198D01*
X40415121Y33302888D01*
X40415117Y33302888D01*
X40284883Y33302888D01*
X40284878Y33302888D01*
X40159928Y33266198D01*
X40159925Y33266197D01*
X40050363Y33195787D01*
X40020900Y33161784D01*
X40004358Y33142693D01*
X39978967Y33129983D01*
X39976320Y33129888D01*
X34401699Y33129888D01*
X34389910Y33131811D01*
X34389651Y33131898D01*
X34389326Y33132007D01*
X34352423Y33130300D01*
X34343945Y33129908D01*
X34343099Y33129888D01*
X34324051Y33129888D01*
X34318915Y33128929D01*
X34316365Y33128634D01*
X34284795Y33127174D01*
X34270568Y33120893D01*
X34262405Y33118365D01*
X34247123Y33115508D01*
X34247120Y33115507D01*
X34220260Y33098875D01*
X34217986Y33097676D01*
X34189069Y33084907D01*
X34189066Y33084905D01*
X34178066Y33073906D01*
X34171366Y33068600D01*
X34158158Y33060422D01*
X34158155Y33060419D01*
X34139112Y33035205D01*
X34137425Y33033266D01*
X30490134Y29385974D01*
X30463900Y29375108D01*
X30448811Y29378315D01*
X30365012Y29415624D01*
X30365010Y29415625D01*
X30365006Y29415626D01*
X30189646Y29452900D01*
X30189643Y29452900D01*
X30010357Y29452900D01*
X30010354Y29452900D01*
X29834993Y29415626D01*
X29834989Y29415625D01*
X29671202Y29342703D01*
X29526154Y29237320D01*
X29406188Y29104082D01*
X29316546Y28948821D01*
X29316545Y28948819D01*
X29261142Y28778305D01*
X29242402Y28600000D01*
X24807563Y28600000D01*
X24802447Y28635579D01*
X24809468Y28663091D01*
X24812928Y28667086D01*
X24890756Y28744914D01*
X24900457Y28751891D01*
X24900999Y28752160D01*
X24931637Y28785771D01*
X24932165Y28786323D01*
X24945658Y28799814D01*
X24948614Y28804131D01*
X24950195Y28806127D01*
X24971498Y28829493D01*
X24977114Y28843995D01*
X24981099Y28851553D01*
X24989886Y28864378D01*
X24997122Y28895147D01*
X24997880Y28897597D01*
X25009300Y28927072D01*
X25009300Y28942618D01*
X25010285Y28951111D01*
X25013844Y28966243D01*
X25009477Y28997546D01*
X25009300Y29000106D01*
X25009300Y30221092D01*
X25009300Y31538292D01*
X25011224Y31550078D01*
X25011418Y31550656D01*
X25009319Y31596039D01*
X25009300Y31596886D01*
X25009300Y31615931D01*
X25008339Y31621071D01*
X25008044Y31623619D01*
X25006585Y31655185D01*
X25006585Y31655189D01*
X25000305Y31669412D01*
X24997776Y31677575D01*
X24994920Y31692859D01*
X24994918Y31692863D01*
X24985457Y31708144D01*
X24979900Y31727674D01*
X24979900Y33145152D01*
X24990766Y33171386D01*
X25017000Y33182252D01*
X25039583Y33174586D01*
X25089758Y33136085D01*
X25218955Y33082570D01*
X25357600Y33064317D01*
X25496245Y33082570D01*
X25625442Y33136085D01*
X25736385Y33221215D01*
X25821515Y33332158D01*
X25875030Y33461355D01*
X25893283Y33600000D01*
X25875030Y33738645D01*
X25821515Y33867841D01*
X25821512Y33867844D01*
X25821512Y33867846D01*
X25736389Y33978780D01*
X25736388Y33978781D01*
X25736385Y33978785D01*
X25736380Y33978789D01*
X25736379Y33978790D01*
X25652015Y34043526D01*
X25637817Y34068117D01*
X25637500Y34072959D01*
X25637500Y35726294D01*
X25648366Y35752528D01*
X25745836Y35849998D01*
X35642443Y35849998D01*
X35660976Y35721092D01*
X35715077Y35602630D01*
X35715081Y35602623D01*
X35800361Y35504203D01*
X35800363Y35504202D01*
X35800364Y35504201D01*
X35909924Y35433792D01*
X35943859Y35423828D01*
X36034878Y35397101D01*
X36034881Y35397101D01*
X36034883Y35397100D01*
X36034885Y35397100D01*
X36165115Y35397100D01*
X36165117Y35397100D01*
X36165119Y35397101D01*
X36165121Y35397101D01*
X36199052Y35407065D01*
X36290076Y35433792D01*
X36399636Y35504201D01*
X36445641Y35557296D01*
X36471033Y35570005D01*
X36473680Y35570100D01*
X37557406Y35570100D01*
X37583640Y35559234D01*
X37594128Y35538280D01*
X37610976Y35421092D01*
X37665077Y35302630D01*
X37665081Y35302623D01*
X37750361Y35204203D01*
X37750363Y35204202D01*
X37750364Y35204201D01*
X37859924Y35133792D01*
X37893859Y35123828D01*
X37984878Y35097101D01*
X37984881Y35097101D01*
X37984883Y35097100D01*
X37984885Y35097100D01*
X38115115Y35097100D01*
X38115117Y35097100D01*
X38115119Y35097101D01*
X38115121Y35097101D01*
X38149052Y35107065D01*
X38240076Y35133792D01*
X38349636Y35204201D01*
X38434921Y35302626D01*
X38489023Y35421091D01*
X38507557Y35550000D01*
X38489023Y35678909D01*
X38434921Y35797374D01*
X38434918Y35797378D01*
X38349638Y35895798D01*
X38240074Y35966209D01*
X38240071Y35966210D01*
X38115121Y36002900D01*
X38115117Y36002900D01*
X38009517Y36002900D01*
X37983283Y36013766D01*
X37979511Y36019008D01*
X37979308Y36018854D01*
X37977235Y36021598D01*
X37964870Y36032870D01*
X37943648Y36052217D01*
X37943049Y36052789D01*
X37929580Y36066258D01*
X37925271Y36069210D01*
X37923260Y36070803D01*
X37903223Y36089070D01*
X37899900Y36092099D01*
X37885402Y36097715D01*
X37877837Y36101703D01*
X37865016Y36110486D01*
X37834248Y36117723D01*
X37831792Y36118484D01*
X37802323Y36129900D01*
X37802322Y36129900D01*
X37786777Y36129900D01*
X37778283Y36130885D01*
X37763152Y36134444D01*
X37763149Y36134444D01*
X37750415Y36132668D01*
X37731848Y36130078D01*
X37729288Y36129900D01*
X36473680Y36129900D01*
X36447446Y36140766D01*
X36445649Y36142697D01*
X36399636Y36195799D01*
X36290076Y36266208D01*
X36290075Y36266209D01*
X36290074Y36266209D01*
X36290071Y36266210D01*
X36165121Y36302900D01*
X36165117Y36302900D01*
X36034883Y36302900D01*
X36034878Y36302900D01*
X35909928Y36266210D01*
X35909925Y36266209D01*
X35800361Y36195798D01*
X35715081Y36097378D01*
X35715077Y36097371D01*
X35660976Y35978909D01*
X35642443Y35850003D01*
X35642443Y35849998D01*
X25745836Y35849998D01*
X27705073Y37809234D01*
X27731307Y37820100D01*
X37058289Y37820100D01*
X37070077Y37818178D01*
X37070660Y37817982D01*
X37116042Y37820081D01*
X37116889Y37820100D01*
X37135932Y37820100D01*
X37135935Y37820100D01*
X37141080Y37821063D01*
X37143603Y37821355D01*
X37175193Y37822815D01*
X37189417Y37829097D01*
X37197576Y37831623D01*
X37212863Y37834480D01*
X37239747Y37851128D01*
X37241992Y37852312D01*
X37270922Y37865084D01*
X37281918Y37876082D01*
X37288617Y37881387D01*
X37301833Y37889569D01*
X37320879Y37914792D01*
X37322563Y37916726D01*
X38662616Y39256779D01*
X40010694Y40604858D01*
X40036927Y40615723D01*
X40047695Y40614126D01*
X40071695Y40606845D01*
X40138388Y40586613D01*
X40138402Y40586610D01*
X40334996Y40567247D01*
X40335000Y40567247D01*
X40335004Y40567247D01*
X40509997Y40584483D01*
X40531603Y40586611D01*
X40720650Y40643958D01*
X40844108Y40709947D01*
X41872100Y40709947D01*
X41872101Y40709939D01*
X41880972Y40665341D01*
X41910881Y40620580D01*
X41914766Y40614766D01*
X41914769Y40614764D01*
X41965339Y40580973D01*
X41965341Y40580973D01*
X41965342Y40580972D01*
X42009943Y40572100D01*
X43740056Y40572101D01*
X43784658Y40580972D01*
X43835234Y40614766D01*
X43869028Y40665342D01*
X43877900Y40709943D01*
X43877899Y42440056D01*
X43869028Y42484658D01*
X43835234Y42535234D01*
X43835230Y42535237D01*
X43784660Y42569028D01*
X43740058Y42577900D01*
X42009946Y42577900D01*
X42009938Y42577899D01*
X41965340Y42569028D01*
X41914768Y42535236D01*
X41914763Y42535231D01*
X41880972Y42484661D01*
X41872100Y42440063D01*
X41872100Y40709947D01*
X40844108Y40709947D01*
X40894878Y40737084D01*
X41047589Y40862411D01*
X41172916Y41015122D01*
X41266042Y41189350D01*
X41323389Y41378397D01*
X41342753Y41575000D01*
X41323389Y41771603D01*
X41266042Y41960650D01*
X41172916Y42134878D01*
X41047589Y42287589D01*
X40894878Y42412916D01*
X40720650Y42506042D01*
X40720643Y42506045D01*
X40720641Y42506045D01*
X40531602Y42563390D01*
X40335004Y42582753D01*
X40334996Y42582753D01*
X40138397Y42563390D01*
X40138396Y42563390D01*
X39949358Y42506045D01*
X39949352Y42506043D01*
X39949350Y42506042D01*
X39949347Y42506041D01*
X39949346Y42506040D01*
X39775125Y42412918D01*
X39775120Y42412915D01*
X39622412Y42287590D01*
X39622410Y42287588D01*
X39497085Y42134880D01*
X39497082Y42134875D01*
X39403960Y41960654D01*
X39403955Y41960642D01*
X39346610Y41771604D01*
X39346610Y41771603D01*
X39327247Y41575005D01*
X39327247Y41574996D01*
X39346610Y41378398D01*
X39346610Y41378397D01*
X39403955Y41189359D01*
X39403958Y41189350D01*
X39497084Y41015122D01*
X39497085Y41015121D01*
X39497089Y41015115D01*
X39535340Y40968507D01*
X39543583Y40941335D01*
X39532896Y40918737D01*
X37004928Y38390766D01*
X36978694Y38379900D01*
X27651709Y38379900D01*
X27639922Y38381822D01*
X27639340Y38382017D01*
X27639338Y38382018D01*
X27601004Y38380245D01*
X27593970Y38379920D01*
X27593122Y38379900D01*
X27574062Y38379900D01*
X27568929Y38378941D01*
X27566376Y38378645D01*
X27534807Y38377186D01*
X27520579Y38370905D01*
X27512417Y38368377D01*
X27497136Y38365520D01*
X27470265Y38348883D01*
X27467991Y38347684D01*
X27439079Y38334917D01*
X27428081Y38323920D01*
X27421381Y38318614D01*
X27408170Y38310434D01*
X27408167Y38310431D01*
X27389121Y38285213D01*
X27387434Y38283274D01*
X25196243Y36092083D01*
X25186553Y36085110D01*
X25186005Y36084838D01*
X25186003Y36084836D01*
X25155392Y36051261D01*
X25154802Y36050643D01*
X25141344Y36037183D01*
X25141339Y36037177D01*
X25138387Y36032870D01*
X25136794Y36030858D01*
X25115501Y36007501D01*
X25115500Y36007499D01*
X25109884Y35993003D01*
X25105899Y35985443D01*
X25097116Y35972620D01*
X25097113Y35972614D01*
X25089877Y35941850D01*
X25089116Y35939395D01*
X25077701Y35909927D01*
X25077700Y35909921D01*
X25077700Y35894378D01*
X25076715Y35885885D01*
X25073156Y35870754D01*
X25073156Y35870749D01*
X25077522Y35839455D01*
X25077700Y35836889D01*
X25077700Y34072958D01*
X25066834Y34046724D01*
X25063185Y34043525D01*
X25039585Y34025416D01*
X25012158Y34018066D01*
X24987567Y34032264D01*
X24979900Y34054849D01*
X24979900Y44114996D01*
X39327247Y44114996D01*
X39346610Y43918398D01*
X39346610Y43918397D01*
X39403955Y43729359D01*
X39403958Y43729350D01*
X39497084Y43555122D01*
X39622411Y43402411D01*
X39775122Y43277084D01*
X39949350Y43183958D01*
X40138396Y43126612D01*
X40138397Y43126611D01*
X40334996Y43107247D01*
X40335000Y43107247D01*
X40335004Y43107247D01*
X40492282Y43122739D01*
X40531603Y43126611D01*
X40720650Y43183958D01*
X40894878Y43277084D01*
X41047589Y43402411D01*
X41172916Y43555122D01*
X41266042Y43729350D01*
X41323389Y43918397D01*
X41342753Y44114996D01*
X41867247Y44114996D01*
X41886610Y43918398D01*
X41886610Y43918397D01*
X41943955Y43729359D01*
X41943958Y43729350D01*
X42037084Y43555122D01*
X42162411Y43402411D01*
X42315122Y43277084D01*
X42489350Y43183958D01*
X42678396Y43126611D01*
X42678397Y43126611D01*
X42874996Y43107247D01*
X42875000Y43107247D01*
X42875004Y43107247D01*
X43032282Y43122739D01*
X43071603Y43126611D01*
X43260650Y43183958D01*
X43434878Y43277084D01*
X43587589Y43402411D01*
X43712916Y43555122D01*
X43806042Y43729350D01*
X43863389Y43918397D01*
X43882753Y44115000D01*
X43863389Y44311603D01*
X43806042Y44500650D01*
X43712916Y44674878D01*
X43587589Y44827589D01*
X43434878Y44952916D01*
X43260650Y45046042D01*
X43260643Y45046045D01*
X43260641Y45046045D01*
X43071602Y45103390D01*
X42875004Y45122753D01*
X42874996Y45122753D01*
X42678397Y45103390D01*
X42678396Y45103390D01*
X42489358Y45046045D01*
X42489352Y45046043D01*
X42489350Y45046042D01*
X42489347Y45046041D01*
X42489346Y45046040D01*
X42315125Y44952918D01*
X42315120Y44952915D01*
X42162412Y44827590D01*
X42162410Y44827588D01*
X42037085Y44674880D01*
X42037082Y44674875D01*
X41943960Y44500654D01*
X41943955Y44500642D01*
X41886610Y44311604D01*
X41886610Y44311603D01*
X41867247Y44115005D01*
X41867247Y44114996D01*
X41342753Y44114996D01*
X41342753Y44115000D01*
X41323389Y44311603D01*
X41266042Y44500650D01*
X41172916Y44674878D01*
X41047589Y44827589D01*
X40894878Y44952916D01*
X40720650Y45046042D01*
X40720643Y45046045D01*
X40720641Y45046045D01*
X40531602Y45103390D01*
X40335004Y45122753D01*
X40334996Y45122753D01*
X40138397Y45103390D01*
X40138396Y45103390D01*
X39949358Y45046045D01*
X39949352Y45046043D01*
X39949350Y45046042D01*
X39949347Y45046041D01*
X39949346Y45046040D01*
X39775125Y44952918D01*
X39775120Y44952915D01*
X39622412Y44827590D01*
X39622410Y44827588D01*
X39497085Y44674880D01*
X39497082Y44674875D01*
X39403960Y44500654D01*
X39403955Y44500642D01*
X39346610Y44311604D01*
X39346610Y44311603D01*
X39327247Y44115005D01*
X39327247Y44114996D01*
X24979900Y44114996D01*
X24979900Y45448292D01*
X24981823Y45460082D01*
X24982017Y45460660D01*
X24979919Y45506031D01*
X24979900Y45506879D01*
X24979900Y45525936D01*
X24978940Y45531067D01*
X24978643Y45533625D01*
X24977185Y45565193D01*
X24970904Y45579418D01*
X24968376Y45587579D01*
X24965520Y45602863D01*
X24948873Y45629748D01*
X24947688Y45631994D01*
X24934916Y45660922D01*
X24923921Y45671917D01*
X24918612Y45678620D01*
X24910430Y45691835D01*
X24885215Y45710876D01*
X24883275Y45712564D01*
X24562929Y46032909D01*
X24552063Y46059143D01*
X24552441Y46064424D01*
X24552883Y46067493D01*
X24556351Y46091619D01*
X24557557Y46099999D01*
X24557557Y46100003D01*
X24539023Y46228909D01*
X24534316Y46239216D01*
X24484921Y46347374D01*
X24455171Y46381708D01*
X24399638Y46445798D01*
X24290074Y46516209D01*
X24290071Y46516210D01*
X24165121Y46552900D01*
X24165117Y46552900D01*
X24034883Y46552900D01*
X24034878Y46552900D01*
X23909928Y46516210D01*
X23909925Y46516209D01*
X23800361Y46445798D01*
X23715081Y46347378D01*
X23715077Y46347371D01*
X23660976Y46228909D01*
X23642443Y46100003D01*
X23642443Y46099998D01*
X23660976Y45971092D01*
X23715077Y45852630D01*
X23715081Y45852623D01*
X23800361Y45754203D01*
X23800363Y45754202D01*
X23800364Y45754201D01*
X23909924Y45683792D01*
X23927538Y45678620D01*
X24034878Y45647101D01*
X24034881Y45647101D01*
X24034883Y45647100D01*
X24141694Y45647100D01*
X24167928Y45636235D01*
X24409234Y45394928D01*
X24420100Y45368695D01*
X24420100Y36833726D01*
X24409234Y36807492D01*
X24383000Y36796626D01*
X24356766Y36807492D01*
X24346278Y36828446D01*
X24339023Y36878903D01*
X24304931Y36953553D01*
X24284921Y36997368D01*
X24284918Y36997372D01*
X24199638Y37095792D01*
X24110866Y37152841D01*
X24090076Y37166202D01*
X24090075Y37166203D01*
X24090074Y37166203D01*
X24090071Y37166204D01*
X23965121Y37202894D01*
X23965117Y37202894D01*
X23834883Y37202894D01*
X23834878Y37202894D01*
X23709928Y37166204D01*
X23709925Y37166203D01*
X23600361Y37095792D01*
X23515081Y36997372D01*
X23515077Y36997365D01*
X23460976Y36878903D01*
X23442443Y36749997D01*
X23442443Y36749992D01*
X23460976Y36621086D01*
X23515077Y36502624D01*
X23515081Y36502617D01*
X23600360Y36404198D01*
X23600363Y36404196D01*
X23600364Y36404195D01*
X23603054Y36402466D01*
X23619251Y36379144D01*
X23620100Y36371254D01*
X23620099Y32229407D01*
X23609233Y32203173D01*
X23167928Y31761866D01*
X23141694Y31751000D01*
X23034878Y31751000D01*
X22909928Y31714310D01*
X22909925Y31714309D01*
X22800361Y31643898D01*
X22715081Y31545478D01*
X22715077Y31545471D01*
X22660976Y31427009D01*
X22642443Y31298103D01*
X22642443Y31298098D01*
X22660976Y31169192D01*
X22715077Y31050730D01*
X22715081Y31050723D01*
X22800361Y30952303D01*
X22800363Y30952302D01*
X22800364Y30952301D01*
X22909924Y30881892D01*
X22943859Y30871928D01*
X23034878Y30845201D01*
X23034881Y30845201D01*
X23034883Y30845200D01*
X23034885Y30845200D01*
X23165115Y30845200D01*
X23165117Y30845200D01*
X23165119Y30845201D01*
X23165121Y30845201D01*
X23199052Y30855165D01*
X23290076Y30881892D01*
X23399636Y30952301D01*
X23484921Y31050726D01*
X23539023Y31169191D01*
X23557557Y31298100D01*
X23552441Y31333679D01*
X23559462Y31361191D01*
X23562922Y31365186D01*
X24061356Y31863620D01*
X24071057Y31870597D01*
X24071599Y31870866D01*
X24102237Y31904477D01*
X24102765Y31905029D01*
X24116258Y31918520D01*
X24119214Y31922837D01*
X24120795Y31924833D01*
X24142098Y31948199D01*
X24147714Y31962701D01*
X24151699Y31970259D01*
X24160486Y31983084D01*
X24167722Y32013853D01*
X24168480Y32016303D01*
X24179900Y32045778D01*
X24179900Y32061323D01*
X24180885Y32069817D01*
X24184444Y32084949D01*
X24180077Y32116252D01*
X24179900Y32118812D01*
X24179900Y36371254D01*
X24190766Y36397488D01*
X24196941Y36402464D01*
X24199636Y36404195D01*
X24284921Y36502620D01*
X24339023Y36621085D01*
X24346277Y36671543D01*
X24360767Y36695963D01*
X24388280Y36702985D01*
X24412700Y36688496D01*
X24420100Y36666263D01*
X24420100Y31671106D01*
X24418178Y31659323D01*
X24417982Y31658736D01*
X24417982Y31658735D01*
X24417981Y31658734D01*
X24420080Y31613365D01*
X24420100Y31612508D01*
X24420100Y31593460D01*
X24421059Y31588324D01*
X24421354Y31585775D01*
X24422814Y31554206D01*
X24422814Y31554204D01*
X24422815Y31554203D01*
X24429095Y31539978D01*
X24431623Y31531815D01*
X24434479Y31516535D01*
X24443943Y31501251D01*
X24449500Y31481720D01*
X24449500Y29110700D01*
X24438634Y29084467D01*
X24417935Y29063767D01*
X24391702Y29052900D01*
X24284884Y29052900D01*
X24159934Y29016210D01*
X24159931Y29016209D01*
X24050367Y28945798D01*
X23965087Y28847378D01*
X23965083Y28847371D01*
X23910982Y28728909D01*
X23892449Y28600003D01*
X23892449Y28599998D01*
X23910982Y28471093D01*
X23920053Y28451229D01*
X23921066Y28422852D01*
X23912539Y28409584D01*
X9393753Y13890795D01*
X9367519Y13879929D01*
X8723651Y13879929D01*
X8697417Y13890795D01*
X8695620Y13892726D01*
X8649607Y13945828D01*
X8540047Y14016237D01*
X8540046Y14016238D01*
X8540045Y14016238D01*
X8540042Y14016239D01*
X8415092Y14052929D01*
X8415088Y14052929D01*
X8284854Y14052929D01*
X8284849Y14052929D01*
X8159899Y14016239D01*
X8159896Y14016238D01*
X8050332Y13945827D01*
X7965052Y13847407D01*
X7965048Y13847400D01*
X7910947Y13728938D01*
X7892414Y13600032D01*
X7892414Y13600027D01*
X400500Y13600027D01*
X400500Y14599998D01*
X8892443Y14599998D01*
X8910976Y14471092D01*
X8965077Y14352630D01*
X8965081Y14352623D01*
X9050361Y14254203D01*
X9050363Y14254202D01*
X9050364Y14254201D01*
X9159924Y14183792D01*
X9193859Y14173828D01*
X9284878Y14147101D01*
X9284881Y14147101D01*
X9284883Y14147100D01*
X9284885Y14147100D01*
X9415115Y14147100D01*
X9415117Y14147100D01*
X9415119Y14147101D01*
X9415121Y14147101D01*
X9449052Y14157065D01*
X9540076Y14183792D01*
X9649636Y14254201D01*
X9734921Y14352626D01*
X9789023Y14471091D01*
X9807557Y14600000D01*
X9789023Y14728909D01*
X9734921Y14847374D01*
X9649636Y14945799D01*
X9649635Y14945800D01*
X9646941Y14947531D01*
X9630748Y14970856D01*
X9629900Y14978741D01*
X9629900Y15468694D01*
X9640766Y15494928D01*
X10148738Y16002900D01*
X17511358Y23365521D01*
X17521059Y23372498D01*
X17521599Y23372766D01*
X17552195Y23406330D01*
X17552788Y23406950D01*
X17566258Y23420419D01*
X17569218Y23424742D01*
X17570796Y23426734D01*
X17592098Y23450099D01*
X17597711Y23464592D01*
X17601697Y23472156D01*
X17610486Y23484984D01*
X17617721Y23515747D01*
X17618482Y23518205D01*
X17625300Y23535805D01*
X17629900Y23547678D01*
X17629900Y23563228D01*
X17630885Y23571722D01*
X17634443Y23586849D01*
X17630077Y23618145D01*
X17629900Y23620705D01*
X17629900Y29971260D01*
X17640766Y29997494D01*
X17646941Y30002470D01*
X17649636Y30004201D01*
X17667659Y30025000D01*
X17734918Y30102623D01*
X17734921Y30102626D01*
X17789023Y30221091D01*
X17801073Y30304900D01*
X17807557Y30349998D01*
X17807557Y30350003D01*
X17789023Y30478909D01*
X17734922Y30597371D01*
X17734921Y30597374D01*
X17734918Y30597378D01*
X17649638Y30695798D01*
X17540074Y30766209D01*
X17540071Y30766210D01*
X17415121Y30802900D01*
X17415117Y30802900D01*
X17284883Y30802900D01*
X17284878Y30802900D01*
X17159928Y30766210D01*
X17159925Y30766209D01*
X17050361Y30695798D01*
X16965081Y30597378D01*
X16965077Y30597371D01*
X16910976Y30478909D01*
X16892443Y30350003D01*
X16892443Y30349998D01*
X16910976Y30221092D01*
X16965077Y30102630D01*
X16965081Y30102623D01*
X17050360Y30004204D01*
X17050363Y30004202D01*
X17050364Y30004201D01*
X17053054Y30002472D01*
X17069251Y29979150D01*
X17070100Y29971260D01*
X17070100Y23731307D01*
X17059234Y23705073D01*
X9188643Y15834483D01*
X9178953Y15827510D01*
X9178405Y15827238D01*
X9178403Y15827236D01*
X9147792Y15793661D01*
X9147202Y15793043D01*
X9133744Y15779583D01*
X9133739Y15779577D01*
X9130787Y15775270D01*
X9129194Y15773258D01*
X9107901Y15749901D01*
X9107900Y15749899D01*
X9102284Y15735403D01*
X9098299Y15727843D01*
X9089516Y15715020D01*
X9089513Y15715014D01*
X9082277Y15684250D01*
X9081516Y15681795D01*
X9070101Y15652327D01*
X9070100Y15652321D01*
X9070100Y15636778D01*
X9069115Y15628285D01*
X9065556Y15613154D01*
X9065556Y15613149D01*
X9069922Y15581855D01*
X9070100Y15579289D01*
X9070100Y14978741D01*
X9059234Y14952507D01*
X9053059Y14947531D01*
X9050364Y14945800D01*
X9050361Y14945797D01*
X8965081Y14847378D01*
X8965077Y14847371D01*
X8910976Y14728909D01*
X8892443Y14600003D01*
X8892443Y14599998D01*
X400500Y14599998D01*
X400500Y23577686D01*
X411366Y23603920D01*
X437600Y23614786D01*
X463834Y23603920D01*
X465622Y23601999D01*
X550364Y23504201D01*
X659924Y23433792D01*
X680923Y23427626D01*
X784878Y23397101D01*
X784881Y23397101D01*
X784883Y23397100D01*
X784885Y23397100D01*
X915115Y23397100D01*
X915117Y23397100D01*
X915119Y23397101D01*
X915121Y23397101D01*
X949052Y23407065D01*
X1040076Y23433792D01*
X1149636Y23504201D01*
X1161771Y23518205D01*
X1202860Y23565625D01*
X1234921Y23602626D01*
X1289023Y23721091D01*
X1307557Y23850000D01*
X1297151Y23922374D01*
X1289023Y23978909D01*
X1269892Y24020799D01*
X1234921Y24097374D01*
X1234361Y24098020D01*
X1149638Y24195797D01*
X1149635Y24195800D01*
X1146941Y24197531D01*
X1130748Y24220856D01*
X1129900Y24228741D01*
X1129900Y33349998D01*
X2142443Y33349998D01*
X2160976Y33221092D01*
X2215077Y33102630D01*
X2215081Y33102623D01*
X2300360Y33004204D01*
X2300363Y33004202D01*
X2300364Y33004201D01*
X2303054Y33002472D01*
X2319251Y32979150D01*
X2320100Y32971260D01*
X2320100Y22151710D01*
X2318178Y22139927D01*
X2317982Y22139340D01*
X2317982Y22139339D01*
X2317981Y22139338D01*
X2320080Y22093969D01*
X2320100Y22093112D01*
X2320100Y22074064D01*
X2321059Y22068928D01*
X2321354Y22066379D01*
X2322814Y22034810D01*
X2322814Y22034808D01*
X2322815Y22034807D01*
X2329095Y22020582D01*
X2331623Y22012419D01*
X2334480Y21997137D01*
X2334480Y21997136D01*
X2351117Y21970268D01*
X2352316Y21967993D01*
X2365084Y21939078D01*
X2376077Y21928085D01*
X2381385Y21921383D01*
X2389567Y21908169D01*
X2389568Y21908168D01*
X2389569Y21908167D01*
X2414790Y21889121D01*
X2416723Y21887438D01*
X3365516Y20938646D01*
X3372491Y20928952D01*
X3372765Y20928402D01*
X3372766Y20928401D01*
X3406351Y20897784D01*
X3406948Y20897213D01*
X3413683Y20890479D01*
X3420420Y20883742D01*
X3422919Y20882030D01*
X3424723Y20880794D01*
X3426739Y20879197D01*
X3446890Y20860827D01*
X3450099Y20857902D01*
X3463727Y20852623D01*
X3464592Y20852288D01*
X3472158Y20848300D01*
X3484983Y20839514D01*
X3515746Y20832279D01*
X3518204Y20831518D01*
X3534055Y20825378D01*
X3547678Y20820100D01*
X3563224Y20820100D01*
X3571717Y20819116D01*
X3586850Y20815556D01*
X3618152Y20819923D01*
X3620713Y20820100D01*
X9726320Y20820100D01*
X9752554Y20809234D01*
X9754350Y20807304D01*
X9800364Y20754201D01*
X9909924Y20683792D01*
X9943859Y20673828D01*
X10034878Y20647101D01*
X10034881Y20647101D01*
X10034883Y20647100D01*
X10034885Y20647100D01*
X10165115Y20647100D01*
X10165117Y20647100D01*
X10165119Y20647101D01*
X10165121Y20647101D01*
X10199052Y20657065D01*
X10290076Y20683792D01*
X10399636Y20754201D01*
X10484921Y20852626D01*
X10539023Y20971091D01*
X10557557Y21100000D01*
X10539023Y21228909D01*
X10484921Y21347374D01*
X10484918Y21347378D01*
X10399638Y21445798D01*
X10290074Y21516209D01*
X10290071Y21516210D01*
X10165121Y21552900D01*
X10165117Y21552900D01*
X10034883Y21552900D01*
X10034878Y21552900D01*
X9909928Y21516210D01*
X9909925Y21516209D01*
X9800363Y21445799D01*
X9770900Y21411796D01*
X9754358Y21392705D01*
X9728967Y21379995D01*
X9726320Y21379900D01*
X3731307Y21379900D01*
X3705073Y21390766D01*
X2890766Y22205073D01*
X2879900Y22231307D01*
X2879900Y32971260D01*
X2890766Y32997494D01*
X2896944Y33002471D01*
X2899636Y33004201D01*
X2984921Y33102626D01*
X3039023Y33221091D01*
X3045508Y33266198D01*
X3057557Y33349998D01*
X3057557Y33350003D01*
X3039023Y33478909D01*
X2984922Y33597371D01*
X2984921Y33597374D01*
X2982646Y33600000D01*
X2899638Y33695798D01*
X2790074Y33766209D01*
X2790071Y33766210D01*
X2665121Y33802900D01*
X2665117Y33802900D01*
X2534883Y33802900D01*
X2534878Y33802900D01*
X2409928Y33766210D01*
X2409925Y33766209D01*
X2300361Y33695798D01*
X2215081Y33597378D01*
X2215077Y33597371D01*
X2160976Y33478909D01*
X2142443Y33350003D01*
X2142443Y33349998D01*
X1129900Y33349998D01*
X1129900Y37318293D01*
X2597100Y37318293D01*
X2612042Y37223947D01*
X2612044Y37223941D01*
X2669981Y37110233D01*
X2669982Y37110232D01*
X2669984Y37110229D01*
X2760229Y37019984D01*
X2760231Y37019983D01*
X2760232Y37019982D01*
X2873940Y36962045D01*
X2873943Y36962044D01*
X2873945Y36962043D01*
X2968292Y36947100D01*
X3283000Y36947100D01*
X3309234Y36936234D01*
X3320100Y36910000D01*
X3320100Y27651710D01*
X3318178Y27639927D01*
X3317982Y27639340D01*
X3317982Y27639339D01*
X3317981Y27639338D01*
X3320080Y27593969D01*
X3320100Y27593112D01*
X3320100Y27574064D01*
X3321059Y27568928D01*
X3321354Y27566379D01*
X3322814Y27534810D01*
X3322814Y27534808D01*
X3322815Y27534807D01*
X3329095Y27520582D01*
X3331623Y27512419D01*
X3334480Y27497137D01*
X3334480Y27497136D01*
X3351117Y27470268D01*
X3352316Y27467993D01*
X3365084Y27439078D01*
X3376077Y27428085D01*
X3381385Y27421383D01*
X3389567Y27408169D01*
X3389568Y27408168D01*
X3389569Y27408167D01*
X3414790Y27389121D01*
X3416723Y27387438D01*
X7365517Y23438644D01*
X7372492Y23428950D01*
X7372764Y23428404D01*
X7372765Y23428403D01*
X7372766Y23428401D01*
X7396630Y23406646D01*
X7406316Y23397816D01*
X7406936Y23397225D01*
X7420418Y23383743D01*
X7420422Y23383740D01*
X7424728Y23380790D01*
X7426739Y23379198D01*
X7433793Y23372767D01*
X7450097Y23357903D01*
X7450098Y23357903D01*
X7450099Y23357902D01*
X7464594Y23352287D01*
X7472155Y23348302D01*
X7484984Y23339514D01*
X7503274Y23335213D01*
X7515746Y23332279D01*
X7518203Y23331519D01*
X7547678Y23320100D01*
X7563226Y23320100D01*
X7571719Y23319115D01*
X7579293Y23317335D01*
X7586849Y23315557D01*
X7618146Y23319923D01*
X7620707Y23320100D01*
X9803632Y23320100D01*
X9823689Y23314211D01*
X9854229Y23294585D01*
X9909924Y23258792D01*
X9943859Y23248828D01*
X10034878Y23222101D01*
X10034881Y23222101D01*
X10034883Y23222100D01*
X10034885Y23222100D01*
X10165115Y23222100D01*
X10165117Y23222100D01*
X10165119Y23222101D01*
X10165121Y23222101D01*
X10199052Y23232065D01*
X10290076Y23258792D01*
X10399636Y23329201D01*
X10402048Y23331984D01*
X10458471Y23397101D01*
X10484921Y23427626D01*
X10539023Y23546091D01*
X10547337Y23603920D01*
X10557557Y23674998D01*
X10557557Y23675003D01*
X10539023Y23803909D01*
X10539022Y23803909D01*
X10484921Y23922374D01*
X10435934Y23978909D01*
X10399638Y24020798D01*
X10344856Y24056004D01*
X10290076Y24091208D01*
X10290075Y24091209D01*
X10290074Y24091209D01*
X10290071Y24091210D01*
X10165121Y24127900D01*
X10165117Y24127900D01*
X10034883Y24127900D01*
X10034878Y24127900D01*
X9909928Y24091210D01*
X9909925Y24091209D01*
X9800361Y24020798D01*
X9715081Y23922378D01*
X9715077Y23922371D01*
X9705586Y23901588D01*
X9684804Y23882239D01*
X9671839Y23879900D01*
X7731306Y23879900D01*
X7705072Y23890766D01*
X3890766Y27705072D01*
X3879900Y27731306D01*
X3879900Y36910000D01*
X3890766Y36936234D01*
X3917000Y36947100D01*
X4231708Y36947100D01*
X4326055Y36962043D01*
X4439771Y37019984D01*
X4530016Y37110229D01*
X4587957Y37223945D01*
X4602900Y37318292D01*
X4602900Y37899136D01*
X5097100Y37899136D01*
X5105016Y37821296D01*
X5112563Y37747077D01*
X5173624Y37552461D01*
X5272611Y37374121D01*
X5311150Y37329229D01*
X5320100Y37305064D01*
X5320100Y31401710D01*
X5318178Y31389927D01*
X5317982Y31389340D01*
X5317982Y31389339D01*
X5317981Y31389338D01*
X5320080Y31343969D01*
X5320100Y31343112D01*
X5320100Y31324064D01*
X5321059Y31318928D01*
X5321354Y31316379D01*
X5322814Y31284810D01*
X5322814Y31284808D01*
X5322815Y31284807D01*
X5329095Y31270582D01*
X5331623Y31262419D01*
X5334480Y31247137D01*
X5334480Y31247136D01*
X5351117Y31220268D01*
X5352316Y31217993D01*
X5365084Y31189078D01*
X5376077Y31178085D01*
X5381385Y31171383D01*
X5389567Y31158169D01*
X5389568Y31158168D01*
X5389569Y31158167D01*
X5414790Y31139121D01*
X5416723Y31137438D01*
X6690516Y29863646D01*
X6697491Y29853952D01*
X6697765Y29853402D01*
X6697766Y29853401D01*
X6731351Y29822784D01*
X6731948Y29822213D01*
X6738683Y29815479D01*
X6745420Y29808742D01*
X6747919Y29807030D01*
X6749723Y29805794D01*
X6751739Y29804197D01*
X6771890Y29785827D01*
X6775099Y29782902D01*
X6788727Y29777623D01*
X6789592Y29777288D01*
X6797158Y29773300D01*
X6809983Y29764514D01*
X6840746Y29757279D01*
X6843204Y29756518D01*
X6859055Y29750378D01*
X6872678Y29745100D01*
X6888223Y29745100D01*
X6896716Y29744116D01*
X6911849Y29740556D01*
X6943151Y29744923D01*
X6945712Y29745100D01*
X9726320Y29745100D01*
X9752554Y29734234D01*
X9754350Y29732304D01*
X9800364Y29679201D01*
X9909924Y29608792D01*
X9943859Y29598828D01*
X10034878Y29572101D01*
X10034881Y29572101D01*
X10034883Y29572100D01*
X10034885Y29572100D01*
X10165115Y29572100D01*
X10165117Y29572100D01*
X10165119Y29572101D01*
X10165121Y29572101D01*
X10199052Y29582065D01*
X10290076Y29608792D01*
X10399636Y29679201D01*
X10484921Y29777626D01*
X10539023Y29896091D01*
X10545201Y29939061D01*
X10557557Y30024998D01*
X10557557Y30025003D01*
X10539023Y30153909D01*
X10539023Y30153910D01*
X10484921Y30272374D01*
X10484918Y30272378D01*
X10399638Y30370798D01*
X10290074Y30441209D01*
X10290071Y30441210D01*
X10165121Y30477900D01*
X10165117Y30477900D01*
X10034883Y30477900D01*
X10034878Y30477900D01*
X9909928Y30441210D01*
X9909925Y30441209D01*
X9800363Y30370799D01*
X9782340Y30349998D01*
X9754358Y30317705D01*
X9728967Y30304995D01*
X9726320Y30304900D01*
X7056306Y30304900D01*
X7030072Y30315766D01*
X5890766Y31455072D01*
X5879900Y31481306D01*
X5879900Y33519900D01*
X13764317Y33519900D01*
X13782570Y33381255D01*
X13830228Y33266197D01*
X13836087Y33252054D01*
X13879263Y33195787D01*
X13921215Y33141115D01*
X13921219Y33141112D01*
X13921220Y33141111D01*
X14032153Y33055988D01*
X14032155Y33055988D01*
X14032158Y33055985D01*
X14161355Y33002470D01*
X14300000Y32984217D01*
X14438645Y33002470D01*
X14567842Y33055985D01*
X14573621Y33060419D01*
X14605531Y33084905D01*
X14678785Y33141115D01*
X14743525Y33225486D01*
X14768116Y33239683D01*
X14772958Y33240000D01*
X17548794Y33240000D01*
X17575028Y33229134D01*
X18309266Y32494896D01*
X18320132Y32468662D01*
X18320132Y27928741D01*
X18309266Y27902507D01*
X18303091Y27897531D01*
X18300396Y27895800D01*
X18300393Y27895797D01*
X18215113Y27797378D01*
X18215109Y27797371D01*
X18161008Y27678909D01*
X18142475Y27550003D01*
X18142475Y27549998D01*
X18161008Y27421092D01*
X18215109Y27302630D01*
X18215113Y27302623D01*
X18300393Y27204203D01*
X18300395Y27204202D01*
X18300396Y27204201D01*
X18409956Y27133792D01*
X18443891Y27123828D01*
X18534910Y27097101D01*
X18534913Y27097101D01*
X18534915Y27097100D01*
X18534917Y27097100D01*
X18665147Y27097100D01*
X18665149Y27097100D01*
X18665151Y27097101D01*
X18665153Y27097101D01*
X18699084Y27107065D01*
X18790108Y27133792D01*
X18899668Y27204201D01*
X18984953Y27302626D01*
X19039055Y27421091D01*
X19046125Y27470268D01*
X19057589Y27549998D01*
X19057589Y27550003D01*
X19039055Y27678909D01*
X19039055Y27678910D01*
X18984953Y27797374D01*
X18899668Y27895799D01*
X18899667Y27895800D01*
X18896973Y27897531D01*
X18880780Y27920856D01*
X18879932Y27928741D01*
X18879932Y32548260D01*
X18881855Y32560050D01*
X18882049Y32560628D01*
X18879951Y32605999D01*
X18879932Y32606847D01*
X18879932Y32625904D01*
X18878972Y32631035D01*
X18878675Y32633593D01*
X18877217Y32665161D01*
X18870936Y32679386D01*
X18868408Y32687547D01*
X18865552Y32702831D01*
X18848905Y32729716D01*
X18847720Y32731962D01*
X18834948Y32760890D01*
X18823953Y32771885D01*
X18818644Y32778588D01*
X18810462Y32791803D01*
X18785247Y32810844D01*
X18783307Y32812532D01*
X17914583Y33681255D01*
X17907604Y33690956D01*
X17907333Y33691501D01*
X17888930Y33708277D01*
X17873748Y33722117D01*
X17873149Y33722689D01*
X17859680Y33736158D01*
X17855371Y33739110D01*
X17853360Y33740703D01*
X17830001Y33761998D01*
X17830000Y33761999D01*
X17815502Y33767615D01*
X17807937Y33771603D01*
X17795116Y33780386D01*
X17764348Y33787623D01*
X17761892Y33788384D01*
X17732423Y33799800D01*
X17732422Y33799800D01*
X17716877Y33799800D01*
X17708383Y33800785D01*
X17693252Y33804344D01*
X17693249Y33804344D01*
X17682899Y33802900D01*
X17661948Y33799978D01*
X17659388Y33799800D01*
X14772957Y33799800D01*
X14746723Y33810666D01*
X14743524Y33814315D01*
X14702448Y33867846D01*
X14678785Y33898685D01*
X14678780Y33898689D01*
X14678779Y33898690D01*
X14567846Y33983813D01*
X14567842Y33983815D01*
X14438645Y34037330D01*
X14300000Y34055583D01*
X14161355Y34037330D01*
X14161354Y34037330D01*
X14032154Y33983813D01*
X13921220Y33898690D01*
X13921210Y33898680D01*
X13836087Y33787746D01*
X13791977Y33681255D01*
X13782570Y33658545D01*
X13764317Y33519900D01*
X5879900Y33519900D01*
X5879900Y36923088D01*
X5890766Y36949322D01*
X5917000Y36960188D01*
X5926295Y36959005D01*
X5947350Y36953553D01*
X6023740Y36949679D01*
X6151053Y36943222D01*
X6151055Y36943222D01*
X6151055Y36943223D01*
X6151058Y36943222D01*
X6352676Y36974109D01*
X6543949Y37044948D01*
X6717047Y37152841D01*
X6864883Y37293370D01*
X6981404Y37460781D01*
X7061841Y37648220D01*
X7102900Y37848015D01*
X7102900Y38300861D01*
X7087437Y38452923D01*
X7026376Y38647539D01*
X6927389Y38825879D01*
X6794528Y38980643D01*
X6794526Y38980644D01*
X6794526Y38980645D01*
X6758084Y39008854D01*
X6633234Y39105495D01*
X6450109Y39195322D01*
X6252650Y39246447D01*
X6252649Y39246448D01*
X6252646Y39246448D01*
X6048946Y39256779D01*
X6048944Y39256779D01*
X5847325Y39225892D01*
X5711841Y39175715D01*
X5656051Y39155052D01*
X5482953Y39047159D01*
X5412979Y38980643D01*
X5335113Y38906626D01*
X5335111Y38906623D01*
X5218599Y38739225D01*
X5218594Y38739216D01*
X5138160Y38551783D01*
X5138159Y38551780D01*
X5097100Y38351985D01*
X5097100Y38351982D01*
X5097100Y37899136D01*
X4602900Y37899136D01*
X4602900Y38881708D01*
X4587957Y38976055D01*
X4587956Y38976057D01*
X4587955Y38976060D01*
X4530018Y39089768D01*
X4530017Y39089769D01*
X4530016Y39089771D01*
X4439771Y39180016D01*
X4439768Y39180018D01*
X4439767Y39180019D01*
X4326059Y39237956D01*
X4326053Y39237958D01*
X4231708Y39252900D01*
X2968292Y39252900D01*
X2873946Y39237958D01*
X2873940Y39237956D01*
X2760232Y39180019D01*
X2669981Y39089768D01*
X2612044Y38976060D01*
X2612042Y38976054D01*
X2597100Y38881708D01*
X2597100Y37318293D01*
X1129900Y37318293D01*
X1129900Y40218694D01*
X1140766Y40244928D01*
X3308756Y42412918D01*
X5500584Y44604747D01*
X5526817Y44615612D01*
X5549525Y44607851D01*
X5566766Y44594505D01*
X5749891Y44504678D01*
X5947350Y44453553D01*
X6023740Y44449679D01*
X6151053Y44443222D01*
X6151055Y44443222D01*
X6151055Y44443223D01*
X6151058Y44443222D01*
X6352676Y44474109D01*
X6543949Y44544948D01*
X6717047Y44652841D01*
X6864883Y44793370D01*
X6981404Y44960781D01*
X7061841Y45148220D01*
X7102900Y45348015D01*
X7102900Y45800861D01*
X7087437Y45952923D01*
X7026376Y46147539D01*
X6927389Y46325879D01*
X6794528Y46480643D01*
X6794526Y46480644D01*
X6794526Y46480645D01*
X6748581Y46516209D01*
X6633234Y46605495D01*
X6450109Y46695322D01*
X6252650Y46746447D01*
X6252649Y46746448D01*
X6252646Y46746448D01*
X6060343Y46756201D01*
X39287474Y46756201D01*
X39287475Y46756200D01*
X39843606Y46756200D01*
X39835000Y46726889D01*
X39835000Y46583111D01*
X39843606Y46553800D01*
X39287475Y46553800D01*
X39297826Y46448695D01*
X39297826Y46448694D01*
X39358002Y46250324D01*
X39358007Y46250312D01*
X39455726Y46067493D01*
X39455729Y46067488D01*
X39587239Y45907242D01*
X39587241Y45907240D01*
X39747487Y45775730D01*
X39747492Y45775727D01*
X39930311Y45678008D01*
X39930323Y45678003D01*
X40128693Y45617827D01*
X40233799Y45607476D01*
X40233800Y45607476D01*
X40233800Y46164409D01*
X40299237Y46155000D01*
X40370763Y46155000D01*
X40436200Y46164409D01*
X40436200Y45607476D01*
X40541305Y45617827D01*
X40541306Y45617827D01*
X40739676Y45678003D01*
X40739688Y45678008D01*
X40922507Y45775727D01*
X40922512Y45775730D01*
X41082758Y45907240D01*
X41082760Y45907242D01*
X41214270Y46067488D01*
X41214273Y46067493D01*
X41311992Y46250312D01*
X41311997Y46250324D01*
X41372173Y46448694D01*
X41372173Y46448695D01*
X41382525Y46553800D01*
X40826394Y46553800D01*
X40835000Y46583111D01*
X40835000Y46654996D01*
X41867247Y46654996D01*
X41886610Y46458398D01*
X41886610Y46458397D01*
X41943955Y46269359D01*
X41943958Y46269350D01*
X42037084Y46095122D01*
X42162411Y45942411D01*
X42315122Y45817084D01*
X42489350Y45723958D01*
X42660906Y45671917D01*
X42678397Y45666611D01*
X42874996Y45647247D01*
X42875000Y45647247D01*
X42875004Y45647247D01*
X43032282Y45662739D01*
X43071603Y45666611D01*
X43260650Y45723958D01*
X43434878Y45817084D01*
X43587589Y45942411D01*
X43712916Y46095122D01*
X43806042Y46269350D01*
X43863389Y46458397D01*
X43872131Y46547157D01*
X43882753Y46654996D01*
X43882753Y46655005D01*
X43863389Y46851603D01*
X43863389Y46851604D01*
X43806044Y47040642D01*
X43806042Y47040650D01*
X43712916Y47214878D01*
X43587589Y47367589D01*
X43434878Y47492916D01*
X43260650Y47586042D01*
X43260643Y47586045D01*
X43260641Y47586045D01*
X43071602Y47643390D01*
X42875004Y47662753D01*
X42874996Y47662753D01*
X42678397Y47643390D01*
X42678396Y47643390D01*
X42489358Y47586045D01*
X42489352Y47586043D01*
X42489350Y47586042D01*
X42489347Y47586041D01*
X42489346Y47586040D01*
X42315125Y47492918D01*
X42315120Y47492915D01*
X42162412Y47367590D01*
X42162410Y47367588D01*
X42037085Y47214880D01*
X42037082Y47214875D01*
X41943960Y47040654D01*
X41943955Y47040642D01*
X41886610Y46851604D01*
X41886610Y46851603D01*
X41867247Y46655005D01*
X41867247Y46654996D01*
X40835000Y46654996D01*
X40835000Y46726889D01*
X40826394Y46756200D01*
X41382525Y46756200D01*
X41382525Y46756201D01*
X41372173Y46861306D01*
X41372173Y46861307D01*
X41311997Y47059677D01*
X41311992Y47059689D01*
X41214273Y47242508D01*
X41214270Y47242513D01*
X41082760Y47402759D01*
X41082758Y47402761D01*
X40922512Y47534271D01*
X40922507Y47534274D01*
X40739688Y47631993D01*
X40739676Y47631998D01*
X40541305Y47692174D01*
X40436200Y47702526D01*
X40436200Y47145592D01*
X40370763Y47155000D01*
X40299237Y47155000D01*
X40233800Y47145592D01*
X40233800Y47702525D01*
X40233799Y47702526D01*
X40128694Y47692174D01*
X40128693Y47692174D01*
X39930323Y47631998D01*
X39930311Y47631993D01*
X39747492Y47534274D01*
X39747487Y47534271D01*
X39587241Y47402761D01*
X39587239Y47402759D01*
X39455729Y47242513D01*
X39455726Y47242508D01*
X39358007Y47059689D01*
X39358002Y47059677D01*
X39297826Y46861307D01*
X39297826Y46861306D01*
X39287474Y46756201D01*
X6060343Y46756201D01*
X6048946Y46756779D01*
X6048944Y46756779D01*
X5847325Y46725892D01*
X5711841Y46675715D01*
X5656051Y46655052D01*
X5656049Y46655052D01*
X5656049Y46655051D01*
X5655961Y46654996D01*
X5482953Y46547159D01*
X5412979Y46480643D01*
X5335113Y46406626D01*
X5335111Y46406623D01*
X5218599Y46239225D01*
X5218594Y46239216D01*
X5138160Y46051783D01*
X5138159Y46051780D01*
X5097100Y45851985D01*
X5097100Y45851982D01*
X5097100Y45399136D01*
X5112563Y45247078D01*
X5112564Y45247073D01*
X5162834Y45086849D01*
X5160319Y45058566D01*
X5153669Y45049509D01*
X688643Y40584483D01*
X678953Y40577510D01*
X678405Y40577238D01*
X678403Y40577236D01*
X647792Y40543661D01*
X647202Y40543043D01*
X633744Y40529583D01*
X633739Y40529577D01*
X630787Y40525270D01*
X629194Y40523258D01*
X607901Y40499901D01*
X607900Y40499899D01*
X602284Y40485403D01*
X598299Y40477843D01*
X589516Y40465020D01*
X589513Y40465014D01*
X582277Y40434250D01*
X581516Y40431795D01*
X570101Y40402327D01*
X570100Y40402321D01*
X570100Y40387100D01*
X559234Y40360866D01*
X533000Y40350000D01*
X437600Y40350000D01*
X411366Y40360866D01*
X400500Y40387100D01*
X400500Y44818293D01*
X2597100Y44818293D01*
X2612042Y44723947D01*
X2612044Y44723941D01*
X2669981Y44610233D01*
X2669982Y44610232D01*
X2669984Y44610229D01*
X2760229Y44519984D01*
X2760231Y44519983D01*
X2760232Y44519982D01*
X2873940Y44462045D01*
X2873943Y44462044D01*
X2873945Y44462043D01*
X2968292Y44447100D01*
X4231708Y44447100D01*
X4326055Y44462043D01*
X4439771Y44519984D01*
X4530016Y44610229D01*
X4587957Y44723945D01*
X4602900Y44818292D01*
X4602900Y46381708D01*
X4587957Y46476055D01*
X4587956Y46476057D01*
X4587955Y46476060D01*
X4530018Y46589768D01*
X4530017Y46589769D01*
X4530016Y46589771D01*
X4439771Y46680016D01*
X4439768Y46680018D01*
X4439767Y46680019D01*
X4326059Y46737956D01*
X4326053Y46737958D01*
X4231708Y46752900D01*
X2968292Y46752900D01*
X2873946Y46737958D01*
X2873940Y46737956D01*
X2760232Y46680019D01*
X2669981Y46589768D01*
X2612044Y46476060D01*
X2612042Y46476054D01*
X2597100Y46381708D01*
X2597100Y44818293D01*
X400500Y44818293D01*
X400500Y49159947D01*
X9047100Y49159947D01*
X9047101Y49159939D01*
X9055972Y49115341D01*
X9055973Y49115340D01*
X9089766Y49064766D01*
X9089769Y49064764D01*
X9140339Y49030973D01*
X9140341Y49030973D01*
X9140342Y49030972D01*
X9184943Y49022100D01*
X11015056Y49022101D01*
X11059658Y49030972D01*
X11110234Y49064766D01*
X11144028Y49115342D01*
X11152900Y49159943D01*
X11152899Y50990056D01*
X11144028Y51034658D01*
X11110234Y51085234D01*
X11110230Y51085237D01*
X11059660Y51119028D01*
X11015058Y51127900D01*
X9184946Y51127900D01*
X9184938Y51127899D01*
X9140340Y51119028D01*
X9089768Y51085236D01*
X9089763Y51085231D01*
X9055972Y51034661D01*
X9047100Y50990063D01*
X9047100Y49159947D01*
X400500Y49159947D01*
X400500Y52032088D01*
X1241779Y52032088D01*
X1271469Y51762255D01*
X1340131Y51499619D01*
X1446302Y51249777D01*
X1587714Y51018063D01*
X1587717Y51018060D01*
X1587719Y51018056D01*
X1761368Y50809396D01*
X1963546Y50628243D01*
X2082999Y50549214D01*
X2189947Y50478458D01*
X2189956Y50478453D01*
X2435729Y50363239D01*
X2435735Y50363237D01*
X2435743Y50363233D01*
X2581512Y50319378D01*
X2695689Y50285027D01*
X2695691Y50285027D01*
X2695697Y50285025D01*
X2964268Y50245500D01*
X2964271Y50245500D01*
X3167767Y50245500D01*
X3167781Y50245500D01*
X3370740Y50260355D01*
X3635709Y50319379D01*
X3889261Y50416354D01*
X4125991Y50549214D01*
X4340853Y50715125D01*
X4529269Y50910553D01*
X4687223Y51131332D01*
X4811348Y51372756D01*
X4898998Y51629680D01*
X4948306Y51896629D01*
X4958220Y52167911D01*
X4953575Y52210123D01*
X4928530Y52437746D01*
X4928530Y52437747D01*
X4882191Y52614996D01*
X9042005Y52614996D01*
X9062333Y52408596D01*
X9062333Y52408595D01*
X9122537Y52210132D01*
X9122540Y52210123D01*
X9220309Y52027209D01*
X9351885Y51866885D01*
X9512209Y51735309D01*
X9695123Y51637540D01*
X9893595Y51577334D01*
X10099996Y51557005D01*
X10100000Y51557005D01*
X10100004Y51557005D01*
X10265123Y51573269D01*
X10306405Y51577334D01*
X10504877Y51637540D01*
X10687791Y51735309D01*
X10848115Y51866885D01*
X10979691Y52027209D01*
X11077460Y52210123D01*
X11137666Y52408595D01*
X11141731Y52449876D01*
X11157995Y52614996D01*
X11157995Y52615005D01*
X11137666Y52821405D01*
X11137666Y52821406D01*
X11097018Y52955404D01*
X11077460Y53019877D01*
X10979691Y53202791D01*
X10848115Y53363115D01*
X10687791Y53494691D01*
X10504877Y53592460D01*
X10504870Y53592463D01*
X10504868Y53592463D01*
X10306404Y53652667D01*
X10100004Y53672995D01*
X10099996Y53672995D01*
X9893595Y53652667D01*
X9893594Y53652667D01*
X9695131Y53592463D01*
X9695125Y53592461D01*
X9695123Y53592460D01*
X9695120Y53592459D01*
X9695119Y53592458D01*
X9512212Y53494693D01*
X9512208Y53494690D01*
X9351886Y53363116D01*
X9351884Y53363114D01*
X9220310Y53202792D01*
X9220307Y53202788D01*
X9122542Y53019881D01*
X9122537Y53019869D01*
X9062333Y52821406D01*
X9062333Y52821405D01*
X9042005Y52615005D01*
X9042005Y52614996D01*
X4882191Y52614996D01*
X4859868Y52700384D01*
X4753697Y52950224D01*
X4727866Y52992550D01*
X4612285Y53181938D01*
X4612283Y53181940D01*
X4612281Y53181944D01*
X4438632Y53390604D01*
X4236454Y53571757D01*
X4083432Y53672995D01*
X4010052Y53721543D01*
X4010043Y53721548D01*
X3764270Y53836762D01*
X3764254Y53836768D01*
X3504310Y53914974D01*
X3487128Y53917503D01*
X3235732Y53954500D01*
X3032219Y53954500D01*
X3032217Y53954500D01*
X2829259Y53939645D01*
X2564296Y53880623D01*
X2310741Y53783648D01*
X2074008Y53650786D01*
X1859148Y53484877D01*
X1670733Y53289451D01*
X1512778Y53068671D01*
X1512774Y53068664D01*
X1388652Y52827246D01*
X1301002Y52570324D01*
X1301001Y52570318D01*
X1251693Y52303369D01*
X1251693Y52303362D01*
X1241779Y52032088D01*
X400500Y52032088D01*
X400500Y52099473D01*
X400529Y52100514D01*
X417416Y52401209D01*
X417649Y52403278D01*
X423505Y52437746D01*
X468008Y52699677D01*
X468467Y52701686D01*
X551702Y52990602D01*
X552385Y52992550D01*
X563701Y53019869D01*
X667442Y53270323D01*
X668334Y53272174D01*
X813765Y53535312D01*
X814862Y53537059D01*
X988859Y53782285D01*
X990125Y53783872D01*
X1190492Y54008083D01*
X1191917Y54009508D01*
X1416128Y54209875D01*
X1417715Y54211141D01*
X1662941Y54385138D01*
X1664689Y54386235D01*
X1756556Y54437008D01*
X1927826Y54531666D01*
X1929677Y54532558D01*
X2207457Y54647618D01*
X2209398Y54648298D01*
X2498314Y54731533D01*
X2500323Y54731992D01*
X2796722Y54782352D01*
X2798791Y54782584D01*
X3099486Y54799471D01*
X3100527Y54799500D01*
X3147595Y54799500D01*
X21812900Y54799500D01*
X21839134Y54788634D01*
G37*
%TD.AperFunction*%
%TD*%
M02*
