%TF.GenerationSoftware,KiCad,Pcbnew,7.0.5*%
%TF.CreationDate,2024-05-30T23:49:04+02:00*%
%TF.ProjectId,Acoustifly,41636f75-7374-4696-966c-792e6b696361,rev?*%
%TF.SameCoordinates,Original*%
%TF.FileFunction,Paste,Top*%
%TF.FilePolarity,Positive*%
%FSLAX46Y46*%
G04 Gerber Fmt 4.6, Leading zero omitted, Abs format (unit mm)*
G04 Created by KiCad (PCBNEW 7.0.5) date 2024-05-30 23:49:04*
%MOMM*%
%LPD*%
G01*
G04 APERTURE LIST*
G04 Aperture macros list*
%AMRoundRect*
0 Rectangle with rounded corners*
0 $1 Rounding radius*
0 $2 $3 $4 $5 $6 $7 $8 $9 X,Y pos of 4 corners*
0 Add a 4 corners polygon primitive as box body*
4,1,4,$2,$3,$4,$5,$6,$7,$8,$9,$2,$3,0*
0 Add four circle primitives for the rounded corners*
1,1,$1+$1,$2,$3*
1,1,$1+$1,$4,$5*
1,1,$1+$1,$6,$7*
1,1,$1+$1,$8,$9*
0 Add four rect primitives between the rounded corners*
20,1,$1+$1,$2,$3,$4,$5,0*
20,1,$1+$1,$4,$5,$6,$7,0*
20,1,$1+$1,$6,$7,$8,$9,0*
20,1,$1+$1,$8,$9,$2,$3,0*%
G04 Aperture macros list end*
%ADD10C,0.010000*%
%ADD11RoundRect,0.250000X0.475000X-0.250000X0.475000X0.250000X-0.475000X0.250000X-0.475000X-0.250000X0*%
%ADD12RoundRect,0.250000X-0.262500X-0.450000X0.262500X-0.450000X0.262500X0.450000X-0.262500X0.450000X0*%
%ADD13RoundRect,0.250000X-0.450000X0.262500X-0.450000X-0.262500X0.450000X-0.262500X0.450000X0.262500X0*%
%ADD14RoundRect,0.250000X1.000000X0.650000X-1.000000X0.650000X-1.000000X-0.650000X1.000000X-0.650000X0*%
%ADD15RoundRect,0.150000X0.350000X0.150000X-0.350000X0.150000X-0.350000X-0.150000X0.350000X-0.150000X0*%
%ADD16RoundRect,0.150000X-0.150000X-0.555000X0.150000X-0.555000X0.150000X0.555000X-0.150000X0.555000X0*%
%ADD17RoundRect,0.107500X-0.432500X-0.107500X0.432500X-0.107500X0.432500X0.107500X-0.432500X0.107500X0*%
%ADD18RoundRect,0.250000X-0.475000X0.250000X-0.475000X-0.250000X0.475000X-0.250000X0.475000X0.250000X0*%
%ADD19R,1.000000X1.270000*%
%ADD20RoundRect,0.250000X-0.250000X-0.475000X0.250000X-0.475000X0.250000X0.475000X-0.250000X0.475000X0*%
%ADD21RoundRect,0.250000X0.262500X0.450000X-0.262500X0.450000X-0.262500X-0.450000X0.262500X-0.450000X0*%
%ADD22R,0.500000X0.375000*%
%ADD23R,0.650000X0.300000*%
%ADD24RoundRect,0.250000X0.450000X-0.262500X0.450000X0.262500X-0.450000X0.262500X-0.450000X-0.262500X0*%
%ADD25RoundRect,0.042000X0.943000X0.258000X-0.943000X0.258000X-0.943000X-0.258000X0.943000X-0.258000X0*%
%ADD26RoundRect,0.150000X0.512500X0.150000X-0.512500X0.150000X-0.512500X-0.150000X0.512500X-0.150000X0*%
%ADD27R,0.600000X1.140000*%
%ADD28R,0.300000X1.140000*%
%ADD29RoundRect,0.150000X-0.150000X0.512500X-0.150000X-0.512500X0.150000X-0.512500X0.150000X0.512500X0*%
%ADD30RoundRect,0.387500X-0.387500X2.062500X-0.387500X-2.062500X0.387500X-2.062500X0.387500X2.062500X0*%
%ADD31R,0.800000X0.400000*%
%ADD32R,0.400000X0.800000*%
%ADD33R,1.200000X1.200000*%
%ADD34R,0.800000X0.800000*%
%ADD35RoundRect,0.150000X-0.512500X-0.150000X0.512500X-0.150000X0.512500X0.150000X-0.512500X0.150000X0*%
%ADD36R,0.650000X1.050000*%
%ADD37R,1.050000X0.650000*%
%ADD38R,2.200000X0.600000*%
G04 APERTURE END LIST*
%TO.C,IC2*%
D10*
X30045000Y9780000D02*
X28755000Y9780000D01*
X28755000Y11420000D01*
X30045000Y11420000D01*
X30045000Y9780000D01*
G36*
X30045000Y9780000D02*
G01*
X28755000Y9780000D01*
X28755000Y11420000D01*
X30045000Y11420000D01*
X30045000Y9780000D01*
G37*
%TO.C,U3*%
X29050000Y42900000D02*
X27850000Y42900000D01*
X27850000Y43500000D01*
X28450000Y44100000D01*
X29050000Y44100000D01*
X29050000Y42900000D01*
G36*
X29050000Y42900000D02*
G01*
X27850000Y42900000D01*
X27850000Y43500000D01*
X28450000Y44100000D01*
X29050000Y44100000D01*
X29050000Y42900000D01*
G37*
%TD*%
D11*
%TO.C,C15*%
X14350000Y32650000D03*
X14350000Y34550000D03*
%TD*%
D12*
%TO.C,R15*%
X10187500Y47350000D03*
X12012500Y47350000D03*
%TD*%
D13*
%TO.C,R2*%
X24650000Y10762500D03*
X24650000Y8937500D03*
%TD*%
D14*
%TO.C,D4*%
X28850000Y19500000D03*
X24850000Y19500000D03*
%TD*%
D15*
%TO.C,D3*%
X24867500Y1732500D03*
X22867500Y1732500D03*
%TD*%
D11*
%TO.C,C22*%
X27600000Y26650000D03*
X27600000Y28550000D03*
%TD*%
%TO.C,C4*%
X20850000Y20450000D03*
X20850000Y22350000D03*
%TD*%
D16*
%TO.C,D5*%
X20950000Y52953483D03*
D17*
X19550000Y52453483D03*
D16*
X18150000Y52953483D03*
%TD*%
D14*
%TO.C,D2*%
X20900000Y17100000D03*
X16900000Y17100000D03*
%TD*%
D18*
%TO.C,C18*%
X29900000Y16300000D03*
X29900000Y14400000D03*
%TD*%
D19*
%TO.C,Q3*%
X23650000Y14400000D03*
X25550000Y14400000D03*
X24600000Y16400000D03*
%TD*%
D20*
%TO.C,C17*%
X18650000Y50600000D03*
X20550000Y50600000D03*
%TD*%
%TO.C,C20*%
X18650000Y46100000D03*
X20550000Y46100000D03*
%TD*%
D12*
%TO.C,R20*%
X14937500Y48350000D03*
X16762500Y48350000D03*
%TD*%
%TO.C,R1*%
X12437500Y18350000D03*
X14262500Y18350000D03*
%TD*%
%TO.C,R19*%
X14937500Y46100000D03*
X16762500Y46100000D03*
%TD*%
D18*
%TO.C,C11*%
X5850000Y18550000D03*
X5850000Y16650000D03*
%TD*%
D11*
%TO.C,C14*%
X25350000Y26650000D03*
X25350000Y28550000D03*
%TD*%
D21*
%TO.C,R18*%
X20512500Y34850000D03*
X18687500Y34850000D03*
%TD*%
D13*
%TO.C,R8*%
X42150000Y10512500D03*
X42150000Y8687500D03*
%TD*%
D18*
%TO.C,C1*%
X27650000Y16300000D03*
X27650000Y14400000D03*
%TD*%
%TO.C,C21*%
X27600000Y32300000D03*
X27600000Y30400000D03*
%TD*%
D21*
%TO.C,RSHUNT1*%
X10262500Y18350000D03*
X8437500Y18350000D03*
%TD*%
D22*
%TO.C,U1*%
X36500000Y9062500D03*
D23*
X36575000Y9600000D03*
D22*
X36500000Y10137500D03*
X34800000Y10137500D03*
D23*
X34725000Y9600000D03*
D22*
X34800000Y9062500D03*
%TD*%
D18*
%TO.C,C13*%
X18600000Y28550000D03*
X18600000Y26650000D03*
%TD*%
D24*
%TO.C,R14*%
X23100000Y30437500D03*
X23100000Y32262500D03*
%TD*%
D13*
%TO.C,R13*%
X25350000Y32262500D03*
X25350000Y30437500D03*
%TD*%
D25*
%TO.C,IC2*%
X31875000Y8695000D03*
X31875000Y9965000D03*
X31875000Y11235000D03*
X31875000Y12505000D03*
X26925000Y12505000D03*
X26925000Y11235000D03*
X26925000Y9965000D03*
X26925000Y8695000D03*
%TD*%
D21*
%TO.C,R21*%
X16762500Y52850000D03*
X14937500Y52850000D03*
%TD*%
D12*
%TO.C,R16*%
X10187500Y39850000D03*
X12012500Y39850000D03*
%TD*%
D18*
%TO.C,C10*%
X3600000Y18550000D03*
X3600000Y16650000D03*
%TD*%
D21*
%TO.C,R6*%
X24762500Y3600000D03*
X22937500Y3600000D03*
%TD*%
%TO.C,R22*%
X20512500Y39350000D03*
X18687500Y39350000D03*
%TD*%
D26*
%TO.C,U4*%
X10375000Y14450000D03*
X10375000Y15400000D03*
X10375000Y16350000D03*
X8100000Y16350000D03*
X8100000Y14450000D03*
%TD*%
D12*
%TO.C,R23*%
X14937500Y50600000D03*
X16762500Y50600000D03*
%TD*%
D21*
%TO.C,R12*%
X20512500Y41600000D03*
X18687500Y41600000D03*
%TD*%
D11*
%TO.C,C5*%
X18600000Y20450000D03*
X18600000Y22350000D03*
%TD*%
D18*
%TO.C,C6*%
X9050000Y9800000D03*
X9050000Y7900000D03*
%TD*%
D11*
%TO.C,C7*%
X16385000Y20450000D03*
X16385000Y22350000D03*
%TD*%
D27*
%TO.C,J3*%
X28825000Y6100000D03*
X29625000Y6100000D03*
D28*
X30775000Y6100000D03*
X31775000Y6100000D03*
X32275000Y6100000D03*
X33275000Y6100000D03*
D27*
X35225000Y6100000D03*
X34425000Y6100000D03*
D28*
X33775000Y6100000D03*
X32775000Y6100000D03*
X31275000Y6100000D03*
X30275000Y6100000D03*
%TD*%
D29*
%TO.C,U6*%
X14250000Y13987500D03*
X13300000Y13987500D03*
X12350000Y13987500D03*
X12350000Y11712500D03*
X13300000Y11712500D03*
X14250000Y11712500D03*
%TD*%
D24*
%TO.C,R7*%
X18600000Y30437500D03*
X18600000Y32262500D03*
%TD*%
D18*
%TO.C,C3*%
X13461250Y9800000D03*
X13461250Y7900000D03*
%TD*%
D30*
%TO.C,L1*%
X16775000Y11210000D03*
X21225000Y11210000D03*
%TD*%
D20*
%TO.C,C19*%
X18650000Y48350000D03*
X20550000Y48350000D03*
%TD*%
D24*
%TO.C,R17*%
X39350000Y33687500D03*
X39350000Y35512500D03*
%TD*%
D31*
%TO.C,U3*%
X23100000Y47800000D03*
X23100000Y46950000D03*
X23100000Y46100000D03*
X23100000Y45250000D03*
X23100000Y44400000D03*
X23100000Y43550000D03*
X23100000Y42700000D03*
X23100000Y41850000D03*
X23100000Y41000000D03*
X23100000Y40150000D03*
X23100000Y39300000D03*
X23100000Y38450000D03*
X23100000Y37600000D03*
X23100000Y36750000D03*
X23100000Y35900000D03*
D32*
X24150000Y34850000D03*
X25000000Y34850000D03*
X25850000Y34850000D03*
X26700000Y34850000D03*
X27550000Y34850000D03*
X28400000Y34850000D03*
X29250000Y34850000D03*
X30100000Y34850000D03*
X30950000Y34850000D03*
X31800000Y34850000D03*
X32650000Y34850000D03*
X33500000Y34850000D03*
X34350000Y34850000D03*
X35200000Y34850000D03*
X36050000Y34850000D03*
D31*
X37100000Y35900000D03*
X37100000Y36750000D03*
X37100000Y37600000D03*
X37100000Y38450000D03*
X37100000Y39300000D03*
X37100000Y40150000D03*
X37100000Y41000000D03*
X37100000Y41850000D03*
X37100000Y42700000D03*
X37100000Y43550000D03*
X37100000Y44400000D03*
X37100000Y45250000D03*
X37100000Y46100000D03*
X37100000Y46950000D03*
X37100000Y47800000D03*
D32*
X36050000Y48850000D03*
X35200000Y48850000D03*
X34350000Y48850000D03*
X33500000Y48850000D03*
X32650000Y48850000D03*
X31800000Y48850000D03*
X30950000Y48850000D03*
X30100000Y48850000D03*
X29250000Y48850000D03*
X28400000Y48850000D03*
X27550000Y48850000D03*
X26700000Y48850000D03*
X25850000Y48850000D03*
X25000000Y48850000D03*
X24150000Y48850000D03*
D33*
X30100000Y41850000D03*
X30100000Y43500000D03*
X31750000Y43500000D03*
X31750000Y41850000D03*
X31750000Y40200000D03*
X30100000Y40200000D03*
X28450000Y40200000D03*
X28450000Y41850000D03*
D34*
X23100000Y48850000D03*
X23100000Y34850000D03*
X37100000Y34850000D03*
X37100000Y48850000D03*
%TD*%
D35*
%TO.C,U2*%
X20825000Y28550000D03*
X20825000Y27600000D03*
X20825000Y26650000D03*
X23100000Y26650000D03*
X23100000Y28550000D03*
%TD*%
D36*
%TO.C,BOOT_SWITCH1*%
X41275000Y33775000D03*
X41275000Y37925000D03*
X43425000Y33775000D03*
X43425000Y37925000D03*
%TD*%
D37*
%TO.C,RESET_SWITCH1*%
X39425000Y29775000D03*
X35275000Y29775000D03*
X39425000Y31925000D03*
X35275000Y31925000D03*
%TD*%
D11*
%TO.C,C8*%
X20850000Y30400000D03*
X20850000Y32300000D03*
%TD*%
D12*
%TO.C,R4*%
X34737500Y12850000D03*
X36562500Y12850000D03*
%TD*%
D24*
%TO.C,R5*%
X39900000Y8687500D03*
X39900000Y10512500D03*
%TD*%
D18*
%TO.C,C2*%
X11238750Y9800000D03*
X11238750Y7900000D03*
%TD*%
D21*
%TO.C,R11*%
X20512500Y37100000D03*
X18687500Y37100000D03*
%TD*%
D38*
%TO.C,IC3*%
X2500000Y32565000D03*
X2500000Y31295000D03*
X2500000Y30025000D03*
X2500000Y28755000D03*
X2500000Y27485000D03*
X2500000Y26215000D03*
X2500000Y24945000D03*
X2500000Y23675000D03*
X2500000Y22405000D03*
X2500000Y21135000D03*
X11700000Y21135000D03*
X11700000Y22405000D03*
X11700000Y23675000D03*
X11700000Y24945000D03*
X11700000Y26215000D03*
X11700000Y27485000D03*
X11700000Y28755000D03*
X11700000Y30025000D03*
X11700000Y31295000D03*
X11700000Y32565000D03*
%TD*%
D18*
%TO.C,C16*%
X43600000Y31800000D03*
X43600000Y29900000D03*
%TD*%
D11*
%TO.C,C12*%
X32150000Y14400000D03*
X32150000Y16300000D03*
%TD*%
D20*
%TO.C,C9*%
X8650000Y12350000D03*
X10550000Y12350000D03*
%TD*%
D13*
%TO.C,R9*%
X41350000Y31762500D03*
X41350000Y29937500D03*
%TD*%
D21*
%TO.C,R3*%
X14262500Y16100000D03*
X12437500Y16100000D03*
%TD*%
M02*
