%TF.GenerationSoftware,KiCad,Pcbnew,7.0.5*%
%TF.CreationDate,2024-02-24T17:46:26+01:00*%
%TF.ProjectId,ULHolder,554c486f-6c64-4657-922e-6b696361645f,rev?*%
%TF.SameCoordinates,Original*%
%TF.FileFunction,Legend,Bot*%
%TF.FilePolarity,Positive*%
%FSLAX46Y46*%
G04 Gerber Fmt 4.6, Leading zero omitted, Abs format (unit mm)*
G04 Created by KiCad (PCBNEW 7.0.5) date 2024-02-24 17:46:26*
%MOMM*%
%LPD*%
G01*
G04 APERTURE LIST*
G04 Aperture macros list*
%AMFreePoly0*
4,1,25,0.506863,1.161696,0.518986,1.151342,1.151342,0.518986,1.179849,0.463038,1.181100,0.447144,1.181100,-0.447144,1.161696,-0.506863,1.151342,-0.518986,0.518986,-1.151342,0.463038,-1.179849,0.447144,-1.181100,-0.447144,-1.181100,-0.506863,-1.161696,-0.518986,-1.151342,-1.151342,-0.518986,-1.179849,-0.463038,-1.181100,-0.447144,-1.181100,0.447144,-1.161696,0.506863,-1.151342,0.518986,
-0.518986,1.151342,-0.463038,1.179849,-0.447144,1.181100,0.447144,1.181100,0.506863,1.161696,0.506863,1.161696,$1*%
G04 Aperture macros list end*
%ADD10C,0.142240*%
%ADD11C,3.200000*%
%ADD12FreePoly0,0.000000*%
G04 APERTURE END LIST*
D10*
X163292855Y-108097745D02*
X162607141Y-108097745D01*
X162949998Y-109297745D02*
X162949998Y-108097745D01*
X162207140Y-109297745D02*
X162207140Y-108497745D01*
X162207140Y-108726317D02*
X162149997Y-108612031D01*
X162149997Y-108612031D02*
X162092855Y-108554888D01*
X162092855Y-108554888D02*
X161978569Y-108497745D01*
X161978569Y-108497745D02*
X161864283Y-108497745D01*
X160949998Y-109297745D02*
X160949998Y-108669174D01*
X160949998Y-108669174D02*
X161007140Y-108554888D01*
X161007140Y-108554888D02*
X161121426Y-108497745D01*
X161121426Y-108497745D02*
X161349998Y-108497745D01*
X161349998Y-108497745D02*
X161464283Y-108554888D01*
X160949998Y-109240603D02*
X161064283Y-109297745D01*
X161064283Y-109297745D02*
X161349998Y-109297745D01*
X161349998Y-109297745D02*
X161464283Y-109240603D01*
X161464283Y-109240603D02*
X161521426Y-109126317D01*
X161521426Y-109126317D02*
X161521426Y-109012031D01*
X161521426Y-109012031D02*
X161464283Y-108897745D01*
X161464283Y-108897745D02*
X161349998Y-108840603D01*
X161349998Y-108840603D02*
X161064283Y-108840603D01*
X161064283Y-108840603D02*
X160949998Y-108783460D01*
X160378569Y-108497745D02*
X160378569Y-109297745D01*
X160378569Y-108612031D02*
X160321426Y-108554888D01*
X160321426Y-108554888D02*
X160207141Y-108497745D01*
X160207141Y-108497745D02*
X160035712Y-108497745D01*
X160035712Y-108497745D02*
X159921426Y-108554888D01*
X159921426Y-108554888D02*
X159864284Y-108669174D01*
X159864284Y-108669174D02*
X159864284Y-109297745D01*
X159349998Y-109240603D02*
X159235712Y-109297745D01*
X159235712Y-109297745D02*
X159007141Y-109297745D01*
X159007141Y-109297745D02*
X158892855Y-109240603D01*
X158892855Y-109240603D02*
X158835712Y-109126317D01*
X158835712Y-109126317D02*
X158835712Y-109069174D01*
X158835712Y-109069174D02*
X158892855Y-108954888D01*
X158892855Y-108954888D02*
X159007141Y-108897745D01*
X159007141Y-108897745D02*
X159178570Y-108897745D01*
X159178570Y-108897745D02*
X159292855Y-108840603D01*
X159292855Y-108840603D02*
X159349998Y-108726317D01*
X159349998Y-108726317D02*
X159349998Y-108669174D01*
X159349998Y-108669174D02*
X159292855Y-108554888D01*
X159292855Y-108554888D02*
X159178570Y-108497745D01*
X159178570Y-108497745D02*
X159007141Y-108497745D01*
X159007141Y-108497745D02*
X158892855Y-108554888D01*
X157807141Y-109297745D02*
X157807141Y-108097745D01*
X157807141Y-109240603D02*
X157921426Y-109297745D01*
X157921426Y-109297745D02*
X158149998Y-109297745D01*
X158149998Y-109297745D02*
X158264283Y-109240603D01*
X158264283Y-109240603D02*
X158321426Y-109183460D01*
X158321426Y-109183460D02*
X158378569Y-109069174D01*
X158378569Y-109069174D02*
X158378569Y-108726317D01*
X158378569Y-108726317D02*
X158321426Y-108612031D01*
X158321426Y-108612031D02*
X158264283Y-108554888D01*
X158264283Y-108554888D02*
X158149998Y-108497745D01*
X158149998Y-108497745D02*
X157921426Y-108497745D01*
X157921426Y-108497745D02*
X157807141Y-108554888D01*
X156721427Y-108497745D02*
X156721427Y-109297745D01*
X157235712Y-108497745D02*
X157235712Y-109126317D01*
X157235712Y-109126317D02*
X157178569Y-109240603D01*
X157178569Y-109240603D02*
X157064284Y-109297745D01*
X157064284Y-109297745D02*
X156892855Y-109297745D01*
X156892855Y-109297745D02*
X156778569Y-109240603D01*
X156778569Y-109240603D02*
X156721427Y-109183460D01*
X155635713Y-109240603D02*
X155749998Y-109297745D01*
X155749998Y-109297745D02*
X155978570Y-109297745D01*
X155978570Y-109297745D02*
X156092855Y-109240603D01*
X156092855Y-109240603D02*
X156149998Y-109183460D01*
X156149998Y-109183460D02*
X156207141Y-109069174D01*
X156207141Y-109069174D02*
X156207141Y-108726317D01*
X156207141Y-108726317D02*
X156149998Y-108612031D01*
X156149998Y-108612031D02*
X156092855Y-108554888D01*
X156092855Y-108554888D02*
X155978570Y-108497745D01*
X155978570Y-108497745D02*
X155749998Y-108497745D01*
X155749998Y-108497745D02*
X155635713Y-108554888D01*
X154664284Y-109240603D02*
X154778570Y-109297745D01*
X154778570Y-109297745D02*
X155007142Y-109297745D01*
X155007142Y-109297745D02*
X155121427Y-109240603D01*
X155121427Y-109240603D02*
X155178570Y-109126317D01*
X155178570Y-109126317D02*
X155178570Y-108669174D01*
X155178570Y-108669174D02*
X155121427Y-108554888D01*
X155121427Y-108554888D02*
X155007142Y-108497745D01*
X155007142Y-108497745D02*
X154778570Y-108497745D01*
X154778570Y-108497745D02*
X154664284Y-108554888D01*
X154664284Y-108554888D02*
X154607142Y-108669174D01*
X154607142Y-108669174D02*
X154607142Y-108783460D01*
X154607142Y-108783460D02*
X155178570Y-108897745D01*
X154092856Y-109297745D02*
X154092856Y-108497745D01*
X154092856Y-108726317D02*
X154035713Y-108612031D01*
X154035713Y-108612031D02*
X153978571Y-108554888D01*
X153978571Y-108554888D02*
X153864285Y-108497745D01*
X153864285Y-108497745D02*
X153749999Y-108497745D01*
X152435713Y-109297745D02*
X152435713Y-108097745D01*
X152435713Y-108097745D02*
X151978570Y-108097745D01*
X151978570Y-108097745D02*
X151864285Y-108154888D01*
X151864285Y-108154888D02*
X151807142Y-108212031D01*
X151807142Y-108212031D02*
X151749999Y-108326317D01*
X151749999Y-108326317D02*
X151749999Y-108497745D01*
X151749999Y-108497745D02*
X151807142Y-108612031D01*
X151807142Y-108612031D02*
X151864285Y-108669174D01*
X151864285Y-108669174D02*
X151978570Y-108726317D01*
X151978570Y-108726317D02*
X152435713Y-108726317D01*
X151064285Y-109297745D02*
X151178570Y-109240603D01*
X151178570Y-109240603D02*
X151235713Y-109126317D01*
X151235713Y-109126317D02*
X151235713Y-108097745D01*
X150092857Y-109297745D02*
X150092857Y-108669174D01*
X150092857Y-108669174D02*
X150149999Y-108554888D01*
X150149999Y-108554888D02*
X150264285Y-108497745D01*
X150264285Y-108497745D02*
X150492857Y-108497745D01*
X150492857Y-108497745D02*
X150607142Y-108554888D01*
X150092857Y-109240603D02*
X150207142Y-109297745D01*
X150207142Y-109297745D02*
X150492857Y-109297745D01*
X150492857Y-109297745D02*
X150607142Y-109240603D01*
X150607142Y-109240603D02*
X150664285Y-109126317D01*
X150664285Y-109126317D02*
X150664285Y-109012031D01*
X150664285Y-109012031D02*
X150607142Y-108897745D01*
X150607142Y-108897745D02*
X150492857Y-108840603D01*
X150492857Y-108840603D02*
X150207142Y-108840603D01*
X150207142Y-108840603D02*
X150092857Y-108783460D01*
X149692857Y-108497745D02*
X149235714Y-108497745D01*
X149521428Y-108097745D02*
X149521428Y-109126317D01*
X149521428Y-109126317D02*
X149464285Y-109240603D01*
X149464285Y-109240603D02*
X149350000Y-109297745D01*
X149350000Y-109297745D02*
X149235714Y-109297745D01*
X148378571Y-109240603D02*
X148492857Y-109297745D01*
X148492857Y-109297745D02*
X148721429Y-109297745D01*
X148721429Y-109297745D02*
X148835714Y-109240603D01*
X148835714Y-109240603D02*
X148892857Y-109126317D01*
X148892857Y-109126317D02*
X148892857Y-108669174D01*
X148892857Y-108669174D02*
X148835714Y-108554888D01*
X148835714Y-108554888D02*
X148721429Y-108497745D01*
X148721429Y-108497745D02*
X148492857Y-108497745D01*
X148492857Y-108497745D02*
X148378571Y-108554888D01*
X148378571Y-108554888D02*
X148321429Y-108669174D01*
X148321429Y-108669174D02*
X148321429Y-108783460D01*
X148321429Y-108783460D02*
X148892857Y-108897745D01*
X157809523Y-105455222D02*
X157809523Y-104455222D01*
X157809523Y-104455222D02*
X157476190Y-105169507D01*
X157476190Y-105169507D02*
X157142857Y-104455222D01*
X157142857Y-104455222D02*
X157142857Y-105455222D01*
X156761904Y-104455222D02*
X156142857Y-104455222D01*
X156142857Y-104455222D02*
X156476190Y-104836174D01*
X156476190Y-104836174D02*
X156333333Y-104836174D01*
X156333333Y-104836174D02*
X156238095Y-104883793D01*
X156238095Y-104883793D02*
X156190476Y-104931412D01*
X156190476Y-104931412D02*
X156142857Y-105026650D01*
X156142857Y-105026650D02*
X156142857Y-105264745D01*
X156142857Y-105264745D02*
X156190476Y-105359983D01*
X156190476Y-105359983D02*
X156238095Y-105407603D01*
X156238095Y-105407603D02*
X156333333Y-105455222D01*
X156333333Y-105455222D02*
X156619047Y-105455222D01*
X156619047Y-105455222D02*
X156714285Y-105407603D01*
X156714285Y-105407603D02*
X156761904Y-105359983D01*
%LPC*%
D11*
%TO.C,H1*%
X154022604Y-105003600D03*
%TD*%
D12*
%TO.C,LSP2*%
X141022604Y-110003600D03*
%TD*%
%TO.C,LSP1*%
X141022604Y-100003600D03*
%TD*%
%LPD*%
M02*
