%TF.GenerationSoftware,KiCad,Pcbnew,7.0.5*%
%TF.CreationDate,2024-02-24T17:46:26+01:00*%
%TF.ProjectId,ULHolder,554c486f-6c64-4657-922e-6b696361645f,rev?*%
%TF.SameCoordinates,Original*%
%TF.FileFunction,Legend,Top*%
%TF.FilePolarity,Positive*%
%FSLAX46Y46*%
G04 Gerber Fmt 4.6, Leading zero omitted, Abs format (unit mm)*
G04 Created by KiCad (PCBNEW 7.0.5) date 2024-02-24 17:46:26*
%MOMM*%
%LPD*%
G01*
G04 APERTURE LIST*
G04 Aperture macros list*
%AMRoundRect*
0 Rectangle with rounded corners*
0 $1 Rounding radius*
0 $2 $3 $4 $5 $6 $7 $8 $9 X,Y pos of 4 corners*
0 Add a 4 corners polygon primitive as box body*
4,1,4,$2,$3,$4,$5,$6,$7,$8,$9,$2,$3,0*
0 Add four circle primitives for the rounded corners*
1,1,$1+$1,$2,$3*
1,1,$1+$1,$4,$5*
1,1,$1+$1,$6,$7*
1,1,$1+$1,$8,$9*
0 Add four rect primitives between the rounded corners*
20,1,$1+$1,$2,$3,$4,$5,0*
20,1,$1+$1,$4,$5,$6,$7,0*
20,1,$1+$1,$6,$7,$8,$9,0*
20,1,$1+$1,$8,$9,$2,$3,0*%
%AMFreePoly0*
4,1,25,0.506863,1.161696,0.518986,1.151342,1.151342,0.518986,1.179849,0.463038,1.181100,0.447144,1.181100,-0.447144,1.161696,-0.506863,1.151342,-0.518986,0.518986,-1.151342,0.463038,-1.179849,0.447144,-1.181100,-0.447144,-1.181100,-0.506863,-1.161696,-0.518986,-1.151342,-1.151342,-0.518986,-1.179849,-0.463038,-1.181100,-0.447144,-1.181100,0.447144,-1.161696,0.506863,-1.151342,0.518986,
-0.518986,1.151342,-0.463038,1.179849,-0.447144,1.181100,0.447144,1.181100,0.506863,1.161696,0.506863,1.161696,$1*%
G04 Aperture macros list end*
%ADD10C,0.100000*%
%ADD11C,0.152400*%
%ADD12RoundRect,0.101600X-1.000000X-1.000000X1.000000X-1.000000X1.000000X1.000000X-1.000000X1.000000X0*%
%ADD13C,3.200000*%
%ADD14FreePoly0,0.000000*%
G04 APERTURE END LIST*
D10*
X148500000Y-105000000D02*
G75*
G03*
X148500000Y-105000000I-7500000J0D01*
G01*
%TO.C,G\u002A\u002A\u002A*%
G36*
X141795116Y-102123587D02*
G01*
X141855201Y-102178282D01*
X141890299Y-102274806D01*
X141935298Y-102377372D01*
X142007420Y-102415449D01*
X142097967Y-102387229D01*
X142168208Y-102361996D01*
X142241468Y-102390439D01*
X142247588Y-102394376D01*
X142343335Y-102426486D01*
X142398998Y-102419770D01*
X142492247Y-102406800D01*
X142551281Y-102438161D01*
X142562517Y-102476278D01*
X142586551Y-102537662D01*
X142649335Y-102545684D01*
X142715890Y-102512978D01*
X142847323Y-102455865D01*
X142973741Y-102465217D01*
X143089137Y-102534832D01*
X143187502Y-102658506D01*
X143262829Y-102830035D01*
X143309109Y-103043218D01*
X143317874Y-103134535D01*
X143334759Y-103394821D01*
X143491625Y-103434320D01*
X143644983Y-103468983D01*
X143746150Y-103473980D01*
X143764607Y-103464735D01*
X143915974Y-103464735D01*
X143930678Y-103501938D01*
X143970540Y-103510157D01*
X144019492Y-103492190D01*
X144051766Y-103441700D01*
X144140574Y-103441700D01*
X144142630Y-103482523D01*
X144194740Y-103486359D01*
X144214975Y-103482886D01*
X144280388Y-103460106D01*
X144300954Y-103414886D01*
X144279946Y-103330905D01*
X144256881Y-103273963D01*
X144210317Y-103164950D01*
X144184120Y-103273963D01*
X144159452Y-103372317D01*
X144140574Y-103441700D01*
X144051766Y-103441700D01*
X144059910Y-103428960D01*
X144097380Y-103319385D01*
X144142696Y-103139573D01*
X144155761Y-103020051D01*
X144136963Y-102956173D01*
X144128084Y-102948809D01*
X144101500Y-102970148D01*
X144062352Y-103045532D01*
X144018605Y-103159291D01*
X144013754Y-103173774D01*
X143971096Y-103302310D01*
X143936161Y-103406292D01*
X143916299Y-103463848D01*
X143915974Y-103464735D01*
X143764607Y-103464735D01*
X143812478Y-103440757D01*
X143861316Y-103360760D01*
X143908995Y-103228541D01*
X143983080Y-103019152D01*
X144046267Y-102874349D01*
X144097329Y-102796700D01*
X144122104Y-102783405D01*
X144153655Y-102816101D01*
X144199143Y-102904839D01*
X144253216Y-103035592D01*
X144310520Y-103194333D01*
X144365704Y-103367036D01*
X144413415Y-103539674D01*
X144418435Y-103559932D01*
X144457543Y-103768555D01*
X144486708Y-104020859D01*
X144504737Y-104292735D01*
X144510438Y-104560074D01*
X144502617Y-104798768D01*
X144487004Y-104945493D01*
X144413690Y-105290744D01*
X144307166Y-105616027D01*
X144197655Y-105855167D01*
X144173436Y-105908054D01*
X144018509Y-106153535D01*
X143862842Y-106326462D01*
X143674510Y-106460862D01*
X143489395Y-106522717D01*
X143402534Y-106517604D01*
X143307832Y-106512030D01*
X143130153Y-106428802D01*
X143003082Y-106322230D01*
X142841732Y-106160880D01*
X142800938Y-106189670D01*
X142711209Y-106252997D01*
X142617024Y-106320771D01*
X142605312Y-106329199D01*
X142507931Y-106401550D01*
X142495242Y-106411275D01*
X142490734Y-106414730D01*
X142400782Y-106484346D01*
X142496434Y-106508353D01*
X142599031Y-106511444D01*
X142670985Y-106490134D01*
X142752109Y-106464631D01*
X142801533Y-106467728D01*
X142852125Y-106499063D01*
X142938088Y-106563450D01*
X143044989Y-106648801D01*
X143158393Y-106743030D01*
X143263865Y-106834051D01*
X143346972Y-106909776D01*
X143393279Y-106958119D01*
X143398283Y-106967418D01*
X143369928Y-107012343D01*
X143293624Y-107086212D01*
X143182511Y-107178602D01*
X143049727Y-107279087D01*
X142923509Y-107366758D01*
X142908412Y-107377244D01*
X142780543Y-107457486D01*
X142608437Y-107551194D01*
X142413843Y-107646006D01*
X142385224Y-107658360D01*
X142237444Y-107722155D01*
X142229415Y-107725279D01*
X141853391Y-107839385D01*
X141779702Y-107861746D01*
X141323702Y-107929752D01*
X141181688Y-107930598D01*
X141034576Y-107931474D01*
X140867378Y-107932470D01*
X140442276Y-107876447D01*
X141181688Y-107876447D01*
X141281616Y-107857728D01*
X141379499Y-107841430D01*
X141507423Y-107822588D01*
X141557017Y-107815847D01*
X141668320Y-107793968D01*
X141714153Y-107764841D01*
X141714087Y-107744730D01*
X141698925Y-107688764D01*
X141674488Y-107581226D01*
X141645202Y-107441919D01*
X141634458Y-107388480D01*
X141603023Y-107239341D01*
X141581534Y-107163397D01*
X141674460Y-107163397D01*
X141697411Y-107296266D01*
X141709009Y-107349723D01*
X141739905Y-107488351D01*
X141766803Y-107608945D01*
X141783232Y-107682492D01*
X141805674Y-107738709D01*
X141853391Y-107752351D01*
X141918867Y-107741653D01*
X142034440Y-107710191D01*
X142159422Y-107667327D01*
X142170016Y-107663189D01*
X142304410Y-107609916D01*
X142220334Y-107422340D01*
X142158669Y-107286905D01*
X142096489Y-107153618D01*
X142070125Y-107098498D01*
X142022374Y-107013890D01*
X141982457Y-106966149D01*
X141978621Y-106964518D01*
X142120988Y-106964518D01*
X142152703Y-107068188D01*
X142214904Y-107217588D01*
X142236962Y-107265507D01*
X142385224Y-107581890D01*
X142601053Y-107466855D01*
X142709599Y-107407054D01*
X142787108Y-107360636D01*
X142816880Y-107337607D01*
X142816881Y-107337565D01*
X142796478Y-107304266D01*
X142741720Y-107226680D01*
X142662285Y-107118340D01*
X142612621Y-107051927D01*
X142512748Y-106920557D01*
X142445330Y-106838765D01*
X142399476Y-106797795D01*
X142364294Y-106788892D01*
X142328892Y-106803301D01*
X142314441Y-106812227D01*
X142297939Y-106842472D01*
X142313185Y-106901539D01*
X142364391Y-107000826D01*
X142416426Y-107088202D01*
X142501390Y-107235383D01*
X142541535Y-107326336D01*
X142537101Y-107361855D01*
X142494487Y-107346648D01*
X142458268Y-107305021D01*
X142400737Y-107219414D01*
X142344492Y-107125751D01*
X142263916Y-106993007D01*
X142205213Y-106918928D01*
X142160384Y-106895925D01*
X142122586Y-106915239D01*
X142120988Y-106964518D01*
X141978621Y-106964518D01*
X141973245Y-106962232D01*
X141931187Y-106992451D01*
X141926017Y-107083585D01*
X141957745Y-107236343D01*
X141979099Y-107309464D01*
X142014310Y-107432491D01*
X142035760Y-107525686D01*
X142039149Y-107570140D01*
X142038565Y-107570971D01*
X142004872Y-107576130D01*
X141967614Y-107522678D01*
X141924143Y-107405608D01*
X141891110Y-107292333D01*
X141847146Y-107149636D01*
X141808361Y-107067914D01*
X141769108Y-107036275D01*
X141757648Y-107034907D01*
X141702670Y-107045067D01*
X141675577Y-107083780D01*
X141674460Y-107163397D01*
X141581534Y-107163397D01*
X141577525Y-107149227D01*
X141552208Y-107105437D01*
X141521320Y-107095267D01*
X141503122Y-107098519D01*
X141469290Y-107113130D01*
X141450597Y-107145072D01*
X141444900Y-107209550D01*
X141450059Y-107321769D01*
X141457697Y-107421087D01*
X141467053Y-107589301D01*
X141462704Y-107691640D01*
X141445317Y-107725322D01*
X141424770Y-107691961D01*
X141403512Y-107603495D01*
X141385458Y-107477345D01*
X141382065Y-107443705D01*
X141366629Y-107287002D01*
X141352324Y-107190032D01*
X141333940Y-107140132D01*
X141306262Y-107124639D01*
X141264077Y-107130888D01*
X141254327Y-107133400D01*
X141221079Y-107148013D01*
X141199840Y-107180123D01*
X141187961Y-107243624D01*
X141182794Y-107352408D01*
X141181688Y-107514421D01*
X141181688Y-107876447D01*
X140442276Y-107876447D01*
X140437807Y-107875858D01*
X140416693Y-107873075D01*
X139977612Y-107754741D01*
X139908818Y-107726327D01*
X139800786Y-107681706D01*
X139985472Y-107681706D01*
X140220725Y-107745386D01*
X140343497Y-107773979D01*
X140437807Y-107787356D01*
X140482710Y-107782798D01*
X140487545Y-107770839D01*
X140600286Y-107770839D01*
X140624274Y-107806289D01*
X140702781Y-107832352D01*
X140818777Y-107849667D01*
X140940876Y-107859411D01*
X141034576Y-107859458D01*
X141073140Y-107852216D01*
X141088699Y-107808439D01*
X141100854Y-107709225D01*
X141107914Y-107571794D01*
X141109012Y-107486983D01*
X141107774Y-107326783D01*
X141102261Y-107225814D01*
X141089778Y-107170650D01*
X141067628Y-107147863D01*
X141040119Y-107143920D01*
X141004704Y-107152841D01*
X140980723Y-107189043D01*
X140963569Y-107266686D01*
X140949163Y-107395182D01*
X140948631Y-107399927D01*
X140945493Y-107434621D01*
X140925620Y-107598226D01*
X140901143Y-107696241D01*
X140875854Y-107725322D01*
X140854601Y-107706831D01*
X140848057Y-107644053D01*
X140855764Y-107526033D01*
X140864270Y-107447582D01*
X140878167Y-107287159D01*
X140872325Y-107185444D01*
X140843113Y-107130279D01*
X140786899Y-107109505D01*
X140762908Y-107108139D01*
X140742167Y-107140546D01*
X140712995Y-107225743D01*
X140679984Y-107345020D01*
X140647724Y-107479668D01*
X140620807Y-107610978D01*
X140603823Y-107720240D01*
X140600286Y-107770839D01*
X140487545Y-107770839D01*
X140500127Y-107739717D01*
X140526998Y-107645834D01*
X140558424Y-107521590D01*
X140589509Y-107387430D01*
X140615353Y-107263794D01*
X140631059Y-107171126D01*
X140632671Y-107156892D01*
X140607338Y-107109506D01*
X140580954Y-107093995D01*
X140550771Y-107087999D01*
X140524841Y-107103796D01*
X140497300Y-107152616D01*
X140462285Y-107245688D01*
X140413929Y-107394242D01*
X140398333Y-107443705D01*
X140359104Y-107554125D01*
X140323563Y-107629854D01*
X140302949Y-107652646D01*
X140277812Y-107633082D01*
X140279882Y-107568970D01*
X140310288Y-107452185D01*
X140345922Y-107343777D01*
X140393929Y-107194751D01*
X140414155Y-107101235D01*
X140407282Y-107051867D01*
X140373992Y-107035288D01*
X140364456Y-107034907D01*
X140323835Y-107066392D01*
X140261877Y-107153373D01*
X140186086Y-107284642D01*
X140147893Y-107358306D01*
X139985472Y-107681706D01*
X139800786Y-107681706D01*
X139556097Y-107580641D01*
X139382432Y-107481721D01*
X139296094Y-107432543D01*
X139473819Y-107432543D01*
X139492088Y-107457648D01*
X139553038Y-107494561D01*
X139665883Y-107548226D01*
X139791247Y-107602929D01*
X139908818Y-107653182D01*
X140068894Y-107334960D01*
X140145951Y-107173546D01*
X140186019Y-107064795D01*
X140190362Y-106999576D01*
X140160244Y-106968759D01*
X140120435Y-106962788D01*
X140091312Y-106991588D01*
X140036463Y-107068655D01*
X139966215Y-107179156D01*
X139943690Y-107216595D01*
X139850671Y-107363345D01*
X139782570Y-107449295D01*
X139741167Y-107472632D01*
X139728183Y-107436081D01*
X139746478Y-107390337D01*
X139794763Y-107301839D01*
X139863132Y-107188579D01*
X139873195Y-107172634D01*
X139946147Y-107054199D01*
X139982973Y-106980571D01*
X139988396Y-106936446D01*
X139967137Y-106906519D01*
X139957607Y-106899016D01*
X139906166Y-106866354D01*
X139890282Y-106862679D01*
X139725177Y-107077787D01*
X139603466Y-107239455D01*
X139522885Y-107350779D01*
X139481168Y-107414861D01*
X139473819Y-107432543D01*
X139296094Y-107432543D01*
X139158113Y-107353949D01*
X138874580Y-107141499D01*
X138834573Y-107111522D01*
X138967550Y-107111522D01*
X138993670Y-107141773D01*
X139062498Y-107195191D01*
X139154912Y-107259187D01*
X139251788Y-107321177D01*
X139334002Y-107368574D01*
X139382432Y-107388792D01*
X139387371Y-107387831D01*
X139429666Y-107337634D01*
X139496689Y-107249938D01*
X139576957Y-107140776D01*
X139658987Y-107026181D01*
X139731297Y-106922187D01*
X139782403Y-106844825D01*
X139800858Y-106810495D01*
X139771941Y-106782790D01*
X139754298Y-106780543D01*
X139708751Y-106804933D01*
X139628301Y-106869844D01*
X139527870Y-106962892D01*
X139493687Y-106996852D01*
X139392287Y-107093228D01*
X139308022Y-107162144D01*
X139254708Y-107192704D01*
X139245881Y-107192300D01*
X139254450Y-107159341D01*
X139305829Y-107088704D01*
X139390312Y-106992948D01*
X139438239Y-106943299D01*
X139545101Y-106834102D01*
X139606739Y-106764227D01*
X139629576Y-106721865D01*
X139620032Y-106695206D01*
X139585301Y-106672852D01*
X139543089Y-106657825D01*
X139496711Y-106665115D01*
X139433016Y-106701810D01*
X139338853Y-106774997D01*
X139238129Y-106859979D01*
X139123289Y-106960181D01*
X139032489Y-107043074D01*
X138977885Y-107097360D01*
X138967550Y-107111522D01*
X138834573Y-107111522D01*
X138789621Y-107077840D01*
X138469781Y-106768260D01*
X138456586Y-106755488D01*
X138424520Y-106715306D01*
X138521209Y-106715306D01*
X138678041Y-106875106D01*
X138766831Y-106959442D01*
X138839311Y-107017351D01*
X138874580Y-107034907D01*
X138918057Y-107012749D01*
X138998874Y-106954718D01*
X139101939Y-106873478D01*
X139212159Y-106781691D01*
X139314443Y-106692023D01*
X139393698Y-106617136D01*
X139434830Y-106569694D01*
X139437482Y-106562591D01*
X139408868Y-106525758D01*
X139387392Y-106514734D01*
X139336715Y-106526052D01*
X139245688Y-106573004D01*
X139131212Y-106646456D01*
X139091976Y-106674366D01*
X138975734Y-106756518D01*
X138880869Y-106818777D01*
X138823173Y-106850945D01*
X138815027Y-106853219D01*
X138782646Y-106837987D01*
X138811037Y-106791509D01*
X138901278Y-106712611D01*
X139034947Y-106613849D01*
X139162094Y-106519424D01*
X139233349Y-106453870D01*
X139255792Y-106409779D01*
X139248524Y-106390239D01*
X139220338Y-106361771D01*
X139187401Y-106351395D01*
X139137237Y-106363325D01*
X139057370Y-106401777D01*
X138935325Y-106470963D01*
X138835110Y-106529899D01*
X138521209Y-106715306D01*
X138424520Y-106715306D01*
X138164971Y-106390065D01*
X138104865Y-106290315D01*
X138070956Y-106234040D01*
X138191783Y-106234040D01*
X138197657Y-106272452D01*
X138237123Y-106347503D01*
X138297006Y-106440207D01*
X138364128Y-106531576D01*
X138425314Y-106602624D01*
X138467386Y-106634361D01*
X138469781Y-106634641D01*
X138516606Y-106616386D01*
X138614699Y-106564764D01*
X138754013Y-106485423D01*
X138924503Y-106384014D01*
X139029841Y-106319697D01*
X139084692Y-106265165D01*
X139081320Y-106218486D01*
X139022480Y-106199141D01*
X138967895Y-106213400D01*
X138868158Y-106250976D01*
X138743795Y-106304072D01*
X138730360Y-106310132D01*
X138602722Y-106362643D01*
X138495060Y-106397330D01*
X138428933Y-106407358D01*
X138425548Y-106406769D01*
X138416824Y-106392030D01*
X138456431Y-106361058D01*
X138549177Y-106311279D01*
X138699867Y-106240115D01*
X138913310Y-106144992D01*
X138917508Y-106143154D01*
X138971757Y-106108971D01*
X138964439Y-106065762D01*
X138950352Y-106045408D01*
X138924324Y-106018156D01*
X138888352Y-106007188D01*
X138828052Y-106014362D01*
X138729038Y-106041532D01*
X138576924Y-106090554D01*
X138561885Y-106095523D01*
X138413650Y-106146089D01*
X138291650Y-106190591D01*
X138212310Y-106222882D01*
X138191783Y-106234040D01*
X138070956Y-106234040D01*
X137920740Y-105984747D01*
X137815245Y-105740449D01*
X137903592Y-105740449D01*
X137923630Y-105814342D01*
X137981789Y-105940439D01*
X137983579Y-105943991D01*
X138040510Y-106053851D01*
X138084026Y-106132398D01*
X138104797Y-106162800D01*
X138104865Y-106162804D01*
X138140638Y-106152125D01*
X138227406Y-106124049D01*
X138347335Y-106084520D01*
X138482595Y-106039479D01*
X138615354Y-105994870D01*
X138727780Y-105956635D01*
X138802041Y-105930717D01*
X138810045Y-105927794D01*
X138833993Y-105889222D01*
X138826114Y-105832755D01*
X138793450Y-105800344D01*
X138788601Y-105800050D01*
X138744608Y-105808969D01*
X138649249Y-105832021D01*
X138521377Y-105864618D01*
X138492703Y-105872103D01*
X138352246Y-105906670D01*
X138232129Y-105932222D01*
X138155498Y-105943901D01*
X138149313Y-105944155D01*
X138097554Y-105936671D01*
X138109349Y-105914989D01*
X138177745Y-105882528D01*
X138295789Y-105842706D01*
X138432264Y-105805038D01*
X138591449Y-105762918D01*
X138689561Y-105731221D01*
X138736461Y-105704577D01*
X138742015Y-105677612D01*
X138719679Y-105648492D01*
X138676778Y-105630815D01*
X138590367Y-105627093D01*
X138450016Y-105637421D01*
X138322388Y-105652025D01*
X138165376Y-105672348D01*
X138033367Y-105690991D01*
X137944506Y-105705311D01*
X137919465Y-105710723D01*
X137917870Y-105713710D01*
X137903592Y-105740449D01*
X137815245Y-105740449D01*
X137729855Y-105542707D01*
X137650630Y-105288272D01*
X137626964Y-105167678D01*
X137708036Y-105167678D01*
X137710225Y-105181688D01*
X137728054Y-105247825D01*
X137754990Y-105353683D01*
X137769401Y-105411893D01*
X137803735Y-105517495D01*
X137843013Y-105589990D01*
X137862293Y-105606709D01*
X137917870Y-105610424D01*
X138027326Y-105605002D01*
X138172601Y-105591630D01*
X138275083Y-105579569D01*
X138442276Y-105556554D01*
X138549589Y-105536222D01*
X138609519Y-105514679D01*
X138634563Y-105488034D01*
X138638054Y-105466513D01*
X138631820Y-105436682D01*
X138604667Y-105417294D01*
X138543920Y-105406142D01*
X138436900Y-105401019D01*
X138270933Y-105399719D01*
X138254364Y-105399714D01*
X138070083Y-105396499D01*
X137948921Y-105387110D01*
X137894705Y-105371932D01*
X137893133Y-105363376D01*
X137937240Y-105347214D01*
X138036205Y-105334748D01*
X138172232Y-105327839D01*
X138240485Y-105327038D01*
X138395258Y-105325809D01*
X138491245Y-105320051D01*
X138542322Y-105306662D01*
X138562364Y-105282537D01*
X138565379Y-105254363D01*
X138544967Y-105198197D01*
X138473004Y-105178599D01*
X138465450Y-105178274D01*
X138388161Y-105174368D01*
X138384783Y-105174197D01*
X138254559Y-105166217D01*
X138097701Y-105155770D01*
X138029822Y-105151021D01*
X137871436Y-105141224D01*
X137773146Y-105139953D01*
X137722748Y-105148381D01*
X137708036Y-105167678D01*
X137626964Y-105167678D01*
X137596729Y-105013608D01*
X137567354Y-104694830D01*
X137565747Y-104583231D01*
X137626995Y-104583231D01*
X137632004Y-104676761D01*
X137644343Y-104786950D01*
X137663002Y-104911247D01*
X137684213Y-104981839D01*
X137719473Y-105017146D01*
X137780278Y-105035585D01*
X137802289Y-105040007D01*
X137899987Y-105053924D01*
X138042353Y-105067956D01*
X138201431Y-105079422D01*
X138229256Y-105080983D01*
X138388161Y-105086178D01*
X138483880Y-105078822D01*
X138525324Y-105055504D01*
X138521406Y-105012811D01*
X138507232Y-104987549D01*
X138501231Y-104976853D01*
X138455526Y-104953991D01*
X138355184Y-104927068D01*
X138217765Y-104900376D01*
X138138412Y-104888143D01*
X137959443Y-104858502D01*
X137849247Y-104829374D01*
X137803939Y-104799654D01*
X137802289Y-104792500D01*
X137830812Y-104759322D01*
X137884048Y-104762780D01*
X137958603Y-104777207D01*
X138073097Y-104796816D01*
X138204416Y-104817963D01*
X138329444Y-104837007D01*
X138425066Y-104850308D01*
X138465450Y-104854375D01*
X138493769Y-104831919D01*
X138484874Y-104783836D01*
X138471145Y-104767810D01*
X138447798Y-104740556D01*
X138429113Y-104731959D01*
X138245215Y-104679996D01*
X138063408Y-104631673D01*
X137897426Y-104590292D01*
X137761005Y-104559158D01*
X137667879Y-104541573D01*
X137632120Y-104540316D01*
X137626995Y-104583231D01*
X137565747Y-104583231D01*
X137563685Y-104439963D01*
X137620600Y-104439963D01*
X138029399Y-104538961D01*
X138217790Y-104584485D01*
X138346705Y-104614109D01*
X138427404Y-104628606D01*
X138471145Y-104628749D01*
X138489189Y-104615312D01*
X138492796Y-104589068D01*
X138492703Y-104570784D01*
X138476882Y-104533852D01*
X138422278Y-104496615D01*
X138393430Y-104484706D01*
X138574320Y-104484706D01*
X138586979Y-104879687D01*
X138666808Y-105263101D01*
X138808436Y-105627818D01*
X139006492Y-105966706D01*
X139255606Y-106272636D01*
X139550408Y-106538477D01*
X139885527Y-106757099D01*
X140255592Y-106921370D01*
X140454935Y-106981638D01*
X140681648Y-107021252D01*
X140949163Y-107039109D01*
X141228930Y-107035171D01*
X141492398Y-107009403D01*
X141631999Y-106983162D01*
X141768579Y-106944642D01*
X141921802Y-106891094D01*
X142078353Y-106828596D01*
X142224915Y-106763224D01*
X142331393Y-106709516D01*
X142506993Y-106709516D01*
X142514715Y-106756007D01*
X142559198Y-106838362D01*
X142628741Y-106941569D01*
X142711643Y-107050618D01*
X142796205Y-107150495D01*
X142870727Y-107226189D01*
X142923509Y-107262689D01*
X142937571Y-107261965D01*
X143067795Y-107163357D01*
X143177993Y-107076920D01*
X143255811Y-107012592D01*
X143288892Y-106980309D01*
X143289270Y-106979107D01*
X143263358Y-106951505D01*
X143193796Y-106888427D01*
X143092848Y-106800825D01*
X143028850Y-106746544D01*
X142899935Y-106641683D01*
X142812593Y-106581072D01*
X142756041Y-106558558D01*
X142719493Y-106567990D01*
X142717991Y-106569195D01*
X142701901Y-106598559D01*
X142718590Y-106643601D01*
X142774920Y-106714919D01*
X142877754Y-106823109D01*
X142891232Y-106836741D01*
X142987191Y-106939331D01*
X143054451Y-107022626D01*
X143083275Y-107073988D01*
X143081157Y-107083287D01*
X143042029Y-107068827D01*
X142967087Y-107012174D01*
X142870145Y-106924225D01*
X142833351Y-106887839D01*
X142707932Y-106766898D01*
X142619436Y-106697597D01*
X142559031Y-106675113D01*
X142517888Y-106694621D01*
X142506993Y-106709516D01*
X142331393Y-106709516D01*
X142348173Y-106701052D01*
X142434811Y-106648158D01*
X142471512Y-106610617D01*
X142469143Y-106601178D01*
X142404010Y-106565527D01*
X142380829Y-106559727D01*
X142322685Y-106570308D01*
X142221236Y-106606502D01*
X142097784Y-106660644D01*
X142090128Y-106664302D01*
X141794588Y-106785328D01*
X141690693Y-106811080D01*
X141502806Y-106857651D01*
X141496793Y-106858222D01*
X141206184Y-106885800D01*
X141185420Y-106887770D01*
X141072675Y-106889556D01*
X140925507Y-106883156D01*
X140784032Y-106877003D01*
X140673546Y-106858928D01*
X140526832Y-106834926D01*
X140434270Y-106806363D01*
X140409343Y-106798671D01*
X140833875Y-106798671D01*
X140842552Y-106810383D01*
X140916216Y-106814233D01*
X140925507Y-106814422D01*
X141004998Y-106810548D01*
X141021575Y-106791578D01*
X141008453Y-106774462D01*
X140952261Y-106750441D01*
X140883088Y-106772002D01*
X140833875Y-106798671D01*
X140409343Y-106798671D01*
X140273324Y-106756698D01*
X139995758Y-106635696D01*
X139982546Y-106629280D01*
X139811307Y-106538379D01*
X139741119Y-106491480D01*
X139673534Y-106446320D01*
X139789094Y-106446320D01*
X139983160Y-106544660D01*
X140121076Y-106610614D01*
X140252484Y-106666744D01*
X140362008Y-106707268D01*
X140434270Y-106726405D01*
X140454935Y-106722036D01*
X140439731Y-106678436D01*
X140417319Y-106632804D01*
X140383940Y-106601344D01*
X140504602Y-106601344D01*
X140527128Y-106670365D01*
X140588133Y-106757265D01*
X140673546Y-106777335D01*
X140786729Y-106731209D01*
X140801109Y-106722062D01*
X140864052Y-106664095D01*
X140862949Y-106627579D01*
X140805510Y-106626864D01*
X140759137Y-106643932D01*
X140733736Y-106651829D01*
X140687098Y-106666329D01*
X140635804Y-106641272D01*
X140599401Y-106597682D01*
X140557941Y-106556679D01*
X140909155Y-106556679D01*
X141044888Y-106686780D01*
X141142445Y-106771862D01*
X141206184Y-106810531D01*
X141230434Y-106801637D01*
X141209525Y-106744027D01*
X141193523Y-106716953D01*
X141168662Y-106676751D01*
X141260433Y-106676751D01*
X141307030Y-106742172D01*
X141307991Y-106743235D01*
X141385142Y-106785510D01*
X141496793Y-106786712D01*
X141631967Y-106770931D01*
X141548152Y-106703062D01*
X141529429Y-106693414D01*
X141449028Y-106651983D01*
X141372430Y-106637642D01*
X141654077Y-106637642D01*
X141660547Y-106713403D01*
X141690693Y-106733922D01*
X141735836Y-106724133D01*
X141858437Y-106680310D01*
X141996540Y-106621214D01*
X142133962Y-106555115D01*
X142254521Y-106490283D01*
X142342032Y-106434991D01*
X142380312Y-106397508D01*
X142380829Y-106394498D01*
X142359607Y-106358055D01*
X142304661Y-106283882D01*
X142246525Y-106210991D01*
X142169888Y-106121125D01*
X142122827Y-106081149D01*
X142090890Y-106083134D01*
X142065129Y-106111493D01*
X142037319Y-106172468D01*
X142066918Y-106229736D01*
X142073891Y-106237613D01*
X142118512Y-106319966D01*
X142137190Y-106403671D01*
X142140447Y-106453480D01*
X142132633Y-106485003D01*
X142100328Y-106503032D01*
X142030115Y-106512358D01*
X141957315Y-106515602D01*
X141908574Y-106517774D01*
X141808512Y-106521036D01*
X141711554Y-106528100D01*
X141671031Y-106548783D01*
X141667002Y-106550839D01*
X141654586Y-106604558D01*
X141654077Y-106637642D01*
X141372430Y-106637642D01*
X141359350Y-106635193D01*
X141276449Y-106644085D01*
X141260433Y-106676751D01*
X141168662Y-106676751D01*
X141150160Y-106646831D01*
X141129270Y-106611480D01*
X141129020Y-106610893D01*
X141096481Y-106599737D01*
X141020680Y-106581293D01*
X141018094Y-106580721D01*
X140909155Y-106556679D01*
X140557941Y-106556679D01*
X140539589Y-106538530D01*
X140505514Y-106542241D01*
X140504602Y-106601344D01*
X140383940Y-106601344D01*
X140362728Y-106581352D01*
X140354309Y-106579813D01*
X140261778Y-106562902D01*
X140237775Y-106562518D01*
X140124440Y-106552198D01*
X140078945Y-106523614D01*
X140096606Y-106491586D01*
X140636623Y-106491586D01*
X140666315Y-106539468D01*
X140733736Y-106555018D01*
X140769638Y-106547139D01*
X140806286Y-106517808D01*
X140783410Y-106473404D01*
X140722665Y-106438803D01*
X140688473Y-106441384D01*
X140642091Y-106475982D01*
X140636623Y-106491586D01*
X140096606Y-106491586D01*
X140102816Y-106480325D01*
X140111102Y-106475386D01*
X140315798Y-106475386D01*
X140336689Y-106489062D01*
X140354309Y-106489842D01*
X140433975Y-106474588D01*
X140536312Y-106437146D01*
X140552040Y-106429929D01*
X140678298Y-106370016D01*
X140605618Y-106297336D01*
X140532937Y-106224656D01*
X140407886Y-106357249D01*
X140337927Y-106435417D01*
X140315798Y-106475386D01*
X140111102Y-106475386D01*
X140182275Y-106432961D01*
X140281476Y-106369484D01*
X140367230Y-106286895D01*
X140424906Y-106203109D01*
X140439874Y-106136040D01*
X140434968Y-106123556D01*
X140395189Y-106120228D01*
X140327753Y-106167235D01*
X140320703Y-106172149D01*
X140289768Y-106200738D01*
X140181631Y-106282272D01*
X140044713Y-106355940D01*
X139985190Y-106379579D01*
X139979113Y-106381992D01*
X139789094Y-106446320D01*
X139673534Y-106446320D01*
X139665120Y-106440698D01*
X139571364Y-106361767D01*
X139532521Y-106329066D01*
X139673170Y-106329066D01*
X139697071Y-106343266D01*
X139741119Y-106344492D01*
X139839629Y-106319065D01*
X139848012Y-106310701D01*
X139985190Y-106310701D01*
X140090565Y-106248455D01*
X140172530Y-106177130D01*
X140221838Y-106092913D01*
X140221884Y-106092747D01*
X140228619Y-106048154D01*
X140327753Y-106048154D01*
X140375023Y-105973594D01*
X140474046Y-105973594D01*
X140489054Y-106033158D01*
X140564156Y-106131835D01*
X140668356Y-106239602D01*
X140827981Y-106376334D01*
X140990385Y-106470762D01*
X141178176Y-106532853D01*
X141413958Y-106572576D01*
X141426967Y-106574102D01*
X141529429Y-106583453D01*
X141572342Y-106573831D01*
X141568182Y-106535984D01*
X141543785Y-106487454D01*
X141486991Y-106434996D01*
X141382110Y-106417298D01*
X141376080Y-106417240D01*
X141368570Y-106417167D01*
X141352188Y-106414744D01*
X141602528Y-106414744D01*
X141608617Y-106422580D01*
X141671031Y-106439696D01*
X141750645Y-106397485D01*
X141883833Y-106397485D01*
X141899837Y-106415264D01*
X141957315Y-106417167D01*
X142029118Y-106396318D01*
X142057526Y-106349117D01*
X142030492Y-106298581D01*
X142022309Y-106292987D01*
X141977780Y-106302136D01*
X141925833Y-106345349D01*
X141883833Y-106397485D01*
X141750645Y-106397485D01*
X141753601Y-106395918D01*
X141847963Y-106297197D01*
X141910879Y-106207612D01*
X141982221Y-106086561D01*
X142011908Y-106006592D01*
X142003069Y-105951553D01*
X141967985Y-105912622D01*
X141932568Y-105900610D01*
X141898749Y-105937337D01*
X141856645Y-106033580D01*
X141856362Y-106034321D01*
X141792988Y-106156590D01*
X141709842Y-106265112D01*
X141682583Y-106290999D01*
X141610785Y-106365059D01*
X141602528Y-106414744D01*
X141352188Y-106414744D01*
X141126490Y-106381361D01*
X140895343Y-106275707D01*
X140684506Y-106106414D01*
X140582415Y-106009297D01*
X140518296Y-105962264D01*
X140483360Y-105959768D01*
X140474046Y-105973594D01*
X140375023Y-105973594D01*
X140400429Y-105933521D01*
X140432172Y-105871736D01*
X140449478Y-105812278D01*
X140575829Y-105812278D01*
X140595265Y-105879315D01*
X140657412Y-105967655D01*
X140663251Y-105974942D01*
X140830421Y-106143392D01*
X141011712Y-106258790D01*
X141196980Y-106320565D01*
X141376080Y-106328145D01*
X141538868Y-106280959D01*
X141675199Y-106178435D01*
X141767454Y-106037145D01*
X141818702Y-105907980D01*
X141829738Y-105822657D01*
X141800106Y-105764182D01*
X141759287Y-105732811D01*
X141711209Y-105710445D01*
X141707364Y-105724780D01*
X141714468Y-105793809D01*
X141687329Y-105894075D01*
X141635996Y-105999193D01*
X141571263Y-106082091D01*
X141429996Y-106169341D01*
X141270493Y-106194473D01*
X141193301Y-106179146D01*
X141104584Y-106161531D01*
X140944100Y-106074561D01*
X140800873Y-105937608D01*
X140701422Y-105784699D01*
X140625151Y-105635908D01*
X140590551Y-105738748D01*
X140582117Y-105780872D01*
X140575829Y-105812278D01*
X140449478Y-105812278D01*
X140455013Y-105793260D01*
X140471191Y-105683610D01*
X140482945Y-105528304D01*
X140491273Y-105345853D01*
X140497259Y-105129177D01*
X140497141Y-105118235D01*
X140569841Y-105118235D01*
X140571366Y-105243837D01*
X140582117Y-105488174D01*
X140585432Y-105479800D01*
X140686671Y-105479800D01*
X140690271Y-105555386D01*
X140723988Y-105645544D01*
X140756366Y-105711294D01*
X140884126Y-105909471D01*
X141031105Y-106043168D01*
X141193301Y-106109711D01*
X141352339Y-106109357D01*
X141482368Y-106052849D01*
X141571215Y-105951265D01*
X141613557Y-105822740D01*
X141604068Y-105685413D01*
X141537423Y-105557420D01*
X141520097Y-105537968D01*
X141403965Y-105454575D01*
X141306971Y-105436051D01*
X141195501Y-105458923D01*
X141092186Y-105516647D01*
X141019973Y-105592889D01*
X141000000Y-105654570D01*
X141016826Y-105727587D01*
X141059951Y-105736704D01*
X141118343Y-105680378D01*
X141124044Y-105671934D01*
X141205636Y-105599544D01*
X141304666Y-105579712D01*
X141400797Y-105605826D01*
X141473692Y-105671279D01*
X141503013Y-105769459D01*
X141501615Y-105794643D01*
X141459038Y-105892964D01*
X141369950Y-105948953D01*
X141275150Y-105954097D01*
X141251476Y-105955381D01*
X141174270Y-105932808D01*
X141055629Y-105866057D01*
X141018889Y-105827662D01*
X141150341Y-105827662D01*
X141179196Y-105869282D01*
X141269840Y-105881171D01*
X141275150Y-105881187D01*
X141371642Y-105859135D01*
X141423127Y-105804273D01*
X141418776Y-105733540D01*
X141392446Y-105697682D01*
X141309741Y-105656030D01*
X141227598Y-105678729D01*
X141175006Y-105745075D01*
X141150341Y-105827662D01*
X141018889Y-105827662D01*
X140964290Y-105770603D01*
X140932808Y-105712666D01*
X140888230Y-105630629D01*
X140883197Y-105617265D01*
X140832902Y-105483722D01*
X140826563Y-105464887D01*
X140906794Y-105464887D01*
X140907635Y-105467599D01*
X140932808Y-105546911D01*
X141041867Y-105455143D01*
X141126210Y-105395562D01*
X141196461Y-105364607D01*
X141207094Y-105363376D01*
X141243370Y-105353599D01*
X141221665Y-105313300D01*
X141218025Y-105308870D01*
X141151367Y-105262876D01*
X141113647Y-105255171D01*
X141042926Y-105276898D01*
X140968484Y-105322133D01*
X140907465Y-105390139D01*
X140906794Y-105464887D01*
X140826563Y-105464887D01*
X140751927Y-105243105D01*
X140708602Y-105387710D01*
X140686671Y-105479800D01*
X140585432Y-105479800D01*
X140675148Y-105253171D01*
X140703831Y-105180717D01*
X140854649Y-105180717D01*
X140859345Y-105254621D01*
X140883197Y-105269132D01*
X140927324Y-105245930D01*
X140983908Y-105200743D01*
X141000000Y-105174226D01*
X140971901Y-105138438D01*
X140927324Y-105109013D01*
X140876776Y-105090041D01*
X140857392Y-105118510D01*
X140854649Y-105180717D01*
X140703831Y-105180717D01*
X140768180Y-105018169D01*
X140693516Y-104956804D01*
X140635015Y-104917667D01*
X140601632Y-104929150D01*
X140589734Y-104947470D01*
X140576352Y-105008800D01*
X140569841Y-105118235D01*
X140497141Y-105118235D01*
X140495605Y-104975931D01*
X140485855Y-104877224D01*
X140467553Y-104824164D01*
X140464279Y-104819869D01*
X140411079Y-104788981D01*
X140385312Y-104801700D01*
X140373367Y-104848070D01*
X140361807Y-104954271D01*
X140351549Y-105107459D01*
X140343508Y-105294791D01*
X140339630Y-105442318D01*
X140327753Y-106048154D01*
X140228619Y-106048154D01*
X140231954Y-106026071D01*
X140243311Y-105901046D01*
X140254936Y-105731959D01*
X140265812Y-105533099D01*
X140272526Y-105381545D01*
X140281006Y-105176827D01*
X140288972Y-104998051D01*
X140295827Y-104857591D01*
X140300974Y-104767819D01*
X140303404Y-104741001D01*
X140284627Y-104701791D01*
X140258313Y-104675646D01*
X140223469Y-104655424D01*
X140196212Y-104664533D01*
X140175178Y-104710297D01*
X140159003Y-104800042D01*
X140146321Y-104941095D01*
X140135767Y-105140782D01*
X140126798Y-105381545D01*
X140116122Y-105646643D01*
X140103370Y-105849018D01*
X140087513Y-105998612D01*
X140067526Y-106105371D01*
X140045108Y-106173162D01*
X139985190Y-106310701D01*
X139848012Y-106310701D01*
X139918461Y-106240409D01*
X139978696Y-106104963D01*
X140021416Y-105909165D01*
X140047701Y-105649453D01*
X140058634Y-105322265D01*
X140058843Y-105297997D01*
X140062261Y-105107260D01*
X140069063Y-104936071D01*
X140078332Y-104800966D01*
X140089147Y-104718482D01*
X140091559Y-104709299D01*
X140119315Y-104613493D01*
X140122571Y-104570531D01*
X140112700Y-104563948D01*
X140069793Y-104552701D01*
X140044663Y-104543672D01*
X140014097Y-104542079D01*
X139989492Y-104568376D01*
X139969655Y-104630101D01*
X139953392Y-104734793D01*
X139939510Y-104889988D01*
X139926816Y-105103225D01*
X139914898Y-105363376D01*
X139902053Y-105624140D01*
X139886611Y-105823872D01*
X139865966Y-105974219D01*
X139854215Y-106020724D01*
X139837513Y-106086823D01*
X139798645Y-106173330D01*
X139746754Y-106245384D01*
X139708265Y-106286543D01*
X139673170Y-106329066D01*
X139532521Y-106329066D01*
X139519608Y-106318195D01*
X139431508Y-106232822D01*
X139395030Y-106197473D01*
X139503981Y-106197473D01*
X139528891Y-106233432D01*
X139571364Y-106262048D01*
X139617814Y-106246889D01*
X139676330Y-106197095D01*
X139771325Y-106108297D01*
X139653636Y-106096517D01*
X139557057Y-106102215D01*
X139545211Y-106109351D01*
X139506197Y-106132855D01*
X139503981Y-106197473D01*
X139395030Y-106197473D01*
X139381648Y-106184505D01*
X139193760Y-105966619D01*
X139179053Y-105949564D01*
X139244063Y-105949564D01*
X139340772Y-106046274D01*
X139403593Y-106104186D01*
X139431508Y-106111469D01*
X139437482Y-106076743D01*
X139451966Y-106022154D01*
X139545211Y-106022154D01*
X139662522Y-106010719D01*
X139754384Y-105986058D01*
X139799802Y-105924782D01*
X139804892Y-105908440D01*
X139818048Y-105828550D01*
X139827178Y-105711091D01*
X139832142Y-105574898D01*
X139832803Y-105438809D01*
X139829024Y-105321658D01*
X139820665Y-105242283D01*
X139809942Y-105218582D01*
X139754108Y-105240977D01*
X139720883Y-105311926D01*
X139706553Y-105441263D01*
X139705360Y-105495503D01*
X139684908Y-105702252D01*
X139624354Y-105870314D01*
X139545211Y-106022154D01*
X139451966Y-106022154D01*
X139457596Y-106000935D01*
X139504976Y-105914050D01*
X139562179Y-105824795D01*
X139595116Y-105744178D01*
X139610775Y-105645675D01*
X139616145Y-105502764D01*
X139616301Y-105491557D01*
X139616975Y-105372697D01*
X139611826Y-105316429D01*
X139596182Y-105312679D01*
X139565372Y-105351373D01*
X139556898Y-105363435D01*
X139509999Y-105446225D01*
X139490439Y-105507787D01*
X139482990Y-105594715D01*
X139480035Y-105625559D01*
X139453409Y-105688894D01*
X139393243Y-105777168D01*
X139358941Y-105818725D01*
X139244063Y-105949564D01*
X139179053Y-105949564D01*
X139116981Y-105877582D01*
X138921497Y-105556676D01*
X138913807Y-105536320D01*
X139009200Y-105536320D01*
X139020870Y-105582172D01*
X139071503Y-105676120D01*
X139097595Y-105720941D01*
X139193760Y-105885034D01*
X139297452Y-105768982D01*
X139362635Y-105680098D01*
X139398648Y-105600037D01*
X139401144Y-105581728D01*
X139392135Y-105534328D01*
X139351242Y-105531404D01*
X139304188Y-105547388D01*
X139210958Y-105557876D01*
X139164261Y-105563129D01*
X139104331Y-105548379D01*
X139036888Y-105528432D01*
X139009200Y-105536320D01*
X138913807Y-105536320D01*
X138791945Y-105213752D01*
X138786322Y-105182390D01*
X138877732Y-105182390D01*
X138893791Y-105279021D01*
X138966398Y-105390502D01*
X139078425Y-105455620D01*
X139210958Y-105471360D01*
X139345081Y-105434706D01*
X139440277Y-105366171D01*
X139505421Y-105279441D01*
X139541594Y-105188995D01*
X139545067Y-105114290D01*
X139512112Y-105074783D01*
X139496530Y-105072675D01*
X139455222Y-105104199D01*
X139425066Y-105180214D01*
X139424683Y-105182090D01*
X139372503Y-105290599D01*
X139278143Y-105346140D01*
X139218713Y-105344336D01*
X139155146Y-105342406D01*
X139112080Y-105327717D01*
X139023426Y-105273165D01*
X139006281Y-105211105D01*
X139045035Y-105152618D01*
X139064988Y-105118537D01*
X139020431Y-105109556D01*
X139017782Y-105109569D01*
X138917244Y-105127239D01*
X138877732Y-105182390D01*
X138786322Y-105182390D01*
X138728833Y-104861724D01*
X138809786Y-104861724D01*
X138812845Y-104909156D01*
X138827693Y-105036337D01*
X139048077Y-105036337D01*
X139268462Y-105036337D01*
X139181320Y-105129095D01*
X139127212Y-105195582D01*
X139123821Y-105234573D01*
X139145775Y-105253742D01*
X139218713Y-105267664D01*
X139289909Y-105238202D01*
X139338961Y-105182756D01*
X139345468Y-105118724D01*
X139331912Y-105094993D01*
X139309422Y-105042555D01*
X139350345Y-105011677D01*
X139458065Y-105000186D01*
X139479876Y-105000000D01*
X139571021Y-105005479D01*
X139610534Y-105030940D01*
X139619169Y-105089919D01*
X139619170Y-105090844D01*
X139631776Y-105159131D01*
X139656000Y-105181688D01*
X139737302Y-105155908D01*
X139804250Y-105095370D01*
X139829791Y-105025278D01*
X139829273Y-105020269D01*
X139807345Y-104978189D01*
X139770652Y-104956161D01*
X139746476Y-104941647D01*
X139633565Y-104904149D01*
X139551113Y-104882413D01*
X139412023Y-104849305D01*
X139324490Y-104835447D01*
X139270163Y-104840215D01*
X139230694Y-104862989D01*
X139221213Y-104871228D01*
X139126076Y-104919647D01*
X139021261Y-104920450D01*
X138936427Y-104875270D01*
X138920322Y-104854649D01*
X138863895Y-104790085D01*
X138824519Y-104793727D01*
X138809786Y-104861724D01*
X138728833Y-104861724D01*
X138725077Y-104840776D01*
X138715934Y-104584205D01*
X138790922Y-104584205D01*
X138811092Y-104654647D01*
X138866723Y-104699023D01*
X138940186Y-104700527D01*
X138993557Y-104666299D01*
X139042130Y-104636882D01*
X139061838Y-104657703D01*
X139046181Y-104709852D01*
X139020486Y-104744656D01*
X138977819Y-104798964D01*
X138985840Y-104826264D01*
X139014653Y-104839611D01*
X139085980Y-104848986D01*
X139147122Y-104831796D01*
X139171225Y-104797733D01*
X139166660Y-104784742D01*
X139160325Y-104745160D01*
X139209554Y-104732381D01*
X139318449Y-104746383D01*
X139476314Y-104783280D01*
X139655380Y-104827658D01*
X139770652Y-104849061D01*
X139827844Y-104845731D01*
X139832672Y-104815905D01*
X139790849Y-104757824D01*
X139739553Y-104702203D01*
X139646031Y-104631340D01*
X139552488Y-104602385D01*
X139478663Y-104618577D01*
X139450622Y-104654792D01*
X139425733Y-104687099D01*
X139413150Y-104703433D01*
X139376247Y-104697864D01*
X139364806Y-104657320D01*
X139333874Y-104612287D01*
X139283047Y-104593729D01*
X139216301Y-104560105D01*
X139200865Y-104519921D01*
X139185908Y-104467031D01*
X139298551Y-104467031D01*
X139305644Y-104507346D01*
X139358507Y-104524364D01*
X139425733Y-104526402D01*
X139564663Y-104525193D01*
X139477403Y-104452532D01*
X139404446Y-104405305D01*
X139350603Y-104393039D01*
X139350221Y-104393161D01*
X139309181Y-104436193D01*
X139298551Y-104467031D01*
X139185908Y-104467031D01*
X139179152Y-104443142D01*
X139161520Y-104418802D01*
X139097918Y-104394402D01*
X139036710Y-104424427D01*
X139002768Y-104494192D01*
X139001430Y-104513330D01*
X138984617Y-104584889D01*
X138946055Y-104593572D01*
X138903562Y-104537461D01*
X138898347Y-104524416D01*
X138871694Y-104472945D01*
X138840124Y-104485953D01*
X138826875Y-104501046D01*
X138823840Y-104504504D01*
X138790922Y-104584205D01*
X138715934Y-104584205D01*
X138714148Y-104534099D01*
X138712950Y-104387175D01*
X138795326Y-104387175D01*
X138826875Y-104398075D01*
X138891174Y-104382617D01*
X138978852Y-104354035D01*
X139033173Y-104330594D01*
X139051417Y-104282364D01*
X139039942Y-104201460D01*
X139004325Y-104118739D01*
X138991569Y-104100447D01*
X138973996Y-104037393D01*
X138974519Y-103994438D01*
X139041753Y-103994438D01*
X139043742Y-104005940D01*
X139086493Y-104062209D01*
X139174331Y-104084777D01*
X139255387Y-104103880D01*
X139291092Y-104132495D01*
X139273659Y-104156916D01*
X139219456Y-104164234D01*
X139158897Y-104189751D01*
X139146781Y-104238050D01*
X139174214Y-104311419D01*
X139238857Y-104338039D01*
X139309482Y-104310264D01*
X139364964Y-104294415D01*
X139443439Y-104325867D01*
X139551060Y-104408494D01*
X139693981Y-104546169D01*
X139709439Y-104562067D01*
X139854215Y-104711624D01*
X139894606Y-104592364D01*
X139915767Y-104513460D01*
X139902295Y-104462198D01*
X139842554Y-104410285D01*
X139810595Y-104388115D01*
X139693598Y-104328561D01*
X139593446Y-104326403D01*
X139528038Y-104335630D01*
X139513579Y-104307157D01*
X139519967Y-104275997D01*
X139517219Y-104226757D01*
X139476884Y-104169346D01*
X139389241Y-104092312D01*
X139317762Y-104037733D01*
X139182186Y-103946337D01*
X139092613Y-103908843D01*
X139046611Y-103924971D01*
X139041753Y-103994438D01*
X138974519Y-103994438D01*
X138975203Y-103938279D01*
X138978727Y-103911867D01*
X138985309Y-103816356D01*
X138973490Y-103754865D01*
X138966867Y-103747449D01*
X138936905Y-103765443D01*
X138902240Y-103844857D01*
X138866558Y-103974923D01*
X138836030Y-104129877D01*
X138816618Y-104240887D01*
X138799283Y-104333502D01*
X138799119Y-104334319D01*
X138795326Y-104387175D01*
X138712950Y-104387175D01*
X138712711Y-104357874D01*
X138702214Y-104229486D01*
X138683681Y-104160204D01*
X138679668Y-104154976D01*
X138643505Y-104130754D01*
X138617300Y-104147670D01*
X138598400Y-104214021D01*
X138584156Y-104338105D01*
X138574320Y-104484706D01*
X138393430Y-104484706D01*
X138318179Y-104453641D01*
X138156580Y-104400340D01*
X137976043Y-104342474D01*
X137857634Y-104299692D01*
X137793311Y-104268163D01*
X137775033Y-104244054D01*
X137790621Y-104225952D01*
X137836614Y-104228150D01*
X137934465Y-104249873D01*
X138067295Y-104287047D01*
X138148079Y-104312257D01*
X138290377Y-104357900D01*
X138403900Y-104393695D01*
X138472874Y-104414700D01*
X138486146Y-104418160D01*
X138490811Y-104388170D01*
X138486146Y-104340187D01*
X138466647Y-104299072D01*
X138413717Y-104254584D01*
X138317286Y-104200625D01*
X138167283Y-104131094D01*
X138074821Y-104091048D01*
X137675107Y-103920320D01*
X137650547Y-104069530D01*
X137633608Y-104196206D01*
X137623842Y-104313941D01*
X137623294Y-104329352D01*
X137620600Y-104439963D01*
X137563685Y-104439963D01*
X137562479Y-104356225D01*
X137582079Y-104022083D01*
X137619066Y-103765661D01*
X137700043Y-103765661D01*
X137716355Y-103827528D01*
X137766187Y-103869334D01*
X137811373Y-103890646D01*
X137899364Y-103927983D01*
X138030268Y-103983851D01*
X138180233Y-104048066D01*
X138229256Y-104069102D01*
X138371411Y-104128954D01*
X138459876Y-104161407D01*
X138507232Y-104168889D01*
X138526062Y-104153830D01*
X138529041Y-104126975D01*
X138506948Y-104076855D01*
X138435005Y-104017872D01*
X138304715Y-103943458D01*
X138266140Y-103923741D01*
X138079979Y-103827613D01*
X137953686Y-103756217D01*
X137880542Y-103705171D01*
X137853825Y-103670097D01*
X137856147Y-103656556D01*
X137893153Y-103660974D01*
X137980263Y-103694099D01*
X138103610Y-103750154D01*
X138219628Y-103807921D01*
X138372648Y-103886273D01*
X138473474Y-103934448D01*
X138534499Y-103955587D01*
X138568116Y-103952830D01*
X138586719Y-103929318D01*
X138596948Y-103903536D01*
X138604910Y-103866663D01*
X138593059Y-103830896D01*
X138552305Y-103788192D01*
X138473558Y-103730510D01*
X138347724Y-103649806D01*
X138224071Y-103573666D01*
X137820457Y-103326886D01*
X137759086Y-103518450D01*
X137715028Y-103667910D01*
X137700043Y-103765661D01*
X137619066Y-103765661D01*
X137626129Y-103716691D01*
X137652390Y-103601001D01*
X137692261Y-103454574D01*
X137728558Y-103335139D01*
X137755803Y-103260126D01*
X137764339Y-103244706D01*
X137803378Y-103252158D01*
X137892494Y-103292257D01*
X138020137Y-103359131D01*
X138174758Y-103446903D01*
X138251244Y-103492367D01*
X138710729Y-103769283D01*
X138710729Y-103937689D01*
X138717344Y-104038456D01*
X138735691Y-104069517D01*
X138763525Y-104032486D01*
X138798601Y-103928976D01*
X138815906Y-103862141D01*
X138858288Y-103687229D01*
X138639158Y-103448087D01*
X138541699Y-103338933D01*
X138466523Y-103249418D01*
X138448076Y-103224509D01*
X138560262Y-103224509D01*
X138590938Y-103271069D01*
X138661407Y-103348654D01*
X138777658Y-103465886D01*
X138804574Y-103492521D01*
X138916206Y-103599079D01*
X139036326Y-103705385D01*
X139171719Y-103816384D01*
X139329169Y-103937020D01*
X139515460Y-104072236D01*
X139737378Y-104226975D01*
X140001707Y-104406183D01*
X140315232Y-104614802D01*
X140619789Y-104815217D01*
X141021328Y-105084209D01*
X141364245Y-105326784D01*
X141655292Y-105548265D01*
X141901225Y-105753979D01*
X142108796Y-105949250D01*
X142252887Y-106102788D01*
X142350446Y-106207503D01*
X142431809Y-106284313D01*
X142484446Y-106321834D01*
X142495242Y-106322986D01*
X142519174Y-106301702D01*
X142518022Y-106269685D01*
X142485969Y-106210657D01*
X142419965Y-106112365D01*
X142349843Y-106024201D01*
X142241681Y-105904260D01*
X142111309Y-105769547D01*
X141998348Y-105659432D01*
X141916875Y-105583967D01*
X141832899Y-105510400D01*
X141740515Y-105434579D01*
X141633819Y-105352352D01*
X141506909Y-105259568D01*
X141353882Y-105152073D01*
X141168833Y-105025718D01*
X140945859Y-104876349D01*
X140679058Y-104699815D01*
X140362525Y-104491963D01*
X140018884Y-104267270D01*
X139785363Y-104109689D01*
X139550556Y-103942053D01*
X139325306Y-103772890D01*
X139120458Y-103610730D01*
X138946857Y-103464101D01*
X138840706Y-103365168D01*
X138946924Y-103365168D01*
X139055937Y-103456827D01*
X139268006Y-103628917D01*
X139502093Y-103806211D01*
X139767884Y-103995549D01*
X140075064Y-104203772D01*
X140433318Y-104437717D01*
X140559377Y-104518522D01*
X140796678Y-104671702D01*
X141030963Y-104825938D01*
X141249854Y-104972858D01*
X141440975Y-105104090D01*
X141591947Y-105211263D01*
X141669951Y-105269697D01*
X141789894Y-105369006D01*
X141927513Y-105491933D01*
X142072764Y-105628397D01*
X142215601Y-105768322D01*
X142345979Y-105901627D01*
X142453852Y-106018234D01*
X142529175Y-106108065D01*
X142561903Y-106161042D01*
X142562517Y-106165218D01*
X142591986Y-106195326D01*
X142617024Y-106199141D01*
X142662501Y-106183653D01*
X142661208Y-106133144D01*
X142652892Y-106117839D01*
X142942280Y-106117839D01*
X142962353Y-106162720D01*
X143030320Y-106236626D01*
X143061280Y-106266509D01*
X143230914Y-106390240D01*
X143402534Y-106441774D01*
X143574680Y-106421504D01*
X143745894Y-106329826D01*
X143914718Y-106167136D01*
X144036645Y-106002184D01*
X144108855Y-105890128D01*
X144145913Y-105817173D01*
X144151863Y-105761220D01*
X144130748Y-105700172D01*
X144102341Y-105643188D01*
X144046080Y-105559594D01*
X144024274Y-105527194D01*
X144141365Y-105527194D01*
X144170473Y-105594648D01*
X144197655Y-105622682D01*
X144220837Y-105615614D01*
X144246722Y-105563092D01*
X144282012Y-105454764D01*
X144299879Y-105394791D01*
X144337295Y-105251020D01*
X144372470Y-105086134D01*
X144403287Y-104914784D01*
X144427628Y-104751623D01*
X144443375Y-104611303D01*
X144448411Y-104508474D01*
X144440617Y-104457789D01*
X144435725Y-104454935D01*
X144417335Y-104487332D01*
X144384028Y-104574246D01*
X144340667Y-104700264D01*
X144292116Y-104849971D01*
X144243239Y-105007954D01*
X144198899Y-105158798D01*
X144163961Y-105287089D01*
X144143287Y-105377415D01*
X144141727Y-105386672D01*
X144141365Y-105527194D01*
X144024274Y-105527194D01*
X143947933Y-105413765D01*
X143888344Y-105357643D01*
X143806647Y-105280700D01*
X143969097Y-105280700D01*
X143977280Y-105305718D01*
X143993045Y-105322978D01*
X144000806Y-105329489D01*
X144046080Y-105351765D01*
X144065806Y-105322047D01*
X144081620Y-105271223D01*
X144115438Y-105164938D01*
X144162882Y-105016873D01*
X144219575Y-104840709D01*
X144244389Y-104763805D01*
X144326318Y-104492728D01*
X144381959Y-104269663D01*
X144409509Y-104102210D01*
X144412202Y-104057038D01*
X144409117Y-103949071D01*
X144396529Y-103894347D01*
X144383397Y-103893519D01*
X144362209Y-103938741D01*
X144324948Y-104040881D01*
X144275973Y-104187112D01*
X144219644Y-104364606D01*
X144186443Y-104473104D01*
X144108927Y-104730135D01*
X144050480Y-104926418D01*
X144009189Y-105070784D01*
X143983137Y-105172065D01*
X143970411Y-105239093D01*
X143969097Y-105280700D01*
X143806647Y-105280700D01*
X143742483Y-105220270D01*
X143501782Y-105074242D01*
X143241619Y-104987220D01*
X143192809Y-104978539D01*
X143092225Y-104969052D01*
X143036244Y-104985508D01*
X143000758Y-105032248D01*
X142979279Y-105086671D01*
X143006752Y-105106581D01*
X143063370Y-105109013D01*
X143278996Y-105141681D01*
X143498827Y-105232278D01*
X143704371Y-105369694D01*
X143877135Y-105542820D01*
X143945058Y-105638677D01*
X144024072Y-105766524D01*
X143938125Y-105933536D01*
X143866860Y-106039734D01*
X143818698Y-106111504D01*
X143673712Y-106240454D01*
X143662098Y-106245623D01*
X143535971Y-106301755D01*
X143515383Y-106310918D01*
X143437878Y-106321196D01*
X143366846Y-106316243D01*
X143337248Y-106314179D01*
X143255022Y-106277629D01*
X143161107Y-106197724D01*
X143153988Y-106190805D01*
X143059417Y-106109173D01*
X142994676Y-106081455D01*
X142969202Y-106087990D01*
X142963201Y-106089529D01*
X142942280Y-106117839D01*
X142652892Y-106117839D01*
X142611439Y-106041551D01*
X142546771Y-105949647D01*
X142444437Y-105825820D01*
X142301348Y-105671792D01*
X142133224Y-105503105D01*
X141955784Y-105335300D01*
X141784746Y-105183920D01*
X141708583Y-105120889D01*
X141619266Y-105052268D01*
X141483793Y-104952215D01*
X141315800Y-104830611D01*
X141128921Y-104697337D01*
X140963662Y-104581037D01*
X140648484Y-104359171D01*
X140385103Y-104170016D01*
X140164454Y-104006562D01*
X139977470Y-103861803D01*
X139815088Y-103728730D01*
X139668243Y-103600334D01*
X139535697Y-103477095D01*
X139410461Y-103359086D01*
X139327159Y-103286355D01*
X139276238Y-103252886D01*
X139248147Y-103252665D01*
X139233332Y-103279678D01*
X139231674Y-103285673D01*
X139200959Y-103340799D01*
X139133228Y-103362758D01*
X139078952Y-103364987D01*
X139035099Y-103365047D01*
X138946924Y-103365168D01*
X138840706Y-103365168D01*
X138815346Y-103341532D01*
X138749819Y-103269208D01*
X138661002Y-103197370D01*
X138594324Y-103189986D01*
X138563388Y-103200355D01*
X138560262Y-103224509D01*
X138448076Y-103224509D01*
X138424856Y-103193155D01*
X138420028Y-103182336D01*
X138452284Y-103159235D01*
X138538924Y-103120399D01*
X138553835Y-103114556D01*
X138760252Y-103114556D01*
X138763919Y-103145254D01*
X138778703Y-103174335D01*
X138838066Y-103229430D01*
X138932486Y-103268173D01*
X139035099Y-103285052D01*
X139119039Y-103274554D01*
X139150721Y-103250663D01*
X139181053Y-103149009D01*
X139148440Y-103057915D01*
X139127734Y-103037039D01*
X139079188Y-103005623D01*
X139064143Y-103005337D01*
X139041707Y-103044632D01*
X139014570Y-103092275D01*
X138962100Y-103148325D01*
X138886022Y-103153229D01*
X138806430Y-103127139D01*
X138760252Y-103114556D01*
X138553835Y-103114556D01*
X138664756Y-103071090D01*
X138814588Y-103016571D01*
X138876437Y-102995337D01*
X139209950Y-102995337D01*
X139229264Y-103035098D01*
X139282138Y-103099315D01*
X139374698Y-103196835D01*
X139511212Y-103334644D01*
X139643913Y-103465010D01*
X139773283Y-103585445D01*
X139908382Y-103703092D01*
X140058266Y-103825095D01*
X140231995Y-103958598D01*
X140438626Y-104110743D01*
X140687217Y-104288676D01*
X140986826Y-104499538D01*
X141000000Y-104508759D01*
X141199489Y-104650033D01*
X141398521Y-104793945D01*
X141581362Y-104928911D01*
X141732278Y-105043344D01*
X141817596Y-105110803D01*
X141979583Y-105251326D01*
X142159028Y-105420198D01*
X142339200Y-105600484D01*
X142503372Y-105775245D01*
X142634813Y-105927544D01*
X142674395Y-105978269D01*
X142745986Y-106055718D01*
X142800938Y-106079394D01*
X142810258Y-106076053D01*
X142840807Y-106052932D01*
X142841168Y-106051154D01*
X143143919Y-106051154D01*
X143170637Y-106094645D01*
X143233370Y-106154206D01*
X143305985Y-106208228D01*
X143362351Y-106235104D01*
X143366846Y-106235479D01*
X143392926Y-106228689D01*
X143392358Y-106195135D01*
X143364508Y-106115044D01*
X143362845Y-106110663D01*
X143308519Y-106035389D01*
X143235663Y-106017453D01*
X143166931Y-106028892D01*
X143143919Y-106051154D01*
X142841168Y-106051154D01*
X142846731Y-106023718D01*
X142822988Y-105972278D01*
X142768213Y-105888127D01*
X142889556Y-105888127D01*
X142907665Y-105945375D01*
X142969202Y-105970423D01*
X143084979Y-105966480D01*
X143132038Y-105960105D01*
X143231016Y-105942880D01*
X143268432Y-105925972D01*
X143254943Y-105901553D01*
X143233999Y-105885219D01*
X143153089Y-105852158D01*
X143043621Y-105836066D01*
X143027961Y-105835765D01*
X142927832Y-105846475D01*
X142890246Y-105880415D01*
X142889556Y-105888127D01*
X142768213Y-105888127D01*
X142764537Y-105882479D01*
X142737204Y-105842312D01*
X142627450Y-105696496D01*
X142744311Y-105696496D01*
X142770502Y-105733362D01*
X142849489Y-105758888D01*
X142971344Y-105768240D01*
X143015183Y-105767151D01*
X143140164Y-105766695D01*
X143221059Y-105784919D01*
X143285620Y-105829495D01*
X143303710Y-105846902D01*
X143372509Y-105941126D01*
X143429319Y-106060750D01*
X143437583Y-106085688D01*
X143478423Y-106182950D01*
X143523919Y-106232654D01*
X143535971Y-106235479D01*
X143570649Y-106206867D01*
X143573631Y-106133233D01*
X143548880Y-106032884D01*
X143500358Y-105924123D01*
X143452647Y-105850518D01*
X143365641Y-105756714D01*
X143270799Y-105682438D01*
X143252858Y-105672208D01*
X143142719Y-105636477D01*
X143007215Y-105620253D01*
X142877267Y-105624787D01*
X142783794Y-105651329D01*
X142780847Y-105653120D01*
X142744311Y-105696496D01*
X142627450Y-105696496D01*
X142593639Y-105651576D01*
X142504405Y-105552166D01*
X142626702Y-105552166D01*
X142631491Y-105558773D01*
X142668769Y-105585769D01*
X142727769Y-105584724D01*
X142830440Y-105555462D01*
X143026842Y-105527189D01*
X143219931Y-105569021D01*
X143398224Y-105677773D01*
X143489175Y-105774805D01*
X143571937Y-105897277D01*
X143631427Y-106019484D01*
X143652646Y-106111299D01*
X143662098Y-106151036D01*
X143701456Y-106131129D01*
X143707153Y-106126466D01*
X143755861Y-106045094D01*
X143743385Y-105930887D01*
X143669351Y-105781580D01*
X143643562Y-105742015D01*
X143486393Y-105563018D01*
X143302832Y-105451639D01*
X143093179Y-105408034D01*
X142998569Y-105409874D01*
X142825665Y-105431940D01*
X142700829Y-105465129D01*
X142631897Y-105506264D01*
X142626702Y-105552166D01*
X142504405Y-105552166D01*
X142418909Y-105456921D01*
X142370219Y-105410095D01*
X142348403Y-105389114D01*
X142457041Y-105389114D01*
X142505172Y-105414505D01*
X142601139Y-105409469D01*
X142708182Y-105381440D01*
X142966222Y-105328598D01*
X143206616Y-105344803D01*
X143423866Y-105428072D01*
X143612472Y-105576421D01*
X143749031Y-105756967D01*
X143819542Y-105862001D01*
X143866860Y-105900443D01*
X143894318Y-105873363D01*
X143904141Y-105806707D01*
X143890453Y-105742706D01*
X143854359Y-105657667D01*
X143768353Y-105539250D01*
X143640089Y-105416802D01*
X143495095Y-105312502D01*
X143400926Y-105263662D01*
X143274590Y-105229585D01*
X143115254Y-105213204D01*
X142941128Y-105213124D01*
X142770419Y-105227952D01*
X142681098Y-105244932D01*
X142621337Y-105256293D01*
X142512091Y-105296754D01*
X142466636Y-105335189D01*
X142457041Y-105389114D01*
X142348403Y-105389114D01*
X142207220Y-105253338D01*
X142185206Y-105234519D01*
X142118201Y-105177239D01*
X142271816Y-105177239D01*
X142302283Y-105234498D01*
X142370219Y-105270425D01*
X142431657Y-105268915D01*
X142464828Y-105233129D01*
X142445862Y-105188020D01*
X142389293Y-105153192D01*
X142340042Y-105145350D01*
X142283425Y-105159500D01*
X142271816Y-105177239D01*
X142118201Y-105177239D01*
X141978776Y-105058050D01*
X141952777Y-105035824D01*
X141917688Y-105008441D01*
X142071498Y-105008441D01*
X142092999Y-105038332D01*
X142113444Y-105053777D01*
X142185206Y-105082828D01*
X142251281Y-105077147D01*
X142286289Y-105042582D01*
X142283583Y-105014588D01*
X142238719Y-104968610D01*
X142216394Y-104963662D01*
X142202264Y-104966014D01*
X142140908Y-104976228D01*
X142110201Y-104986129D01*
X142071498Y-105008441D01*
X141917688Y-105008441D01*
X141675813Y-104819682D01*
X141649785Y-104799370D01*
X141598160Y-104761750D01*
X141803159Y-104761750D01*
X141806758Y-104791650D01*
X141850645Y-104840105D01*
X141888993Y-104868639D01*
X141978776Y-104917817D01*
X142026501Y-104912267D01*
X142042894Y-104847211D01*
X142042991Y-104800079D01*
X142044302Y-104788050D01*
X142133002Y-104788050D01*
X142161394Y-104863534D01*
X142202264Y-104876792D01*
X142229572Y-104836481D01*
X142329957Y-104836481D01*
X142360565Y-104973558D01*
X142440842Y-105075679D01*
X142553461Y-105136057D01*
X142681098Y-105147908D01*
X142806426Y-105104448D01*
X142873122Y-105049200D01*
X142948281Y-104922060D01*
X142959370Y-104784640D01*
X142915818Y-104678846D01*
X143017127Y-104678846D01*
X143022085Y-104725373D01*
X143038166Y-104819569D01*
X143066729Y-104868871D01*
X143128846Y-104892477D01*
X143220651Y-104906264D01*
X143344779Y-104935940D01*
X143497472Y-104990758D01*
X143639907Y-105056021D01*
X143756685Y-105115231D01*
X143844932Y-105156841D01*
X143888344Y-105173235D01*
X143890148Y-105172909D01*
X143903042Y-105136245D01*
X143931067Y-105045584D01*
X143969377Y-104916806D01*
X143992789Y-104836481D01*
X144047388Y-104652768D01*
X144114089Y-104435486D01*
X144181968Y-104219995D01*
X144211657Y-104127897D01*
X144263020Y-103962520D01*
X144304754Y-103813786D01*
X144331814Y-103700570D01*
X144339460Y-103649869D01*
X144338394Y-103596368D01*
X144318774Y-103569436D01*
X144263678Y-103562839D01*
X144194740Y-103567651D01*
X144156183Y-103570342D01*
X144130007Y-103572706D01*
X143988855Y-103575502D01*
X143970540Y-103574394D01*
X143814956Y-103564984D01*
X143636030Y-103544220D01*
X143479797Y-103516279D01*
X143389565Y-103490739D01*
X143359880Y-103508436D01*
X143328595Y-103587291D01*
X143293895Y-103732303D01*
X143284104Y-103781386D01*
X143240347Y-103963446D01*
X143180907Y-104154857D01*
X143117980Y-104316720D01*
X143112470Y-104328706D01*
X143050714Y-104472460D01*
X143020924Y-104580437D01*
X143017127Y-104678846D01*
X142915818Y-104678846D01*
X142906390Y-104655943D01*
X142873039Y-104616803D01*
X142753915Y-104540888D01*
X142623710Y-104524141D01*
X142499690Y-104559578D01*
X142399121Y-104640216D01*
X142339268Y-104759070D01*
X142329957Y-104836481D01*
X142229572Y-104836481D01*
X142236059Y-104826905D01*
X142242740Y-104793213D01*
X142249730Y-104705794D01*
X142235005Y-104674275D01*
X142189339Y-104682962D01*
X142179991Y-104686478D01*
X142135814Y-104737772D01*
X142133002Y-104788050D01*
X142044302Y-104788050D01*
X142056049Y-104680264D01*
X142110434Y-104612548D01*
X142202865Y-104585015D01*
X142318011Y-104558989D01*
X142384482Y-104523507D01*
X142397260Y-104488096D01*
X142351328Y-104462281D01*
X142271382Y-104454935D01*
X142110092Y-104483173D01*
X141992996Y-104565187D01*
X141937424Y-104661447D01*
X141894258Y-104743572D01*
X141849578Y-104766925D01*
X141846289Y-104765900D01*
X141805587Y-104761984D01*
X141803159Y-104761750D01*
X141598160Y-104761750D01*
X141371770Y-104596774D01*
X141292449Y-104538971D01*
X140963662Y-104310117D01*
X140709364Y-104134059D01*
X140893300Y-104134059D01*
X140906834Y-104157556D01*
X140970294Y-104211078D01*
X141072321Y-104285588D01*
X141150131Y-104338468D01*
X141287681Y-104424480D01*
X141371770Y-104465414D01*
X141401286Y-104461610D01*
X141375115Y-104413408D01*
X141292146Y-104321149D01*
X141272297Y-104301091D01*
X141182191Y-104231492D01*
X141071697Y-104172878D01*
X140966669Y-104136643D01*
X140893300Y-104134059D01*
X140709364Y-104134059D01*
X140648084Y-104091633D01*
X140598474Y-104056142D01*
X140475235Y-103967976D01*
X140620231Y-103967976D01*
X140659411Y-104001373D01*
X140736949Y-104033435D01*
X140849978Y-104052180D01*
X140892957Y-104054066D01*
X141089881Y-104090103D01*
X141268523Y-104188752D01*
X141414042Y-104340028D01*
X141476906Y-104446874D01*
X141537940Y-104557151D01*
X141600437Y-104642843D01*
X141632170Y-104672244D01*
X141675813Y-104694928D01*
X141690254Y-104676011D01*
X141682444Y-104601912D01*
X141679050Y-104580670D01*
X141643798Y-104462215D01*
X141583369Y-104335574D01*
X141564380Y-104304802D01*
X141471419Y-104192424D01*
X141358155Y-104090822D01*
X141333166Y-104073133D01*
X141193618Y-104002482D01*
X141026310Y-103948927D01*
X140859018Y-103918952D01*
X140821271Y-103918977D01*
X140719517Y-103919045D01*
X140694395Y-103923973D01*
X140625628Y-103945064D01*
X140620231Y-103967976D01*
X140475235Y-103967976D01*
X140385026Y-103903440D01*
X140165067Y-103737810D01*
X140112881Y-103695565D01*
X140259708Y-103695565D01*
X140260490Y-103714272D01*
X140314478Y-103759293D01*
X140345922Y-103782689D01*
X140431385Y-103832158D01*
X140522969Y-103866046D01*
X140598474Y-103878575D01*
X140635699Y-103863971D01*
X140636623Y-103858328D01*
X140608863Y-103831556D01*
X140539704Y-103783557D01*
X140514237Y-103767484D01*
X140412454Y-103717620D01*
X140319955Y-103692548D01*
X140307320Y-103691845D01*
X140259708Y-103695565D01*
X140112881Y-103695565D01*
X140000870Y-103604892D01*
X139978790Y-103587018D01*
X139887448Y-103506012D01*
X140004005Y-103506012D01*
X140018884Y-103528326D01*
X140087983Y-103570211D01*
X140159599Y-103583035D01*
X140343588Y-103608858D01*
X140522849Y-103676905D01*
X140631656Y-103747748D01*
X140723642Y-103807266D01*
X140810608Y-103836562D01*
X140821271Y-103837196D01*
X140870485Y-103834287D01*
X140877206Y-103815818D01*
X140838423Y-103767177D01*
X140797857Y-103723601D01*
X140691417Y-103632066D01*
X140566925Y-103553118D01*
X140545779Y-103542711D01*
X140497885Y-103527989D01*
X140392428Y-103495572D01*
X140240153Y-103478444D01*
X140209077Y-103474948D01*
X140187038Y-103474618D01*
X140069902Y-103476413D01*
X140013009Y-103485563D01*
X140004005Y-103506012D01*
X139887448Y-103506012D01*
X139816774Y-103443336D01*
X139669601Y-103299037D01*
X139581288Y-103203937D01*
X139704919Y-103203937D01*
X139727308Y-103249937D01*
X139783951Y-103308288D01*
X139859287Y-103362185D01*
X139937170Y-103395355D01*
X140000870Y-103405420D01*
X140033658Y-103390002D01*
X140018803Y-103346725D01*
X140014249Y-103341009D01*
X139947021Y-103286057D01*
X139850725Y-103233457D01*
X139842352Y-103229867D01*
X139743615Y-103196781D01*
X139704919Y-103203937D01*
X139581288Y-103203937D01*
X139527852Y-103146394D01*
X139482628Y-103095129D01*
X139394715Y-102999321D01*
X139388278Y-102994163D01*
X139510157Y-102994163D01*
X139542441Y-103056025D01*
X139623308Y-103099165D01*
X139700917Y-103110443D01*
X139860923Y-103144508D01*
X140018717Y-103240826D01*
X140088809Y-103306848D01*
X140164604Y-103367797D01*
X140240153Y-103399176D01*
X140294781Y-103395445D01*
X140309585Y-103366018D01*
X140285790Y-103321807D01*
X140225211Y-103248559D01*
X140182682Y-103203989D01*
X140030702Y-103091316D01*
X139867217Y-103021090D01*
X139712377Y-102982201D01*
X139594034Y-102966586D01*
X139524068Y-102975139D01*
X139510157Y-102994163D01*
X139388278Y-102994163D01*
X139334865Y-102951361D01*
X139286836Y-102941487D01*
X139247488Y-102953784D01*
X139218067Y-102971182D01*
X139209950Y-102995337D01*
X138876437Y-102995337D01*
X138973229Y-102962106D01*
X139125487Y-102912956D01*
X139256170Y-102874384D01*
X139271433Y-102870690D01*
X139658085Y-102870690D01*
X139853032Y-102931007D01*
X140080182Y-103024879D01*
X140252449Y-103152605D01*
X140366556Y-103296037D01*
X140444536Y-103403742D01*
X140497885Y-103443637D01*
X140524675Y-103416948D01*
X140522981Y-103324903D01*
X140501077Y-103210372D01*
X140471368Y-103026353D01*
X140466889Y-102917401D01*
X140552219Y-102917401D01*
X140561210Y-103072877D01*
X140581200Y-103218198D01*
X140597522Y-103288852D01*
X140662717Y-103431023D01*
X140772594Y-103583180D01*
X140908826Y-103726085D01*
X141053088Y-103840499D01*
X141186304Y-103906961D01*
X141334494Y-103979934D01*
X141484833Y-104100784D01*
X141616561Y-104248417D01*
X141708919Y-104401738D01*
X141730055Y-104459467D01*
X141770850Y-104585542D01*
X141805587Y-104644634D01*
X141840469Y-104641394D01*
X141881701Y-104580472D01*
X141884454Y-104575198D01*
X141953364Y-104485359D01*
X142034606Y-104425672D01*
X142133524Y-104396572D01*
X142249181Y-104384032D01*
X142355348Y-104388374D01*
X142425796Y-104409922D01*
X142436651Y-104420725D01*
X142486249Y-104441970D01*
X142562213Y-104436834D01*
X142674041Y-104436646D01*
X142797270Y-104470160D01*
X142930539Y-104525843D01*
X143038628Y-104294862D01*
X143157209Y-103974391D01*
X143228921Y-103630783D01*
X143250899Y-103286429D01*
X143220277Y-102963720D01*
X143213356Y-102929483D01*
X143161342Y-102772181D01*
X143084297Y-102642946D01*
X142993733Y-102556945D01*
X142909395Y-102529041D01*
X142824365Y-102551064D01*
X142730893Y-102604470D01*
X142725753Y-102608432D01*
X142624824Y-102687822D01*
X142540907Y-102590263D01*
X142474850Y-102524931D01*
X142423463Y-102493262D01*
X142418910Y-102492704D01*
X142390932Y-102524760D01*
X142382320Y-102609365D01*
X142392531Y-102729172D01*
X142421023Y-102866832D01*
X142431793Y-102904856D01*
X142458931Y-103026486D01*
X142447362Y-103088653D01*
X142395225Y-103094537D01*
X142336158Y-103068291D01*
X142284567Y-103033236D01*
X142296180Y-103014549D01*
X142311755Y-103010496D01*
X142340207Y-102998045D01*
X142351153Y-102966078D01*
X142344482Y-102899100D01*
X142320082Y-102781620D01*
X142309785Y-102736374D01*
X142277078Y-102602118D01*
X142250152Y-102524797D01*
X142220505Y-102490092D01*
X142179632Y-102483679D01*
X142160833Y-102485502D01*
X142053128Y-102495318D01*
X141990200Y-102498430D01*
X141929792Y-102515393D01*
X141909245Y-102575969D01*
X141908440Y-102603416D01*
X141920043Y-102685891D01*
X141944778Y-102728898D01*
X141979158Y-102778060D01*
X141941869Y-102838831D01*
X141893040Y-102875776D01*
X141826023Y-102911545D01*
X141767364Y-102909271D01*
X141691995Y-102875066D01*
X141622889Y-102827831D01*
X141598706Y-102787028D01*
X141600588Y-102781759D01*
X141647940Y-102767096D01*
X141690231Y-102783306D01*
X141788688Y-102820439D01*
X141847476Y-102810040D01*
X141857707Y-102754584D01*
X141853037Y-102737983D01*
X141836608Y-102656693D01*
X141823676Y-102534653D01*
X141818766Y-102444238D01*
X141814900Y-102343035D01*
X141804999Y-102268675D01*
X141780677Y-102220796D01*
X141733549Y-102199035D01*
X141655232Y-102203031D01*
X141537341Y-102232422D01*
X141371491Y-102286845D01*
X141149297Y-102365938D01*
X141027122Y-102410050D01*
X140867017Y-102470192D01*
X140730438Y-102525865D01*
X140633128Y-102570372D01*
X140592673Y-102594794D01*
X140567808Y-102657883D01*
X140554371Y-102772244D01*
X140552219Y-102917401D01*
X140466889Y-102917401D01*
X140463886Y-102844342D01*
X140467288Y-102789490D01*
X140474292Y-102672277D01*
X140464312Y-102617205D01*
X140443535Y-102611895D01*
X140392790Y-102629338D01*
X140289322Y-102663841D01*
X140149517Y-102709967D01*
X140029257Y-102749380D01*
X139658085Y-102870690D01*
X139271433Y-102870690D01*
X139350086Y-102851654D01*
X139385307Y-102847940D01*
X139440354Y-102838337D01*
X139553500Y-102808072D01*
X139714271Y-102760555D01*
X139912190Y-102699193D01*
X140136785Y-102627395D01*
X140377579Y-102548567D01*
X140624099Y-102466118D01*
X140865868Y-102383457D01*
X141092413Y-102303990D01*
X141293258Y-102231126D01*
X141371966Y-102201589D01*
X141562893Y-102136567D01*
X141700811Y-102110124D01*
X141795116Y-102123587D01*
G37*
G36*
X140909155Y-102892418D02*
G01*
X140959685Y-102921445D01*
X141013045Y-102928755D01*
X141096418Y-102943902D01*
X141147805Y-102996830D01*
X141172886Y-103098772D01*
X141177472Y-103253977D01*
X141172870Y-103389411D01*
X141165107Y-103503755D01*
X141157176Y-103564664D01*
X141131628Y-103668225D01*
X141108648Y-103712272D01*
X141077587Y-103708757D01*
X141052953Y-103690337D01*
X141048293Y-103686853D01*
X140966726Y-103585474D01*
X140895294Y-103436074D01*
X140879518Y-103383851D01*
X140967942Y-103383851D01*
X140998121Y-103472878D01*
X141008308Y-103495712D01*
X141052953Y-103593698D01*
X141077361Y-103506506D01*
X141101241Y-103400653D01*
X141093882Y-103346608D01*
X141051740Y-103328988D01*
X141036337Y-103328469D01*
X141011886Y-103333518D01*
X140979943Y-103340114D01*
X140967942Y-103383851D01*
X140879518Y-103383851D01*
X140843101Y-103263302D01*
X140835387Y-103207838D01*
X140907936Y-103207838D01*
X140956533Y-103237905D01*
X141011886Y-103249123D01*
X141089960Y-103242497D01*
X141109012Y-103208916D01*
X141076630Y-103169322D01*
X141000092Y-103161081D01*
X140921787Y-103177240D01*
X140907936Y-103207838D01*
X140835387Y-103207838D01*
X140819248Y-103091807D01*
X140818666Y-103065021D01*
X140826345Y-102934289D01*
X140848458Y-102864733D01*
X140882807Y-102860549D01*
X140909155Y-102892418D01*
G37*
G36*
X142696100Y-104652178D02*
G01*
X142741722Y-104688883D01*
X142806682Y-104786074D01*
X142805813Y-104887656D01*
X142740089Y-104975249D01*
X142726037Y-104985173D01*
X142655564Y-105023356D01*
X142613369Y-105019050D01*
X142599929Y-105017678D01*
X142542155Y-104983735D01*
X142470660Y-104902359D01*
X142463727Y-104827506D01*
X142533076Y-104827506D01*
X142550102Y-104890199D01*
X142613369Y-104922256D01*
X142692385Y-104913153D01*
X142738211Y-104869801D01*
X142731270Y-104814440D01*
X142681214Y-104772280D01*
X142635193Y-104763805D01*
X142556513Y-104787291D01*
X142533076Y-104827506D01*
X142463727Y-104827506D01*
X142461803Y-104806730D01*
X142513876Y-104716381D01*
X142569119Y-104675313D01*
X142643567Y-104641639D01*
X142696100Y-104652178D01*
G37*
G36*
X139607675Y-103657565D02*
G01*
X139619170Y-103691845D01*
X139592700Y-103738450D01*
X139579666Y-103748309D01*
X139524248Y-103752554D01*
X139487068Y-103714108D01*
X139491558Y-103661374D01*
X139499723Y-103651406D01*
X139557024Y-103631062D01*
X139607675Y-103657565D01*
G37*
G36*
X139230772Y-105626956D02*
G01*
X139255794Y-105670101D01*
X139238367Y-105728863D01*
X139226805Y-105740379D01*
X139174498Y-105741896D01*
X139130309Y-105706481D01*
X139125298Y-105659500D01*
X139126101Y-105658140D01*
X139176124Y-105621513D01*
X139230772Y-105626956D01*
G37*
G36*
X139416365Y-103480806D02*
G01*
X139428670Y-103532962D01*
X139414014Y-103557850D01*
X139355874Y-103584099D01*
X139308323Y-103563651D01*
X139299049Y-103519242D01*
X139333675Y-103465183D01*
X139362276Y-103455651D01*
X139416365Y-103480806D01*
G37*
G36*
X139811245Y-103805677D02*
G01*
X139837196Y-103835051D01*
X139810782Y-103884265D01*
X139800858Y-103891702D01*
X139746968Y-103898811D01*
X139709160Y-103869973D01*
X139711566Y-103834685D01*
X139756595Y-103805251D01*
X139811245Y-103805677D01*
G37*
D11*
%TO.C,LSP2*%
X139625604Y-109495600D02*
X139625604Y-110511600D01*
X139625604Y-109495600D02*
X140514604Y-108606600D01*
X140514604Y-108606600D02*
X141530604Y-108606600D01*
X140514604Y-111400600D02*
X139625604Y-110511600D01*
X141530604Y-108606600D02*
X142419604Y-109495600D01*
X141530604Y-111400600D02*
X140514604Y-111400600D01*
X141530604Y-111400600D02*
X142419604Y-110511600D01*
X142419604Y-109495600D02*
X142419604Y-110511600D01*
%TO.C,LSP1*%
X139625604Y-99495600D02*
X139625604Y-100511600D01*
X139625604Y-99495600D02*
X140514604Y-98606600D01*
X140514604Y-98606600D02*
X141530604Y-98606600D01*
X140514604Y-101400600D02*
X139625604Y-100511600D01*
X141530604Y-98606600D02*
X142419604Y-99495600D01*
X141530604Y-101400600D02*
X140514604Y-101400600D01*
X141530604Y-101400600D02*
X142419604Y-100511600D01*
X142419604Y-99495600D02*
X142419604Y-100511600D01*
%TD*%
%LPC*%
D12*
%TO.C,TP1*%
X161022604Y-106503600D03*
%TD*%
%TO.C,TP2*%
X161022604Y-103503600D03*
%TD*%
D13*
%TO.C,H1*%
X154022604Y-105003600D03*
%TD*%
D14*
%TO.C,LSP2*%
X141022604Y-110003600D03*
%TD*%
%TO.C,LSP1*%
X141022604Y-100003600D03*
%TD*%
%LPD*%
M02*
